<?xml version="1.0" encoding="UTF-8"?>
<svg version="1.1" xmlns="http://www.w3.org/2000/svg" width="512" height="512">
<path d="M0 0 C1.15628906 -0.04898438 2.31257813 -0.09796875 3.50390625 -0.1484375 C15.56445565 1.45644196 23.13243147 10.35433583 31.26904297 18.55957031 C32.63243876 19.91618168 33.9968939 21.27172909 35.36231995 22.626297 C39.04922224 26.29050019 42.72024704 29.97022809 46.38785696 33.65372944 C50.23683697 37.51541441 54.09805419 41.36483304 57.95730591 45.21624756 C64.43368122 51.68354082 70.89947563 58.16127205 77.359375 64.64501953 C84.81866432 72.13152854 92.29581051 79.59983971 99.78246391 87.05897641 C106.22163782 93.47543302 112.65098251 99.90161644 119.07226861 106.33597445 C122.90237087 110.17385521 126.73573176 114.00831726 130.57799911 117.83402252 C134.18946821 121.43100785 137.78840969 125.0400826 141.37820244 128.65869713 C142.69447719 129.98156116 144.01498461 131.30022965 145.34007835 132.61425972 C159.37136394 146.53918642 159.37136394 146.53918642 160.96875 156.78125 C160.9584375 157.8021875 160.948125 158.823125 160.9375 159.875 C160.9478125 160.8959375 160.958125 161.916875 160.96875 162.96875 C159.62931739 171.55687674 155.28166374 177.26006683 149.19042969 183.18969727 C148.1069072 184.27431496 148.1069072 184.27431496 147.00149536 185.38084412 C144.63245559 187.74642566 142.24625763 190.09384132 139.859375 192.44140625 C138.20490234 194.08654463 136.55153675 195.73279702 134.89923096 197.38011169 C130.56354927 201.69677261 126.21306026 205.99820147 121.85925293 210.29656982 C117.41270432 214.6918207 112.98041053 219.10139552 108.546875 223.50976562 C99.8575967 232.14554295 91.15259879 240.76528648 82.4375 249.375 C83.90696897 252.4704258 85.34158667 254.4290665 87.875 256.75 C93.64873581 262.46359273 94.77357147 267.10315032 95.12890625 275.08203125 C93.30728041 283.75791025 85.90346757 290.34138699 79.8243103 296.36914062 C78.97010455 297.22802635 78.11589879 298.08691208 77.23580801 298.97182465 C74.8835489 301.3339218 72.52482082 303.68918724 70.16298699 306.04168701 C67.60937449 308.58847688 65.06445321 311.14392759 62.51837158 313.69824219 C57.53636769 318.69355318 52.54632694 323.68075942 47.55331294 328.6650629 C43.49197452 332.71961099 39.4335922 336.77709622 35.37727737 340.83666992 C34.79872913 341.41567787 34.22018088 341.99468581 33.62410087 342.59123945 C32.44856217 343.76773739 31.27303018 344.94424203 30.09750481 346.12075329 C19.08519067 357.14161307 8.06371659 368.15327543 -2.9609348 379.1617918 C-12.40283343 388.59029868 -21.83685406 398.02662816 -31.26513672 407.46875 C-42.23109172 418.45079385 -53.20194145 429.42791009 -64.18053949 440.39731598 C-65.3534935 441.56931442 -66.52644129 442.7413191 -67.69938278 443.91333008 C-68.27638747 444.48987194 -68.85339215 445.06641379 -69.44788183 445.66042662 C-73.49668488 449.70664888 -77.54201585 453.75632223 -81.58598709 457.80737305 C-86.52254431 462.75238273 -91.46448975 467.69193278 -96.41321881 472.62476254 C-98.93388996 475.13759945 -101.45219664 477.6526822 -103.9639473 480.17443848 C-129.21386219 505.51646315 -129.21386219 505.51646315 -140.5625 509.375 C-141.614375 509.74625 -142.66625 510.1175 -143.75 510.5 C-157.83650439 514.88246803 -174.40714343 513.69381633 -187.44140625 506.8671875 C-200.36309379 499.13933542 -210.65555218 487.41082038 -221.1875 476.8125 C-222.58700423 475.40796858 -223.98674213 474.00366994 -225.38671875 472.59960938 C-228.78134285 469.19408122 -232.17279906 465.78542818 -235.5625 462.375 C-239.58997937 465.75238607 -243.46150323 469.16079936 -247.0859375 472.9765625 C-247.88 473.79640625 -248.6740625 474.61625 -249.4921875 475.4609375 C-251.12255797 477.15381419 -252.74498787 478.85437426 -254.359375 480.5625 C-261.2334561 487.61455084 -267.89292387 491.84777477 -277.890625 492.46875 C-287.35223416 492.13676371 -293.99586217 488.7248617 -301.5625 483.375 C-302.21847168 484.0362085 -302.87444336 484.69741699 -303.55029297 485.37866211 C-305.98221036 487.82760853 -308.41635365 490.27429753 -310.85205078 492.71948242 C-311.9063403 493.77880474 -312.95973109 494.83902229 -314.01220703 495.90014648 C-315.52401857 497.42406961 -317.03901902 498.94475784 -318.5546875 500.46484375 C-319.46589355 501.38128662 -320.37709961 502.29772949 -321.31591797 503.24194336 C-324.90740384 506.65194249 -327.45006786 506.72921229 -332.24609375 506.64453125 C-335.9636926 506.21196073 -337.84385048 504.9039763 -340.5625 502.375 C-343.27331414 498.58807479 -344.62552378 495.81279683 -344.41845703 491.08886719 C-343.41571248 486.7381113 -341.58362277 484.61427803 -338.43359375 481.66015625 C-337.66995262 480.90924965 -337.66995262 480.90924965 -336.8908844 480.14317322 C-335.27420934 478.55987384 -333.6378934 476.99880906 -332 475.4375 C-330.89511455 474.36273454 -329.79158308 473.2865753 -328.68945312 472.20898438 C-325.9958667 469.58127097 -323.28447001 466.97328734 -320.5625 464.375 C-321.04460937 463.65054687 -321.52671875 462.92609375 -322.0234375 462.1796875 C-322.97089844 460.72949219 -322.97089844 460.72949219 -323.9375 459.25 C-324.56398438 458.29867188 -325.19046875 457.34734375 -325.8359375 456.3671875 C-330.19942079 448.80513275 -331.06679386 440.28408246 -328.91015625 431.8125 C-325.0173925 422.18918705 -316.34819106 415.02252508 -309.125 407.875 C-308.29806641 407.05257813 -307.47113281 406.23015625 -306.61914062 405.3828125 C-304.60255041 403.37787887 -302.58364764 401.37533747 -300.5625 399.375 C-301.92664887 396.3101942 -303.45953901 394.24726226 -305.85961914 391.91430664 C-306.53114517 391.25584244 -307.2026712 390.59737823 -307.89454651 389.91896057 C-308.62157272 389.21480515 -309.34859894 388.51064972 -310.09765625 387.78515625 C-311.64547396 386.26266626 -313.19298997 384.73986949 -314.74023438 383.21679688 C-317.16940142 380.83688123 -319.60159255 378.46025902 -322.03979492 376.08959961 C-337.2093311 361.31399679 -351.244018 347.2126277 -352.09863281 324.85302734 C-352.30038994 304.93511493 -344.81005529 292.08516648 -331.3478179 278.06922817 C-329.06635631 275.74573746 -326.76934056 273.4388885 -324.46551514 271.13757324 C-323.59564004 270.26472703 -322.72576495 269.39188081 -321.82953 268.49258471 C-319.44416624 266.10011207 -317.05663843 263.70983949 -314.66809082 261.32054806 C-312.08150522 258.73209388 -309.49776677 256.14080007 -306.91360474 253.54992676 C-301.28036805 247.90318765 -295.64342738 242.26015611 -290.0056448 236.61795616 C-286.48346886 233.09300807 -282.96202686 229.56732739 -279.44071198 226.04151917 C-269.68167499 216.27030776 -259.92170525 206.50003016 -250.1582756 196.7332077 C-249.53521592 196.10992845 -248.91215623 195.48664919 -248.27021594 194.84448269 C-247.64573717 194.21978564 -247.02125839 193.59508858 -246.37785602 192.95146132 C-245.11257954 191.68574139 -243.84730462 190.4200199 -242.58203125 189.15429688 C-241.95442198 188.52646618 -241.32681272 187.89863548 -240.68018499 187.25177962 C-230.48741145 177.05504916 -220.30142187 166.85157028 -210.1182979 156.64520401 C-199.65178744 146.15499777 -189.17967754 135.67040886 -178.70189595 125.19146013 C-172.82344213 119.31208938 -166.94743236 113.43032111 -161.07759857 107.54234314 C-156.08616557 102.53553425 -151.08965502 97.53386386 -146.08639237 92.53887504 C-143.53410253 89.99049851 -140.98431588 87.43974168 -138.44099045 84.88241577 C-135.68592786 82.11232546 -132.91937169 79.35390287 -130.15155029 76.59655762 C-128.94528366 75.37820638 -128.94528366 75.37820638 -127.71464801 74.13524199 C-126.60032079 73.03079953 -126.60032079 73.03079953 -125.4634819 71.9040451 C-124.82625348 71.26621959 -124.18902505 70.62839408 -123.53248668 69.97124052 C-118.90063849 66.21814724 -114.10228579 65.87624286 -108.33984375 66 C-100.69233916 67.03257446 -95.59869343 72.98902135 -90.5625 78.375 C-85.75069364 74.36752591 -81.23124364 70.17268392 -76.83618164 65.71459961 C-76.20427414 65.07801926 -75.57236664 64.4414389 -74.92131042 63.78556824 C-73.56112477 62.4149506 -72.20204614 61.04323362 -70.84398079 59.67051506 C-68.68945051 57.49379604 -66.5308337 55.32120834 -64.37095642 53.14979553 C-58.2342845 46.97968366 -52.1018155 40.80544337 -45.97973633 34.62084961 C-42.22397612 30.82732584 -38.46084165 27.04125106 -34.69296074 23.25976753 C-33.26492303 21.82370926 -31.83966022 20.38488577 -30.41731453 18.94318962 C-28.4245433 16.9237729 -26.42249826 14.91398633 -24.41821289 12.90600586 C-23.84082367 12.31625977 -23.26343445 11.72651367 -22.66854858 11.11889648 C-15.98451351 4.46705292 -9.60348009 0.27408395 0 0 Z M-4.3145752 24.44667053 C-5.02134903 25.08915804 -5.72812286 25.73164555 -6.45631409 26.39360237 C-9.53337833 29.28835528 -12.55117753 32.23195465 -15.52929688 35.22827148 C-16.17420074 35.87302933 -16.81910461 36.51778717 -17.48355103 37.18208313 C-19.58516713 39.28438818 -21.6832327 41.39019777 -23.78125 43.49609375 C-25.249333 44.96604456 -26.71763897 46.43577272 -28.18615723 47.9052887 C-32.02863136 51.75155945 -35.8680914 55.60082506 -39.70690918 59.45074463 C-43.63350211 63.3876134 -47.56296906 67.32161131 -51.4921875 71.25585938 C-59.18509043 78.95944922 -66.87480887 86.66620935 -74.5625 94.375 C-73.71606901 95.42296218 -72.85973808 96.46292692 -72 97.5 C-71.52433594 98.08007812 -71.04867188 98.66015625 -70.55859375 99.2578125 C-67.78790048 102.19659088 -64.62910344 104.74648276 -61.5625 107.375 C-37.1425 82.955 -12.7225 58.535 12.4375 33.375 C10.64885777 29.79771554 9.25382373 27.89420822 6.5 25.125 C5.46552734 24.06539062 5.46552734 24.06539062 4.41015625 22.984375 C0.71515491 19.96983926 -1.22911374 21.63386997 -4.3145752 24.44667053 Z M23.03571892 46.53068542 C22.49186106 47.07638687 21.9480032 47.62208832 21.38766479 48.18432617 C20.76226807 48.80697357 20.13687134 49.42962097 19.49252319 50.07113647 C18.46537704 51.10906845 18.46537704 51.10906845 17.41748047 52.16796875 C16.69542419 52.88973297 15.97336792 53.61149719 15.22943115 54.35513306 C12.83308184 56.75288079 10.44390282 59.15764528 8.0546875 61.5625 C6.39888302 63.22203279 4.74263775 64.88112589 3.08596802 66.53979492 C-1.28158526 70.91499902 -5.64310046 75.29617516 -10.00341797 79.67858887 C-14.45049552 84.14609369 -18.90321213 88.6079701 -23.35546875 93.0703125 C-32.09669869 101.83301789 -40.83156511 110.60203769 -49.5625 119.375 C-45.01811817 124.82423017 -40.19784863 129.87683857 -35.17041016 134.88061523 C-34.35023407 135.70093735 -33.53005798 136.52125946 -32.68502808 137.36643982 C-29.99290493 140.0578703 -27.29726475 142.74574847 -24.6015625 145.43359375 C-22.72661824 147.30667153 -20.85187215 149.17994556 -18.97738647 151.05348206 C-14.55968043 155.46809132 -10.13943357 159.88014725 -5.71824777 164.29127127 C-0.68114834 169.31715801 4.35308098 174.34591548 9.38708186 179.37490547 C19.73405065 189.71144733 30.08458466 200.04441416 40.4375 210.375 C45.341476 206.26090566 49.96285807 201.98972792 54.47436523 197.45166016 C55.13863022 196.7875412 55.8028952 196.12342224 56.48728943 195.43917847 C58.65927269 193.26650441 60.82770279 191.09032128 62.99609375 188.9140625 C64.51044682 187.39784228 66.02502237 185.88184424 67.53981018 184.36605835 C71.50888372 180.39318297 75.47494381 176.41731269 79.44036865 172.4407959 C83.49422562 168.37667446 87.55094637 164.31541378 91.60742188 160.25390625 C99.55357526 152.29705673 107.49654577 144.33703806 115.4375 136.375 C114.03057782 133.19155192 112.36126029 131.04769697 109.90759277 128.59112549 C109.17570236 127.85359543 108.44381195 127.11606537 107.68974304 126.35618591 C106.88656143 125.55705276 106.08337982 124.75791962 105.25585938 123.93457031 C104.41021927 123.08542557 103.56457916 122.23628082 102.6933136 121.36140442 C100.37687607 119.03767643 98.05599891 116.71850231 95.73274422 114.40159321 C93.30300505 111.97691945 90.87815142 109.54736776 88.45251465 107.11859131 C84.38062607 103.04306606 80.30454242 98.97177216 76.22607422 94.90283203 C71.5064265 90.19408289 66.79404675 85.47815217 62.08534956 80.75845456 C58.04397529 76.70801631 53.99873155 72.66147359 49.95020342 68.61818576 C47.5313465 66.20245157 45.11387242 63.78537522 42.69987488 61.36478424 C40.01109241 58.67095065 37.31603078 55.98356483 34.61914062 53.29785156 C33.81595901 52.49062149 33.0127774 51.68339142 32.18525696 50.85169983 C31.08742134 49.76232368 31.08742134 49.76232368 29.96740723 48.65093994 C29.33028053 48.0145673 28.69315384 47.37819466 28.03672028 46.72253799 C25.98524429 44.99391944 25.13835773 44.79718433 23.03571892 46.53068542 Z M-115.00087452 92.67915344 C-116.11310579 93.78469794 -116.11310579 93.78469794 -117.24780637 94.91257668 C-118.07093704 95.7358917 -118.8940677 96.55920673 -119.74214172 97.4074707 C-120.60997054 98.27162283 -121.47779935 99.13577496 -122.37192601 100.02611351 C-124.79232863 102.43736414 -127.21043327 104.85087871 -129.62758625 107.26538444 C-132.23055218 109.86445676 -134.83635596 112.46068131 -137.44174194 115.05732727 C-143.74072595 121.33651591 -150.03483319 127.62058216 -156.32837108 133.90522861 C-159.29073614 136.86321416 -162.2535949 139.82070509 -165.21639061 142.77825928 C-175.0638562 152.60870642 -184.91005888 162.4404159 -194.75263691 172.27575684 C-197.3089589 174.83016884 -199.86528605 177.38457568 -202.42163086 179.93896484 C-203.37471016 180.89131854 -203.37471016 180.89131854 -204.3470436 181.8629117 C-214.63536422 192.14293578 -224.93217137 202.4144151 -235.23257623 212.68232954 C-245.80347368 223.22015451 -256.3668251 233.76549593 -266.92279691 244.31827259 C-272.85135992 250.24467024 -278.78317387 256.16773215 -284.72341347 262.08242798 C-289.78386357 267.12116821 -294.83742916 272.16668755 -299.88217322 277.22115451 C-302.45581546 279.79934113 -305.03256814 282.37419988 -307.6181736 284.94039345 C-310.42365923 287.72499812 -313.21343656 290.52501173 -316.00190735 293.32666016 C-316.81834585 294.13212941 -317.63478435 294.93759867 -318.47596341 295.76747608 C-325.91861947 303.29536331 -329.87725608 311.11141449 -330.875 321.6875 C-329.46920729 338.27585402 -319.57790292 347.80655216 -308.37207031 358.96948242 C-307.02720924 360.3200537 -305.68297765 361.67125205 -304.33932495 363.02302551 C-300.70570529 366.67451868 -297.06265956 370.31646494 -293.41723728 373.9561708 C-290.36780558 377.00250255 -287.32299004 380.05342754 -284.27812457 383.10432225 C-277.09197529 390.3044958 -269.898082 397.49686593 -262.69921875 404.68432617 C-255.28709285 412.08497009 -247.88783987 419.49830589 -240.4948647 426.91807669 C-234.13248152 433.30265027 -227.76232975 439.67939856 -221.38591075 446.04995424 C-217.58401084 449.84849174 -213.78503044 453.64983269 -209.99344635 457.45866966 C-206.42696758 461.04066882 -202.85083045 464.61274229 -199.26721573 468.17759514 C-197.95853134 469.48260794 -196.65319878 470.7909926 -195.35161209 472.10308456 C-185.38490411 482.14403184 -176.06748901 491.03601186 -161.1875 491.6875 C-147.29971815 491.28184314 -137.88374723 483.16069691 -128.54576111 473.71902466 C-127.68460884 472.86043567 -126.82345657 472.00184667 -125.93620878 471.11723983 C-123.56812299 468.75321648 -121.20689848 466.38271054 -118.84842455 464.00912142 C-116.29574192 461.44341092 -113.73431973 458.88645044 -111.17398071 456.3283844 C-106.74606395 451.90203613 -102.32364709 447.47025458 -97.90498161 443.03467178 C-91.51643154 436.62167851 -85.11955464 430.2170441 -78.7206542 423.81438039 C-68.33759089 413.42476094 -57.96123646 403.02846807 -47.58911133 392.62792969 C-37.51711861 382.52837473 -27.44196108 372.43199422 -17.36254883 362.33984375 C-16.74063126 361.71713802 -16.1187137 361.09443228 -15.47795015 360.45285667 C-12.35776669 357.32875793 -9.23752109 354.20472125 -6.1172446 351.08071542 C19.74397632 325.18842464 45.59430553 299.28528245 71.4375 273.375 C70.10895285 270.42998542 68.66386869 268.35157087 66.38307095 266.07168198 C65.43750604 265.11921888 65.43750604 265.11921888 64.47283882 264.1475141 C63.77897593 263.45879478 63.08511304 262.77007545 62.370224 262.06048584 C61.63418129 261.32202872 60.89813858 260.58357159 60.13979155 259.82273698 C57.66556205 257.34285955 55.18423151 254.87021147 52.70288086 252.39746094 C50.93040926 250.62391676 49.15837062 248.84993979 47.38673401 247.07556152 C43.06975108 242.75422862 38.74814291 238.43756882 34.42436164 234.12303945 C29.39300564 229.10206343 24.3668768 224.07586855 19.34095187 219.0494571 C10.37716349 210.08516812 1.40855249 201.12571961 -7.56274414 192.16894531 C-16.27633774 183.46944967 -24.9864107 174.76644908 -33.69262695 166.05957031 C-34.22919531 165.522962 -34.76576366 164.98635369 -35.31859166 164.43348452 C-35.85421585 163.89781998 -36.38984005 163.36215543 -36.94169527 162.81025863 C-46.84450193 152.90676301 -56.7505911 143.00655658 -66.65822088 133.10788624 C-70.16711432 129.60201459 -73.67502546 126.09516185 -77.18263435 122.58800507 C-81.89718052 117.8742103 -86.61450501 113.16320834 -91.33371925 108.4540863 C-93.07089611 106.71984327 -94.8072144 104.98473976 -96.54263687 103.24874115 C-98.90019125 100.89070008 -101.26077121 98.53573203 -103.62220764 96.18157959 C-104.31830125 95.48393738 -105.01439487 94.78629516 -105.73158222 94.06751227 C-106.35935108 93.44296787 -106.98711993 92.81842346 -107.63391209 92.17495346 C-108.1792455 91.63032448 -108.72457891 91.08569549 -109.28643757 90.5245626 C-111.87396322 88.193546 -112.89366526 90.577792 -115.00087452 92.67915344 Z M126.03571892 149.53068542 C125.49186106 150.07638687 124.9480032 150.62208832 124.38766479 151.18432617 C123.76226807 151.80697357 123.13687134 152.42962097 122.49252319 153.07113647 C121.46537704 154.10906845 121.46537704 154.10906845 120.41748047 155.16796875 C119.69542419 155.88973297 118.97336792 156.61149719 118.22943115 157.35513306 C115.83308184 159.75288079 113.44390282 162.15764528 111.0546875 164.5625 C109.39888302 166.22203279 107.74263775 167.88112589 106.08596802 169.53979492 C101.71841474 173.91499902 97.35689954 178.29617516 92.99658203 182.67858887 C88.54950448 187.14609369 84.09678787 191.6079701 79.64453125 196.0703125 C70.90330131 204.83301789 62.16843489 213.60203769 53.4375 222.375 C54.37627926 223.4815941 55.31670916 224.58678799 56.2578125 225.69140625 C56.78133301 226.30701416 57.30485352 226.92262207 57.84423828 227.55688477 C59.9390791 229.94736585 62.15722471 232.16179163 64.4375 234.375 C67.30808036 233.07094591 69.38480394 231.6819003 71.62068176 229.4659729 C72.5272049 228.57441246 72.5272049 228.57441246 73.45204163 227.6648407 C74.103134 227.01441299 74.75422638 226.36398529 75.42504883 225.69384766 C76.11974274 225.00747726 76.81443665 224.32110687 77.53018188 223.61393738 C79.82377807 221.34443016 82.1096483 219.06733978 84.39453125 216.7890625 C85.98296969 215.20958769 87.57148698 213.63019218 89.16007996 212.0508728 C92.4866754 208.74076444 95.80885365 205.42628936 99.12866211 202.109375 C103.39216025 197.85127549 107.6715956 193.60958386 111.95512867 189.3716526 C115.23966801 186.11678129 118.51297033 182.85078803 121.78320885 179.58155441 C123.35686694 178.01211515 124.9346656 176.44681662 126.51658058 174.88570023 C128.72196704 172.70702728 130.91115674 170.51327222 133.09692383 168.31494141 C133.75813736 167.66856216 134.41935089 167.02218292 135.1006012 166.35621643 C135.69085083 165.75620316 136.28110046 165.15618988 136.88923645 164.53799438 C137.40854138 164.02070078 137.92784632 163.50340717 138.46288776 162.970438 C139.64926097 161.39166596 139.64926097 161.39166596 139.22152233 159.32477379 C138.07123279 156.46413538 136.19078435 154.77021603 134 152.625 C133.19691406 151.82578125 132.39382813 151.0265625 131.56640625 150.203125 C128.86007593 147.86631288 128.86007593 147.86631288 126.03571892 149.53068542 Z " fill="#000000" transform="translate(351.5625,-0.375)"/>
<path d="M0 0 C4.32504836 1.65863505 7.09418825 4.871041 10.25 8.125 C11.08144531 8.96998047 11.08144531 8.96998047 11.9296875 9.83203125 C13.29104485 11.21686028 14.64614859 12.60783204 16 14 C11.65326066 22.21599595 6.93181144 30.1266259 2 38 C4.33535203 36.77454835 6.66846371 35.54517788 9 34.3125 C9.68682861 33.9510791 10.37365723 33.5896582 11.08129883 33.21728516 C14.75384277 31.26606965 18.25627665 29.23437453 21.6875 26.875 C25 25 25 25 26.81640625 25.5 C29.99747489 27.68520637 32.56972471 30.36136687 35.25 33.125 C35.80429687 33.68832031 36.35859375 34.25164062 36.9296875 34.83203125 C38.29104485 36.21686028 39.64614859 37.60783204 41 39 C35.90905068 46.07076294 30.25971993 52.59436431 24.56689453 59.17871094 C22.10648164 62.03858632 19.67930448 64.9262061 17.25 67.8125 C12.91762497 72.95136809 8.50139651 78.00848009 4 83 C0.54798361 81.52278578 -1.64961936 79.56205999 -4.25 76.875 C-4.95640625 76.15054688 -5.6628125 75.42609375 -6.390625 74.6796875 C-6.92171875 74.12539063 -7.4528125 73.57109375 -8 73 C-6.58261511 69.74792908 -4.87473588 67.68638933 -2.3125 65.25 C2.54688401 60.51453471 7.22837434 55.65743848 11 50 C10.38479492 50.30292969 9.76958984 50.60585938 9.13574219 50.91796875 C6.34440282 52.28678851 3.54734135 53.64349109 0.75 55 C-0.21808594 55.47695313 -1.18617188 55.95390625 -2.18359375 56.4453125 C-3.58544922 57.12207031 -3.58544922 57.12207031 -5.015625 57.8125 C-5.87446289 58.23144531 -6.73330078 58.65039062 -7.61816406 59.08203125 C-10 60 -10 60 -14 60 C-14 59.34 -14 58.68 -14 58 C-14.66 58 -15.32 58 -16 58 C-16 57.34 -16 56.68 -16 56 C-16.66 56 -17.32 56 -18 56 C-18 55.34 -18 54.68 -18 54 C-18.66 54 -19.32 54 -20 54 C-21.13818359 52.29785156 -21.13818359 52.29785156 -22 50 C-21.21728516 47.70996094 -21.21728516 47.70996094 -19.7890625 45.234375 C-19.28632813 44.34492188 -18.78359375 43.45546875 -18.265625 42.5390625 C-17.72421875 41.61867188 -17.1828125 40.69828125 -16.625 39.75 C-16.09132812 38.81414062 -15.55765625 37.87828125 -15.0078125 36.9140625 C-13.68593871 34.60078337 -12.34977014 32.29707718 -11 30 C-13.77226897 31.27411983 -15.88392418 32.61615245 -18.09375 34.71484375 C-18.64933594 35.23626953 -19.20492187 35.75769531 -19.77734375 36.29492188 C-20.34582031 36.83697266 -20.91429687 37.37902344 -21.5 37.9375 C-28.39109725 44.46138459 -28.39109725 44.46138459 -32 47 C-35.45201639 45.52278578 -37.64961936 43.56205999 -40.25 40.875 C-40.95640625 40.15054688 -41.6628125 39.42609375 -42.390625 38.6796875 C-42.92171875 38.12539063 -43.4528125 37.57109375 -44 37 C-40.2932842 33.19610438 -36.42137021 29.68804483 -32.375 26.25 C-31.76035889 25.72559326 -31.14571777 25.20118652 -30.51245117 24.66088867 C-25.06988707 20.03100556 -19.54779187 15.50302522 -14 11 C-11.10342173 8.61678683 -8.20714662 6.23321531 -5.3125 3.84765625 C-3 2 -3 2 0 0 Z " fill="#000000" transform="translate(244,292)"/>
<path d="M0 0 C3.17284688 1.40558372 5.33109901 3.94465118 7.68612671 6.42021179 C8.19272827 6.94034851 8.69932983 7.46048523 9.22128296 7.99638367 C10.46647076 9.27681263 11.70224173 10.56638734 12.93612671 11.85771179 C8.52769234 17.14783303 3.86052877 22.04579607 -1.06387329 26.85771179 C1.50040673 31.0365385 3.95543404 33.98276708 7.93612671 36.85771179 C12.00988702 35.24760653 14.7011974 32.31948909 17.68612671 29.23271179 C18.19272827 28.71708679 18.69932983 28.20146179 19.22128296 27.67021179 C20.46416573 26.40387841 21.70077947 25.13139739 22.93612671 23.85771179 C26.83898438 25.44438757 29.27133653 27.99121661 32.18612671 30.98271179 C33.07815796 31.89278992 33.97018921 32.80286804 34.88925171 33.74052429 C35.56472046 34.43919617 36.24018921 35.13786804 36.93612671 35.85771179 C32.50195999 41.16839984 27.82095985 46.10607796 22.91268921 50.97880554 C22.16651337 51.72356644 21.42033752 52.46832733 20.65155029 53.23565674 C18.29043282 55.59122006 15.92584509 57.94326395 13.56112671 60.29521179 C11.95021815 61.90109942 10.33953875 63.50721695 8.72909546 65.11357117 C4.80075158 69.03094692 0.86955997 72.94544667 -3.06387329 76.85771179 C-6.9141532 75.07570492 -9.34378749 72.78095774 -12.31387329 69.73271179 C-13.65192017 68.3675946 -13.65192017 68.3675946 -15.01699829 66.97489929 C-16.03020142 65.92689148 -16.03020142 65.92689148 -17.06387329 64.85771179 C-12.79093447 59.62336174 -8.24806523 55.18664364 -3.06387329 50.85771179 C-4.54108751 47.4056954 -6.5018133 45.20809243 -9.18887329 42.60771179 C-10.27555298 41.54810242 -10.27555298 41.54810242 -11.38418579 40.46708679 C-11.93848267 39.93599304 -12.49277954 39.40489929 -13.06387329 38.85771179 C-14.02293579 39.81677429 -14.02293579 39.81677429 -15.00137329 40.79521179 C-19.02220662 44.81604513 -23.04303996 48.83687846 -27.06387329 52.85771179 C-30.96673096 51.27103601 -33.39908311 48.72420698 -36.31387329 45.73271179 C-37.20590454 44.82263367 -38.09793579 43.91255554 -39.01699829 42.97489929 C-39.69246704 42.27622742 -40.36793579 41.57755554 -41.06387329 40.85771179 C-39.64931029 37.65860736 -37.95097308 35.47904787 -35.5038147 32.99125671 C-34.41225571 31.87571663 -34.41225571 31.87571663 -33.29864502 30.73764038 C-32.51218597 29.94581863 -31.72572693 29.15399689 -30.91543579 28.33818054 C-29.70203018 27.11123222 -29.70203018 27.11123222 -28.46411133 25.85949707 C-26.75368977 24.13457867 -25.04045149 22.41244942 -23.32461548 20.69291687 C-20.69359379 18.04995372 -18.08179574 15.38891953 -15.47012329 12.72685242 C-13.80721228 11.0544827 -12.14318715 9.3832199 -10.47793579 7.71318054 C-9.69552521 6.91123764 -8.91311462 6.10929474 -8.10699463 5.28305054 C-7.00597916 4.19115166 -7.00597916 4.19115166 -5.88272095 3.07719421 C-5.24033478 2.4297374 -4.59794861 1.78228058 -3.93609619 1.11520386 C-2.06387329 -0.14228821 -2.06387329 -0.14228821 0 0 Z " fill="#000000" transform="translate(160.06387329101563,207.1422882080078)"/>
<path d="M0 0 C4.92496215 4.08667072 9.45083757 8.41037092 13.93359375 12.9765625 C16.01223801 15.10286386 16.01223801 15.10286386 18.6875 17 C23.50605716 21.16740079 27.65628899 27.19664042 28.23828125 33.63671875 C28.49921059 44.36228798 25.49594175 50.07170857 18.29296875 57.8828125 C10.73771635 64.85887179 3.4782506 67.40025084 -6.65234375 67.265625 C-16.36449277 66.49499941 -22.28488924 60.57058023 -29 54 C-29.67546875 53.35160156 -30.3509375 52.70320313 -31.046875 52.03515625 C-34.29107136 48.86721237 -37.25611231 45.62193175 -40 42 C-38.56430733 38.61533594 -36.86087865 36.79325286 -34.0625 34.4375 C-28.60004106 29.64586935 -23.45134962 24.57338004 -18.3125 19.4375 C-17.50498291 18.6343335 -16.69746582 17.83116699 -15.86547852 17.00366211 C-11.54324678 12.67166463 -7.37748503 8.26424843 -3.39916992 3.61352539 C-2.31577889 2.36415681 -1.16932844 1.16932844 0 0 Z M3 24 C-4.08470943 29.91781611 -10.52848604 36.43141333 -17 43 C-15.41055575 47.34929743 -14.08247022 49.58763123 -10 52 C-2.69635951 51.64982546 1.14336005 46.98969858 6 42 C8.55168961 39.1358586 9.85638364 36.78191131 10.5625 32.9375 C9.80660868 28.99006755 8.0383386 27.53194883 5 25 C4.34 24.67 3.68 24.34 3 24 Z " fill="#000000" transform="translate(202,249)"/>
<path d="M0 0 C1.1244006 0.96331863 2.24873732 1.92671182 3.37304688 2.89013672 C3.9991687 3.42661835 4.62529053 3.96309998 5.27038574 4.51583862 C8.06477674 6.91367223 10.57736729 9.21397238 13 12 C12.80919444 15.81952723 10.65196136 17.70931791 8.02734375 20.30078125 C7.20943359 21.11353516 6.39152344 21.92628906 5.54882812 22.76367188 C4.68708984 23.60478516 3.82535156 24.44589844 2.9375 25.3125 C2.10283203 26.14201172 1.26816406 26.97152344 0.40820312 27.82617188 C-3.98918077 32.168717 -8.47539215 36.34435357 -13.15795898 40.3762207 C-16.06491845 42.93873726 -18.78352338 45.67597977 -21.5 48.4375 C-22.03625 48.97826172 -22.5725 49.51902344 -23.125 50.07617188 C-24.41904036 51.38176617 -25.70988174 52.69052996 -27 54 C-31.56030824 50.19524578 -35.85089392 46.25030379 -40 42 C-38.56741228 38.72803548 -36.81174684 36.56796044 -34.28466797 34.05761719 C-33.52403046 33.29713074 -32.76339294 32.53664429 -31.97970581 31.75311279 C-31.15882477 30.94255432 -30.33794373 30.13199585 -29.4921875 29.296875 C-28.65156769 28.45908508 -27.81094788 27.62129517 -26.94485474 26.75811768 C-24.25955999 24.08401569 -21.56739345 21.41695276 -18.875 18.75 C-17.05292845 16.93795938 -15.23130823 15.12546482 -13.41015625 13.3125 C-8.94532748 8.86971964 -4.47483717 4.43269835 0 0 Z " fill="#000000" transform="translate(292,339)"/>
<path d="M0 0 C4.35452658 1.15055381 7.06397766 4.42229247 10.12890625 7.5625 C11.09831831 8.51240272 12.06979752 9.4601989 13.04296875 10.40625 C21.99819093 19.17691761 21.99819093 19.17691761 22.44140625 23.875 C22.07234694 28.2298999 21.40812322 29.70369546 18.12890625 32.5625 C14.75390625 33.625 14.75390625 33.625 11.12890625 33.5625 C5.97435878 30.65126967 2.01802853 26.75423824 -2.12109375 22.5625 C-3.05695313 21.63824219 -3.05695313 21.63824219 -4.01171875 20.6953125 C-4.60984375 20.09460938 -5.20796875 19.49390625 -5.82421875 18.875 C-6.36208008 18.33488281 -6.89994141 17.79476562 -7.45410156 17.23828125 C-10.10754766 14.10022921 -10.89451113 12.21818652 -10.74609375 8.0625 C-9.22792357 1.98981926 -6.500861 -0.38310783 0 0 Z " fill="#000000" transform="translate(399.87109375,131.4375)"/>
<path d="M0 0 C3.05604092 1.92978446 5.44670111 4.45953176 8 7 C9.05543785 7.94364587 10.11426268 8.88351215 11.17578125 9.8203125 C20.78058045 18.50836026 20.78058045 18.50836026 21.125 23.9375 C20.64685992 27.02572242 19.64288156 28.91961844 17.4375 31.125 C14 33 14 33 10.625 33.25 C5.61042991 31.5208379 2.73384146 28.68059595 -1 25 C-1.87785156 24.19433594 -2.75570313 23.38867188 -3.66015625 22.55859375 C-12.64881127 14.0872714 -12.64881127 14.0872714 -13 8 C-10.56131474 1.19735164 -7.20715933 -1.06335138 0 0 Z " fill="#000000" transform="translate(360,90)"/>
</svg>
