<?xml version="1.0" encoding="UTF-8"?>
<svg version="1.1" xmlns="http://www.w3.org/2000/svg" width="512" height="512">
<path d="M0 0 C38.36240255 32.24481011 53.23948995 79.87029493 57.59648013 128.4115634 C58.43291428 139.93892579 58.32245904 151.51473917 58.31115115 163.06648397 C58.31052678 167.06624911 58.32720798 171.06595384 58.34132385 175.06568909 C58.36596443 182.85556685 58.37447492 190.64537645 58.37616099 198.43528999 C58.3775969 204.76657608 58.38381235 211.09784004 58.39326286 217.42911911 C58.41958168 235.43006621 58.4335332 253.43096019 58.43127144 271.43192668 C58.43115157 272.39701783 58.4310317 273.36210898 58.4309082 274.35644531 C58.43078556 275.32272824 58.43066292 276.28901116 58.43053656 277.28457539 C58.42931295 293.00022991 58.45815365 308.71567032 58.5003233 324.43126281 C58.54341005 340.61734394 58.56413512 356.80332041 58.56154197 372.98946035 C58.56054744 382.05781051 58.56873247 391.12593472 58.60107613 400.19423294 C58.62838202 407.89799089 58.63492238 415.60141985 58.61454786 423.30520524 C58.60475609 427.23170506 58.60456741 431.15757333 58.6306076 435.08401299 C58.65421868 438.68101522 58.64989704 442.27688551 58.62375521 445.87386028 C58.61698262 447.78367076 58.6396232 449.69351652 58.66347414 451.60319006 C58.57011124 459.36723632 57.1828775 464.44958136 51.875 470.25 C41.1469913 479.7097465 24.87313735 480.31518891 11.31005859 479.47753906 C-0.40215796 478.38311498 -12.33342041 475.06966792 -20.21808815 465.87615204 C-24.1135525 460.57224939 -23.94765501 455.67275132 -23.8465271 449.27844238 C-23.85165365 448.0873768 -23.8567802 446.89631122 -23.8620621 445.66915274 C-23.87020959 442.38023674 -23.8515655 439.09275463 -23.82139373 435.80400801 C-23.79540216 432.25128836 -23.80425685 428.69863152 -23.80880737 425.14584351 C-23.81194844 418.99618323 -23.79317702 412.84690588 -23.75938034 406.69734192 C-23.71054872 397.80625218 -23.69498463 388.91534698 -23.68745239 380.02413768 C-23.67433143 365.59769264 -23.63443126 351.17145154 -23.57763672 336.74511719 C-23.52253453 322.73405983 -23.48007774 308.72305794 -23.45458984 294.71191406 C-23.4530135 293.84778713 -23.45143716 292.9836602 -23.44981305 292.09334761 C-23.44198264 287.75813237 -23.43440044 283.42291674 -23.42694163 279.08770084 C-23.36477498 243.14165659 -23.25912559 207.1958442 -23.125 171.25 C-24.1886377 171.66137207 -25.25227539 172.07274414 -26.34814453 172.49658203 C-27.77626876 173.04224987 -29.20449702 173.58764547 -30.6328125 174.1328125 C-31.32995361 174.40327393 -32.02709473 174.67373535 -32.74536133 174.95239258 C-58.87231815 184.88033395 -90.73463887 182.36923425 -116.12158203 171.38623047 C-131.58836957 164.39561296 -144.15317823 155.18824394 -155.68945312 142.79199219 C-156.85172775 141.54353529 -158.039355 140.3187125 -159.234375 139.1015625 C-168.80151712 128.25564395 -167.28041426 107.21262195 -167.29296875 93.6484375 C-167.29629715 92.37255768 -167.29962555 91.09667786 -167.30305481 89.78213501 C-167.30809266 87.094467 -167.31089983 84.40690029 -167.31030273 81.71923828 C-167.31022168 79.00042031 -167.31713803 76.28177157 -167.33081055 73.56298828 C-167.561595 26.96647003 -167.561595 26.96647003 -153.1015625 12.1640625 C-112.09817532 -28.5212635 -46.36288936 -35.44517671 0 0 Z M-144.75 23.625 C-145.55038696 24.41136841 -145.55038696 24.41136841 -146.36694336 25.21362305 C-149.23552092 27.75498181 -149.23552092 27.75498181 -150.125 31.25 C-149.465 31.25 -148.805 31.25 -148.125 31.25 C-148.10184499 43.43699109 -148.08406875 55.62397697 -148.07318783 67.81098557 C-148.06796594 73.4697014 -148.06088082 79.1284022 -148.04956055 84.78710938 C-148.0387071 90.24653522 -148.03271793 95.70594659 -148.03012276 101.16538239 C-148.02827295 103.24981158 -148.02466084 105.33423998 -148.01926994 107.41866302 C-148.01202697 110.33479026 -148.01101045 113.25085743 -148.01147461 116.16699219 C-148.00787933 117.03158051 -148.00428406 117.89616882 -148.00057983 118.78695679 C-148.0019545 119.58338593 -148.00332916 120.37981506 -148.00474548 121.20037842 C-148.00382369 121.88987957 -148.0029019 122.57938072 -148.00195217 123.28977585 C-148.125 125.25 -148.125 125.25 -148.75263309 127.33440018 C-148.93695471 128.28262209 -148.93695471 128.28262209 -149.125 129.25 C-147.61200016 131.37496523 -146.17793952 133.08628068 -144.375 134.9375 C-143.87492432 135.46424316 -143.37484863 135.99098633 -142.85961914 136.53369141 C-125.37537173 154.60120345 -101.49768005 166.19828269 -76.125 167.25 C-75.14144531 167.3015625 -74.15789062 167.353125 -73.14453125 167.40625 C-55.46306748 167.89457581 -38.11669307 164.39412377 -22.5625 155.8125 C-18.51732277 153.97378308 -16.36172893 154.03950602 -12.125 155.25 C-10.91556611 157.66886777 -10.99472985 159.19698831 -10.9863348 161.90019417 C-10.98086036 162.88649382 -10.97538591 163.87279347 -10.96974558 164.88898098 C-10.96876747 165.98040272 -10.96778936 167.07182446 -10.96678162 168.19631958 C-10.96184364 169.3495902 -10.95690566 170.50286081 -10.95181805 171.69107902 C-10.93907559 174.90180605 -10.93080932 178.11250955 -10.92439139 181.32325435 C-10.91640152 184.78202359 -10.9026989 188.24077063 -10.88967896 191.69952393 C-10.8678961 197.69524568 -10.84975825 203.69096967 -10.83407402 209.68671036 C-10.81139184 218.35561683 -10.78324674 227.02449873 -10.75375474 235.69338439 C-10.70605855 249.75700454 -10.66279987 263.82063472 -10.62231445 277.88427734 C-10.58296983 291.54834779 -10.5415461 305.21240931 -10.49731445 318.87646484 C-10.49459018 319.71827215 -10.49186591 320.56007946 -10.48905908 321.42739607 C-10.47537978 325.65036301 -10.46165947 329.87332981 -10.44791877 334.09629655 C-10.33392215 369.14751356 -10.22793422 404.19874841 -10.125 439.25 C8.025 439.25 26.175 439.25 44.875 439.25 C44.91918706 401.69508174 44.95607822 364.14018823 44.97713066 326.58525136 C44.97963172 322.13984201 44.9822204 317.69443271 44.98486328 313.24902344 C44.9853879 312.36411569 44.98591252 311.47920793 44.98645304 310.5674848 C44.99512812 296.28619973 45.01088193 282.00493096 45.02930559 267.72365552 C45.04808563 253.04241954 45.05913375 238.36119202 45.06317699 223.67994452 C45.06590534 214.63912753 45.07448552 205.59835661 45.09083293 196.55755383 C45.10150016 190.33684266 45.10457891 184.1161549 45.10200275 177.89543527 C45.1007364 174.31986009 45.10251428 170.74436473 45.11341095 167.16880417 C45.17377241 146.32110119 44.7156529 125.4579072 41.0625 104.875 C40.89000732 103.8864502 40.71751465 102.89790039 40.53979492 101.87939453 C35.06465987 71.68437864 23.17401621 44.34132862 2.875 21.25 C2.17632812 20.44820312 1.47765625 19.64640625 0.7578125 18.8203125 C-14.73616564 2.2623702 -38.3688609 -8.37753649 -60.96484375 -9.6953125 C-61.67769531 -9.71335937 -62.39054687 -9.73140625 -63.125 -9.75 C-63.86878906 -9.78867187 -64.61257812 -9.82734375 -65.37890625 -9.8671875 C-95.78096854 -10.76873136 -123.43332397 2.57261929 -144.75 23.625 Z M-10.125 452.25 C-9.78976981 458.11130749 -9.78976981 458.11130749 -6.6875 460.4375 C5.76852592 466.77477635 21.41642069 468.15921162 34.875 464.25 C39.80194132 462.42757768 39.80194132 462.42757768 43.875 459.25 C44.205 456.94 44.535 454.63 44.875 452.25 C26.725 452.25 8.575 452.25 -10.125 452.25 Z " fill="#000000" transform="translate(167.125,27.75)"/>
<path d="M0 0 C1.70143504 1.48417487 3.38893656 2.98446654 5.0625 4.5 C6.01898438 5.32628906 6.97546875 6.15257813 7.9609375 7.00390625 C20.22925424 17.7756857 24.52702691 26.33881829 25.88549805 42.64239502 C26.51993612 52.88506958 26.35140626 63.17463258 26.31640625 73.43182373 C26.31250487 75.43499823 26.31639522 77.43799724 26.32324219 79.44116211 C26.47714352 127.67443119 26.47714352 127.67443119 13.0625 142.5 C12.18335938 143.47324219 11.30421875 144.44648438 10.3984375 145.44921875 C-4.67275814 161.56677339 -24.52954316 171.60528063 -45.9375 176.5 C-46.87464844 176.72429687 -47.81179688 176.94859375 -48.77734375 177.1796875 C-68.89925367 181.12304166 -91.32117598 179.79611114 -110.4296875 172.3828125 C-111.15728271 172.1051001 -111.88487793 171.8273877 -112.63452148 171.54125977 C-114.40386015 170.86521829 -116.17092807 170.18323862 -117.9375 169.5 C-117.93522168 170.11059344 -117.93294336 170.72118688 -117.93059599 171.35028315 C-117.7963182 207.54158026 -117.69337603 243.73284052 -117.63110802 279.92433575 C-117.62360381 284.27019561 -117.61583788 288.61605496 -117.60791016 292.96191406 C-117.60554936 294.25968376 -117.60554936 294.25968376 -117.60314088 295.58367103 C-117.57703525 309.59130783 -117.52972907 323.59879683 -117.47458322 337.60634595 C-117.41846764 351.9801331 -117.38514595 366.35384285 -117.37296903 380.72773504 C-117.36473758 389.59678751 -117.33874289 398.46542224 -117.2900012 407.33434612 C-117.25827739 413.4166866 -117.24870119 419.49881123 -117.25649174 425.58122844 C-117.26033368 429.09026775 -117.25445875 432.59857729 -117.22226715 436.10748672 C-117.19243479 439.91505507 -117.1995843 443.72083302 -117.2159729 447.52844238 C-117.19849585 448.63351466 -117.1810188 449.73858693 -117.16301215 450.87714624 C-117.24747526 458.13200983 -118.8094003 462.31453381 -123.9375 467.5 C-134.83982684 477.13103078 -151.21151956 478.37617281 -165.0859375 477.8828125 C-175.21549007 477.24746778 -186.56040572 474.96669462 -193.9375 467.5 C-199.58621146 460.89285319 -199.64407216 454.6497646 -199.55895996 446.22953796 C-199.56329363 444.8848084 -199.56981385 443.54008443 -199.57832003 442.19537479 C-199.59526734 438.51421868 -199.58116116 434.83374563 -199.56180525 431.15262568 C-199.54634755 427.17604474 -199.55978903 423.19954586 -199.56954956 419.22296143 C-199.58407076 411.4330442 -199.57184253 403.64338784 -199.55043632 395.85349532 C-199.52637149 386.75975219 -199.5281446 377.66606819 -199.53074223 368.57230029 C-199.53443298 352.32003759 -199.51361391 336.06789708 -199.47949219 319.81567383 C-199.44650458 304.09754336 -199.43221638 288.37954136 -199.43847656 272.66137695 C-199.44527147 255.51652039 -199.44268509 238.37171763 -199.42311716 221.22686893 C-199.42207768 220.31608704 -199.42103819 219.40530515 -199.4199672 218.46692381 C-199.41787646 216.63827834 -199.41576549 214.8096329 -199.41363403 212.98098749 C-199.40678798 206.66720308 -199.406061 200.35343539 -199.40751648 194.03964806 C-199.40897052 186.3125762 -199.39901154 178.58560799 -199.37557012 170.8585703 C-199.36386664 166.92813554 -199.35647735 162.9978435 -199.36240768 159.06739235 C-199.42083153 113.59967394 -194.38153609 64.56753394 -166.9375 26.5 C-166.22464844 25.49324219 -165.51179688 24.48648438 -164.77734375 23.44921875 C-147.6896762 -0.06008733 -125.21331575 -15.487192 -96.9375 -22.5 C-95.97972656 -22.7475 -95.02195312 -22.995 -94.03515625 -23.25 C-62.17587989 -29.98676328 -25.23816823 -20.28387631 0 0 Z M-144.765625 20.0546875 C-180.76911804 60.59099441 -186.13175254 114.61388407 -186.05356562 166.55086088 C-186.04919985 170.19614874 -186.05071184 173.84143512 -186.0514679 177.48672485 C-186.05198929 183.78450957 -186.04888294 190.08228383 -186.04323006 196.38006592 C-186.03506257 205.48531932 -186.03249449 214.59056772 -186.03124207 223.69582438 C-186.02905975 238.47267484 -186.02242201 253.24951974 -186.01293945 268.02636719 C-186.00374404 282.37076795 -185.99667365 296.71516719 -185.99243164 311.05957031 C-185.99216892 311.94549142 -185.99190619 312.83141253 -185.99163551 313.74417973 C-185.99033036 318.1891028 -185.98906668 322.63402588 -185.98782361 327.07894897 C-185.97747656 363.88597092 -185.95905211 400.69298257 -185.9375 437.5 C-167.7875 437.5 -149.6375 437.5 -130.9375 437.5 C-130.91562622 424.70963989 -130.91562622 424.70963989 -130.89331055 411.66088867 C-130.8445863 384.3998225 -130.78118654 357.13880821 -130.70851372 329.87779577 C-130.69724512 325.64566297 -130.68610673 321.41352984 -130.67504883 317.18139648 C-130.67284514 316.33883005 -130.67064146 315.49626362 -130.668371 314.62816487 C-130.63296723 300.97289731 -130.6081205 287.31762981 -130.58715298 273.66233333 C-130.56541542 259.65803833 -130.53238456 245.65380306 -130.48879844 231.64955884 C-130.46224637 223.00330569 -130.44457723 214.357127 -130.43815396 205.71083508 C-130.43291091 199.78738304 -130.41673061 193.86402482 -130.39183434 187.94062301 C-130.37778195 184.5195304 -130.36866235 181.09860589 -130.37249184 177.6774826 C-130.37413137 173.97364724 -130.3575581 170.27033768 -130.33622742 166.5665741 C-130.34107499 165.4780652 -130.34592257 164.38955631 -130.35091704 163.26806229 C-130.3414605 162.2797716 -130.33200396 161.2914809 -130.32226086 160.273242 C-130.31941295 158.98997714 -130.31941295 158.98997714 -130.31650752 157.68078774 C-129.84914112 154.99158803 -129.14651757 154.07386648 -126.9375 152.5 C-121.56407075 152.67585768 -117.26351515 154.51592261 -112.5 156.8125 C-101.97858691 161.64455638 -90.57202869 165.02512128 -78.9375 165.5 C-77.95265625 165.5515625 -76.9678125 165.603125 -75.953125 165.65625 C-48.12762462 166.42561867 -21.69834465 156.90251166 -1.23046875 138 C0.92975945 135.87816035 3.03850363 133.75180548 5.0625 131.5 C5.65804687 130.83742187 6.25359375 130.17484375 6.8671875 129.4921875 C8.31128736 127.6038722 8.31128736 127.6038722 7.64472294 125.62858963 C7.45258937 124.92615505 7.2604558 124.22372047 7.0625 123.5 C6.97789445 122.15218394 6.94044005 120.80084611 6.94224548 119.45037842 C6.94018349 118.25573471 6.94018349 118.25573471 6.93807983 117.03695679 C6.94167511 116.17236847 6.94527039 115.30778015 6.94897461 114.41699219 C6.94882858 113.49957245 6.94868256 112.58215271 6.9485321 111.63693237 C6.94922834 108.60688913 6.95700725 105.57690749 6.96484375 102.546875 C6.96670896 100.44508905 6.96813238 98.34330266 6.96913147 96.24151611 C6.97294856 90.71116942 6.98277199 85.18084901 6.99383545 79.6505127 C7.00406691 74.00659541 7.00863281 68.36267388 7.01367188 62.71875 C7.02439495 51.64582179 7.04146171 40.57291308 7.0625 29.5 C7.7225 29.5 8.3825 29.5 9.0625 29.5 C3.40494815 15.16522139 -16.44533837 4.24582034 -29.3203125 -1.93359375 C-69.44379282 -19.30888058 -114.3007028 -11.85565072 -144.765625 20.0546875 Z M-185.9375 450.5 C-185.69928207 457.04235782 -185.69928207 457.04235782 -183.29296875 459.20703125 C-170.26106892 465.85212612 -155.12099614 465.94712798 -141.25 461.75 C-136.70638309 460.04382549 -133.73585143 458.4976449 -130.9375 454.5 C-130.9375 453.18 -130.9375 451.86 -130.9375 450.5 C-149.0875 450.5 -167.2375 450.5 -185.9375 450.5 Z " fill="#000000" transform="translate(485.9375,29.5)"/>
<path d="M0 0 C5.13308791 2.61320839 8.1797908 5.53937241 10 11 C10.3684431 16.61875724 10.19190228 20.15711379 7 25 C2.09522294 29.42626223 -0.91290927 30.35613689 -7.390625 30.28125 C-12.39473253 29.74188512 -15.68080179 27.62701112 -18.875 23.6875 C-21.36452139 17.74031002 -21.43443294 12.97542631 -19 7 C-13.46640386 0.44705721 -8.37625368 -1.08507552 0 0 Z " fill="#000000" transform="translate(460,94)"/>
<path d="M0 0 C3.7520521 1.27847701 6.35994635 3.21060049 8.875 6.3125 C11.36452139 12.25968998 11.43443294 17.02457369 9 23 C5.73311992 26.86867377 2.72841417 29.61279931 -2.3671875 30.3359375 C-8.11602943 30.42548332 -11.50317637 29.9484305 -16 26 C-19.54581036 21.96511235 -20.30360179 18.43338591 -20.21484375 13.05859375 C-19.73807026 8.49023683 -17.77437114 5.69882274 -14.4375 2.6875 C-9.70609324 -0.5880893 -5.65785995 -0.60982922 0 0 Z " fill="#000000" transform="translate(62,94)"/>
<path d="M0 0 C2.26171875 0.83984375 2.26171875 0.83984375 4.26171875 2.83984375 C4.265625 5.6953125 4.265625 5.6953125 3.26171875 8.83984375 C0.6015625 11.078125 0.6015625 11.078125 -2.80078125 13.15234375 C-11.71553283 18.88429794 -17.45594507 25.88681109 -22.90234375 34.96875 C-24.73828125 36.83984375 -24.73828125 36.83984375 -27.82421875 37.3046875 C-29.26667969 37.07458984 -29.26667969 37.07458984 -30.73828125 36.83984375 C-32.73828125 33.83984375 -32.73828125 33.83984375 -32.6171875 31.546875 C-28.41192592 18.59466934 -16.2844493 8.63921845 -5.5703125 1.2109375 C-2.73828125 -0.16015625 -2.73828125 -0.16015625 0 0 Z " fill="#000000" transform="translate(377.73828125,44.16015625)"/>
<path d="M0 0 C9.60862793 5.8993684 17.37982322 13.50075811 24 22.5625 C24.41080811 23.10487305 24.82161621 23.64724609 25.24487305 24.20605469 C27.31414508 27.15462206 28.01684371 28.6999714 27.8125 32.33984375 C27 35 27 35 26 36 C23.3046875 36.53515625 23.3046875 36.53515625 20 36 C17.62363244 33.77732397 15.92537607 31.1342222 14.125 28.4375 C8.751268 20.84573439 3.71291643 15.08251609 -4.4375 10.4375 C-7.42799563 8.65379887 -7.88586606 8.30035248 -9.1875 4.875 C-9 2 -9 2 -7.9375 0.0625 C-5.00240012 -1.5470709 -3.2001441 -0.81157501 0 0 Z " fill="#000000" transform="translate(139,45)"/>
<path d="M0 0 C1.875 1.0625 1.875 1.0625 3 3 C2.6875 6.6875 2.6875 6.6875 2 10 C-4.42548263 11.33359073 -4.42548263 11.33359073 -6.9375 9.875 C-8.36066991 7.36352369 -8.42674516 5.84496772 -8 3 C-5.85607122 -0.27231235 -3.76836426 -0.56525464 0 0 Z " fill="#000000" transform="translate(323,146)"/>
<path d="M0 0 C1.875 1.0625 1.875 1.0625 3 3 C2.6875 6.6875 2.6875 6.6875 2 10 C-4.42548263 11.33359073 -4.42548263 11.33359073 -6.9375 9.875 C-8.36066991 7.36352369 -8.42674516 5.84496772 -8 3 C-5.85607122 -0.27231235 -3.76836426 -0.56525464 0 0 Z " fill="#000000" transform="translate(194,146)"/>
</svg>
