<?xml version="1.0" encoding="UTF-8"?>
<svg version="1.1" xmlns="http://www.w3.org/2000/svg" width="384" height="384">
<path d="M0 0 C126.72 0 253.44 0 384 0 C384 126.72 384 253.44 384 384 C257.28 384 130.56 384 0 384 C0 257.28 0 130.56 0 0 Z " fill="#FDFDFD" transform="translate(0,0)"/>
<path d="M0 0 C2.16598399 0.73119205 4.33271036 1.46018708 6.5 2.1875 C7.71171875 2.59871094 8.9234375 3.00992187 10.171875 3.43359375 C14.94927653 5.03816352 19.75501796 6.5509172 24.5625 8.0625 C25.90958794 8.48635735 25.90958794 8.48635735 27.28388977 8.91877747 C30.90874817 10.05848918 34.53402229 11.19687319 38.15951538 12.33456421 C74.26656168 23.68172127 74.26656168 23.68172127 80.1875 34.6875 C84.25471365 43.07790579 84.60571694 51.72376994 84.57992554 60.89276123 C84.58445665 62.08367599 84.58898776 63.27459074 84.59365618 64.50159383 C84.60408147 67.78546373 84.60563375 71.06919491 84.60326743 74.35307598 C84.60285755 77.90331762 84.61391468 81.45352717 84.62338257 85.00375366 C84.6399564 91.95120353 84.64549047 98.89861944 84.64660732 105.84608743 C84.6475595 111.49650997 84.65167824 117.14692137 84.65800858 122.79734039 C84.67561096 138.83687739 84.68484899 154.87638769 84.68334763 170.91593441 C84.68326772 171.77963309 84.6831878 172.64333176 84.68310547 173.53320312 C84.68302371 174.39796309 84.68294195 175.26272305 84.68285771 176.15368786 C84.68204505 190.16380892 84.70118026 204.17382241 84.7293822 218.18391237 C84.75814826 232.58853579 84.77192046 246.99310681 84.77019465 261.39775968 C84.76953204 269.47718175 84.77496751 277.55649104 84.79655075 285.63588715 C84.81481161 292.5153681 84.8190698 299.39468514 84.8055319 306.27417991 C84.7990269 309.779679 84.79879471 313.28486408 84.8162384 316.79033279 C84.83173719 320.601934 84.82235069 324.4127198 84.80697632 328.2243042 C84.81726344 329.31645509 84.82755057 330.40860597 84.83814943 331.53385234 C84.74319618 342.24454285 82.60375916 352.2927366 75.19140625 360.32421875 C70.27975541 364.21473636 65.30318475 364.1047943 59.31884766 364.0871582 C57.97399544 364.0948246 57.97399544 364.0948246 56.60197449 364.10264587 C53.64343557 364.11652541 50.68513007 364.11558621 47.7265625 364.11328125 C45.66539422 364.11716931 43.60422675 364.12150421 41.5430603 364.12626648 C37.22399294 364.13372534 32.90500733 364.13343998 28.5859375 364.12817383 C23.05897526 364.12238218 17.53234846 364.13930459 12.00544167 364.1625185 C7.74856621 364.17727177 3.49177122 364.17812532 -0.76512527 364.17500877 C-2.80242197 364.17552126 -4.83972324 364.18074544 -6.87699509 364.19082069 C-9.72990264 364.2031974 -12.58216094 364.19638571 -15.43505859 364.18481445 C-16.27165512 364.19245819 -17.10825165 364.20010193 -17.97019958 364.20797729 C-23.26554611 364.16065586 -26.99734051 363.3298629 -31.6875 360.8125 C-32.0175 360.1525 -32.3475 359.4925 -32.6875 358.8125 C-31.27126784 358.75802953 -29.85441809 358.71949492 -28.4375 358.6875 C-27.64859375 358.66429687 -26.8596875 358.64109375 -26.046875 358.6171875 C-23.48018059 358.8296622 -21.8958933 359.52595895 -19.6875 360.8125 C-20.66203125 360.08933594 -20.66203125 360.08933594 -21.65625 359.3515625 C-22.4915625 358.71992188 -23.326875 358.08828125 -24.1875 357.4375 C-25.0228125 356.81101562 -25.858125 356.18453125 -26.71875 355.5390625 C-27.69328125 354.68441406 -27.69328125 354.68441406 -28.6875 353.8125 C-28.6875 353.1525 -28.6875 352.4925 -28.6875 351.8125 C-31.6575 351.4825 -34.6275 351.1525 -37.6875 350.8125 C-37.3575 352.1325 -37.0275 353.4525 -36.6875 354.8125 C-41.38591495 350.6795115 -42.41669866 344.83580746 -42.95838988 338.78820407 C-43.0700306 335.33724488 -43.08263254 331.89886399 -43.0617218 328.44615173 C-43.06569621 327.12905372 -43.06967061 325.8119557 -43.07376546 324.45494562 C-43.08429186 320.82352147 -43.07626293 317.19234564 -43.06501496 313.56093252 C-43.05613641 309.63519025 -43.06462695 305.7094792 -43.07087708 301.78373718 C-43.08034562 294.103134 -43.07378243 286.42262505 -43.06161413 278.74202888 C-43.04796535 269.79223014 -43.04963452 260.84245361 -43.05174746 251.8926471 C-43.05493447 235.92149478 -43.04328589 219.95038712 -43.02368164 203.97924805 C-43.00467555 188.49127849 -42.9975953 173.00336125 -43.00317383 157.51538086 C-43.00923509 140.63731383 -43.00904842 123.75926979 -42.997688 106.88120466 C-42.99648074 105.08067517 -42.99527476 103.28014567 -42.99407005 101.47961617 C-42.99346651 100.59378895 -42.99286298 99.70796173 -42.99224115 98.79529126 C-42.98836617 92.5606932 -42.98875398 86.32610372 -42.9906559 80.09150505 C-42.99278057 72.49171971 -42.9875331 64.89198012 -42.97304235 57.29220765 C-42.96581156 53.41666792 -42.9617101 49.54119475 -42.96628571 45.66564941 C-42.97112905 41.46098901 -42.9604234 37.25651003 -42.94819641 33.05186462 C-42.95197573 31.83201604 -42.95575506 30.61216746 -42.95964891 29.35535377 C-42.92031357 21.7110765 -42.11615217 15.09845651 -39.6875 7.8125 C-36.64573657 6.88518773 -33.59571666 6.34576156 -30.47265625 5.75390625 C-27.20052118 5.01209157 -27.20052118 5.01209157 -25.6875 0.8125 C-28.6575 1.4725 -31.6275 2.1325 -34.6875 2.8125 C-24.60254167 -6.01183854 -11.67533721 -4.14533488 0 0 Z " fill="#CFBFB1" transform="translate(171.6875,11.1875)"/>
<path d="M0 0 C0.33 0.66 0.66 1.32 1 2 C0.54403425 3.12186377 0.54403425 3.12186377 0.07885706 4.26639146 C-1.11906051 7.30167558 -1.25426129 9.48505474 -1.26171303 12.7377367 C-1.27291127 14.46650019 -1.27291127 14.46650019 -1.28433573 16.23018819 C-1.282401 17.49185502 -1.28046626 18.75352186 -1.2784729 20.05342102 C-1.28347649 21.41067421 -1.28935247 22.76792441 -1.29602563 24.12517041 C-1.31183209 27.85360515 -1.31525667 31.58196454 -1.31667423 35.31042874 C-1.32036715 39.33153183 -1.33552209 43.35259355 -1.34928894 47.37367249 C-1.37156898 54.34008158 -1.38657779 61.30647596 -1.39665604 68.27291298 C-1.411238 78.34522156 -1.43677347 88.41747891 -1.46498732 98.48975744 C-1.51046409 114.83113007 -1.54707524 131.17251007 -1.578125 147.51391602 C-1.60830692 163.38860367 -1.64265554 179.26327328 -1.68261719 195.13793945 C-1.68630951 196.60557085 -1.68630951 196.60557085 -1.69007643 198.10285137 C-1.70245096 203.01127374 -1.7149075 207.9196959 -1.72740483 212.82811797 C-1.83098587 253.55205355 -1.92018477 294.27601135 -2 335 C-1.34 335 -0.68 335 0 335 C0.01417969 335.60328125 0.02835938 336.2065625 0.04296875 336.828125 C0.29631004 342.21330329 0.29631004 342.21330329 3.4375 346.4375 C4.283125 346.953125 5.12875 347.46875 6 348 C8 350 8 350 10 352.5625 C11.76637442 355.05309672 11.76637442 355.05309672 14 356 C16.71579586 356.09316671 19.40573898 356.125777 22.12158203 356.11352539 C22.96068115 356.11367142 23.79978027 356.11381744 24.66430664 356.1139679 C27.44550131 356.11326968 30.22662949 356.10548155 33.0078125 356.09765625 C34.93309492 356.09579175 36.85837782 356.094368 38.78366089 356.09336853 C43.8570079 356.08954591 48.93032639 356.07971779 54.00366211 356.06866455 C59.17821873 356.05844495 64.35277995 356.05386973 69.52734375 356.04882812 C79.68490838 356.03809531 89.84245182 356.02102193 100 356 C100.33 354.68 100.66 353.36 101 352 C101.99 352.33 102.98 352.66 104 353 C99.99344376 357.22312684 98.10323316 358.92316362 92.15570068 359.14044189 C90.51496313 359.152507 88.87417892 359.15896947 87.23339844 359.16113281 C86.33712234 359.16609772 85.44084625 359.17106262 84.51741028 359.17617798 C81.5480574 359.19079947 78.57875798 359.19760214 75.609375 359.203125 C73.54534911 359.20887714 71.48132323 359.21463487 69.41729736 359.22039795 C65.08630118 359.23090837 60.75532355 359.23675055 56.42431641 359.24023438 C50.88162515 359.24571445 45.33918012 359.26973201 39.79656601 359.29820633 C35.53112071 359.31685568 31.26573439 359.32203957 27.00025177 359.32357025 C24.95736599 359.32659289 22.91448115 359.33460829 20.87163544 359.34775543 C18.00896136 359.36486125 15.14688452 359.36292437 12.28417969 359.35644531 C11.44444107 359.3656601 10.60470245 359.37487488 9.73951721 359.3843689 C4.43210098 359.34684963 0.69972219 358.52573638 -4 356 C-4.33 355.34 -4.66 354.68 -5 354 C-3.58376784 353.94552953 -2.16691809 353.90699492 -0.75 353.875 C0.03890625 353.85179687 0.8278125 353.82859375 1.640625 353.8046875 C4.20731941 354.0171622 5.7916067 354.71345895 8 356 C7.02546875 355.27683594 7.02546875 355.27683594 6.03125 354.5390625 C5.1959375 353.90742188 4.360625 353.27578125 3.5 352.625 C2.6646875 351.99851562 1.829375 351.37203125 0.96875 350.7265625 C-0.00578125 349.87191406 -0.00578125 349.87191406 -1 349 C-1 348.34 -1 347.68 -1 347 C-3.97 346.67 -6.94 346.34 -10 346 C-9.67 347.32 -9.34 348.64 -9 350 C-13.69841495 345.8670115 -14.72919866 340.02330746 -15.27088988 333.97570407 C-15.3825306 330.52474488 -15.39513254 327.08636399 -15.3742218 323.63365173 C-15.37819621 322.31655372 -15.38217061 320.9994557 -15.38626546 319.64244562 C-15.39679186 316.01102147 -15.38876293 312.37984564 -15.37751496 308.74843252 C-15.36863641 304.82269025 -15.37712695 300.8969792 -15.38337708 296.97123718 C-15.39284562 289.290634 -15.38628243 281.61012505 -15.37411413 273.92952888 C-15.36046535 264.97973014 -15.36213452 256.02995361 -15.36424746 247.0801471 C-15.36743447 231.10899478 -15.35578589 215.13788712 -15.33618164 199.16674805 C-15.31717555 183.67877849 -15.3100953 168.19086125 -15.31567383 152.70288086 C-15.32173509 135.82481383 -15.32154842 118.94676979 -15.310188 102.06870466 C-15.30898074 100.26817517 -15.30777476 98.46764567 -15.30657005 96.66711617 C-15.30596651 95.78128895 -15.30536298 94.89546173 -15.30474115 93.98279126 C-15.30086617 87.7481932 -15.30125398 81.51360372 -15.3031559 75.27900505 C-15.30528057 67.67921971 -15.3000331 60.07948012 -15.28554235 52.47970765 C-15.27831156 48.60416792 -15.2742101 44.72869475 -15.27878571 40.85314941 C-15.28362905 36.64848901 -15.2729234 32.44401003 -15.26069641 28.23936462 C-15.26447573 27.01951604 -15.26825506 25.79966746 -15.27214891 24.54285377 C-15.23281357 16.8985765 -14.42865217 10.28595651 -12 3 C-9.27734375 2.05078125 -9.27734375 2.05078125 -5.9375 1.3125 C-4.83277344 1.06113281 -3.72804687 0.80976563 -2.58984375 0.55078125 C-1.73519531 0.36902344 -0.88054687 0.18726562 0 0 Z " fill="#D6BFAE" transform="translate(144,16)"/>
<path d="M0 0 C4.39712878 1.18384236 6.78230736 4.88242813 9.1328125 8.57421875 C11.35850854 13.99330475 12.3144627 19.96779502 10.45703125 25.63671875 C9.74495028 27.31061525 8.94632203 28.94719969 8.1328125 30.57421875 C8.7928125 30.24421875 9.4528125 29.91421875 10.1328125 29.57421875 C9.9678125 30.21359375 9.8028125 30.85296875 9.6328125 31.51171875 C9.09354583 33.38248696 9.09354583 33.38248696 9.1328125 34.57421875 C9.7928125 34.57421875 10.4528125 34.57421875 11.1328125 34.57421875 C10.8028125 35.89421875 10.4728125 37.21421875 10.1328125 38.57421875 C9.4728125 38.57421875 8.8128125 38.57421875 8.1328125 38.57421875 C7.8028125 39.56421875 7.4728125 40.55421875 7.1328125 41.57421875 C6.4728125 42.23421875 5.8128125 42.89421875 5.1328125 43.57421875 C6.4528125 45.22421875 7.7728125 46.87421875 9.1328125 48.57421875 C9.4628125 47.25421875 9.7928125 45.93421875 10.1328125 44.57421875 C10.7928125 44.57421875 11.4528125 44.57421875 12.1328125 44.57421875 C12.2565625 43.27484375 12.3803125 41.97546875 12.5078125 40.63671875 C12.71875 38.421875 12.71875 38.421875 13.1328125 36.57421875 C14.1228125 36.07921875 14.1228125 36.07921875 15.1328125 35.57421875 C15.4628125 37.22421875 15.7928125 38.87421875 16.1328125 40.57421875 C16.65681641 39.61708984 16.65681641 39.61708984 17.19140625 38.640625 C17.64644531 37.81433594 18.10148437 36.98804688 18.5703125 36.13671875 C19.02277344 35.31300781 19.47523438 34.48929688 19.94140625 33.640625 C21.1328125 31.57421875 21.1328125 31.57421875 22.1328125 30.57421875 C28.89674614 29.77171815 28.89674614 29.77171815 31.92578125 31.73828125 C35.93166122 35.59579529 37.9642099 39.18806334 38.36328125 44.8359375 C38.34910156 45.96644531 38.33492187 47.09695312 38.3203125 48.26171875 C38.31386719 49.39996094 38.30742187 50.53820312 38.30078125 51.7109375 C38.1328125 54.57421875 38.1328125 54.57421875 37.1328125 56.57421875 C38.1228125 57.06921875 38.1228125 57.06921875 39.1328125 57.57421875 C38.6584375 58.06921875 38.1840625 58.56421875 37.6953125 59.07421875 C35.5070638 62.57541667 35.52400901 65.46665543 35.1328125 69.57421875 C34.6378125 71.05921875 34.6378125 71.05921875 34.1328125 72.57421875 C34.1740625 73.68796875 34.2153125 74.80171875 34.2578125 75.94921875 C34.12380522 79.83542988 33.5145804 81.55120565 31.1328125 84.57421875 C30.4728125 84.57421875 29.8128125 84.57421875 29.1328125 84.57421875 C28.4728125 86.22421875 27.8128125 87.87421875 27.1328125 89.57421875 C25.79878368 89.45687362 24.4656111 89.32979699 23.1328125 89.19921875 C22.3903125 89.12960938 21.6478125 89.06 20.8828125 88.98828125 C18.1328125 88.57421875 18.1328125 88.57421875 14.4140625 87.54296875 C9.79349056 86.34982764 5.37952017 86.34871842 0.6328125 86.44921875 C-0.18960938 86.45824219 -1.01203125 86.46726562 -1.859375 86.4765625 C-3.86210833 86.4998501 -5.86468904 86.53570916 -7.8671875 86.57421875 C-8.1971875 85.91421875 -8.5271875 85.25421875 -8.8671875 84.57421875 C-8.2071875 84.57421875 -7.5471875 84.57421875 -6.8671875 84.57421875 C-8.0985815 80.88003674 -10.07510104 79.22312129 -12.8671875 76.57421875 C-12.3721875 76.07921875 -12.3721875 76.07921875 -11.8671875 75.57421875 C-12.3003125 74.1975 -12.3003125 74.1975 -12.7421875 72.79296875 C-16.59945295 60.04256352 -16.59945295 60.04256352 -15.8671875 53.57421875 C-15.2071875 52.58421875 -14.5471875 51.59421875 -13.8671875 50.57421875 C-13.5371875 52.22421875 -13.2071875 53.87421875 -12.8671875 55.57421875 C-12.2071875 53.92421875 -11.5471875 52.27421875 -10.8671875 50.57421875 C-10.2071875 50.57421875 -9.5471875 50.57421875 -8.8671875 50.57421875 C-8.8465625 49.81109375 -8.8259375 49.04796875 -8.8046875 48.26171875 C-7.8671875 45.57421875 -7.8671875 45.57421875 -4.3046875 43.76171875 C-2.603125 43.17390625 -2.603125 43.17390625 -0.8671875 42.57421875 C-2.506875 42.82171875 -2.506875 42.82171875 -4.1796875 43.07421875 C-7.8671875 43.57421875 -7.8671875 43.57421875 -10.8671875 43.57421875 C-10.2071875 42.91421875 -9.5471875 42.25421875 -8.8671875 41.57421875 C-7.8771875 41.57421875 -6.8871875 41.57421875 -5.8671875 41.57421875 C-6.4859375 40.83171875 -7.1046875 40.08921875 -7.7421875 39.32421875 C-10.94230928 35.18288468 -12.19568636 31.60372766 -13.359375 26.5703125 C-13.86416968 24.40367129 -13.86416968 24.40367129 -14.9921875 21.76171875 C-16.28530468 17.05107758 -16.02267689 12.42894289 -15.8671875 7.57421875 C-15.2071875 7.24421875 -14.5471875 6.91421875 -13.8671875 6.57421875 C-13.70863281 7.63640625 -13.55007812 8.69859375 -13.38671875 9.79296875 C-11.93868349 18.79610938 -10.58898069 25.85242556 -3.8671875 32.57421875 C-2.8771875 32.57421875 -1.8871875 32.57421875 -0.8671875 32.57421875 C-1.32609375 32.24550781 -1.785 31.91679688 -2.2578125 31.578125 C-7.9403131 27.17299323 -11.16414988 22.41559146 -12.2109375 15.20703125 C-12.40947354 10.29326431 -11.62622506 6.76386838 -8.8671875 2.57421875 C-5.757402 0.50102842 -3.73206507 -0.08951448 0 0 Z " fill="#C6B8AE" transform="translate(169.8671875,22.42578125)"/>
<path d="M0 0 C1.04929688 0.31332275 2.09859375 0.62664551 3.1796875 0.94946289 C12.41387446 3.73135989 21.57040612 6.73236537 30.6875 9.875 C29.3675 10.205 28.0475 10.535 26.6875 10.875 C26.6875 11.865 26.6875 12.855 26.6875 13.875 C27.6775 14.205 28.6675 14.535 29.6875 14.875 C32.45790168 18.21508991 34.54786403 21.53449473 35 25.875 C34.896875 26.535 34.79375 27.195 34.6875 27.875 C35.3475 27.875 36.0075 27.875 36.6875 27.875 C36.3575 33.485 36.0275 39.095 35.6875 44.875 C32.30379316 41.49129316 32.63220014 37.6417907 32.625 33.0625 C32.64094011 31.66660221 32.66013293 30.27072052 32.6875 28.875 C29.97525382 30.48768692 27.31397188 32.12401874 24.6875 33.875 C23.3675 32.555 22.0475 31.235 20.6875 29.875 C20.6875 31.525 20.6875 33.175 20.6875 34.875 C21.6775 35.37 21.6775 35.37 22.6875 35.875 C19.2225 37.855 19.2225 37.855 15.6875 39.875 C16.3475 40.535 17.0075 41.195 17.6875 41.875 C17.4375 44 17.4375 44 16.6875 46.875 C16.33282324 48.31237423 15.97867992 49.74988017 15.625 51.1875 C15.315625 52.404375 15.00625 53.62125 14.6875 54.875 C14.3575 54.875 14.0275 54.875 13.6875 54.875 C13.1925 50.42 13.1925 50.42 12.6875 45.875 C12.0275 48.515 11.3675 51.155 10.6875 53.875 C10.0275 53.875 9.3675 53.875 8.6875 53.875 C8.6875 55.525 8.6875 57.175 8.6875 58.875 C6.1875 56.5625 6.1875 56.5625 3.6875 53.875 C3.6875 50.875 3.6875 50.875 5.0625 49.1875 C6.6875 47.875 6.6875 47.875 8.6875 47.875 C9.0175 46.555 9.3475 45.235 9.6875 43.875 C9.0275 43.875 8.3675 43.875 7.6875 43.875 C7.6875 44.535 7.6875 45.195 7.6875 45.875 C6.6975 45.38 6.6975 45.38 5.6875 44.875 C6.3475 43.225 7.0075 41.575 7.6875 39.875 C6.6975 40.37 6.6975 40.37 5.6875 40.875 C7.5625 35.125 7.5625 35.125 8.6875 32.875 C9.2201006 25.28544142 7.96963071 19.069983 3.5 12.8125 C-0.43668801 10.10055937 -2.5897249 10.41795725 -7.3125 10.875 C-8.3025 11.205 -9.2925 11.535 -10.3125 11.875 C-10.456875 12.679375 -10.60125 13.48375 -10.75 14.3125 C-11.3125 16.875 -11.3125 16.875 -12.3125 17.875 C-13.03266982 25.43678308 -11.47253373 30.52066276 -7.3125 36.875 C-3.88555822 40.47768238 -1.23264964 41.41731166 3.6875 41.875 C3.6875 42.205 3.6875 42.535 3.6875 42.875 C-3.84388075 43.92939331 -3.84388075 43.92939331 -7.140625 41.5625 C-13.61651809 34.23623711 -14.99742175 26.29714886 -16.3125 16.875 C-16.62088942 23.08847574 -16.61649063 28.28842796 -14.1015625 34.03515625 C-13.3125 35.875 -13.3125 35.875 -12.3125 39.5625 C-11.34750252 42.75905414 -10.09846603 45.07957491 -8.3125 47.875 C-7.9825 48.865 -7.6525 49.855 -7.3125 50.875 C-8.3025 51.37 -8.3025 51.37 -9.3125 51.875 C-8.19875 51.66875 -7.085 51.4625 -5.9375 51.25 C-4.74125 51.12625 -3.545 51.0025 -2.3125 50.875 C-1.6525 51.535 -0.9925 52.195 -0.3125 52.875 C-3.2825 53.535 -6.2525 54.195 -9.3125 54.875 C-9.43625 55.679375 -9.56 56.48375 -9.6875 57.3125 C-9.996875 58.5809375 -9.996875 58.5809375 -10.3125 59.875 C-11.3025 60.37 -11.3025 60.37 -12.3125 60.875 C-12.7808265 63.46105332 -12.7808265 63.46105332 -12.9375 66.4375 C-13.01226562 67.44941406 -13.08703125 68.46132812 -13.1640625 69.50390625 C-13.21304688 70.28636719 -13.26203125 71.06882812 -13.3125 71.875 C-13.6425 71.875 -13.9725 71.875 -14.3125 71.875 C-14.9725 68.905 -15.6325 65.935 -16.3125 62.875 C-16.36148438 63.63425781 -16.41046875 64.39351563 -16.4609375 65.17578125 C-16.53570312 66.16964844 -16.61046875 67.16351563 -16.6875 68.1875 C-16.75710937 69.17363281 -16.82671875 70.15976563 -16.8984375 71.17578125 C-17.3125 73.875 -17.3125 73.875 -19.3125 76.875 C-20.3025 73.905 -20.3025 73.905 -21.3125 70.875 C-22.3025 71.865 -22.3025 71.865 -23.3125 72.875 C-26.23862388 69.60159232 -26.76354068 67.24747095 -27.04296875 62.90625 C-27.12385742 61.70822754 -27.20474609 60.51020508 -27.28808594 59.27587891 C-27.35801758 57.98858887 -27.42794922 56.70129883 -27.5 55.375 C-27.57972368 54.03694489 -27.65947668 52.69889153 -27.73925781 51.36083984 C-28.26425152 42.07737413 -28.51585791 32.7985666 -28.5625 23.5 C-28.57176514 22.34951172 -28.58103027 21.19902344 -28.59057617 20.01367188 C-28.53643878 5.7213999 -28.53643878 5.7213999 -24.875 1.03515625 C-16.0582377 -5.15861926 -9.82820208 -3.00418915 0 0 Z " fill="#E0D0C3" transform="translate(171.3125,13.125)"/>
<path d="M0 0 C0.33 0.66 0.66 1.32 1 2 C0.54403425 3.12186377 0.54403425 3.12186377 0.07885706 4.26639146 C-1.11906051 7.30167558 -1.25426129 9.48505474 -1.26171303 12.7377367 C-1.27291127 14.46650019 -1.27291127 14.46650019 -1.28433573 16.23018819 C-1.282401 17.49185502 -1.28046626 18.75352186 -1.2784729 20.05342102 C-1.28347649 21.41067421 -1.28935247 22.76792441 -1.29602563 24.12517041 C-1.31183209 27.85360515 -1.31525667 31.58196454 -1.31667423 35.31042874 C-1.32036715 39.33153183 -1.33552209 43.35259355 -1.34928894 47.37367249 C-1.37156898 54.34008158 -1.38657779 61.30647596 -1.39665604 68.27291298 C-1.411238 78.34522156 -1.43677347 88.41747891 -1.46498732 98.48975744 C-1.51046409 114.83113007 -1.54707524 131.17251007 -1.578125 147.51391602 C-1.60830692 163.38860367 -1.64265554 179.26327328 -1.68261719 195.13793945 C-1.68630951 196.60557085 -1.68630951 196.60557085 -1.69007643 198.10285137 C-1.70245096 203.01127374 -1.7149075 207.9196959 -1.72740483 212.82811797 C-1.83098587 253.55205355 -1.92018477 294.27601135 -2 335 C-1.34 335 -0.68 335 0 335 C0.01417969 335.60328125 0.02835938 336.2065625 0.04296875 336.828125 C0.29631004 342.21330329 0.29631004 342.21330329 3.4375 346.4375 C4.283125 346.953125 5.12875 347.46875 6 348 C8 350 8 350 10 352.5625 C11.76637442 355.05309672 11.76637442 355.05309672 14 356 C16.71579586 356.09316671 19.40573898 356.125777 22.12158203 356.11352539 C22.96068115 356.11367142 23.79978027 356.11381744 24.66430664 356.1139679 C27.44550131 356.11326968 30.22662949 356.10548155 33.0078125 356.09765625 C34.93309492 356.09579175 36.85837782 356.094368 38.78366089 356.09336853 C43.8570079 356.08954591 48.93032639 356.07971779 54.00366211 356.06866455 C59.17821873 356.05844495 64.35277995 356.05386973 69.52734375 356.04882812 C79.68490838 356.03809531 89.84245182 356.02102193 100 356 C100.33 354.68 100.66 353.36 101 352 C101.99 352.33 102.98 352.66 104 353 C99.99344376 357.22312684 98.10323316 358.92316362 92.15570068 359.14044189 C90.51496313 359.152507 88.87417892 359.15896947 87.23339844 359.16113281 C86.33712234 359.16609772 85.44084625 359.17106262 84.51741028 359.17617798 C81.5480574 359.19079947 78.57875798 359.19760214 75.609375 359.203125 C73.54534911 359.20887714 71.48132323 359.21463487 69.41729736 359.22039795 C65.08630118 359.23090837 60.75532355 359.23675055 56.42431641 359.24023438 C50.88162515 359.24571445 45.33918012 359.26973201 39.79656601 359.29820633 C35.53112071 359.31685568 31.26573439 359.32203957 27.00025177 359.32357025 C24.95736599 359.32659289 22.91448115 359.33460829 20.87163544 359.34775543 C18.00896136 359.36486125 15.14688452 359.36292437 12.28417969 359.35644531 C11.44444107 359.3656601 10.60470245 359.37487488 9.73951721 359.3843689 C4.43210098 359.34684963 0.69972219 358.52573638 -4 356 C-4.33 355.34 -4.66 354.68 -5 354 C-3.58376784 353.94552953 -2.16691809 353.90699492 -0.75 353.875 C0.03890625 353.85179687 0.8278125 353.82859375 1.640625 353.8046875 C4.20731941 354.0171622 5.7916067 354.71345895 8 356 C7.02546875 355.27683594 7.02546875 355.27683594 6.03125 354.5390625 C5.1959375 353.90742188 4.360625 353.27578125 3.5 352.625 C2.6646875 351.99851562 1.829375 351.37203125 0.96875 350.7265625 C-0.00578125 349.87191406 -0.00578125 349.87191406 -1 349 C-1 348.34 -1 347.68 -1 347 C-3.97 346.67 -6.94 346.34 -10 346 C-9.67 347.32 -9.34 348.64 -9 350 C-13.69841495 345.8670115 -14.72919866 340.02330746 -15.27088988 333.97570407 C-15.3825306 330.52474488 -15.39513254 327.08636399 -15.3742218 323.63365173 C-15.37819621 322.31655372 -15.38217061 320.9994557 -15.38626546 319.64244562 C-15.39679186 316.01102147 -15.38876293 312.37984564 -15.37751496 308.74843252 C-15.36863641 304.82269025 -15.37712695 300.8969792 -15.38337708 296.97123718 C-15.39284562 289.290634 -15.38628243 281.61012505 -15.37411413 273.92952888 C-15.36046535 264.97973014 -15.36213452 256.02995361 -15.36424746 247.0801471 C-15.36743447 231.10899478 -15.35578589 215.13788712 -15.33618164 199.16674805 C-15.31717555 183.67877849 -15.3100953 168.19086125 -15.31567383 152.70288086 C-15.32173509 135.82481383 -15.32154842 118.94676979 -15.310188 102.06870466 C-15.30898074 100.26817517 -15.30777476 98.46764567 -15.30657005 96.66711617 C-15.30596651 95.78128895 -15.30536298 94.89546173 -15.30474115 93.98279126 C-15.30086617 87.7481932 -15.30125398 81.51360372 -15.3031559 75.27900505 C-15.30528057 67.67921971 -15.3000331 60.07948012 -15.28554235 52.47970765 C-15.27831156 48.60416792 -15.2742101 44.72869475 -15.27878571 40.85314941 C-15.28362905 36.64848901 -15.2729234 32.44401003 -15.26069641 28.23936462 C-15.26447573 27.01951604 -15.26825506 25.79966746 -15.27214891 24.54285377 C-15.23281357 16.8985765 -14.42865217 10.28595651 -12 3 C-9.27734375 2.05078125 -9.27734375 2.05078125 -5.9375 1.3125 C-4.83277344 1.06113281 -3.72804687 0.80976563 -2.58984375 0.55078125 C-1.73519531 0.36902344 -0.88054687 0.18726562 0 0 Z M-4 12 C-4.24234375 12.71027344 -4.4846875 13.42054687 -4.734375 14.15234375 C-5.06953125 15.07144531 -5.4046875 15.99054687 -5.75 16.9375 C-6.23726562 18.31228516 -6.23726562 18.31228516 -6.734375 19.71484375 C-8 22 -8 22 -10.140625 22.81640625 C-10.75421875 22.87699219 -11.3678125 22.93757813 -12 23 C-12 23.66 -12 24.32 -12 25 C-10.68 25 -9.36 25 -8 25 C-8 25.66 -8 26.32 -8 27 C-9.32 27.33 -10.64 27.66 -12 28 C-12.93290979 33.73663025 -13.31335797 39.41147546 -13.55441284 45.21574402 C-13.59654022 46.2182004 -13.6386676 47.22065678 -13.68207157 48.25349063 C-14.15901886 60.68299261 -14.14013031 73.11131535 -14.12939453 85.5480957 C-14.13075314 88.22801326 -14.13250014 90.9079281 -14.13470459 93.58784485 C-14.13910212 100.04573985 -14.13821392 106.50362309 -14.13529195 112.9615185 C-14.13301805 118.20694844 -14.13273391 123.45237512 -14.13381577 128.6978054 C-14.133969 129.44900995 -14.13412223 130.20021449 -14.13428011 130.97418281 C-14.13459987 132.50076006 -14.13492408 134.02733732 -14.1352527 135.55391457 C-14.13808873 149.78933547 -14.13484796 164.02474987 -14.12945233 178.26016971 C-14.12496669 190.4739868 -14.12577826 202.6877944 -14.13037109 214.90161133 C-14.13571697 229.12450144 -14.1378344 243.34738594 -14.13475883 257.57027692 C-14.1344403 259.08429317 -14.13412593 260.59830942 -14.13381577 262.11232567 C-14.13366149 262.85709752 -14.13350721 263.60186937 -14.13334826 264.36921007 C-14.13248458 269.61889139 -14.13394238 274.86856913 -14.13629532 280.11824989 C-14.13909278 286.4988325 -14.13835539 292.8794028 -14.13301457 299.25998399 C-14.13037981 302.51500305 -14.12990393 305.76999719 -14.13266373 309.02501678 C-14.13537523 312.54606172 -14.13199437 316.06704785 -14.12698364 319.58808899 C-14.12921436 320.62491249 -14.13144509 321.66173599 -14.13374341 322.72997838 C-14.13113566 323.66726 -14.12852791 324.60454162 -14.12584114 325.57022572 C-14.12567879 326.38327004 -14.12551644 327.19631437 -14.12534916 328.0339964 C-14.12312161 330.0782532 -14.12312161 330.0782532 -13 332 C-11.845 332.33 -10.69 332.66 -9.5 333 C-8.345 333.33 -7.19 333.66 -6 334 C-5.67 334.66 -5.34 335.32 -5 336 C-4.34 336 -3.68 336 -3 336 C-3 229.08 -3 122.16 -3 12 C-3.33 12 -3.66 12 -4 12 Z " fill="#736250" transform="translate(144,16)"/>
<path d="M0 0 C1.13180728 3.59968436 1.09085711 6.91847698 1.03759766 10.67578125 C1.02959641 11.34030304 1.02159515 12.00482483 1.01335144 12.68948364 C0.98540472 14.89725847 0.94983908 17.10483919 0.9140625 19.3125 C0.89222025 20.87963331 0.87077424 22.44677218 0.84970093 24.01391602 C0.8040986 27.32281042 0.75496307 30.6316272 0.703125 33.94042969 C0.63861569 38.06327833 0.58058113 42.18618166 0.52493668 46.30915833 C0.41523521 54.40685178 0.28657945 62.50400439 0.13516617 70.60102844 C0.05677503 74.79334745 -0.01615491 78.98562016 -0.07775879 83.17822266 C-0.14028763 87.40079975 -0.2175001 91.62287434 -0.30519485 95.84500122 C-0.33588365 97.43676902 -0.36155001 99.0286423 -0.38196945 100.62057495 C-0.41106119 102.81527707 -0.45837818 105.00886005 -0.51025391 107.203125 C-0.53246002 108.44739258 -0.55466614 109.69166016 -0.57754517 110.97363281 C-1 114 -1 114 -2.34310913 115.92480469 C-4 117 -4 117 -7 117 C-7 146.37 -7 175.74 -7 206 C-7.33 206 -7.66 206 -8 206 C-8.02347408 184.75351703 -8.04104987 163.50703623 -8.05181217 142.26054287 C-8.05694454 132.39301047 -8.06392815 122.52548618 -8.07543945 112.65795898 C-8.08548059 104.04647457 -8.09187561 95.43499604 -8.09408849 86.82350594 C-8.09537977 82.27376804 -8.09836323 77.72404695 -8.10573006 73.1743145 C-8.18267457 23.62702243 -8.18267457 23.62702243 -6 10 C-4.68 9.67 -3.36 9.34 -2 9 C-2 8.34 -2 7.68 -2 7 C-3.32 7 -4.64 7 -6 7 C-6 6.34 -6 5.68 -6 5 C-5.195625 4.731875 -4.39125 4.46375 -3.5625 4.1875 C-2.716875 3.795625 -1.87125 3.40375 -1 3 C-0.67 2.01 -0.34 1.02 0 0 Z " fill="#947A6B" transform="translate(138,34)"/>
<path d="M0 0 C0.66 0 1.32 0 2 0 C1.835 0.763125 1.67 1.52625 1.5 2.3125 C0.90854604 5.03596236 0.90854604 5.03596236 1 8 C2.65 7.34 4.3 6.68 6 6 C6 9.10551666 5.4606285 10.35261084 4 13 C3.34 12.67 2.68 12.34 2 12 C1.67828201 19.81655558 1.79020987 25.83969893 5 33 C5.495 34.8253125 5.495 34.8253125 6 36.6875 C6.96499748 39.88405414 8.21403397 42.20457491 10 45 C10.33 45.99 10.66 46.98 11 48 C10.01 48.495 10.01 48.495 9 49 C10.11375 48.79375 11.2275 48.5875 12.375 48.375 C13.57125 48.25125 14.7675 48.1275 16 48 C16.66 48.66 17.32 49.32 18 50 C15.03 50.66 12.06 51.32 9 52 C8.87625 52.804375 8.7525 53.60875 8.625 54.4375 C8.315625 55.7059375 8.315625 55.7059375 8 57 C7.01 57.495 7.01 57.495 6 58 C5.5316735 60.58605332 5.5316735 60.58605332 5.375 63.5625 C5.30023438 64.57441406 5.22546875 65.58632812 5.1484375 66.62890625 C5.09945312 67.41136719 5.05046875 68.19382812 5 69 C4.67 69 4.34 69 4 69 C3.34 66.03 2.68 63.06 2 60 C1.95101562 60.75925781 1.90203125 61.51851562 1.8515625 62.30078125 C1.77679688 63.29464844 1.70203125 64.28851563 1.625 65.3125 C1.55539063 66.29863281 1.48578125 67.28476563 1.4140625 68.30078125 C1 71 1 71 -1 74 C-1.99 71.03 -1.99 71.03 -3 68 C-3.99 68.99 -3.99 68.99 -5 70 C-8.09469597 66.60814672 -8.46332997 64.02882626 -8.73046875 59.50390625 C-8.81103516 58.22193359 -8.89160156 56.93996094 -8.97460938 55.61914062 C-9.00965576 54.95116455 -9.04470215 54.28318848 -9.08081055 53.5949707 C-9.18554894 51.5996683 -9.31035966 49.60545199 -9.43554688 47.61132812 C-9.92244516 39.39952261 -10.10230004 31.22509787 -10 23 C-9.34 22.67 -8.68 22.34 -8 22 C-7.49084316 18.66219406 -7.16087834 15.35250666 -6.87695312 11.99023438 C-6.46013689 7.88590875 -6.12279823 4.86695452 -3 2 C-2.01 2 -1.02 2 0 2 C0 1.34 0 0.68 0 0 Z " fill="#FAECE0" transform="translate(153,16)"/>
<path d="M0 0 C2.0625 0.4375 2.0625 0.4375 4 1 C3.99214478 2.8097229 3.99214478 2.8097229 3.98413086 4.65600586 C3.96608389 9.11563378 3.95456911 13.57525846 3.94506836 18.03491211 C3.94002744 19.96818585 3.93319481 21.90145576 3.92456055 23.8347168 C3.91248435 26.60726872 3.90676943 29.37977041 3.90234375 32.15234375 C3.89718246 33.02213364 3.89202118 33.89192352 3.88670349 34.78807068 C3.88650815 36.85905814 3.93791832 38.92994324 4 41 C4.33 41.33 4.66 41.66 5 42 C5.11801247 43.73036615 5.16734838 45.46546214 5.18945312 47.19970703 C5.21452942 48.86877609 5.21452942 48.86877609 5.2401123 50.57156372 C5.25368774 51.78802582 5.26726318 53.00448792 5.28125 54.2578125 C5.30886414 56.13338333 5.30886414 56.13338333 5.33703613 58.04684448 C5.3959986 62.07284776 5.44866686 66.09889458 5.5 70.125 C5.67393295 92.58673028 5.67393295 92.58673028 7 115 C6.56945312 114.51660156 6.13890625 114.03320312 5.6953125 113.53515625 C3.34285634 111.40493673 1.07838766 111.4684503 -2 111 C-3.44957456 108.10085089 -3.11932924 105.585717 -3.11352539 102.34716797 C-3.11367142 101.66412598 -3.11381744 100.98108398 -3.1139679 100.27734375 C-3.11327023 98.0155929 -3.10548465 95.753924 -3.09765625 93.4921875 C-3.09579155 91.92562912 -3.09436789 90.35907016 -3.09336853 88.79251099 C-3.08954743 84.66610102 -3.0797206 80.53972616 -3.06866455 76.41333008 C-3.0584417 72.20394363 -3.05386903 67.99455153 -3.04882812 63.78515625 C-3.03809798 55.52342138 -3.02102642 47.26171505 -3 39 C-2.67 39 -2.34 39 -2 39 C-1.97494385 37.854104 -1.9498877 36.70820801 -1.92407227 35.52758789 C-1.83016894 31.29146402 -1.72990725 27.05551072 -1.62768555 22.81958008 C-1.5842718 20.98335753 -1.54260161 19.14709292 -1.50268555 17.31079102 C-1.44513831 14.67711689 -1.38140002 12.04365579 -1.31640625 9.41015625 C-1.29969376 8.58411392 -1.28298126 7.75807159 -1.26576233 6.90699768 C-1.11387171 1.11387171 -1.11387171 1.11387171 0 0 Z " fill="#BB9F86" transform="translate(133,237)"/>
<path d="M0 0 C0.33 0.66 0.66 1.32 1 2 C0.69720123 2.70875778 0.39440247 3.41751556 0.08242798 4.14775085 C-1.25740354 7.67827055 -1.30739587 10.91431526 -1.31884766 14.63598633 C-1.32889328 15.38774139 -1.3389389 16.13949646 -1.34928894 16.91403198 C-1.38005859 19.38669098 -1.39713858 21.859242 -1.4140625 24.33203125 C-1.43277917 26.05125351 -1.45235296 27.77046663 -1.4727478 29.4896698 C-1.52402234 34.00559089 -1.56367307 38.52154176 -1.60089111 43.03759766 C-1.64096011 47.64948868 -1.69203924 52.26125638 -1.7421875 56.87304688 C-1.83889138 65.91527789 -1.92331387 74.95757861 -2 84 C-2.33 84 -2.66 84 -3 84 C-3.33 60.57 -3.66 37.14 -4 13 C-4.99 15.97 -5.98 18.94 -7 22 C-8.65 22.33 -10.3 22.66 -12 23 C-12 23.66 -12 24.32 -12 25 C-10.68 25 -9.36 25 -8 25 C-8 25.66 -8 26.32 -8 27 C-8.99 27.33 -9.98 27.66 -11 28 C-11.93383321 33.73818052 -12.31037472 39.41356027 -12.54966736 45.21949768 C-12.59167705 46.22204482 -12.63368675 47.22459195 -12.67696947 48.2575193 C-13.15500769 60.66500151 -13.17659358 73.07297402 -13.20532227 85.48803711 C-13.21492806 88.16134874 -13.22489956 90.83465674 -13.23532104 93.50796509 C-13.25684373 99.2119319 -13.27507356 104.91590112 -13.29092598 110.6198864 C-13.31384957 118.86641654 -13.34195824 127.11292294 -13.37124526 135.35943265 C-13.41864956 148.74587744 -13.46198533 162.13233209 -13.50268555 175.51879883 C-13.54218007 188.50578575 -13.58363858 201.49276401 -13.62768555 214.47973633 C-13.63177196 215.68488607 -13.63177196 215.68488607 -13.63594092 216.91438227 C-13.64962268 220.9458411 -13.6633425 224.97729979 -13.67708123 229.00875843 C-13.79061815 262.33915428 -13.89751986 295.66956829 -14 329 C-14.33 329 -14.66 329 -15 329 C-15.04578327 289.15145757 -15.08102218 249.30291857 -15.10213066 209.45435509 C-15.10463206 204.7492738 -15.1072207 200.04419255 -15.10986328 195.33911133 C-15.1103879 194.40241908 -15.11091252 193.46572684 -15.11145304 192.50064998 C-15.12015433 177.33625095 -15.13592279 162.17186709 -15.15430559 147.00747705 C-15.1730123 131.44603377 -15.18411836 115.88459844 -15.18817699 100.32314438 C-15.19092044 90.72183748 -15.19958378 81.12057347 -15.21583293 71.51927977 C-15.22640932 64.93424774 -15.22959914 58.34923786 -15.22700275 51.76419795 C-15.22572249 47.96567876 -15.22767754 44.16723449 -15.23841095 40.36872864 C-15.24997308 36.2467519 -15.24596971 32.12493424 -15.24050903 28.00294495 C-15.24633472 26.80740275 -15.2521604 25.61186056 -15.25816262 24.38008982 C-15.23108439 16.8204996 -14.38912229 10.16736686 -12 3 C-9.27734375 2.05078125 -9.27734375 2.05078125 -5.9375 1.3125 C-4.83277344 1.06113281 -3.72804687 0.80976563 -2.58984375 0.55078125 C-1.73519531 0.36902344 -0.88054687 0.18726562 0 0 Z " fill="#3D2113" transform="translate(144,16)"/>
<path d="M0 0 C4.39712878 1.18384236 6.78230736 4.88242813 9.1328125 8.57421875 C11.64749844 14.69693235 12.24631065 20.71093779 9.8203125 26.94921875 C8.1328125 29.57421875 8.1328125 29.57421875 5.1328125 31.57421875 C0.78541023 32.14840396 -1.27772826 31.9325175 -5.0546875 29.63671875 C-9.75530588 25.16293986 -12.05534532 19.31541066 -12.3046875 12.88671875 C-12.10833038 8.8754232 -11.10035429 5.96532388 -8.8671875 2.57421875 C-5.757402 0.50102842 -3.73206507 -0.08951448 0 0 Z " fill="#131011" transform="translate(169.8671875,22.42578125)"/>
<path d="M0 0 C4.65447295 1.12349347 7.07975493 2.64297934 9.8203125 6.6015625 C12.68592045 11.63140582 13.48837075 16.15002966 12.625 21.875 C11.54215342 25.65764651 10.08816852 29.77236197 6.625 31.875 C2.13566464 32.55263553 0.20397751 32.25356222 -3.625 29.75 C-7.38043436 25.82386408 -9.22844661 22.70007827 -9.66796875 17.2265625 C-9.63316406 15.99679688 -9.59835938 14.76703125 -9.5625 13.5 C-9.53542969 12.25476563 -9.50835937 11.00953125 -9.48046875 9.7265625 C-9.44566406 8.78554687 -9.41085938 7.84453125 -9.375 6.875 C-8.715 6.875 -8.055 6.875 -7.375 6.875 C-7.271875 6.09125 -7.16875 5.3075 -7.0625 4.5 C-5.96521966 0.31038415 -4.1453177 -0.15353029 0 0 Z " fill="#111011" transform="translate(168.375,66.125)"/>
<path d="M0 0 C3.62375258 1.13463877 5.89329815 3.53777462 7.99609375 6.625 C9.93685365 10.52639107 10.29339181 13.7873789 10.30859375 18.125 C10.32535156 19.2284375 10.34210938 20.331875 10.359375 21.46875 C9.95761609 24.95930052 9.08064273 26.82531378 6.99609375 29.625 C3.84697896 31.19955739 1.47600559 30.97299118 -2.00390625 30.625 C-6.60985009 27.79057302 -8.91004786 25.03084306 -10.52734375 19.8671875 C-11.75928316 14.07101358 -12.13183682 8.73082983 -9.00390625 3.5 C-6.36533178 0.35314489 -4.05213885 -0.3676799 0 0 Z " fill="#130F10" transform="translate(198.00390625,52.375)"/>
<path d="M0 0 C1.91697937 0.14166357 3.83357723 0.28849584 5.75 0.4375 C7.35101563 0.55931641 7.35101563 0.55931641 8.984375 0.68359375 C11.43679962 0.94090773 13.63921291 1.31812218 16 2 C16 2.66 16 3.32 16 4 C16.86625 3.938125 17.7325 3.87625 18.625 3.8125 C22.44199033 4.02455502 24.71077536 5.12044307 28 7 C28 7.99 28 8.98 28 10 C28.721875 10.0825 29.44375 10.165 30.1875 10.25 C33.55313254 11.14750201 35.41612816 12.7114278 38 15 C37.67 15.66 37.34 16.32 37 17 C34.03 16.01 31.06 15.02 28 14 C27.79503906 14.83144531 27.59007812 15.66289062 27.37890625 16.51953125 C27.10949219 17.60621094 26.84007812 18.69289063 26.5625 19.8125 C26.29566406 20.89144531 26.02882812 21.97039063 25.75390625 23.08203125 C25.23922588 25.0740843 24.65062825 27.04811524 24 29 C23.96125079 30.66621616 23.9549714 32.33394172 24 34 C23.34 34 22.68 34 22 34 C21.34 35.32 20.68 36.64 20 38 C19.01 38 18.02 38 17 38 C18.875 32.25 18.875 32.25 20 30 C20.5326006 22.41044142 19.28213071 16.194983 14.8125 9.9375 C10.87581199 7.22555937 8.7227751 7.54295725 4 8 C3.01 8.33 2.02 8.66 1 9 C0.855625 9.804375 0.71125 10.60875 0.5625 11.4375 C0 14 0 14 -1 15 C-1.72016982 22.56178308 -0.16003373 27.64566276 4 34 C7.42694178 37.60268238 10.07985036 38.54231166 15 39 C15 39.33 15 39.66 15 40 C7.46861925 41.05439331 7.46861925 41.05439331 4.171875 38.6875 C-2.83670969 30.75859611 -3.79594296 22.21323681 -5 12 C-4.34 12 -3.68 12 -3 12 C-3 11.01 -3 10.02 -3 9 C-0.98712115 5.86885512 0.12870887 4.25742693 3.75 3.1875 C4.4925 3.125625 5.235 3.06375 6 3 C3.69 2.67 1.38 2.34 -1 2 C-0.67 1.34 -0.34 0.68 0 0 Z " fill="#E0D2C7" transform="translate(160,16)"/>
<path d="M0 0 C0.33 0 0.66 0 1 0 C1.33 1.65 1.66 3.3 2 5 C2.33 5 2.66 5 3 5 C3.09796875 5.72445312 3.1959375 6.44890625 3.296875 7.1953125 C4.21517125 13.13257274 5.08936473 17.37834014 9 22 C12.20380017 24.13586678 13.01939967 24.23132175 16.6875 24.125 C17.49574219 24.10695313 18.30398437 24.08890625 19.13671875 24.0703125 C19.75160156 24.04710938 20.36648437 24.02390625 21 24 C21.33 23.01 21.66 22.02 22 21 C22.99 21.33 23.98 21.66 25 22 C24.525625 22.495 24.05125 22.99 23.5625 23.5 C21.3742513 27.00119792 21.39119651 29.89243668 21 34 C20.67 34.99 20.34 35.98 20 37 C20 37.99 20 38.98 20 40 C19.34 40 18.68 40 18 40 C18 39.34 18 38.68 18 38 C17.34 38 16.68 38 16 38 C15.67 38.99 15.34 39.98 15 41 C12.63481229 46.63139932 12.63481229 46.63139932 10.0625 48.125 C8 48 8 48 5.75 46.5 C3.4032246 43.14746371 3.56231741 41.01209037 4 37 C4.66 36.01 5.32 35.02 6 34 C7.65 34.33 9.3 34.66 11 35 C10.4225 34.443125 9.845 33.88625 9.25 33.3125 C3 26.88888889 3 26.88888889 3 24 C2.34 24 1.68 24 1 24 C1 23.34 1 22.68 1 22 C0.34 22 -0.32 22 -1 22 C-1.02887814 18.52085059 -1.04675687 15.04173169 -1.0625 11.5625 C-1.07087891 10.56927734 -1.07925781 9.57605469 -1.08789062 8.55273438 C-1.09111328 7.60849609 -1.09433594 6.66425781 -1.09765625 5.69140625 C-1.10289307 4.81685791 -1.10812988 3.94230957 -1.11352539 3.04125977 C-1 1 -1 1 0 0 Z " fill="#B7AAA0" transform="translate(184,58)"/>
<path d="M0 0 C0.33 0 0.66 0 1 0 C1.06058594 0.92683594 1.12117187 1.85367188 1.18359375 2.80859375 C1.26738281 4.00613281 1.35117188 5.20367187 1.4375 6.4375 C1.51871094 7.63246094 1.59992188 8.82742187 1.68359375 10.05859375 C1.67656114 12.88570244 1.67656114 12.88570244 3 14 C3 9.71 3 5.42 3 1 C5.383244 3.383244 5.45158236 4.54647708 6 7.8125 C6.66709203 11.45023623 7.52857654 14.59733324 9 18 C9.309375 19.155 9.61875 20.31 9.9375 21.5 C10.93354785 24.78109879 12.16860168 27.1334635 14 30 C14.33 30.99 14.66 31.98 15 33 C14.01 33.495 14.01 33.495 13 34 C14.11375 33.79375 15.2275 33.5875 16.375 33.375 C17.57125 33.25125 18.7675 33.1275 20 33 C20.66 33.66 21.32 34.32 22 35 C19.03 35.66 16.06 36.32 13 37 C12.87625 37.804375 12.7525 38.60875 12.625 39.4375 C12.41875 40.283125 12.2125 41.12875 12 42 C11.01 42.495 11.01 42.495 10 43 C9.5316735 45.58605332 9.5316735 45.58605332 9.375 48.5625 C9.30023438 49.57441406 9.22546875 50.58632812 9.1484375 51.62890625 C9.09945312 52.41136719 9.05046875 53.19382813 9 54 C8.67 54 8.34 54 8 54 C7.87882813 53.38511719 7.75765625 52.77023438 7.6328125 52.13671875 C7.46523437 51.32847656 7.29765625 50.52023438 7.125 49.6875 C6.96257812 48.88699219 6.80015625 48.08648437 6.6328125 47.26171875 C6.05521001 44.74698882 6.05521001 44.74698882 4 42 C2.68 41.34 1.36 40.68 0 40 C0 26.8 0 13.6 0 0 Z " fill="#E6D7CC" transform="translate(149,31)"/>
<path d="M0 0 C0.495 0.99 0.495 0.99 1 2 C1.66 2.33 2.32 2.66 3 3 C3 7.95 3 12.9 3 18 C2.01 18.495 2.01 18.495 1 19 C0.505 17.02 0.505 17.02 0 15 C0.02320313 15.73605469 0.04640625 16.47210938 0.0703125 17.23046875 C0.08835938 18.20628906 0.10640625 19.18210937 0.125 20.1875 C0.14820313 21.15042969 0.17140625 22.11335938 0.1953125 23.10546875 C-0.07152909 27.0600611 -0.75204568 29.86166329 -3.734375 32.58203125 C-10.51957581 36.72415965 -15.05226391 36.39317237 -22.61328125 34.5703125 C-24.24929081 34.17938386 -25.89346807 33.82158088 -27.54296875 33.4921875 C-28.35378906 33.32976562 -29.16460937 33.16734375 -30 33 C-30.7425 32.855625 -31.485 32.71125 -32.25 32.5625 C-33.11625 32.2840625 -33.11625 32.2840625 -34 32 C-34.33 31.34 -34.66 30.68 -35 30 C-33.35 29.67 -31.7 29.34 -30 29 C-31.65 28.67 -33.3 28.34 -35 28 C-35 27.34 -35 26.68 -35 26 C-28.84581794 25.64495104 -23.75768409 26.66623884 -17.83203125 28.34375 C-15.10708604 28.97518558 -12.78386086 29.1221438 -10 29 C-11.65 28.67 -13.3 28.34 -15 28 C-15 27.67 -15 27.34 -15 27 C-12.69 27 -10.38 27 -8 27 C-8 26.34 -8 25.68 -8 25 C-7.02149805 23.97895449 -6.02019573 22.9793879 -5 22 C-3.79755894 19.59511789 -3.93137721 18.10949969 -4 15.4375 C-4.03785426 13.95881779 -4.04629173 12.47844212 -4 11 C-3.67 10.67 -3.34 10.34 -3 10 C-2.7746669 7.9720021 -2.55232815 5.94325126 -2.37890625 3.91015625 C-2 2 -2 2 0 0 Z " fill="#D2C4BA" transform="translate(207,82)"/>
<path d="M0 0 C0.33 0 0.66 0 1 0 C1 82.83 1 165.66 1 251 C1.66 251 2.32 251 3 251 C3 252.65 3 254.3 3 256 C0 256 0 256 -1.8125 254.5625 C-4.54169169 252.61307736 -6.68675204 252.28810852 -10 252 C-10.66 252.33 -11.32 252.66 -12 253 C-12 250.36 -12 247.72 -12 245 C-11.34 245.33 -10.68 245.66 -10 246 C-10 246.66 -10 247.32 -10 248 C-8.02 248 -6.04 248 -4 248 C-3.34 249.32 -2.68 250.64 -2 252 C-1.34 252 -0.68 252 0 252 C0 168.84 0 85.68 0 0 Z " fill="#746051" transform="translate(141,100)"/>
<path d="M0 0 C0.33 0 0.66 0 1 0 C1.0501123 0.89307861 1.10022461 1.78615723 1.15185547 2.70629883 C1.34222534 6.02223113 1.54068021 9.33747387 1.74462891 12.65258789 C1.83120717 14.08696602 1.91456619 15.52154227 1.99462891 16.95629883 C2.11033084 19.01965005 2.23762554 21.08200968 2.3671875 23.14453125 C2.44050293 24.38565674 2.51381836 25.62678223 2.58935547 26.90551758 C2.79045811 30.16281353 2.79045811 30.16281353 5 33 C5.66 32.01 6.32 31.02 7 30 C7.66 31.98 8.32 33.96 9 36 C9.99 34.68 10.98 33.36 12 32 C12.67155349 34.26949102 13.3373963 36.5403961 14 38.8125 C14.37125 40.07707031 14.7425 41.34164062 15.125 42.64453125 C16 46 16 46 16 49 C16.66 49.99 17.32 50.98 18 52 C14.59187187 51.74754606 13.80827726 50.7895726 11.4375 48.1875 C10.61438528 47.13320182 9.80125247 46.07100746 9 45 C8.401875 44.21625 7.80375 43.4325 7.1875 42.625 C6.795625 42.08875 6.40375 41.5525 6 41 C6.33 43.31 6.66 45.62 7 48 C7.99 48.33 8.98 48.66 10 49 C10 50.32 10 51.64 10 53 C10.99 53.33 11.98 53.66 13 54 C13 54.66 13 55.32 13 56 C8.54450493 54.63859873 6.74565595 52.69243386 4 49 C3.34 48.67 2.68 48.34 2 48 C2 47.34 2 46.68 2 46 C1.34 46 0.68 46 0 46 C0 30.82 0 15.64 0 0 Z " fill="#E2CFC0" transform="translate(143,52)"/>
<path d="M0 0 C0.33 0 0.66 0 1 0 C1 8.25 1 16.5 1 25 C0.67 25 0.34 25 0 25 C-0.33 85.39 -0.66 145.78 -1 208 C-1.33 208 -1.66 208 -2 208 C-2.13295927 197.1480009 -2.26346421 186.29597499 -2.39115143 175.44391251 C-2.45056443 170.40041954 -2.51070653 165.35693786 -2.57275391 160.31347656 C-3.023507 123.58770932 -3.13069417 86.88786264 -2.62768555 50.16235352 C-2.57149421 46.04800271 -2.52170273 41.93359861 -2.47328281 37.81914997 C-2.43426661 34.58391588 -2.39123021 31.34874434 -2.34705925 28.11357689 C-2.3269234 26.59430927 -2.30816927 25.07502258 -2.29092598 23.55571938 C-2.04225253 2.04225253 -2.04225253 2.04225253 0 0 Z " fill="#C8B3A0" transform="translate(140,28)"/>
<path d="M0 0 C0.33 0 0.66 0 1 0 C1.15855469 1.0621875 1.31710938 2.124375 1.48046875 3.21875 C2.92850401 12.22189063 4.27820681 19.27820681 11 26 C13.84757554 25.83578519 13.84757554 25.83578519 17 25.1875 C18.0725 24.99542969 19.145 24.80335937 20.25 24.60546875 C22.9441966 24.12974871 22.9441966 24.12974871 25 23 C24.10855186 27.45724068 22.84868521 32.48143715 19.25 35.4375 C16.15742745 36.21064314 13.18201984 36 10 36 C6.67813829 36.91114536 6.67813829 36.91114536 4 38 C4.66 37.01 5.32 36.02 6 35 C6.99 35 7.98 35 9 35 C8.38125 34.2575 7.7625 33.515 7.125 32.75 C3.92487822 28.60866593 2.67150114 25.02950891 1.5078125 19.99609375 C1.00301782 17.82945254 1.00301782 17.82945254 -0.125 15.1875 C-1.4095637 10.50801795 -1.35361351 5.82723553 -1 1 C-0.67 0.67 -0.34 0.34 0 0 Z " fill="#AE9D8F" transform="translate(155,29)"/>
<path d="M0 0 C1.4606285 2.64738916 2 3.89448334 2 7 C3.65 6.67 5.3 6.34 7 6 C11.6952463 11.60400365 12.11588746 14.93086474 12 22 C8.62226647 23.44760009 6.48619736 24.06673297 2.8125 23.5625 C-0.28679404 21.84066998 -1.36167425 20.404145 -2.53125 17.0625 C-3.98381048 10.67123389 -3.48142065 5.65730856 0 0 Z " fill="#1E1C21" transform="translate(161,25)"/>
<path d="M0 0 C0.33 0 0.66 0 1 0 C1.04677844 18.48943659 1.08201745 36.97886113 1.10362434 55.46834469 C1.11392469 64.05386779 1.12796125 72.63935406 1.15087891 81.22485352 C1.17085083 88.71039959 1.18372546 96.19591898 1.18817699 103.68149096 C1.19077794 107.64283176 1.19686533 111.60409624 1.21146011 115.56541252 C1.22510418 119.29917806 1.22920894 123.03283634 1.22621536 126.76662445 C1.22702201 128.77951429 1.23774776 130.79239264 1.24884033 132.80525208 C1.21042668 149.78957332 1.21042668 149.78957332 -3 154 C-3.33 152.35 -3.66 150.7 -4 149 C-3.34 148.67 -2.68 148.34 -2 148 C-0.45924169 141.99104259 -0.33433489 135.12862603 -1.625 129.0625 C-2.21535254 124.24128763 -1.01498311 119.71421905 0 115 C-0.66 114.67 -1.32 114.34 -2 114 C-1.505 113.505 -1.505 113.505 -1 113 C-0.90099801 111.02287193 -0.87029227 109.04209962 -0.875 107.0625 C-0.87242187 105.98097656 -0.86984375 104.89945312 -0.8671875 103.78515625 C-0.80992211 101.04340337 -0.80992211 101.04340337 -2 99 C-2.09861981 96.19803709 -2.13896076 93.42645953 -2.125 90.625 C-2.12886719 89.85671875 -2.13273438 89.0884375 -2.13671875 88.296875 C-2.13542969 87.55179687 -2.13414062 86.80671875 -2.1328125 86.0390625 C-2.13168457 85.36053223 -2.13055664 84.68200195 -2.12939453 83.98291016 C-2 82 -2 82 -1.50474548 80.35195923 C-0.79421533 77.0411065 -0.82181396 73.7567599 -0.79467773 70.38574219 C-0.78477814 69.62437958 -0.77487854 68.86301697 -0.76467896 68.07858276 C-0.73315224 65.56804488 -0.70834153 63.05748809 -0.68359375 60.546875 C-0.66301659 58.80380773 -0.64201992 57.06074536 -0.62062073 55.31768799 C-0.56547871 50.73433408 -0.51603477 46.15093572 -0.46777344 41.56750488 C-0.4175009 36.88871311 -0.36184488 32.20998572 -0.30664062 27.53125 C-0.19915533 18.3542217 -0.09768903 9.17713744 0 0 Z " fill="#A2978E" transform="translate(254,211)"/>
<path d="M0 0 C1.98 0.495 1.98 0.495 4 1 C4 14.2 4 27.4 4 41 C2.02 41.495 2.02 41.495 0 42 C-1.29032727 38.12901819 -1.14286046 34.46321748 -1.1328125 30.4296875 C-1.13376923 29.59285431 -1.13472595 28.75602112 -1.13571167 27.89382935 C-1.13639173 26.1269727 -1.13454957 24.36011355 -1.13037109 22.59326172 C-1.12500696 19.87852423 -1.13032883 17.16395118 -1.13671875 14.44921875 C-1.1360582 12.73437463 -1.13477752 11.01953062 -1.1328125 9.3046875 C-1.13483673 8.48805634 -1.13686096 7.67142517 -1.13894653 6.83004761 C-1.11495964 1.11495964 -1.11495964 1.11495964 0 0 Z " fill="#846B58" transform="translate(133,237)"/>
<path d="M0 0 C0.66 0 1.32 0 2 0 C1.835 0.763125 1.67 1.52625 1.5 2.3125 C0.90854604 5.03596236 0.90854604 5.03596236 1 8 C2.65 7.34 4.3 6.68 6 6 C6 9.10551666 5.4606285 10.35261084 4 13 C3.34 12.67 2.68 12.34 2 12 C1.67 13.98 1.34 15.96 1 18 C0.67 18 0.34 18 0 18 C0 22.29 0 26.58 0 31 C-0.66 31.33 -1.32 31.66 -2 32 C-2.33 30.68 -2.66 29.36 -3 28 C-3.33 32.29 -3.66 36.58 -4 41 C-4.99 41 -5.98 41 -7 41 C-6.93108257 36.08820497 -6.84309747 31.17725798 -6.73754883 26.26611328 C-6.7043273 24.59596167 -6.67628666 22.92569854 -6.65356445 21.25537109 C-6.61996666 18.85205637 -6.56765054 16.44976101 -6.51171875 14.046875 C-6.50532883 13.30193787 -6.4989389 12.55700073 -6.49235535 11.78948975 C-6.40275085 8.61879895 -6.1682303 6.31318268 -4.65551758 3.49707031 C-3 2 -3 2 0 2 C0 1.34 0 0.68 0 0 Z " fill="#F8EBDD" transform="translate(153,16)"/>
<path d="M0 0 C1.91697937 0.14166357 3.83357723 0.28849584 5.75 0.4375 C7.35101563 0.55931641 7.35101563 0.55931641 8.984375 0.68359375 C11.43679962 0.94090773 13.63921291 1.31812218 16 2 C16 2.66 16 3.32 16 4 C16.86625 3.938125 17.7325 3.87625 18.625 3.8125 C22.44199033 4.02455502 24.71077536 5.12044307 28 7 C24.72814447 8.07310858 22.57052408 7.89263102 19.25 7.0625 C18.45078125 6.86785156 17.6515625 6.67320313 16.828125 6.47265625 C16.22484375 6.31667969 15.6215625 6.16070313 15 6 C15 6.33 15 6.66 15 7 C15 7.99 15 8.98 15 10 C14.01 9.34 13.02 8.68 12 8 C10.04620501 7.72214568 10.04620501 7.72214568 8 7.8125 C6.9790625 7.82216797 6.9790625 7.82216797 5.9375 7.83203125 C3.78241791 7.94302254 3.78241791 7.94302254 1 9 C0.855625 9.804375 0.71125 10.60875 0.5625 11.4375 C0 14 0 14 -1 15 C-1.72016982 22.56178308 -0.16003373 27.64566276 4 34 C7.42694178 37.60268238 10.07985036 38.54231166 15 39 C15 39.33 15 39.66 15 40 C7.46861925 41.05439331 7.46861925 41.05439331 4.171875 38.6875 C-2.83670969 30.75859611 -3.79594296 22.21323681 -5 12 C-4.34 12 -3.68 12 -3 12 C-3 11.01 -3 10.02 -3 9 C-0.98712115 5.86885512 0.12870887 4.25742693 3.75 3.1875 C4.4925 3.125625 5.235 3.06375 6 3 C3.69 2.67 1.38 2.34 -1 2 C-0.67 1.34 -0.34 0.68 0 0 Z " fill="#C9B8A8" transform="translate(160,16)"/>
<path d="M0 0 C0.66 0.33 1.32 0.66 2 1 C1.67 3.64 1.34 6.28 1 9 C2.32 9.66 3.64 10.32 5 11 C4.01 11.495 4.01 11.495 3 12 C4.81112073 14.28773145 5.60720543 14.95209822 8.5625 15.3125 C11.17796419 15.22966747 11.17796419 15.22966747 13 13 C13 13.66 13 14.32 13 15 C13.66 15 14.32 15 15 15 C14.74438677 17.3431213 14.40729228 19.67843403 14 22 C10.85088521 23.57455739 8.47991184 23.34799118 5 23 C1.25575677 20.87741313 -1.50287969 18.05440238 -3 14 C-3.046875 11.0546875 -3.046875 11.0546875 -2.75 7.875 C-2.66234375 6.82054688 -2.5746875 5.76609375 -2.484375 4.6796875 C-2 2 -2 2 0 0 Z " fill="#100D0C" transform="translate(191,60)"/>
<path d="M0 0 C0.33 0 0.66 0 1 0 C1.02578125 0.76183594 1.0515625 1.52367187 1.078125 2.30859375 C1.55081304 10.91366466 3.17370908 17.04319271 8.1875 24.0625 C12.11501485 26.76812134 15.37238956 26.4536873 20 26 C20 28.31 20 30.62 20 33 C10.95423341 33.30663616 10.95423341 33.30663616 7 31 C3 26.67567568 3 26.67567568 3 24 C2.34 24 1.68 24 1 24 C1 23.34 1 22.68 1 22 C0.34 22 -0.32 22 -1 22 C-1.02887814 18.52085059 -1.04675687 15.04173169 -1.0625 11.5625 C-1.07087891 10.56927734 -1.07925781 9.57605469 -1.08789062 8.55273438 C-1.09111328 7.60849609 -1.09433594 6.66425781 -1.09765625 5.69140625 C-1.10289307 4.81685791 -1.10812988 3.94230957 -1.11352539 3.04125977 C-1 1 -1 1 0 0 Z " fill="#97877A" transform="translate(184,58)"/>
<path d="M0 0 C0.33 0 0.66 0 1 0 C1.17015625 1.08539063 1.3403125 2.17078125 1.515625 3.2890625 C1.75966039 4.73450289 2.00449462 6.17980856 2.25 7.625 C2.35957031 8.33785156 2.46914062 9.05070312 2.58203125 9.78515625 C3.64058133 15.85789093 5.96884442 19.91394833 10.3125 24.375 C13.75094077 26.45405721 16.04356786 26.29306905 20 26 C20.99 26 21.98 26 23 26 C22.67 27.32 22.34 28.64 22 30 C20.824375 30.2165625 20.824375 30.2165625 19.625 30.4375 C17.03578982 30.87798925 17.03578982 30.87798925 15 32 C11.01618748 32.45270597 9.2060287 32.11064504 5.625 30.1875 C4.75875 29.465625 3.8925 28.74375 3 28 C3 27.01 3 26.02 3 25 C2.36305438 22.7621598 1.69167744 20.53403343 1 18.3125 C-0.89847804 11.81876591 -2.1895897 6.56876911 0 0 Z " fill="#A38E7F" transform="translate(155,73)"/>
<path d="M0 0 C0.33 0 0.66 0 1 0 C1 19.14 1 38.28 1 58 C3.64 58 6.28 58 9 58 C9.33 62.62 9.66 67.24 10 72 C9.01 71.01 8.02 70.02 7 69 C5.00448218 68.64080679 3.00451121 68.30503431 1 68 C-0.40607756 65.18784488 -0.11950486 62.8595578 -0.11352539 59.71435547 C-0.11367142 59.07032776 -0.11381744 58.42630005 -0.1139679 57.76275635 C-0.1132704 55.63086598 -0.10548566 53.49906263 -0.09765625 51.3671875 C-0.09579149 49.89031014 -0.09436786 48.41343216 -0.09336853 46.93655396 C-0.08954792 43.04687801 -0.07972152 39.15723933 -0.06866455 35.26757812 C-0.05844064 31.29948429 -0.05386881 27.33138445 -0.04882812 23.36328125 C-0.03809885 15.57550384 -0.02102789 7.78775714 0 0 Z " fill="#A68B72" transform="translate(130,280)"/>
<path d="M0 0 C0.33 0.66 0.66 1.32 1 2 C1.9075 1.938125 2.815 1.87625 3.75 1.8125 C7.28982642 2.01672076 8.44931155 2.64551835 11 5 C11.66 4.67 12.32 4.34 13 4 C13.36351562 5.10408203 13.36351562 5.10408203 13.734375 6.23046875 C15.53852263 11.48331396 17.06399948 15.92342803 21 20 C18.05043472 18.63055898 15.47531189 17.12169591 13 15 C13 14.34 13 13.68 13 13 C10.03 12.67 7.06 12.34 4 12 C4.33 13.32 4.66 14.64 5 16 C1.53439213 13.32203028 0.91735334 10.16337284 0 6 C-0.125 2.5625 -0.125 2.5625 0 0 Z " fill="#513A2A" transform="translate(130,350)"/>
<path d="M0 0 C1.61056274 0.54043945 1.61056274 0.54043945 3.25366211 1.09179688 C5.42572233 1.82222707 7.59530075 2.56008305 9.76220703 3.30566406 C13.51345507 4.59432809 17.27801504 5.84005115 21.04443359 7.08349609 C24.32537039 8.16866209 27.6003867 9.27091582 30.875 10.375 C26.95222573 11.88329524 24.19136032 10.82325789 20.2734375 9.609375 C19.63693268 9.41531067 19.00042786 9.22124634 18.34463501 9.02130127 C16.31004238 8.3986451 14.28009545 7.76214804 12.25 7.125 C10.90783981 6.71130496 9.56539402 6.29853528 8.22265625 5.88671875 C3.41713465 4.41005892 -1.38319554 2.9168113 -6.18359375 1.42358398 C-7.06402344 1.15360596 -7.94445312 0.88362793 -8.8515625 0.60546875 C-9.59744629 0.37496826 -10.34333008 0.14446777 -11.11181641 -0.09301758 C-14.28139156 -0.9305757 -16.88082889 -1.06171534 -20.125 -0.625 C-23.41748108 1.20817376 -23.41748108 1.20817376 -26.125 3.375 C-27.115 3.87 -27.115 3.87 -28.125 4.375 C-27.795 3.055 -27.465 1.735 -27.125 0.375 C-30.095 1.035 -33.065 1.695 -36.125 2.375 C-25.52289817 -6.9018391 -12.15601125 -4.26223564 0 0 Z " fill="#958579" transform="translate(173.125,11.625)"/>
<path d="M0 0 C7.85889672 0.37932794 15.08699895 3.10179549 22.5 5.5625 C23.81228252 5.9922012 25.12478105 6.42124329 26.4375 6.84960938 C29.62717995 7.89329142 32.8145195 8.94358415 36 10 C34.68 10.33 33.36 10.66 32 11 C32 11.66 32 12.32 32 13 C31.21625 12.731875 30.4325 12.46375 29.625 12.1875 C19.96455627 8.97966091 19.96455627 8.97966091 10 7 C10 6.34 10 5.68 10 5 C7.36 4.67 4.72 4.34 2 4 C2 3.34 2 2.68 2 2 C1.01 1.67 0.02 1.34 -1 1 C-0.67 0.67 -0.34 0.34 0 0 Z " fill="#EEDCCE" transform="translate(166,13)"/>
<path d="M0 0 C0.66 0 1.32 0 2 0 C2 12.87 2 25.74 2 39 C1.01 39 0.02 39 -1 39 C-1.02464849 33.60653012 -1.04283531 28.21309275 -1.05493164 22.81958008 C-1.05997231 20.98331125 -1.06680477 19.14704646 -1.07543945 17.31079102 C-1.08751672 14.67723599 -1.09323081 12.04373384 -1.09765625 9.41015625 C-1.10281754 8.58411392 -1.10797882 7.75807159 -1.11329651 6.90699768 C-1.11349205 4.93763632 -1.06204152 2.96838386 -1 1 C-0.67 0.67 -0.34 0.34 0 0 Z " fill="#C1A795" transform="translate(133,110)"/>
<path d="M0 0 C0.66 0.66 1.32 1.32 2 2 C2.33 1.67 2.66 1.34 3 1 C5.33297433 0.95907063 7.66705225 0.95758277 10 1 C9.34 2.98 8.68 4.96 8 7 C6.35 7.33 4.7 7.66 3 8 C3 8.66 3 9.32 3 10 C4.32 10 5.64 10 7 10 C7 10.66 7 11.32 7 12 C6.01 12.33 5.02 12.66 4 13 C2.93719496 19.29645003 2.67888105 25.56266607 2.4375 31.9375 C2.39431641 33.00291016 2.35113281 34.06832031 2.30664062 35.16601562 C2.20125511 37.77723443 2.09912912 40.38853746 2 43 C1.67 43 1.34 43 1 43 C0.67 28.81 0.34 14.62 0 0 Z " fill="#7B635B" transform="translate(129,31)"/>
<path d="M0 0 C1.07310858 3.27185553 0.89263102 5.42947592 0.0625 8.75 C-0.13214844 9.54921875 -0.32679688 10.3484375 -0.52734375 11.171875 C-0.68332031 11.77515625 -0.83929688 12.3784375 -1 13 C-2.670625 13.2165625 -2.670625 13.2165625 -4.375 13.4375 C-7.82142047 13.78372035 -7.82142047 13.78372035 -10 15 C-10.05416188 13.39620659 -10.09286638 11.79188594 -10.125 10.1875 C-10.14820313 9.29417969 -10.17140625 8.40085937 -10.1953125 7.48046875 C-10 5 -10 5 -8 2 C-5.37643538 1.01484622 -2.75475877 0.57761071 0 0 Z " fill="#3A2A1E" transform="translate(140,19)"/>
<path d="M0 0 C2.375 0.3125 2.375 0.3125 5 1 C7.71232939 5.06849409 7.30699887 7.16476784 7 12 C6.34 12.66 5.68 13.32 5 14 C2.5 13.8125 2.5 13.8125 0 13 C-2.45811625 9.31282562 -2.31118164 7.35654296 -2 3 C-1.34 2.01 -0.68 1.02 0 0 Z " fill="#18120A" transform="translate(190,92)"/>
<path d="M0 0 C0.7425 0.804375 1.485 1.60875 2.25 2.4375 C4.75304829 4.76988591 5.7180955 5.63534394 9 6 C9 5.67 9 5.34 9 5 C9.93972656 4.90912109 9.93972656 4.90912109 10.8984375 4.81640625 C11.71570313 4.73261719 12.53296875 4.64882813 13.375 4.5625 C14.18710938 4.48128906 14.99921875 4.40007813 15.8359375 4.31640625 C18.04272805 4.10909886 18.04272805 4.10909886 20 3 C19.49706491 7.35877078 17.01940914 9.98059086 14 13 C10.83240192 13.71270957 9.39154984 13.17189993 6.4375 11.875 C2.95601453 9.19693425 0.94850393 5.89700785 -1 2 C-0.67 1.34 -0.34 0.68 0 0 Z " fill="#A09183" transform="translate(160,49)"/>
<path d="M0 0 C4.15057344 -0.35576344 6.37537705 -0.39462933 9.94921875 1.86328125 C10.85285156 2.67152344 11.75648438 3.47976563 12.6875 4.3125 C14.05455078 5.51326172 14.05455078 5.51326172 15.44921875 6.73828125 C16.71185547 7.85783203 16.71185547 7.85783203 18 9 C19.32128677 10.0158637 20.64978575 11.02291287 22 12 C19.47425607 11.57904268 17.36709681 11.20292929 15.11328125 9.95703125 C12.04779555 8.56877987 9.41743134 8.99474758 6.12109375 9.22265625 C4 9 4 9 2.265625 7.6953125 C0.46374453 5.28168248 0.32734483 2.9461035 0 0 Z " fill="#EED9CA" transform="translate(134,362)"/>
<path d="M0 0 C0.33 0.66 0.66 1.32 1 2 C1.66 2.33 2.32 2.66 3 3 C3 7.95 3 12.9 3 18 C2.34 18.33 1.68 18.66 1 19 C0.67 17.68 0.34 16.36 0 15 C-0.17015625 15.71027344 -0.3403125 16.42054687 -0.515625 17.15234375 C-0.75796875 18.07144531 -1.0003125 18.99054688 -1.25 19.9375 C-1.48203125 20.85402344 -1.7140625 21.77054688 -1.953125 22.71484375 C-3 25 -3 25 -5.109375 25.81640625 C-5.73328125 25.87699219 -6.3571875 25.93757813 -7 26 C-6.505 25.195625 -6.01 24.39125 -5.5 23.5625 C-3.84709661 19.63685445 -3.78248186 17.02861108 -3.9921875 12.85546875 C-3.99605469 11.93701172 -3.99605469 11.93701172 -4 11 C-3.67 10.67 -3.34 10.34 -3 10 C-2.7746669 7.9720021 -2.55232815 5.94325126 -2.37890625 3.91015625 C-2 2 -2 2 0 0 Z " fill="#EEE1D6" transform="translate(207,82)"/>
<path d="M0 0 C0.33 0 0.66 0 1 0 C1.06667944 12.3857063 0.87744412 24.74533954 0.5 37.125 C0.45158345 38.77733675 0.40340551 40.42968051 0.35546875 42.08203125 C0.23971091 46.05477315 0.12079044 50.02740806 0 54 C-0.33 54 -0.66 54 -1 54 C-1.29071263 49.96597567 -1.57521245 45.93156083 -1.85449219 41.89672852 C-1.94988045 40.53040373 -2.04683004 39.16418685 -2.14550781 37.7980957 C-2.79063042 28.8486652 -3.13788076 19.97278192 -3 11 C-2.34 10.67 -1.68 10.34 -1 10 C-0.53248212 7.64400765 -0.53248212 7.64400765 -0.375 4.9375 C-0.30023438 4.01839844 -0.22546875 3.09929688 -0.1484375 2.15234375 C-0.09945312 1.44207031 -0.05046875 0.73179688 0 0 Z " fill="#EDDCCE" transform="translate(146,28)"/>
<path d="M0 0 C0.66 0 1.32 0 2 0 C1.05535677 6.02210061 1.05535677 6.02210061 -1.703125 8.578125 C-6.67446522 11.87970209 -10.12803854 12.74347549 -16.0546875 11.60546875 C-17.57877609 11.28113848 -19.09846641 10.93551404 -20.61328125 10.5703125 C-22.24929081 10.17938386 -23.89346807 9.82158088 -25.54296875 9.4921875 C-26.35378906 9.32976562 -27.16460937 9.16734375 -28 9 C-28.7425 8.855625 -29.485 8.71125 -30.25 8.5625 C-30.8275 8.376875 -31.405 8.19125 -32 8 C-32.33 7.34 -32.66 6.68 -33 6 C-31.94941406 6.13277344 -30.89882812 6.26554687 -29.81640625 6.40234375 C-22.5491346 7.31767392 -15.28327778 8.21964881 -8 9 C-10.475 8.505 -10.475 8.505 -13 8 C-13 7.67 -13 7.34 -13 7 C-10.03 7 -7.06 7 -4 7 C-3.67 6.01 -3.34 5.02 -3 4 C-2.34 4 -1.68 4 -1 4 C-0.67 2.68 -0.34 1.36 0 0 Z " fill="#ECDFD4" transform="translate(205,106)"/>
<path d="M0 0 C1.32 0.33 2.64 0.66 4 1 C3.505 1.969375 3.01 2.93875 2.5 3.9375 C0.24958331 9.32551689 -0.02766965 14.12421662 1.94921875 19.65625 C4.17472251 24.43020129 6.2777169 28.35091436 11 31 C14.18762109 31.79690838 14.18762109 31.79690838 17 32 C17 32.33 17 32.66 17 33 C9.46861925 34.05439331 9.46861925 34.05439331 6.171875 31.6875 C-0.83670969 23.75859611 -1.79594296 15.21323681 -3 5 C-2.34 5 -1.68 5 -1 5 C-1 4.01 -1 3.02 -1 2 C-0.67 1.34 -0.34 0.68 0 0 Z " fill="#DDCFC5" transform="translate(158,23)"/>
<path d="M0 0 C1 2 1 2 0.75 4 C0 6 0 6 -3 8 C-2.01 8.66 -1.02 9.32 0 10 C-5.94 10.33 -11.88 10.66 -18 11 C-18.33 10.34 -18.66 9.68 -19 9 C-18.34 9 -17.68 9 -17 9 C-16.67 8.01 -16.34 7.02 -16 6 C-15.0925 6.04125 -14.185 6.0825 -13.25 6.125 C-10.052983 6.00203781 -8.68736656 5.57535281 -6 4 C-5.01 3.67 -4.02 3.34 -3 3 C-3 2.34 -3 1.68 -3 1 C-2.01 0.67 -1.02 0.34 0 0 Z " fill="#A8988D" transform="translate(180,98)"/>
<path d="M0 0 C0.33 0 0.66 0 1 0 C1 16.5 1 33 1 50 C-2 47 -2 47 -2.28483582 44.85493469 C-2.22154839 43.61250252 -2.22154839 43.61250252 -2.15698242 42.3449707 C-2.11671432 41.40422195 -2.07644623 40.46347321 -2.03495789 39.49421692 C-1.97572647 38.48163315 -1.91649506 37.46904938 -1.85546875 36.42578125 C-1.80683182 35.38681198 -1.75819489 34.34784271 -1.70808411 33.27738953 C-1.54917389 29.95485324 -1.36859715 26.63389373 -1.1875 23.3125 C-1.07604667 21.06191919 -0.96600284 18.8112681 -0.85742188 16.56054688 C-0.58797254 11.03944459 -0.30072068 5.5194825 0 0 Z " fill="#A28A77" transform="translate(137,62)"/>
<path d="M0 0 C0 3.63 0 7.26 0 11 C-6.0546875 11.9765625 -6.0546875 11.9765625 -8 12 C-8.66 11.34 -9.32 10.68 -10 10 C-9.34 9.34 -8.68 8.68 -8 8 C-7.855625 7.01 -7.71125 6.02 -7.5625 5 C-7.376875 4.01 -7.19125 3.02 -7 2 C-4 0 -4 0 0 0 Z " fill="#DCCBBC" transform="translate(208,172)"/>
<path d="M0 0 C0.99 0 1.98 0 3 0 C3.33 1.32 3.66 2.64 4 4 C4.99 4 5.98 4 7 4 C7 6.64 7 9.28 7 12 C5.02 12.66 3.04 13.32 1 14 C1.33 12.35 1.66 10.7 2 9 C1.34 9 0.68 9 0 9 C0 7.35 0 5.7 0 4 C-0.66 4 -1.32 4 -2 4 C-2 3.34 -2 2.68 -2 2 C-1.34 2 -0.68 2 0 2 C0 1.34 0 0.68 0 0 Z " fill="#242428" transform="translate(166,35)"/>
<path d="M0 0 C1.0625 1.875 1.0625 1.875 2 4 C1 6 1 6 0 7 C-0.22918242 11.01657143 -0.22918242 11.01657143 0 15 C0.66 15.66 1.32 16.32 2 17 C2.99 17 3.98 17 5 17 C5 17.66 5 18.32 5 19 C5.66 19 6.32 19 7 19 C6.67 20.32 6.34 21.64 6 23 C3.1875 22.9375 3.1875 22.9375 0 22 C-3.16977275 16.9283636 -3.83477617 11.90764675 -3 6 C-1.5 2.4375 -1.5 2.4375 0 0 Z " fill="#2C2624" transform="translate(161,25)"/>
<path d="M0 0 C1.98 0.99 1.98 0.99 4 2 C4.33 1.34 4.66 0.68 5 0 C5.05394705 2.60444348 5.09364469 5.20776998 5.125 7.8125 C5.14175781 8.55048828 5.15851563 9.28847656 5.17578125 10.04882812 C5.21074628 13.91246426 5.19397555 15.70903668 3 19 C0.04328652 12.47059106 -0.35368021 7.12600133 0 0 Z " fill="#EBDDD0" transform="translate(149,71)"/>
<path d="M0 0 C1.32 0 2.64 0 4 0 C4.66 0.66 5.32 1.32 6 2 C7.32 2 8.64 2 10 2 C10.25 4.8125 10.25 4.8125 10 8 C8 9.875 8 9.875 6 11 C1.9957657 7.50912907 0.37328935 5.35048061 0 0 Z " fill="#EAE0D6" transform="translate(190,36)"/>
<path d="M0 0 C0.66 0 1.32 0 2 0 C2.33 1.65 2.66 3.3 3 5 C3.99 5 4.98 5 6 5 C6.07427838 8.34252724 6.06546953 10.8035914 5 14 C4.96125079 15.66621616 4.9549714 17.33394172 5 19 C4.34 19 3.68 19 3 19 C2.34 20.32 1.68 21.64 1 23 C0.01 23 -0.98 23 -2 23 C-0.125 17.25 -0.125 17.25 1 15 C1.17472712 9.84554984 0.84676589 5.08059532 0 0 Z " fill="#CFC1B9" transform="translate(179,31)"/>
<path d="M0 0 C0.33 0 0.66 0 1 0 C1.05859908 4.31244188 1.09379686 8.62477974 1.125 12.9375 C1.14175781 14.14986328 1.15851563 15.36222656 1.17578125 16.61132812 C1.21257934 23.40057499 0.94616556 29.47422109 -1 36 C-1.66 36.66 -2.32 37.32 -3 38 C-3.33 36.35 -3.66 34.7 -4 33 C-3.01 32.505 -3.01 32.505 -2 32 C-0.45110286 25.95930116 -0.35419605 19.09985895 -1.625 13 C-2.18901719 8.48786249 -1.04898135 4.38664927 0 0 Z " fill="#8D8279" transform="translate(254,327)"/>
<path d="M0 0 C0.99 0.495 0.99 0.495 2 1 C2 1.66 2 2.32 2 3 C3.98 3 5.96 3 8 3 C8.66 4.32 9.32 5.64 10 7 C10.66 7 11.32 7 12 7 C12.33 6.34 12.66 5.68 13 5 C13.66 5.33 14.32 5.66 15 6 C15 7.65 15 9.3 15 11 C12 11 12 11 10.1875 9.5625 C7.45830831 7.61307736 5.31324796 7.28810852 2 7 C1.01 7.495 1.01 7.495 0 8 C0 5.36 0 2.72 0 0 Z " fill="#7C604D" transform="translate(129,345)"/>
<path d="M0 0 C2.9375 1.5625 2.9375 1.5625 5 3 C4.67 3.99 4.34 4.98 4 6 C3.01 5.34 2.02 4.68 1 4 C-1.7153219 3.52919822 -4.28548286 3.51364901 -7 4 C-9.05270463 5.84188612 -9.05270463 5.84188612 -10 8 C-10.33 7.01 -10.66 6.02 -11 5 C-11.66 4.34 -12.32 3.68 -13 3 C-8.31399918 -0.77165919 -5.84383135 -1.59377219 0 0 Z " fill="#CBBBB0" transform="translate(199,50)"/>
<path d="M0 0 C2 1 4 2 6 3 C8.33294775 3.04241723 10.66702567 3.04092937 13 3 C13.99 3 14.98 3 16 3 C15.67 4.32 15.34 5.64 15 7 C11.66666667 7.66666667 8.33333333 8.33333333 5 9 C4.67 7.35 4.34 5.7 4 4 C2.68 3.67 1.36 3.34 0 3 C0 2.01 0 1.02 0 0 Z " fill="#98867B" transform="translate(162,96)"/>
<path d="M0 0 C3.2614415 3.02848139 5.57436244 6.28068908 8 10 C10.35953094 12.35953094 11.77895617 12.49141413 15 13 C15 13.99 15 14.98 15 16 C12 17 12 17 9 16 C7.70760551 14.51374634 6.41916313 13.02200603 5.203125 11.47265625 C4.0061022 9.9088701 4.0061022 9.9088701 2.25 8.5625 C0.21330173 6.01662716 0.29825542 3.16150749 0 0 Z " fill="#C1AFA0" transform="translate(148,91)"/>
<path d="M0 0 C1.85646001 2.78469002 2.45157815 4.2681416 3.125 7.4375 C3.29257813 8.19933594 3.46015625 8.96117188 3.6328125 9.74609375 C4 12 4 12 4 16 C2.35 16.66 0.7 17.32 -1 18 C-2.2102267 14.34222526 -1.94073402 11.12264157 -1.625 7.3125 C-1.53476563 6.15363281 -1.44453125 4.99476562 -1.3515625 3.80078125 C-1 1 -1 1 0 0 Z " fill="#0A0B11" transform="translate(162,73)"/>
<path d="M0 0 C0.99 0.33 1.98 0.66 3 1 C3 2.32 3 3.64 3 5 C4.32 5 5.64 5 7 5 C6.67 10.61 6.34 16.22 6 22 C3.24016749 19.24016749 3.45406486 17.09333467 3 13.25 C2.44307154 8.57577896 1.62810748 4.42302533 0 0 Z " fill="#F1E1D7" transform="translate(201,36)"/>
<path d="M0 0 C1.61725534 3.00950123 2.67582623 5.97103608 3.625 9.25 C3.88539063 10.14203125 4.14578125 11.0340625 4.4140625 11.953125 C4.60742188 12.62859375 4.80078125 13.3040625 5 14 C4.01 14.33 3.02 14.66 2 15 C1.13050683 13.92892883 0.27985795 12.84254056 -0.5625 11.75 C-1.03816406 11.14671875 -1.51382813 10.5434375 -2.00390625 9.921875 C-3 8 -3 8 -2.71875 5.90625 C-1.9446828 3.85328916 -1.03576496 1.93342793 0 0 Z " fill="#C3B1A3" transform="translate(154,84)"/>
<path d="M0 0 C2.475 0.99 2.475 0.99 5 2 C4.34 3.32 3.68 4.64 3 6 C4.32 6 5.64 6 7 6 C7.33 8.31 7.66 10.62 8 13 C6.35 12.67 4.7 12.34 3 12 C3 11.34 3 10.68 3 10 C2.34 10 1.68 10 1 10 C0.67 6.7 0.34 3.4 0 0 Z " fill="#22262B" transform="translate(164,78)"/>
<path d="M0 0 C0.33 0 0.66 0 1 0 C1.19335938 1.09699219 1.38671875 2.19398437 1.5859375 3.32421875 C1.84868175 4.77869582 2.11171801 6.23312017 2.375 7.6875 C2.50132812 8.40873047 2.62765625 9.12996094 2.7578125 9.87304688 C3.47492759 13.799252 4.339322 17.33928805 6 21 C4.109375 20.75390625 4.109375 20.75390625 2 20 C-1.05740472 14.78644047 -1.40589287 8.88544658 -1 3 C-0.67 2.01 -0.34 1.02 0 0 Z " fill="#634E40" transform="translate(155,73)"/>
<path d="M0 0 C5.25018518 0.45260217 9.97805377 1.4306418 15 3 C14.67 4.32 14.34 5.64 14 7 C12.68 7 11.36 7 10 7 C10 6.34 10 5.68 10 5 C7.36 4.67 4.72 4.34 2 4 C2 3.34 2 2.68 2 2 C1.01 1.67 0.02 1.34 -1 1 C-0.67 0.67 -0.34 0.34 0 0 Z " fill="#E8D6C7" transform="translate(166,13)"/>
<path d="M0 0 C-2.79392833 4.42371985 -5.1059632 5.70801496 -10 6.8359375 C-12.22302634 7.01829513 -13.87964801 6.65314414 -16 6 C-15.67 5.34 -15.34 4.68 -15 4 C-14.34 4 -13.68 4 -13 4 C-13 3.34 -13 2.68 -13 2 C-11.21089097 1.47044766 -9.41860852 0.9516063 -7.625 0.4375 C-6.62726563 0.14746094 -5.62953125 -0.14257812 -4.6015625 -0.44140625 C-2 -1 -2 -1 0 0 Z " fill="#E6D9CB" transform="translate(148,12)"/>
<path d="M0 0 C2.383244 2.383244 2.45158236 3.54647708 3 6.8125 C3.51941526 9.68165094 4.03854785 12.09636963 5.125 14.8125 C6.13480892 17.33702229 6.15396332 19.30564195 6 22 C5.67 21.34 5.34 20.68 5 20 C4.34 20 3.68 20 3 20 C-0.65111665 13.45841601 -0.29887594 7.36120371 0 0 Z " fill="#D8CBC0" transform="translate(152,32)"/>
<path d="M0 0 C1.32 0 2.64 0 4 0 C3.77183594 0.65226562 3.54367188 1.30453125 3.30859375 1.9765625 C1.6514536 7.01486305 0.47386491 10.72789698 2 16 C0 16 0 16 -1.6875 14.5625 C-3.65755458 10.71620296 -3.0106688 7.12626433 -2 3 C-1.34 2.01 -0.68 1.02 0 0 Z " fill="#E9DBD1" transform="translate(188,30)"/>
<path d="M0 0 C1.38978246 2.77956492 0.61356169 4.12046386 -0.25 7.0625 C-0.50265625 7.96097656 -0.7553125 8.85945313 -1.015625 9.78515625 C-1.34046875 10.51605469 -1.6653125 11.24695313 -2 12 C-2.99 12.33 -3.98 12.66 -5 13 C-4.67 10.03 -4.34 7.06 -4 4 C-6.64 4.33 -9.28 4.66 -12 5 C-12 4.34 -12 3.68 -12 3 C-8.04 2.01 -4.08 1.02 0 0 Z " fill="#584536" transform="translate(144,16)"/>
<path d="M0 0 C2.64 0 5.28 0 8 0 C8 2.64 8 5.28 8 8 C6.02 7.34 4.04 6.68 2 6 C2 5.34 2 4.68 2 4 C1.34 4 0.68 4 0 4 C0 2.68 0 1.36 0 0 Z " fill="#B89985" transform="translate(131,340)"/>
<path d="M0 0 C2.5931936 5.1863872 1.93773966 9.707376 1.78125 15.38671875 C1.75905396 16.20372757 1.73685791 17.02073639 1.71398926 17.86250305 C1.64303981 20.47084589 1.57152678 23.07917293 1.5 25.6875 C1.45178579 27.4563792 1.40360826 29.22525939 1.35546875 30.99414062 C1.23740476 35.3294388 1.11883533 39.6647229 1 44 C0.67 44 0.34 44 0 44 C0 29.48 0 14.96 0 0 Z " fill="#AA8C7C" transform="translate(131,104)"/>
<path d="M0 0 C0.33 0 0.66 0 1 0 C1.09796875 0.72445312 1.1959375 1.44890625 1.296875 2.1953125 C2.36207613 9.08238874 3.69294917 13.90630729 8.9375 18.8125 C11.28614712 20.16475137 13.32840307 20.62894487 16 21 C16 21.33 16 21.66 16 22 C11.64931982 22.42653727 9.70611288 22.57772872 6.25 19.75 C5.5075 18.8425 4.765 17.935 4 17 C3.443125 16.401875 2.88625 15.80375 2.3125 15.1875 C-0.15785095 11.07024841 -1.22055566 6.7644453 -0.625 2 C-0.41875 1.34 -0.2125 0.68 0 0 Z " fill="#C7B7AF" transform="translate(186,63)"/>
<path d="M0 0 C0.33 0 0.66 0 1 0 C1.20496094 1.10859375 1.40992188 2.2171875 1.62109375 3.359375 C1.89316462 4.82292867 2.16530362 6.28646967 2.4375 7.75 C2.57220703 8.47960938 2.70691406 9.20921875 2.84570312 9.9609375 C3.47459267 13.33546675 4.14322173 16.67634694 5 20 C4.01 20 3.02 20 2 20 C-0.9082335 13.57765103 -1.64376102 8.04423118 -1 1 C-0.67 0.67 -0.34 0.34 0 0 Z " fill="#796556" transform="translate(155,29)"/>
<path d="M0 0 C0.33 0 0.66 0 1 0 C1.03738281 0.76183594 1.07476562 1.52367187 1.11328125 2.30859375 C1.53848412 8.98678001 2.50385324 14.78318166 5 21 C4.01 21 3.02 21 2 21 C-1.60547865 14.54018408 -1.54964365 8.29334839 -1 1 C-0.67 0.67 -0.34 0.34 0 0 Z " fill="#6C5749" transform="translate(184,58)"/>
<path d="M0 0 C1.4540625 0.0309375 1.4540625 0.0309375 2.9375 0.0625 C1.4525 2.5375 1.4525 2.5375 -0.0625 5.0625 C0.5975 5.3925 1.2575 5.7225 1.9375 6.0625 C2.5625 8.125 2.5625 8.125 2.9375 10.0625 C2.2775 10.0625 1.6175 10.0625 0.9375 10.0625 C0.6075 10.7225 0.2775 11.3825 -0.0625 12.0625 C-1.0525 10.7425 -2.0425 9.4225 -3.0625 8.0625 C-2.7325 7.7325 -2.4025 7.4025 -2.0625 7.0625 C-2.7225 6.7325 -3.3825 6.4025 -4.0625 6.0625 C-4.105221 4.39638095 -4.10313832 2.72867115 -4.0625 1.0625 C-3.0625 0.0625 -3.0625 0.0625 0 0 Z " fill="#1E1D24" transform="translate(196.0625,62.9375)"/>
<path d="M0 0 C2.97 0 5.94 0 9 0 C9 0.66 9 1.32 9 2 C6.36 2 3.72 2 1 2 C1 3.32 1 4.64 1 6 C1.66 6 2.32 6 3 6 C3 6.66 3 7.32 3 8 C3.78375 8.12375 4.5675 8.2475 5.375 8.375 C8 9 8 9 10 11 C9.67 11.99 9.34 12.98 9 14 C8.34 13.01 7.68 12.02 7 11 C5.00577205 10.63371323 3.00546689 10.29868656 1 10 C-0.60725635 6.78548731 -0.05748185 3.56387464 0 0 Z " fill="#9D7F6A" transform="translate(130,338)"/>
<path d="M0 0 C2.375 0.25 2.375 0.25 5 1 C6.3125 3.0625 6.3125 3.0625 7 5 C3.93109813 6.53445094 1.29905734 5.54984289 -2 5 C-1.67 6.98 -1.34 8.96 -1 11 C-1.66 10.67 -2.32 10.34 -3 10 C-3.36923077 4.58461538 -3.36923077 4.58461538 -1.5 1.625 C-1.005 1.08875 -0.51 0.5525 0 0 Z " fill="#C6B8B0" transform="translate(192,31)"/>
<path d="M0 0 C1.485 0.99 1.485 0.99 3 2 C5.32387947 2.39387788 7.65793749 2.73486085 10 3 C9.67 2.01 9.34 1.02 9 0 C11.86867231 1.38264837 14.56024032 2.92148553 17.25 4.625 C17.95640625 5.07101562 18.6628125 5.51703125 19.390625 5.9765625 C19.92171875 6.31429688 20.4528125 6.65203125 21 7 C20.01 7.33 19.02 7.66 18 8 C17.13375 7.525625 16.2675 7.05125 15.375 6.5625 C11.53851266 4.78634845 9.17330323 4.84573652 5.05078125 5.1875 C3 5 3 5 1.23046875 3.625 C0 2 0 2 0 0 Z " fill="#C4AFA2" transform="translate(135,366)"/>
<path d="M0 0 C0.33 0 0.66 0 1 0 C1.01458252 0.89831543 1.02916504 1.79663086 1.04418945 2.72216797 C1.10519697 6.0510659 1.17933628 9.37912883 1.26245117 12.70751953 C1.29573178 14.14881342 1.32375404 15.59023863 1.34643555 17.03173828 C1.3799262 19.10245797 1.432233 21.17197093 1.48828125 23.2421875 C1.51446533 24.4885498 1.54064941 25.73491211 1.56762695 27.01904297 C1.71031006 28.00275879 1.85299316 28.98647461 2 30 C2.99 30.66 3.98 31.32 5 32 C3.35 32.66 1.7 33.32 0 34 C0 22.78 0 11.56 0 0 Z " fill="#9E7F6C" transform="translate(130,118)"/>
<path d="M0 0 C6.65545792 -0.54330269 10.45834744 0.22695996 16 4 C16 4.33 16 4.66 16 5 C10.04069781 5.31364748 6.29326883 4.80867326 1 2 C0.67 1.34 0.34 0.68 0 0 Z " fill="#5E4B43" transform="translate(139,370)"/>
<path d="M0 0 C0.3403125 0.9590625 0.3403125 0.9590625 0.6875 1.9375 C1.85250896 4.27193661 1.85250896 4.27193661 4.625 4.75 C5.40875 4.8325 6.1925 4.915 7 5 C6.67 5.99 6.34 6.98 6 8 C6.99 9.485 6.99 9.485 8 11 C7.01 11.495 7.01 11.495 6 12 C4.5 10.625 4.5 10.625 3 9 C3 8.34 3 7.68 3 7 C2.34 7 1.68 7 1 7 C1 6.34 1 5.68 1 5 C0.34 5 -0.32 5 -1 5 C-0.67 3.35 -0.34 1.7 0 0 Z " fill="#A59086" transform="translate(184,75)"/>
<path d="M0 0 C0.33 0 0.66 0 1 0 C1 7.26 1 14.52 1 22 C0.34 21.67 -0.32 21.34 -1 21 C-2.32947253 13.69862261 -2.3441882 7.03256459 0 0 Z " fill="#E1D5CB" transform="translate(253,120)"/>
<path d="M0 0 C0.66 0.66 1.32 1.32 2 2 C2.33 1.67 2.66 1.34 3 1 C5.33297433 0.95907063 7.66705225 0.95758277 10 1 C9.67 2.32 9.34 3.64 9 5 C6.69 5 4.38 5 2 5 C1.67 6.32 1.34 7.64 1 9 C0.67 6.03 0.34 3.06 0 0 Z " fill="#5E4B40" transform="translate(129,31)"/>
<path d="M0 0 C0.33 0 0.66 0 1 0 C1.27429625 5.39449293 1.36055646 8.51925805 -2 13 C-2.66 12.67 -3.32 12.34 -4 12 C-3.71788123 10.3733152 -3.42397625 8.74867104 -3.125 7.125 C-2.96257812 6.22007813 -2.80015625 5.31515625 -2.6328125 4.3828125 C-2 2 -2 2 0 0 Z " fill="#DBC8B9" transform="translate(147,14)"/>
<path d="M0 0 C0.84098656 4.01804691 1.05404945 7.01803543 0 11 C-2.5 8.6875 -2.5 8.6875 -5 6 C-5 3 -5 3 -3.625 1.3125 C-2 0 -2 0 0 0 Z " fill="#D8C8BB" transform="translate(180,61)"/>
<path d="M0 0 C1.1446875 1.175625 1.1446875 1.175625 2.3125 2.375 C6.17853056 6.15112288 8.71867258 7.29582301 14 8 C14 8.33 14 8.66 14 9 C10.7 9.33 7.4 9.66 4 10 C0.125 4.25 0.125 4.25 -1 2 C-0.67 1.34 -0.34 0.68 0 0 Z " fill="#745E4E" transform="translate(160,49)"/>
<path d="M0 0 C1.32 0 2.64 0 4 0 C4 1.98 4 3.96 4 6 C3.67 6 3.34 6 3 6 C3 4.35 3 2.7 3 1 C2.01 0.67 1.02 0.34 0 0 Z M2 6 C2.66 7.32 3.32 8.64 4 10 C1.24075815 11.80411967 0.11027897 12.0127245 -3.25 11.625 C-4.1575 11.41875 -5.065 11.2125 -6 11 C-5.67 10.34 -5.34 9.68 -5 9 C-2.67843403 8.59270772 -0.3431213 8.25561323 2 8 C2 7.34 2 6.68 2 6 Z " fill="#EBD9CB" transform="translate(204,172)"/>
<path d="M0 0 C0.66 0 1.32 0 2 0 C1.125 4.75 1.125 4.75 0 7 C-0.66 7 -1.32 7 -2 7 C-2.66 8.65 -3.32 10.3 -4 12 C-4.33 12 -4.66 12 -5 12 C-5.22036864 8.14354879 -4.60355101 5.50776784 -3 2 C-2.01 2 -1.02 2 0 2 C0 1.34 0 0.68 0 0 Z " fill="#FBEEE1" transform="translate(153,16)"/>
<path d="M0 0 C0 0.33 0 0.66 0 1 C-1.2375 1.0825 -2.475 1.165 -3.75 1.25 C-8.93623993 1.79332037 -13.53432434 3.43534116 -18.3984375 5.2578125 C-21 6 -21 6 -24 5 C-15.7698902 0.91412989 -9.18746945 -0.73304278 0 0 Z " fill="#A99E96" transform="translate(161,8)"/>
<path d="M0 0 C0.99 0 1.98 0 3 0 C2.67 9.24 2.34 18.48 2 28 C1.67 28 1.34 28 1 28 C0.67 18.76 0.34 9.52 0 0 Z " fill="#967867" transform="translate(132,238)"/>
<path d="M0 0 C0.556875 0.7425 1.11375 1.485 1.6875 2.25 C5.71459986 7.03898362 8.66549331 9.41074356 15 10 C15 10.33 15 10.66 15 11 C7.44274809 12.05801527 7.44274809 12.05801527 4.06640625 9.58203125 C0.9904358 6.12248655 0 4.80563431 0 0 Z " fill="#D3C3B7" transform="translate(160,45)"/>
<path d="M0 0 C1.2065625 0.0309375 1.2065625 0.0309375 2.4375 0.0625 C2.7675 1.7125 3.0975 3.3625 3.4375 5.0625 C2.7775 5.0625 2.1175 5.0625 1.4375 5.0625 C1.4375 4.4025 1.4375 3.7425 1.4375 3.0625 C0.7775 3.0625 0.1175 3.0625 -0.5625 3.0625 C-0.8925 4.0525 -1.2225 5.0425 -1.5625 6.0625 C-2.2225 7.0525 -2.8825 8.0425 -3.5625 9.0625 C-3.66015625 2.91015625 -3.66015625 2.91015625 -3.5625 1.0625 C-2.5625 0.0625 -2.5625 0.0625 0 0 Z " fill="#B6ADA2" transform="translate(200.5625,92.9375)"/>
<path d="M0 0 C0.33 0 0.66 0 1 0 C1.28571429 7.42857143 1.28571429 7.42857143 -1 11 C-1.66 10.67 -2.32 10.34 -3 10 C-3 7.03 -3 4.06 -3 1 C-2.01 1.33 -1.02 1.66 0 2 C0 1.34 0 0.68 0 0 Z " fill="#FBF0E5" transform="translate(153,71)"/>
<path d="M0 0 C2.0625 2 2.0625 2 3 4 C2.01 4 1.02 4 0 4 C-0.33 3.67 -0.66 3.34 -1 3 C-3.67538915 2.95684856 -6.32694821 2.95319559 -9 3 C-9.99 3 -10.98 3 -12 3 C-12 2.34 -12 1.68 -12 1 C-7.98122566 -0.33959145 -4.20247414 -0.6025894 0 0 Z " fill="#CEC1B4" transform="translate(173,21)"/>
<path d="M0 0 C0.66 0 1.32 0 2 0 C1.4375 3.375 1.4375 3.375 0 7 C-4.62728863 9.13567167 -8.09473372 9.19640641 -13 8 C-13 7.67 -13 7.34 -13 7 C-10.03 7 -7.06 7 -4 7 C-3.67 6.01 -3.34 5.02 -3 4 C-2.34 4 -1.68 4 -1 4 C-0.67 2.68 -0.34 1.36 0 0 Z " fill="#E4D6CA" transform="translate(205,106)"/>
<path d="M0 0 C0.66 0 1.32 0 2 0 C1.67 1.32 1.34 2.64 1 4 C0.34 4 -0.32 4 -1 4 C-1.33 4.99 -1.66 5.98 -2 7 C-3.62332967 8.38576923 -5.28724465 9.72641268 -7 11 C-7.66 10.34 -8.32 9.68 -9 9 C-9 8.01 -9 7.02 -9 6 C-7.02 6 -5.04 6 -3 6 C-2.67 4.68 -2.34 3.36 -2 2 C-1.34 2 -0.68 2 0 2 C0 1.34 0 0.68 0 0 Z " fill="#C2B1A3" transform="translate(179,57)"/>
<path d="M0 0 C0.33 0 0.66 0 1 0 C2.01924246 6.21369499 2.62926746 10.48351346 -1 16 C-1.99 15.67 -2.98 15.34 -4 15 C-3.505 14.360625 -3.01 13.72125 -2.5 13.0625 C-0.70749776 9.40280793 -0.79361046 6.88864272 -0.9921875 2.890625 C-0.99605469 1.95476562 -0.99605469 1.95476562 -1 1 C-0.67 0.67 -0.34 0.34 0 0 Z " fill="#E5D8CD" transform="translate(204,92)"/>
<path d="M0 0 C0.33 2.64 0.66 5.28 1 8 C-2 8 -2 8 -3.75 6.75 C-5 5 -5 5 -4.875 2.875 C-4.441875 1.946875 -4.441875 1.946875 -4 1 C-1 0 -1 0 0 0 Z " fill="#1B1816" transform="translate(167,88)"/>
<path d="M0 0 C4.97093824 0.41153737 9.44508386 0.79600832 14 3 C13.67 3.66 13.34 4.32 13 5 C11.3934324 4.74379316 9.7897517 4.46944129 8.1875 4.1875 C7.29417969 4.03667969 6.40085938 3.88585937 5.48046875 3.73046875 C2.81678744 2.94604607 1.74309678 2.11372201 0 0 Z " fill="#E7D8C9" transform="translate(157,108)"/>
<path d="M0 0 C0 0.33 0 0.66 0 1 C-2.97 1.66 -5.94 2.32 -9 3 C-9.33 4.65 -9.66 6.3 -10 8 C-10.66 6.68 -11.32 5.36 -12 4 C-8.4913862 -1.17938228 -5.96187138 -1.19237428 0 0 Z " fill="#DCCDC6" transform="translate(171,65)"/>
<path d="M0 0 C0.33 0 0.66 0 1 0 C1.33 3.63 1.66 7.26 2 11 C1.34 11 0.68 11 0 11 C0 12.32 0 13.64 0 15 C-0.66 15 -1.32 15 -2 15 C-1.34 10.05 -0.68 5.1 0 0 Z " fill="#E2D1C5" transform="translate(208,45)"/>
<path d="M0 0 C0.99 0 1.98 0 3 0 C3.50615298 1.26839526 4.00469099 2.53983102 4.5 3.8125 C4.91765625 4.87404297 4.91765625 4.87404297 5.34375 5.95703125 C6 8 6 8 6 11 C1.9957657 7.50912907 0.37328935 5.35048061 0 0 Z " fill="#E2D7CD" transform="translate(190,36)"/>
<path d="M0 0 C0.66 0.33 1.32 0.66 2 1 C1.67 3.64 1.34 6.28 1 9 C0.01 9.33 -0.98 9.66 -2 10 C-2.1953125 3.9453125 -2.1953125 3.9453125 -2 2 C-1.34 1.34 -0.68 0.68 0 0 Z " fill="#0A0809" transform="translate(191,60)"/>
<path d="M0 0 C1.10844919 3.32534757 0.84454356 5.62182575 0 9 C0.66 9 1.32 9 2 9 C2.33 8.34 2.66 7.68 3 7 C3 7.66 3 8.32 3 9 C3.66 9 4.32 9 5 9 C4.67 9.99 4.34 10.98 4 12 C3.01 12.33 2.02 12.66 1 13 C-1 11 -1 11 -1.23046875 8.90625 C-1.21628906 8.1121875 -1.20210937 7.318125 -1.1875 6.5 C-1.18105469 5.7059375 -1.17460937 4.911875 -1.16796875 4.09375 C-1 2 -1 2 0 0 Z " fill="#191719" transform="translate(161,30)"/>
<path d="M0 0 C0.66 0 1.32 0 2 0 C2 0.66 2 1.32 2 2 C2.66 2 3.32 2 4 2 C3.67 3.32 3.34 4.64 3 6 C3 5.34 3 4.68 3 4 C2.34 4 1.68 4 1 4 C0.67 4.99 0.34 5.98 0 7 C-0.99 7.33 -1.98 7.66 -3 8 C-2.25 2.25 -2.25 2.25 0 0 Z " fill="#C7BCB2" transform="translate(200,96)"/>
<path d="M0 0 C0.66 0.33 1.32 0.66 2 1 C2 1.66 2 2.32 2 3 C2.66 3 3.32 3 4 3 C3.67 4.32 3.34 5.64 3 7 C1.35 6.67 -0.3 6.34 -2 6 C-1.34 4.02 -0.68 2.04 0 0 Z " fill="#211F20" transform="translate(164,41)"/>
<path d="M0 0 C2 2 2 2 2 6 C3.65 6 5.3 6 7 6 C7 6.66 7 7.32 7 8 C4.69 8.66 2.38 9.32 0 10 C0 6.7 0 3.4 0 0 Z " fill="#3D3028" transform="translate(130,24)"/>
<path d="M0 0 C-3.12432397 2.52349243 -6.38060496 4.27256146 -10 6 C-10.66 5.34 -11.32 4.68 -12 4 C-8.35616205 0.00912986 -5.26350451 -0.11696677 0 0 Z " fill="#E7D7C9" transform="translate(164,19)"/>
<path d="M0 0 C0.99 0 1.98 0 3 0 C3.6496875 1.36125 3.6496875 1.36125 4.3125 2.75 C5.70517271 5.43218449 7.11112757 7.66139605 9 10 C5.17647894 8.4422692 2.70794407 6.08404742 0 3 C0 2.01 0 1.02 0 0 Z " fill="#452F22" transform="translate(142,360)"/>
<path d="M0 0 C1.32 0.33 2.64 0.66 4 1 C4 1.66 4 2.32 4 3 C5.32 3.33 6.64 3.66 8 4 C5.04335481 5.4783226 2.25770263 5.06032783 -1 5 C-1.33 4.34 -1.66 3.68 -2 3 C-1.34 3 -0.68 3 0 3 C0 2.01 0 1.02 0 0 Z " fill="#B5A595" transform="translate(163,104)"/>
<path d="M0 0 C0.99 0.495 0.99 0.495 2 1 C2 1.66 2 2.32 2 3 C2.66 3 3.32 3 4 3 C4.33 4.98 4.66 6.96 5 9 C3.68 9 2.36 9 1 9 C0.67 6.03 0.34 3.06 0 0 Z " fill="#DBC5BA" transform="translate(181,77)"/>
<path d="M0 0 C0.33 0 0.66 0 1 0 C1.33 3.63 1.66 7.26 2 11 C1.01 11 0.02 11 -1 11 C-1.125 3.375 -1.125 3.375 0 0 Z " fill="#775D4E" transform="translate(155,73)"/>
<path d="M0 0 C0.99 0.495 0.99 0.495 2 1 C2 1.66 2 2.32 2 3 C3.98 3 5.96 3 8 3 C8.33 3.66 8.66 4.32 9 5 C6.36 5 3.72 5 1 5 C0.67 5.99 0.34 6.98 0 8 C0 5.36 0 2.72 0 0 Z " fill="#887161" transform="translate(129,345)"/>
<path d="M0 0 C2.64 1.65 5.28 3.3 8 5 C4.89448334 8.10551666 3.10801767 8.81323934 -1 10 C-0.34 9.01 0.32 8.02 1 7 C1.99 7 2.98 7 4 7 C3.01 5.824375 3.01 5.824375 2 4.625 C0 2 0 2 0 0 Z " fill="#C1AFA3" transform="translate(160,57)"/>
<path d="M0 0 C0.99 0.495 0.99 0.495 2 1 C2.33333333 2.33333333 2.66666667 3.66666667 3 5 C3.9601817 6.68991979 4.95355934 8.36209288 6 10 C3.13275314 9.42655063 2.1385485 9.1385485 0 7 C-0.125 3.375 -0.125 3.375 0 0 Z " fill="#AD9384" transform="translate(158,48)"/>
<path d="M0 0 C0.99 0.33 1.98 0.66 3 1 C2.67 3.31 2.34 5.62 2 8 C1.01 8.33 0.02 8.66 -1 9 C-2.25541557 5.23375329 -1.37061958 3.62811066 0 0 Z " fill="#EFE3D6" transform="translate(151,23)"/>
<path d="M0 0 C2.64 0 5.28 0 8 0 C8 0.99 8 1.98 8 3 C5.69 2.67 3.38 2.34 1 2 C1.33 3.32 1.66 4.64 2 6 C1.01 5.01 0.02 4.02 -1 3 C-0.67 2.01 -0.34 1.02 0 0 Z " fill="#978374" transform="translate(133,360)"/>
<path d="M0 0 C0 0.66 0 1.32 0 2 C2.64 2.33 5.28 2.66 8 3 C8 3.33 8 3.66 8 4 C6.04098546 3.88617347 4.0827662 3.75858875 2.125 3.625 C1.03445312 3.55539063 -0.05609375 3.48578125 -1.1796875 3.4140625 C-4 3 -4 3 -6 1 C-3 0 -3 0 0 0 Z " fill="#C4B5A8" transform="translate(172,108)"/>
<path d="M0 0 C5.94 0.99 5.94 0.99 12 2 C12 2.66 12 3.32 12 4 C8.8125 4.8125 8.8125 4.8125 5 5 C2.0625 2.5625 2.0625 2.5625 0 0 Z " fill="#A9A194" transform="translate(192,89)"/>
<path d="M0 0 C0.99 0 1.98 0 3 0 C3 2.31 3 4.62 3 7 C2.01 7.495 2.01 7.495 1 8 C0.67 7.01 0.34 6.02 0 5 C-0.66 4.67 -1.32 4.34 -2 4 C-2 3.34 -2 2.68 -2 2 C-1.34 2 -0.68 2 0 2 C0 1.34 0 0.68 0 0 Z " fill="#434247" transform="translate(166,35)"/>
<path d="M0 0 C0.33 0.66 0.66 1.32 1 2 C3.64 2 6.28 2 9 2 C9 2.66 9 3.32 9 4 C4.545 4.495 4.545 4.495 0 5 C-0.33 4.01 -0.66 3.02 -1 2 C-0.67 1.34 -0.34 0.68 0 0 Z " fill="#604B3D" transform="translate(132,356)"/>
<path d="M0 0 C7.75 -0.125 7.75 -0.125 10 1 C10 1.66 10 2.32 10 3 C6.7 2.67 3.4 2.34 0 2 C0 1.34 0 0.68 0 0 Z " fill="#E6D6CB" transform="translate(172,108)"/>
<path d="M0 0 C0.7425 0.433125 0.7425 0.433125 1.5 0.875 C4.91752035 2.41288416 8.3506202 3.14847805 12 4 C12 4.33 12 4.66 12 5 C6.60550707 5.27429625 3.48074195 5.36055646 -1 2 C-0.67 1.34 -0.34 0.68 0 0 Z " fill="#766051" transform="translate(162,96)"/>
<path d="M0 0 C1.58502671 3.17005342 1.60385067 6.49124878 2 10 C1.01 10.495 1.01 10.495 0 11 C-2.4294516 7.3558226 -2.16179575 5.28758728 -2 1 C-1.34 0.67 -0.68 0.34 0 0 Z " fill="#201913" transform="translate(190,94)"/>
<path d="M0 0 C2.93200474 2.85276137 5.64315404 5.65079784 8 9 C5.62051228 8.82374165 4.29774151 8.30280227 2.62109375 6.59765625 C1.37884514 5.09350908 0.18623944 3.54870149 -1 2 C-0.67 1.34 -0.34 0.68 0 0 Z " fill="#D9C6B8" transform="translate(153,95)"/>
<path d="M0 0 C3.3 1.65 6.6 3.3 10 5 C7.0017825 5.74955438 4.03063487 6.41070989 1 7 C0.31292445 4.50935112 0 2.62113708 0 0 Z " fill="#6E594F" transform="translate(190,81)"/>
<path d="M0 0 C0.66 0 1.32 0 2 0 C2.99 2.97 3.98 5.94 5 9 C4.01 9 3.02 9 2 9 C0.50178941 5.62902617 0 3.79557881 0 0 Z " fill="#6A594F" transform="translate(155,40)"/>
<path d="M0 0 C2.475 0.99 2.475 0.99 5 2 C4.814375 2.61875 4.62875 3.2375 4.4375 3.875 C3.76313824 6.04160178 3.76313824 6.04160178 5 8 C3.0625 7.375 3.0625 7.375 1 6 C0.25 2.875 0.25 2.875 0 0 Z " fill="#4D4F54" transform="translate(164,78)"/>
<path d="M0 0 C1.32 0 2.64 0 4 0 C2.87548273 2.9719385 1.77706209 5.33440687 0 8 C-1.125 2.25 -1.125 2.25 0 0 Z " fill="#F4E4DB" transform="translate(188,30)"/>
<path d="M0 0 C0.66 0.99 1.32 1.98 2 3 C1.5390625 5.26171875 1.5390625 5.26171875 0.625 7.6875 C0.18027344 8.89986328 0.18027344 8.89986328 -0.2734375 10.13671875 C-0.51320312 10.75160156 -0.75296875 11.36648437 -1 12 C-1.33 12 -1.66 12 -2 12 C-2.05395478 10.37536158 -2.09277195 8.75021459 -2.125 7.125 C-2.14820313 6.22007813 -2.17140625 5.31515625 -2.1953125 4.3828125 C-2 2 -2 2 0 0 Z " fill="#DDCDC0" transform="translate(187,56)"/>
<path d="M0 0 C1.485 0.99 1.485 0.99 3 2 C3 2.66 3 3.32 3 4 C4.65 3.67 6.3 3.34 8 3 C7.67 3.99 7.34 4.98 7 6 C5.02 6 3.04 6 1 6 C0.67 4.02 0.34 2.04 0 0 Z " fill="#CBBEB2" transform="translate(191,42)"/>
<path d="M0 0 C-2.96687001 1.64826111 -5.65626525 2.44271087 -9 3 C-9.33 2.34 -9.66 1.68 -10 1 C-6.1496895 -1.56687367 -4.41430237 -0.83288724 0 0 Z " fill="#2C1F1C" transform="translate(172,67)"/>
<path d="M0 0 C0.66 0 1.32 0 2 0 C1.67 2.64 1.34 5.28 1 8 C0.01 8 -0.98 8 -2 8 C-2 4.79604584 -1.25664978 2.90600261 0 0 Z " fill="#BBB3AE" transform="translate(180,46)"/>
<path d="M0 0 C2.29633824 3.44450737 2.54016485 5.93812283 3 10 C2.67 9.34 2.34 8.68 2 8 C1.34 8 0.68 8 0 8 C-1.125 2.25 -1.125 2.25 0 0 Z " fill="#C1B1A5" transform="translate(155,44)"/>
<path d="M0 0 C-0.33 0.99 -0.66 1.98 -1 3 C-3.64 3.33 -6.28 3.66 -9 4 C-9 3.34 -9 2.68 -9 2 C-3.375 0 -3.375 0 0 0 Z " fill="#9D8979" transform="translate(141,17)"/>
<path d="M0 0 C2.97 0 5.94 0 9 0 C9 0.99 9 1.98 9 3 C5.26512223 2.5020163 3.18762365 2.12508244 0 0 Z " fill="#EBD7C8" transform="translate(155,11)"/>
<path d="M0 0 C6.75 -0.125 6.75 -0.125 9 1 C8.67 1.66 8.34 2.32 8 3 C2.25 3.125 2.25 3.125 0 2 C0 1.34 0 0.68 0 0 Z " fill="#C9B4A3" transform="translate(134,362)"/>
<path d="M0 0 C0.33 0 0.66 0 1 0 C1 3.3 1 6.6 1 10 C0.01 9.01 -0.98 8.02 -2 7 C-1.34 4.69 -0.68 2.38 0 0 Z " fill="#AF9784" transform="translate(137,102)"/>
<path d="M0 0 C2.52588702 2.36292656 3.88820837 3.66462511 5 7 C4.34 7 3.68 7 3 7 C2.67 7.66 2.34 8.32 2 9 C1.34 6.03 0.68 3.06 0 0 Z " fill="#C9B7A9" transform="translate(148,91)"/>
<path d="M0 0 C-0.33 0.99 -0.66 1.98 -1 3 C-1.99 2.34 -2.98 1.68 -4 1 C-6.32387947 0.60612212 -8.65793749 0.26513915 -11 0 C-11 -0.33 -11 -0.66 -11 -1 C-6.58937864 -2.0257259 -4.07369424 -2.03684712 0 0 Z " fill="#A69A90" transform="translate(204,53)"/>
<path d="M0 0 C1.9375 0.8125 1.9375 0.8125 4 2 C4.33 2.99 4.66 3.98 5 5 C4.01 5.495 4.01 5.495 3 6 C2.01 5.67 1.02 5.34 0 5 C0 3.35 0 1.7 0 0 Z " fill="#D0C1BA" transform="translate(194,31)"/>
<path d="M0 0 C0.66 0.66 1.32 1.32 2 2 C1.625 5.625 1.625 5.625 1 9 C0.01 9 -0.98 9 -2 9 C-1.34 6.03 -0.68 3.06 0 0 Z " fill="#A79991" transform="translate(180,88)"/>
<path d="M0 0 C0.99 0.33 1.98 0.66 3 1 C3 3.31 3 5.62 3 8 C2.01 8 1.02 8 0 8 C0.2784375 7.13375 0.2784375 7.13375 0.5625 6.25 C1.04023546 3.79307475 0.75729364 2.35602466 0 0 Z " fill="#1D1F20" transform="translate(197,68)"/>
<path d="M0 0 C0.99 0.33 1.98 0.66 3 1 C3 2.65 3 4.3 3 6 C2.01 6 1.02 6 0 6 C-1.125 2.25 -1.125 2.25 0 0 Z " fill="#897667" transform="translate(141,350)"/>
<path d="M0 0 C1.24546405 2.49092811 0.7767578 3.41080733 0 6 C-1.32 6.33 -2.64 6.66 -4 7 C-3.67 5.02 -3.34 3.04 -3 1 C-2.01 0.67 -1.02 0.34 0 0 Z " fill="#B2A298" transform="translate(180,98)"/>
<path d="M0 0 C1.32 0 2.64 0 4 0 C4.33 1.32 4.66 2.64 5 4 C4.01 4.495 4.01 4.495 3 5 C3 4.34 3 3.68 3 3 C1.68 3 0.36 3 -1 3 C-0.67 2.01 -0.34 1.02 0 0 Z " fill="#191A1D" transform="translate(168,81)"/>
<path d="M0 0 C0.66 0 1.32 0 2 0 C2.33 1.32 2.66 2.64 3 4 C2.34 4 1.68 4 1 4 C0.67 4.66 0.34 5.32 0 6 C-0.99 4.68 -1.98 3.36 -3 2 C-2.01 2 -1.02 2 0 2 C0 1.34 0 0.68 0 0 Z " fill="#535458" transform="translate(196,69)"/>
</svg>
