<?xml version="1.0" encoding="UTF-8"?>
<svg version="1.1" xmlns="http://www.w3.org/2000/svg" width="512" height="512">
<path d="M0 0 C144.54 0 289.08 0 438 0 C475 84.27777778 475 84.27777778 475 153 C306.04 153 137.08 153 -37 153 C-37 107.65702066 -34.84054252 78.63871266 -17.625 40.5625 C-16.39008165 37.8127778 -15.15769881 35.06194255 -13.92709351 32.31028748 C-13.17082755 30.62117046 -12.41193802 28.93322329 -11.64932251 27.2469635 C-7.59402184 18.2304944 -3.84096425 9.12229009 0 0 Z " fill="#000000" transform="translate(37,343)"/>
<path d="M0 0 C143.22 0 286.44 0 434 0 C434 104.61 434 209.22 434 317 C290.78 317 147.56 317 0 317 C0 212.39 0 107.78 0 0 Z M27.6875 27.375 C23.8967686 33.27169328 23.71194741 38.77191599 23.74603271 45.55796814 C23.74291273 46.51370698 23.73979275 47.46944582 23.73657823 48.45414644 C23.72860827 51.65300628 23.73491806 54.8516759 23.74121094 58.05053711 C23.73850062 60.34545503 23.73493946 62.64037208 23.73059082 64.93528748 C23.72146896 71.16663009 23.72501042 77.39790651 23.73134899 83.62925029 C23.73641061 90.14960964 23.73171703 96.6699633 23.72857666 103.19032288 C23.72470408 114.84305121 23.7309222 126.49574934 23.74109533 138.14847291 C23.75002851 148.70763945 23.74848027 159.266762 23.73925781 169.82592773 C23.72854731 182.09452442 23.7245749 194.36308978 23.73048234 206.63169104 C23.73360023 213.12361651 23.73401636 219.6155117 23.72740936 226.10743523 C23.72163099 232.21167706 23.72564192 238.31583587 23.73719788 244.42006874 C23.73984193 246.66019935 23.73908372 248.90033695 23.73467255 251.14046478 C23.72920566 254.19875353 23.73606535 257.25677639 23.74603271 260.31504822 C23.74157127 261.20104751 23.73710983 262.0870468 23.73251319 262.99989456 C23.77938821 270.41786351 24.60373061 276.44955149 30 282 C35.01625583 285.51137908 38.98761094 286.12442597 45.03242207 286.13142776 C46.27615819 286.13526891 47.51989432 286.13911005 48.80131942 286.1430676 C50.18389664 286.14228736 51.5664738 286.14140857 52.9490509 286.14044189 C54.415944 286.14302556 55.88283639 286.14603873 57.34972781 286.1494453 C61.38613993 286.15751826 65.42253426 286.15930503 69.4589535 286.16004276 C73.81011916 286.16189278 78.16127559 286.16943982 82.51243591 286.17617798 C92.02889321 286.1897635 101.5453463 286.19578624 111.06181169 286.20018864 C117.00245328 286.20295045 122.94309325 286.20718767 128.88373375 286.21169281 C145.32773772 286.22388531 161.77174039 286.23418496 178.21574879 286.2375679 C179.79460107 286.23789725 179.79460107 286.23789725 181.40534936 286.23823325 C182.98800066 286.23856067 182.98800066 286.23856067 184.60262471 286.2388947 C186.74069838 286.23933817 188.87877204 286.23978473 191.0168457 286.24023438 C192.60768672 286.24056652 192.60768672 286.24056652 194.23066594 286.24090537 C211.42019611 286.24485441 228.60968391 286.26231175 245.79919771 286.2855939 C263.44224345 286.30929771 281.08526792 286.32176929 298.72832984 286.32293582 C308.6363774 286.32385308 318.54436975 286.32961824 328.45240211 286.34775543 C336.88828465 286.36314326 345.32409492 286.36828464 353.75998882 286.36001733 C358.06462971 286.35610627 362.36912498 286.35706262 366.67374802 286.37107468 C370.614824 286.38378614 374.55564455 286.38264045 378.49672004 286.37048396 C379.92202084 286.36852219 381.34733957 286.37162758 382.77261517 286.38032833 C394.78686708 286.48747862 394.78686708 286.48747862 404.8125 280.5 C410.35352831 274.16739621 410.14824167 268.58464191 410.14044189 260.5690155 C410.14341302 259.61483665 410.14638414 258.6606578 410.1494453 257.67756444 C410.15812185 254.47798656 410.15963966 251.27844614 410.16113281 248.07885742 C410.16576167 245.78570984 410.17078643 243.49256303 410.17617798 241.19941711 C410.18929627 234.96797011 410.19574568 228.73653387 410.20018864 222.50507522 C410.20311991 218.61222612 410.2072248 214.71937997 410.21169281 210.82653236 C410.22379931 200.04249117 410.23418248 189.25845382 410.2375679 178.47440624 C410.23778747 177.78467331 410.23800703 177.09494038 410.23823325 176.38430645 C410.23845153 175.69295279 410.23866981 175.00159914 410.2388947 174.28929538 C410.23933816 172.88842022 410.23978473 171.48754507 410.24023438 170.08666992 C410.2404558 169.39179206 410.24067723 168.69691419 410.24090537 167.98097942 C410.24485325 156.72198282 410.2623085 145.46305095 410.2855939 134.20407935 C410.30932279 122.63707014 410.32151257 111.07010261 410.32293582 99.50306779 C410.32398425 93.01162724 410.32990036 86.52027803 410.34775543 80.02886009 C410.36422364 73.92296888 410.36639759 67.81723782 410.35761642 61.71133232 C410.35684542 59.47161684 410.36119706 57.23189278 410.37107468 54.99219894 C410.38377877 51.93192031 410.37792544 48.87221022 410.36749268 45.81193542 C410.37554908 44.92816685 410.38360548 44.04439828 410.39190602 43.13384885 C410.34150578 36.80147518 409.48230941 30.97312968 405.28125 25.94140625 C404.6934375 25.48636719 404.105625 25.03132813 403.5 24.5625 C402.9121875 24.08941406 402.324375 23.61632812 401.71875 23.12890625 C398.21291397 20.8262094 395.09960976 20.87246795 391.02815628 20.86577892 C389.14463829 20.85909216 389.14463829 20.85909216 387.22306943 20.85227031 C385.82182899 20.85235961 384.42058856 20.85254946 383.01934814 20.85282898 C381.53681871 20.8495304 380.05429018 20.84580485 378.5717628 20.8416875 C374.48748721 20.83165878 370.40322632 20.82794931 366.31894016 20.82529819 C361.91799353 20.82139776 357.51705857 20.81181929 353.11611938 20.80308533 C342.48320916 20.78331427 331.85029798 20.77325423 321.21737397 20.76435754 C316.21238717 20.75997598 311.20740143 20.75460886 306.20241547 20.74936867 C289.56887151 20.7323563 272.93532821 20.71786131 256.30177689 20.71061993 C251.98438771 20.70870998 247.66699853 20.70678965 243.34960938 20.70483398 C242.27652073 20.70435024 241.20343209 20.7038665 240.09782562 20.7033681 C222.70775622 20.69506472 205.31775554 20.66972263 187.92771617 20.63725331 C170.08130016 20.60420299 152.2349191 20.58617303 134.38847232 20.58297569 C124.36525382 20.58080879 114.34213555 20.57203379 104.31894684 20.54651451 C95.78421291 20.52483526 87.24960355 20.51674342 78.71484521 20.52648129 C74.35953668 20.53103397 70.00448534 20.52908376 65.64921188 20.50971985 C61.66177357 20.49214429 57.67478112 20.49303995 53.68733844 20.50861714 C52.2451812 20.51100177 50.80299354 20.50662542 49.36088291 20.49478849 C40.20758362 20.42431396 34.29150423 20.59250917 27.6875 27.375 Z M202 297 C202 299.97 202 302.94 202 306 C211.9 306 221.8 306 232 306 C232 303.03 232 300.06 232 297 C222.1 297 212.2 297 202 297 Z " fill="#000000" transform="translate(39,16)"/>
</svg>
