<?xml version="1.0" encoding="UTF-8"?>
<svg version="1.1" xmlns="http://www.w3.org/2000/svg" width="941" height="265">
<path d="M0 0 C1.51840202 0.00056484 3.03680459 0.00024613 4.5552063 -0.00088501 C8.65795591 -0.00145667 12.76058756 0.01026734 16.86330986 0.02426291 C21.15809398 0.03680143 25.45288107 0.03794322 29.74768066 0.04031372 C37.8718631 0.04651933 45.99599143 0.06291768 54.12015009 0.0830127 C63.37287263 0.10540034 72.62559782 0.11637233 81.87834072 0.12640357 C100.90395048 0.14728475 119.92950994 0.18244281 138.95507812 0.22705078 C140.15621929 2.62933312 140.08819645 4.14266252 140.1003418 6.82519531 C140.10672165 7.78023956 140.1131015 8.73528381 140.11967468 9.7192688 C140.12134392 11.27386307 140.12134392 11.27386307 140.12304688 12.85986328 C140.12637527 13.9256662 140.12970367 14.99146912 140.13313293 16.08956909 C140.13820445 18.35088672 140.14054119 20.61221185 140.14038086 22.87353516 C140.142556 26.31702234 140.16067803 29.76018331 140.1796875 33.20361328 C140.18262372 35.40152885 140.18460698 37.59944595 140.18554688 39.79736328 C140.19273239 40.82161407 140.19991791 41.84586487 140.20732117 42.90115356 C140.17560042 52.94287348 138.29168194 61.18185103 131.95507812 69.22705078 C123.92417936 76.20919175 116.21223281 77.52714253 105.86914062 77.42236328 C104.28375992 77.41811844 104.28375992 77.41811844 102.66635132 77.41378784 C99.30414312 77.40262928 95.94220527 77.37753237 92.58007812 77.35205078 C90.29492573 77.3420154 88.00976915 77.33289053 85.72460938 77.32470703 C80.13467402 77.3027041 74.54489539 77.26926951 68.95507812 77.22705078 C68.95729874 77.87406952 68.95951935 78.52108826 68.96180725 79.18771362 C68.98387781 85.90313161 68.99899217 92.61853934 69.01000977 99.33398438 C69.01504816 101.84245217 69.02187896 104.35091702 69.03051758 106.859375 C69.04260473 110.45850349 69.04831127 114.05759325 69.05273438 117.65673828 C69.05789566 118.78385223 69.06305695 119.91096619 69.06837463 121.07223511 C69.06845016 122.11316315 69.0685257 123.15409119 69.06860352 124.2265625 C69.07082413 125.14589569 69.07304474 126.06522888 69.07533264 127.01242065 C68.95507812 129.22705078 68.95507812 129.22705078 67.95507812 131.22705078 C68.61240433 131.21594772 69.26973053 131.20484467 69.94697571 131.19340515 C76.77595458 131.08296116 83.60468069 131.0074455 90.43432617 130.95239258 C92.98456116 130.9272167 95.53472379 130.89307374 98.0847168 130.84985352 C101.74611237 130.78934046 105.4065558 130.76087114 109.06835938 130.73876953 C110.21218582 130.7129631 111.35601227 130.68715668 112.53450012 130.66056824 C113.59537338 130.66019058 114.65624664 130.65981293 115.74926758 130.65942383 C116.68414505 130.64832077 117.61902252 130.63721771 118.58222961 130.6257782 C120.95507812 131.22705078 120.95507812 131.22705078 122.75334167 133.5506134 C127.89074777 144.99234481 122.6602297 161.38301594 118.78710938 172.61376953 C117.62290478 175.55630606 116.35184636 178.38819145 114.95507812 181.22705078 C114.54902344 182.06365234 114.14296875 182.90025391 113.72460938 183.76220703 C103.87035469 201.99691292 83.45113175 214.48449955 64.52929688 221.49658203 C61.99733735 222.20749183 59.54785306 222.79631559 56.95507812 223.22705078 C55.92382812 223.40494141 54.89257812 223.58283203 53.83007812 223.76611328 C39.4009526 225.48248104 24.95306426 225.96540986 12.64257812 217.41455078 C4.59815941 210.79842681 -0.90074074 202.79254346 -2.49514198 192.2501297 C-2.65326625 189.16634411 -2.66489457 186.1200579 -2.61254883 183.03271484 C-2.61327896 181.8800412 -2.61400909 180.72736755 -2.61476135 179.5397644 C-2.61131007 175.77356998 -2.57256337 172.00865104 -2.53320312 168.24267578 C-2.52386631 165.61424434 -2.51675431 162.98580413 -2.51176453 160.35736084 C-2.4963089 154.17391729 -2.45539495 147.99092301 -2.40501708 141.80767608 C-2.34886311 134.76043728 -2.32157214 127.71317547 -2.2965399 120.66576815 C-2.24446992 106.18596541 -2.15669159 91.7065144 -2.04492188 77.22705078 C-2.86955429 77.22927139 -3.69418671 77.231492 -4.54380798 77.23377991 C-12.29890445 77.2537813 -20.05398848 77.26902413 -27.80910397 77.27886295 C-31.79649388 77.28409114 -35.78386255 77.29118762 -39.77124023 77.30249023 C-43.61617302 77.3133214 -47.46108532 77.3193281 -51.30603218 77.32192802 C-52.77611171 77.32378186 -54.24619006 77.32740169 -55.71626091 77.33278084 C-57.76846655 77.33999433 -59.82058655 77.3410416 -61.87280273 77.34057617 C-63.04306503 77.34279678 -64.21332733 77.3450174 -65.41905212 77.3473053 C-68.04492188 77.22705078 -68.04492188 77.22705078 -69.04492188 76.22705078 C-70.35150726 56.70364991 -66.76538406 38.19671426 -53.90722656 22.94238281 C-39.3197152 6.73137626 -21.47026192 -0.11211664 0 0 Z " fill="#0076F6" transform="translate(104.044921875,18.77294921875)"/>
<path d="M0 0 C9.57 0 19.14 0 29 0 C30.65297909 1.65297909 30.16692183 3.61036555 30.20532227 5.88696289 C30.22526749 6.92796646 30.24521271 7.96897003 30.26576233 9.04151917 C30.28247482 10.1737944 30.29918732 11.30606964 30.31640625 12.47265625 C30.33718735 13.62543564 30.35796844 14.77821503 30.37937927 15.96592712 C30.44499964 19.66472157 30.50381755 23.36358959 30.5625 27.0625 C30.60567335 29.56315879 30.64928724 32.06381001 30.69335938 34.56445312 C30.80069368 40.70955662 30.90243643 46.85473404 31 53 C31.61687683 52.51236176 32.23375366 52.02472351 32.86932373 51.52230835 C33.67911682 50.88636749 34.48890991 50.25042664 35.32324219 49.59521484 C36.12574402 48.9632016 36.92824585 48.33118835 37.75506592 47.68002319 C47.03637771 40.73424283 59.45103771 40.27479171 70.5625 41.5625 C76.46398 42.59507973 81.3078122 44.7920847 86.5390625 47.66015625 C89.01984753 49.10433664 89.01984753 49.10433664 92 50 C100.33446732 59.57206804 104.16471402 70.25553975 104.12939453 82.80371094 C104.13202301 83.95819481 104.13202301 83.95819481 104.13470459 85.13600159 C104.13909058 87.66881594 104.13619775 90.20155999 104.1328125 92.734375 C104.1334862 94.49603285 104.13445677 96.25769061 104.13571167 98.01934814 C104.137184 101.70447681 104.13504799 105.38958119 104.13037109 109.07470703 C104.1246573 113.80847975 104.12796615 118.54219597 104.13394356 123.27596664 C104.13754744 126.90979442 104.13641168 130.54360866 104.13381577 134.17743683 C104.13314688 135.92383074 104.13397358 137.67022586 104.13629532 139.41661835 C104.13882082 141.84906805 104.13498351 144.28142447 104.12939453 146.71386719 C104.13141876 147.44112503 104.13344299 148.16838287 104.13552856 148.91767883 C104.11426624 153.88573376 104.11426624 153.88573376 103 155 C98.38136347 155.28230229 93.7512329 155.23184011 89.125 155.25 C87.16626953 155.2809375 87.16626953 155.2809375 85.16796875 155.3125 C83.91886719 155.31765625 82.66976562 155.3228125 81.3828125 155.328125 C79.65635498 155.34214355 79.65635498 155.34214355 77.89501953 155.35644531 C75 155 75 155 73.34133911 153.85649109 C71.41500943 151.19033913 71.63272432 149.20892884 71.64355469 145.93969727 C71.64055359 144.69152725 71.63755249 143.44335724 71.63446045 142.15736389 C71.64646827 140.79370718 71.65895136 139.43005459 71.671875 138.06640625 C71.67493359 136.66780297 71.67680895 135.26919664 71.67755127 133.87059021 C71.68215371 130.93924296 71.69657489 128.00817052 71.71875 125.0769043 C71.74700615 121.32310574 71.75795918 117.5695238 71.7624321 113.81562901 C71.76659394 110.92711733 71.77641823 108.03864923 71.78830719 105.15015984 C71.79399724 103.76629928 71.79876009 102.38243458 71.80257416 100.99856758 C71.80946628 99.06225195 71.82400067 97.12596809 71.83886719 95.18969727 C71.84569519 94.08844009 71.85252319 92.98718292 71.85955811 91.85255432 C71.98110457 89.38379028 72.37657789 87.37011566 73 85 C72.03282029 79.44097642 70.38626946 73.71145878 66 70 C57.72557897 66.38453362 49.56875365 65.71505887 41.04296875 68.9140625 C36.33522919 71.41645561 34.6143117 75.12346973 33 80.0546875 C31.11620921 85.59577 31.11620921 85.59577 32 91 C32.09437878 92.40667706 32.12793881 93.81770021 32.12939453 95.22753906 C32.13254669 96.10315491 32.13569885 96.97877075 32.13894653 97.88092041 C32.1369223 98.83287292 32.13489807 99.78482544 32.1328125 100.765625 C32.13376923 101.75060974 32.13472595 102.73559448 32.13571167 103.75042725 C32.1363937 105.84533756 32.13453783 107.94024997 32.13037109 110.03515625 C32.12509128 113.19536299 32.13027947 116.35542311 32.13671875 119.515625 C32.150008 148.69998399 32.150008 148.69998399 29 155 C20.42 155 11.84 155 3 155 C3 154.34 3 153.68 3 153 C2.01 152.67 1.02 152.34 0 152 C0 101.84 0 51.68 0 0 Z " fill="#0B1631" transform="translate(614,55)"/>
<path d="M0 0 C6.57305751 5.12737038 13.29399561 10.88198684 16 19 C16.99 19.99 16.99 19.99 18 21 C18.71234806 23.77815743 19 26.12371715 19 29 C19.66 29 20.32 29 21 29 C21.33 37.58 21.66 46.16 22 55 C18.46817642 56.17727453 15.68663738 56.11994258 11.95825195 56.11352539 C10.88957886 56.11374443 10.88957886 56.11374443 9.79931641 56.1139679 C7.445607 56.11327151 5.09197683 56.10549192 2.73828125 56.09765625 C1.10589135 56.0957911 -0.52649911 56.09436765 -2.15888977 56.09336853 C-6.45461575 56.08955101 -10.75030789 56.07972724 -15.04602051 56.06866455 C-19.42976423 56.05843399 -23.81351341 56.05386738 -28.19726562 56.04882812 C-36.7981926 56.0381043 -45.39909209 56.02103705 -54 56 C-53.52687071 58.42579002 -53.05422674 60.81020641 -52.375 63.1875 C-52 65 -52 65 -53 67 C-52.34 67 -51.68 67 -51 67 C-50.95875 67.721875 -50.9175 68.44375 -50.875 69.1875 C-49.32604374 74.16628799 -45.24836029 76.24578233 -41 78.8125 C-33.46256301 81.7437255 -23.36042049 80.99614015 -15.89453125 78.12890625 C-13.05829061 76.43885771 -11.26970126 74.20371891 -9.38671875 71.5234375 C-7.6150544 69.57710202 -6.60012998 69.31220199 -4 69 C-2.14207713 69.0855804 -0.28666829 69.23805575 1.5625 69.4375 C7.39620061 69.99719083 13.14386893 70.10375035 19 70 C19.66 71.98 20.32 73.96 21 76 C20.34 76 19.68 76 19 76 C18.773125 77.216875 18.54625 78.43375 18.3125 79.6875 C17.19119242 84.07288785 15.49471067 86.02577815 12 89 C11.05640625 89.92619141 11.05640625 89.92619141 10.09375 90.87109375 C2.29297308 98.3468383 -6.15721183 103.18167636 -17 104 C-17.33 104.66 -17.66 105.32 -18 106 C-20.97851562 105.95117188 -20.97851562 105.95117188 -23.95703125 105.90234375 C-26.20305461 105.91736783 -26.20305461 105.91736783 -29 107 C-32.625 107.125 -32.625 107.125 -36 107 C-36.33 106.67 -36.66 106.34 -37 106 C-39.05934259 105.60803143 -41.1226937 105.2370859 -43.1875 104.875 C-56.69399995 102.01706308 -68.9827202 95.53587607 -77.0625 84.07421875 C-85.73862794 69.84898398 -89.43518479 51.87182685 -86.265625 35.33203125 C-83.84481167 25.39148259 -79.13420103 17.10399682 -73 9 C-72.45730469 8.28199219 -71.91460937 7.56398438 -71.35546875 6.82421875 C-54.93107807 -11.92869314 -19.8988946 -13.00833886 0 0 Z M-49.6171875 21.578125 C-52.42125611 24.94300734 -53.02719361 26.42893409 -52.8125 30.9375 C-52.4103125 32.4534375 -52.4103125 32.4534375 -52 34 C-52.99 34 -53.98 34 -55 34 C-54.67 34.66 -54.34 35.32 -54 36 C-38.82 36 -23.64 36 -8 36 C-10.10731754 26.2010347 -10.10731754 26.2010347 -16 19 C-25.59214161 13.31576793 -41.45989246 13.61786607 -49.6171875 21.578125 Z M-54 31 C-53 33 -53 33 -53 33 Z " fill="#0B1530" transform="translate(469,105)"/>
<path d="M0 0 C4.21742593 -0.12365029 8.43389111 -0.21435665 12.65258789 -0.2746582 C14.08734514 -0.29979524 15.52197441 -0.33391108 16.95629883 -0.37719727 C19.0193637 -0.43789665 21.08073615 -0.46621353 23.14453125 -0.48828125 C25.00621948 -0.52755737 25.00621948 -0.52755737 26.90551758 -0.56762695 C30 0 30 0 31.84619141 2.3425293 C32.22694824 3.21949463 32.60770508 4.09645996 33 5 C33.43441406 5.99257812 33.86882813 6.98515625 34.31640625 8.0078125 C34.72761719 9.03648438 35.13882813 10.06515625 35.5625 11.125 C36.86602861 14.38179112 38.04839921 17.07259882 40 20 C40.6875 22.0625 40.6875 22.0625 41 24 C40.67 24.66 40.34 25.32 40 26 C40.66 26.33 41.32 26.66 42 27 C42.45533142 29.04899137 42.90330238 31.0998038 43.32128906 33.15673828 C44.69262876 38.90156636 46.84060725 44.40074889 48.875 49.9375 C49.30941406 51.16791016 49.74382813 52.39832031 50.19140625 53.66601562 C50.62066406 54.83712891 51.04992187 56.00824219 51.4921875 57.21484375 C51.87745605 58.27823975 52.26272461 59.34163574 52.65966797 60.43725586 C53.79693326 63.08977079 53.79693326 63.08977079 56.03173828 64.42407227 C58.05196632 65.25751686 58.05196632 65.25751686 60 64 C59.67 63.01 59.34 62.02 59 61 C59.66 61 60.32 61 61 61 C60.67 60.01 60.34 59.02 60 58 C60.66 58 61.32 58 62 58 C62.10884521 57.32130859 62.21769043 56.64261719 62.32983398 55.94335938 C63.1258654 52.44720098 64.38319495 49.21995086 65.72265625 45.90625 C66.26651394 44.53264625 66.81012632 43.15894536 67.35351562 41.78515625 C68.20837127 39.63781393 69.06587278 37.49161039 69.92797852 35.34716797 C70.76285271 33.26558327 71.58710684 31.18003306 72.41015625 29.09375 C72.66950455 28.45715454 72.92885284 27.82055908 73.19606018 27.16467285 C74.5992853 23.58808987 75.06254505 20.80737799 75 17 C75.99 15.515 75.99 15.515 77 14 C78.04349896 11.80228602 79.06188931 9.59256963 80.0625 7.375 C82.89134809 1.10865191 82.89134809 1.10865191 84 0 C86.13353174 -0.10003289 88.27037542 -0.13081048 90.40625 -0.1328125 C91.70691406 -0.13410156 93.00757813 -0.13539062 94.34765625 -0.13671875 C95.36883545 -0.13357666 95.36883545 -0.13357666 96.41064453 -0.13037109 C98.49128515 -0.1250224 100.57170989 -0.1303168 102.65234375 -0.13671875 C104.60333984 -0.13478516 104.60333984 -0.13478516 106.59375 -0.1328125 C107.79708984 -0.13168457 109.00042969 -0.13055664 110.24023438 -0.12939453 C113 0 113 0 114 1 C114.14115161 3.67058851 114.04247107 6.32432238 114 9 C113.34 9 112.68 9 112 9 C111.80664062 9.85464844 111.61328125 10.70929688 111.4140625 11.58984375 C111.15367187 12.69457031 110.89328125 13.79929687 110.625 14.9375 C110.36976563 16.03964844 110.11453125 17.14179687 109.8515625 18.27734375 C109.57054687 19.17582031 109.28953125 20.07429688 109 21 C108.34 21.33 107.68 21.66 107 22 C106.32846252 23.97926836 105.66765335 25.96247992 105.04296875 27.95703125 C103.73452903 31.77453891 102.18668507 35.46789546 100.625 39.1875 C94.69034007 51.7429278 94.69034007 51.7429278 92 65 C91.34 65 90.68 65 90 65 C89.74585327 65.90661377 89.74585327 65.90661377 89.48657227 66.83154297 C87.41531181 73.99985723 84.74368755 80.79677809 81.87304688 87.67578125 C79.79324689 92.74750523 78.24231666 97.66219923 77 103 C76.67 103.66 76.34 104.32 76 105 C75.32136945 106.9959722 74.65358081 108.99568551 74 111 C73.34 111 72.68 111 72 111 C69.88620156 117.6313142 69.88620156 117.6313142 68.5 124.4375 C67.91549682 127.43307877 67.12132164 127.92620682 65 130 C64.24938646 131.18065429 63.54086898 132.38886898 62.87109375 133.6171875 C54.50573139 148.36109546 54.50573139 148.36109546 45 151 C43.76121094 151.35578125 42.52242187 151.7115625 41.24609375 152.078125 C36.87678659 153.14228584 32.67096456 153.36708568 28.1875 153.375 C27.43791016 153.39949219 26.68832031 153.42398438 25.91601562 153.44921875 C23.73046875 153.4609375 23.73046875 153.4609375 20 153 C17.96827807 150.94394954 17.09296751 149.59314548 16.64355469 146.72583008 C16.65290039 145.91525146 16.66224609 145.10467285 16.671875 144.26953125 C16.67703125 143.38458984 16.6821875 142.49964844 16.6875 141.58789062 C16.708125 140.67201172 16.72875 139.75613281 16.75 138.8125 C16.75515625 137.88501953 16.7603125 136.95753906 16.765625 136.00195312 C16.84577396 129.15422604 16.84577396 129.15422604 18 128 C20.97199571 127.75385312 23.9430797 127.61596425 26.921875 127.4765625 C31.16532055 126.81958235 33.82998969 125.40690129 36.58203125 122.09765625 C36.98808594 121.42605469 37.39414062 120.75445312 37.8125 120.0625 C38.23144531 119.39347656 38.65039062 118.72445312 39.08203125 118.03515625 C40.27410985 115.76439357 40.27410985 115.76439357 40 112 C40.66 112 41.32 112 42 112 C41.690625 110.96875 41.38125 109.9375 41.0625 108.875 C40.12497188 105.61027443 39.49227298 102.36386538 39 99 C38.34 99 37.68 99 37 99 C36.8868042 97.97382568 36.7736084 96.94765137 36.65698242 95.89038086 C36.02037127 92.1206303 35.03333876 89.23401211 33.48828125 85.75390625 C32.98079346 84.59503906 32.47330566 83.43617188 31.95043945 82.2421875 C31.68284821 81.64116211 31.41525696 81.04013672 31.13955688 80.42089844 C27.48111491 72.20037217 23.84037021 63.97713644 20.8125 55.5 C18.32049877 48.62678126 15.36835618 42.01981549 12.32666016 35.3737793 C9.44516493 29.05881808 6.80590875 22.68662305 4.2890625 16.21875 C2.86948576 12.6741099 1.28167334 9.24238582 -0.43359375 5.83203125 C-1.14019955 3.54652696 -0.6428886 2.26403497 0 0 Z M55 66 C56 68 56 68 56 68 Z M57 67 C56.67 68.32 56.34 69.64 56 71 C56.66 70.67 57.32 70.34 58 70 C57.67 69.01 57.34 68.02 57 67 Z " fill="#0B1531" transform="translate(773,98)"/>
<path d="M0 0 C14.84648266 -0.02254776 29.69295473 -0.0409796 44.53945065 -0.05181217 C51.43247527 -0.05697494 58.32548853 -0.06401728 65.21850586 -0.07543945 C71.86446165 -0.086447 78.51040869 -0.09227622 85.15637398 -0.09487724 C87.69822946 -0.09673201 90.24008426 -0.1003536 92.78193474 -0.10573006 C96.32851462 -0.11293667 99.8750449 -0.1139911 103.42163086 -0.11352539 C105.01521423 -0.1189183 105.01521423 -0.1189183 106.64099121 -0.12442017 C108.08187355 -0.12235817 108.08187355 -0.12235817 109.55186462 -0.12025452 C110.39161803 -0.12117631 111.23137144 -0.1220981 112.09657192 -0.12304783 C114 0 114 0 115 1 C115.38462601 4.94560055 115.47039731 8.91444289 115.625 12.875 C115.6765625 13.99003906 115.728125 15.10507813 115.78125 16.25390625 C115.82507813 17.32253906 115.86890625 18.39117187 115.9140625 19.4921875 C115.9548291 20.47558105 115.9955957 21.45897461 116.03759766 22.47216797 C116 25 116 25 115 28 C101.14 28.33 87.28 28.66 73 29 C73.495 31.475 73.495 31.475 74 34 C74.08410291 35.61605147 74.12207072 37.23498828 74.12025452 38.85322571 C74.12231651 40.27711357 74.12231651 40.27711357 74.12442017 41.72976685 C74.11902725 43.27372635 74.11902725 43.27372635 74.11352539 44.84887695 C74.11367142 45.94200699 74.11381744 47.03513702 74.1139679 48.16139221 C74.11327188 51.77037549 74.10549396 55.379307 74.09765625 58.98828125 C74.09579097 61.49220247 74.09436758 63.99612406 74.09336853 66.50004578 C74.08994201 72.41435416 74.08206247 78.32864598 74.07201904 84.24294585 C74.05973246 91.63917414 74.05437139 99.03540474 74.04882812 106.43164062 C74.03810611 119.62110316 74.02123254 132.81055041 74 146 C73.34 146 72.68 146 72 146 C72 146.66 72 147.32 72 148 C68.29329372 151.70670628 62.13037995 150.36964665 57.125 150.375 C55.92746094 150.39949219 54.72992188 150.42398438 53.49609375 150.44921875 C52.34496094 150.45308594 51.19382812 150.45695313 50.0078125 150.4609375 C48.95223145 150.46915527 47.89665039 150.47737305 46.80908203 150.48583984 C43.20877589 149.86315523 42.23344949 148.86075519 40 146 C39.51225281 143.02923584 39.51225281 143.02923584 39.5300293 139.52246094 C39.52710373 138.20719421 39.52417816 136.89192749 39.52116394 135.5368042 C39.53828635 134.10265431 39.55598569 132.6685112 39.57421875 131.234375 C39.57914647 129.75710491 39.58244286 128.27982856 39.58418274 126.80255127 C39.59182082 123.70556695 39.61236563 120.60904508 39.64331055 117.51220703 C39.68274638 113.56041167 39.7008994 109.6089177 39.71061993 105.65694809 C39.720647 101.87021698 39.74048648 98.08355749 39.76171875 94.296875 C39.7651145 93.58236931 39.76851025 92.86786362 39.7720089 92.13170624 C39.84494048 79.39167105 39.84494048 79.39167105 40.57739258 74.54394531 C40.9894223 71.0887036 40.78012609 68.40738218 40.26443481 65.00952148 C39.81641311 61.60486676 39.877151 58.20982293 39.90234375 54.78125 C39.9037587 54.03790405 39.90517365 53.29455811 39.90663147 52.52868652 C39.91216891 50.18574771 39.92470909 47.84290927 39.9375 45.5 C39.94252311 43.89843889 39.94708458 42.29687627 39.95117188 40.6953125 C39.96211773 36.79683712 39.97933804 32.8984355 40 29 C38.35 28.67 36.7 28.34 35 28 C35 27.67 35 27.34 35 27 C23.45 26.67 11.9 26.34 0 26 C0 17.42 0 8.84 0 0 Z M95 26 C95 26.33 95 26.66 95 27 C96.98 27 98.96 27 101 27 C101 26.67 101 26.34 101 26 C99.02 26 97.04 26 95 26 Z " fill="#0B1631" transform="translate(285,60)"/>
<path d="M0 0 C1.57701187 -0.02409439 1.57701187 -0.02409439 3.18588257 -0.04867554 C7.99842845 -0.092919 12.81083374 -0.13418438 17.62353516 -0.15722656 C20.16692238 -0.17380539 22.71026265 -0.20112026 25.25341797 -0.23925781 C28.90828782 -0.29382936 32.5620636 -0.31587063 36.21728516 -0.33056641 C37.35797455 -0.35323578 38.49866394 -0.37590515 39.67391968 -0.39926147 C40.73156525 -0.39641144 41.78921082 -0.3935614 42.87890625 -0.390625 C43.81076752 -0.39871185 44.74262878 -0.40679871 45.70272827 -0.41513062 C48.06884766 0.19287109 48.06884766 0.19287109 49.86611938 2.51742554 C55.00759343 13.95453417 49.77288512 30.35206681 45.90087891 41.57958984 C44.73667431 44.52212637 43.46561589 47.35401176 42.06884766 50.19287109 C41.45976562 51.44777344 41.45976562 51.44777344 40.83837891 52.72802734 C30.98412422 70.96273323 10.56490128 83.45031986 -8.35693359 90.46240234 C-10.88889312 91.17331214 -13.33837741 91.7621359 -15.93115234 92.19287109 C-16.96240234 92.37076172 -17.99365234 92.54865234 -19.05615234 92.73193359 C-33.48527787 94.44830135 -47.93316621 94.93123018 -60.24365234 86.38037109 C-65.81506354 81.83858414 -70.18787749 77.34029801 -71.93115234 70.19287109 C-71.20541016 70.09361328 -70.47966797 69.99435547 -69.73193359 69.89208984 C-66.57443823 69.10381694 -64.73634461 67.92106511 -62.11865234 66.00537109 C-61.24595703 65.37115234 -60.37326172 64.73693359 -59.47412109 64.08349609 C-58.63494141 63.45958984 -57.79576172 62.83568359 -56.93115234 62.19287109 C-56.24666016 61.69271484 -55.56216797 61.19255859 -54.85693359 60.67724609 C-52.86336288 59.20531964 -50.89672136 57.70194519 -48.93115234 56.19287109 C-48.20798828 55.65662109 -47.48482422 55.12037109 -46.73974609 54.56787109 C-35.36642059 45.8739287 -24.40595341 35.47142243 -16.93115234 23.19287109 C-16.41423828 22.39751953 -15.89732422 21.60216797 -15.36474609 20.78271484 C-11.88252885 15.27574973 -9.29667692 9.62308725 -6.91162109 3.56396484 C-5.27172582 -0.40183767 -4.14608372 0.05731706 0 0 Z " fill="#04C8E3" transform="translate(176.93115234375,149.80712890625)"/>
<path d="M0 0 C7.4173093 6.89296343 13.02786651 14.23441853 16 24 C16 24.66 16 25.32 16 26 C6.74389928 28.09008726 -2.57459072 29.03487095 -12 30 C-16 23.25 -16 23.25 -16 21 C-17.32258472 20.31225595 -18.65986503 19.65288627 -20 19 C-20.99 18.46375 -21.98 17.9275 -23 17.375 C-29.00856117 14.83690089 -36.74414929 14.86901786 -42.875 17.0625 C-46.69328647 19.42983761 -49.62057848 22.16503491 -52 26 C-52 26.99 -52 27.98 -52 29 C-52.66 29 -53.32 29 -54 29 C-56.16942209 42.79132614 -57.92043661 56.51008073 -50 69 C-45.88653877 73.91330091 -41.701544 76.54629805 -35.38671875 77.3203125 C-29.07580998 77.58217593 -24.11764512 76.84103342 -19 73 C-15.48226224 69.62328513 -13.18703275 66.3740655 -11 62 C-2.09 63.32 6.82 64.64 16 66 C14.65654768 75.40416624 10.99170159 84.31228543 4 91 C-6.45527208 98.81961157 -6.45527208 98.81961157 -13 100 C-13.33 100.66 -13.66 101.32 -14 102 C-14.66 101.67 -15.32 101.34 -16 101 C-16.33 101.66 -16.66 102.32 -17 103 C-20.20613242 104.28245297 -23.43140334 104.02222354 -26.8359375 103.96484375 C-29.06063288 104.00098501 -31.17385051 104.24633489 -33.375 104.5625 C-37 105 -37 105 -39 104 C-41.56845219 103.96962979 -44.120762 104.06688815 -46.6875 104.16015625 C-49 104 -49 104 -51 102 C-52.46492106 101.42091183 -53.94721251 100.88527444 -55.4375 100.375 C-64.56349559 96.82233312 -72.17519058 90.8410896 -78 83 C-78.74056641 82.12214844 -78.74056641 82.12214844 -79.49609375 81.2265625 C-88.22342372 68.30558047 -89.40171819 48.871384 -87 34 C-85.07284898 24.49801677 -82.40294612 15.47265072 -76 8 C-75.17435547 6.97712891 -75.17435547 6.97712891 -74.33203125 5.93359375 C-55.75536654 -14.94039837 -21.94620807 -14.61092657 0 0 Z " fill="#0B1530" transform="translate(588,107)"/>
<path d="M0 0 C9.9 0 19.8 0 30 0 C30.04511559 19.76652792 30.08197093 39.53301428 30.10362434 59.29958057 C30.11394482 68.47716424 30.12801985 77.65471369 30.15087891 86.83227539 C30.17078921 94.82975893 30.18371083 102.82721769 30.18817699 110.82472533 C30.19078838 115.06085793 30.19694222 119.29691964 30.21146011 123.53302956 C30.22500678 127.51793204 30.22922857 131.50273423 30.22621536 135.48765755 C30.22676684 136.95221755 30.23076164 138.41678082 30.23841095 139.88132095 C30.24832603 141.87709901 30.24478556 143.87293054 30.24050903 145.86872864 C30.24235262 146.98686353 30.24419621 148.10499842 30.24609566 149.25701618 C30 152 30 152 28 155 C25.41796875 155.37231445 25.41796875 155.37231445 22.1875 155.36328125 C20.45113281 155.36231445 20.45113281 155.36231445 18.6796875 155.36132812 C17.46539063 155.34521484 16.25109375 155.32910156 15 155.3125 C13.17855469 155.31733398 13.17855469 155.31733398 11.3203125 155.32226562 C2.26681548 155.26681548 2.26681548 155.26681548 0 153 C-0.24609566 150.36444664 -0.24609566 150.36444664 -0.24050903 146.95101929 C-0.24325836 145.66090439 -0.24600769 144.37078949 -0.24884033 143.0415802 C-0.24176155 141.60372833 -0.23449192 140.16587739 -0.22705078 138.72802734 C-0.2264869 137.22036242 -0.22680278 135.71269695 -0.22793579 134.20503235 C-0.22851119 130.10399411 -0.2167267 126.00307213 -0.20278788 121.90206099 C-0.19031163 117.61925306 -0.18911248 113.33644267 -0.18673706 109.05361938 C-0.18051314 100.93986209 -0.16409001 92.82615849 -0.14403808 84.71242487 C-0.12170742 75.47676973 -0.11069279 66.24111206 -0.10064721 57.00543666 C-0.07972454 38.00358778 -0.04303696 19.00181255 0 0 Z " fill="#0B1630" transform="translate(735,55)"/>
<path d="M0 0 C9.57 0 19.14 0 29 0 C30.55773085 1.55773085 30.12971776 3.0642225 30.1328125 5.2265625 C30.13474609 6.52787109 30.13474609 6.52787109 30.13671875 7.85546875 C30.13285156 8.76941406 30.12898437 9.68335937 30.125 10.625 C30.13080078 11.96111328 30.13080078 11.96111328 30.13671875 13.32421875 C30.12935544 18.32390526 29.8505536 23.07218947 29 28 C28.67 28 28.34 28 28 28 C28 19.42 28 10.84 28 2 C19.42 2 10.84 2 2 2 C2 51.17 2 100.34 2 151 C10.58 151 19.16 151 28 151 C27.505 117.835 27.505 117.835 27 84 C27.66 84 28.32 84 29 84 C29.04125 83.195625 29.0825 82.39125 29.125 81.5625 C30.59327396 75.58452744 34.00997251 70.06620238 39.125 66.5 C45.74112205 63.04811023 53.91827085 62.91565273 61.16015625 64.4609375 C66.26106467 66.43623233 71.51289242 69.96520098 73.96333313 74.96591187 C76.48501844 82.85869144 76.38310855 90.66078676 76.29296875 98.8515625 C76.28736165 100.3618426 76.28309683 101.87212822 76.28010559 103.38241577 C76.26874435 107.32472248 76.23935436 111.26668859 76.20599365 115.2088623 C76.17510274 119.24466344 76.16155994 123.28052053 76.14648438 127.31640625 C76.11447448 135.21110991 76.06177995 143.10547313 76 151 C84.58 151 93.16 151 102 151 C101.93680493 141.68902751 101.86116208 132.37837597 101.76428509 123.0676918 C101.71977265 118.74322667 101.68047581 114.41885161 101.65356445 110.09423828 C101.62733881 105.91190691 101.58680439 101.72992581 101.53681374 97.54781342 C101.52027404 95.96127467 101.50868021 94.37467552 101.50238609 92.78806305 C101.4618656 83.50297512 100.8567213 74.92579668 98 66 C97.78627243 65.33011047 97.57254486 64.66022095 97.3523407 63.97003174 C94.37278535 55.98142334 89.72838372 52.08319724 82.125 48.5625 C80.09068261 47.69097477 78.0512645 46.83085343 76 46 C75.505 46.99 75.505 46.99 75 48 C74.01 48 73.02 48 72 48 C72 47.34 72 46.68 72 46 C70.515 46.495 70.515 46.495 69 47 C67.515 46.01 67.515 46.01 66 45 C62.80193335 44.5396236 62.80193335 44.5396236 59.3125 44.375 C58.13300781 44.30023438 56.95351563 44.22546875 55.73828125 44.1484375 C54.83464844 44.09945312 53.93101562 44.05046875 53 44 C54.98 43.505 54.98 43.505 57 43 C57 42.34 57 41.68 57 41 C70.04213431 41.50429586 82.94173162 42.68814967 93.06640625 51.875 C95.00948153 54.01042011 96.54593232 56.10768246 98.0625 58.5625 C98.54847656 59.32691406 99.03445313 60.09132812 99.53515625 60.87890625 C104.51095838 71.480682 104.41599932 81.87242029 104.328125 93.3203125 C104.32506189 95.07339312 104.32318997 96.82647619 104.32244873 98.57955933 C104.3178746 102.22891753 104.30355062 105.87805148 104.28125 109.52734375 C104.25275921 114.21387435 104.24201438 118.90023066 104.2375679 123.58683968 C104.23342443 127.19493357 104.2236194 130.80299206 104.21169281 134.41106796 C104.20598595 136.1407124 104.20122862 137.87036024 104.19742584 139.60000992 C104.19059063 142.00309593 104.17697708 144.40604071 104.16113281 146.80908203 C104.16001495 147.5269136 104.15889709 148.24474518 104.15774536 148.98432922 C104.11470415 153.88529585 104.11470415 153.88529585 103 155 C98.38136347 155.28230229 93.7512329 155.23184011 89.125 155.25 C87.16626953 155.2809375 87.16626953 155.2809375 85.16796875 155.3125 C83.91886719 155.31765625 82.66976562 155.3228125 81.3828125 155.328125 C79.65635498 155.34214355 79.65635498 155.34214355 77.89501953 155.35644531 C75 155 75 155 73.34133911 153.85649109 C71.41500943 151.19033913 71.63272432 149.20892884 71.64355469 145.93969727 C71.64055359 144.69152725 71.63755249 143.44335724 71.63446045 142.15736389 C71.64646827 140.79370718 71.65895136 139.43005459 71.671875 138.06640625 C71.67493359 136.66780297 71.67680895 135.26919664 71.67755127 133.87059021 C71.68215371 130.93924296 71.69657489 128.00817052 71.71875 125.0769043 C71.74700615 121.32310574 71.75795918 117.5695238 71.7624321 113.81562901 C71.76659394 110.92711733 71.77641823 108.03864923 71.78830719 105.15015984 C71.79399724 103.76629928 71.79876009 102.38243458 71.80257416 100.99856758 C71.80946628 99.06225195 71.82400067 97.12596809 71.83886719 95.18969727 C71.84569519 94.08844009 71.85252319 92.98718292 71.85955811 91.85255432 C71.98110457 89.38379028 72.37657789 87.37011566 73 85 C72.03282029 79.44097642 70.38626946 73.71145878 66 70 C57.72557897 66.38453362 49.56875365 65.71505887 41.04296875 68.9140625 C36.33522919 71.41645561 34.6143117 75.12346973 33 80.0546875 C31.11620921 85.59577 31.11620921 85.59577 32 91 C32.09437878 92.40667706 32.12793881 93.81770021 32.12939453 95.22753906 C32.13254669 96.10315491 32.13569885 96.97877075 32.13894653 97.88092041 C32.1369223 98.83287292 32.13489807 99.78482544 32.1328125 100.765625 C32.13376923 101.75060974 32.13472595 102.73559448 32.13571167 103.75042725 C32.1363937 105.84533756 32.13453783 107.94024997 32.13037109 110.03515625 C32.12509128 113.19536299 32.13027947 116.35542311 32.13671875 119.515625 C32.150008 148.69998399 32.150008 148.69998399 29 155 C20.42 155 11.84 155 3 155 C3 154.34 3 153.68 3 153 C2.01 152.67 1.02 152.34 0 152 C0 101.84 0 51.68 0 0 Z " fill="#040712" transform="translate(614,55)"/>
<path d="M0 0 C37.62 0 75.24 0 114 0 C114.495 1.485 114.495 1.485 115 3 C77.71 3 40.42 3 2 3 C1.67 9.6 1.34 16.2 1 23 C1.99 22.67 2.98 22.34 4 22 C4 22.66 4 23.32 4 24 C5.76428345 23.99214478 5.76428345 23.99214478 7.56420898 23.98413086 C11.91202031 23.96608337 16.2598283 23.95456892 20.60766602 23.94506836 C22.4924373 23.94002756 24.37720465 23.93319502 26.26196289 23.92456055 C28.96501636 23.91248383 31.66801831 23.90676932 34.37109375 23.90234375 C35.21900986 23.89718246 36.06692596 23.89202118 36.9405365 23.88670349 C38.96071068 23.88650805 40.98077934 23.93793789 43 24 C44 25 44 25 44.12304783 27.01274967 C44.12166514 28.3498104 44.12166514 28.3498104 44.12025452 29.71388245 C44.12162918 30.73336975 44.12300385 31.75285706 44.12442017 32.80323792 C44.11902725 34.49500404 44.11902725 34.49500404 44.11352539 36.22094727 C44.11367142 37.40127533 44.11381744 38.58160339 44.1139679 39.79769897 C44.11338895 43.04342108 44.10835986 46.28910055 44.10139394 49.53481412 C44.09515962 52.92343032 44.09455654 56.31204728 44.09336853 59.70066833 C44.09025544 66.12155804 44.08204236 72.54243081 44.07201904 78.96331304 C44.0608572 86.27153825 44.05534727 93.57976424 44.05032361 100.88799584 C44.03985973 115.92534156 44.02151453 130.96266527 44 146 C52.58 146 61.16 146 70 146 C70 105.74 70 65.48 70 24 C85.18 24 100.36 24 116 24 C115.67 25.32 115.34 26.64 115 28 C101.14 28.33 87.28 28.66 73 29 C73.495 31.475 73.495 31.475 74 34 C74.08410291 35.61605147 74.12207072 37.23498828 74.12025452 38.85322571 C74.12231651 40.27711357 74.12231651 40.27711357 74.12442017 41.72976685 C74.11902725 43.27372635 74.11902725 43.27372635 74.11352539 44.84887695 C74.11367142 45.94200699 74.11381744 47.03513702 74.1139679 48.16139221 C74.11327188 51.77037549 74.10549396 55.379307 74.09765625 58.98828125 C74.09579097 61.49220247 74.09436758 63.99612406 74.09336853 66.50004578 C74.08994201 72.41435416 74.08206247 78.32864598 74.07201904 84.24294585 C74.05973246 91.63917414 74.05437139 99.03540474 74.04882812 106.43164062 C74.03810611 119.62110316 74.02123254 132.81055041 74 146 C73.34 146 72.68 146 72 146 C72 146.66 72 147.32 72 148 C68.29329372 151.70670628 62.13037995 150.36964665 57.125 150.375 C55.92746094 150.39949219 54.72992188 150.42398438 53.49609375 150.44921875 C52.34496094 150.45308594 51.19382812 150.45695313 50.0078125 150.4609375 C48.95223145 150.46915527 47.89665039 150.47737305 46.80908203 150.48583984 C43.20877589 149.86315523 42.23344949 148.86075519 40 146 C39.51225281 143.02923584 39.51225281 143.02923584 39.5300293 139.52246094 C39.52710373 138.20719421 39.52417816 136.89192749 39.52116394 135.5368042 C39.53828635 134.10265431 39.55598569 132.6685112 39.57421875 131.234375 C39.57914647 129.75710491 39.58244286 128.27982856 39.58418274 126.80255127 C39.59182082 123.70556695 39.61236563 120.60904508 39.64331055 117.51220703 C39.68274638 113.56041167 39.7008994 109.6089177 39.71061993 105.65694809 C39.720647 101.87021698 39.74048648 98.08355749 39.76171875 94.296875 C39.7651145 93.58236931 39.76851025 92.86786362 39.7720089 92.13170624 C39.84494048 79.39167105 39.84494048 79.39167105 40.57739258 74.54394531 C40.9894223 71.0887036 40.78012609 68.40738218 40.26443481 65.00952148 C39.81641311 61.60486676 39.877151 58.20982293 39.90234375 54.78125 C39.9037587 54.03790405 39.90517365 53.29455811 39.90663147 52.52868652 C39.91216891 50.18574771 39.92470909 47.84290927 39.9375 45.5 C39.94252311 43.89843889 39.94708458 42.29687627 39.95117188 40.6953125 C39.96211773 36.79683712 39.97933804 32.8984355 40 29 C38.35 28.67 36.7 28.34 35 28 C35 27.67 35 27.34 35 27 C23.45 26.67 11.9 26.34 0 26 C0 17.42 0 8.84 0 0 Z M95 26 C95 26.33 95 26.66 95 27 C96.98 27 98.96 27 101 27 C101 26.67 101 26.34 101 26 C99.02 26 97.04 26 95 26 Z " fill="#050712" transform="translate(285,60)"/>
<path d="M0 0 C9.24 0 18.48 0 28 0 C28.04511559 19.76652792 28.08197093 39.53301428 28.10362434 59.29958057 C28.11394482 68.47716424 28.12801985 77.65471369 28.15087891 86.83227539 C28.17078921 94.82975893 28.18371083 102.82721769 28.18817699 110.82472533 C28.19078838 115.06085793 28.19694222 119.29691964 28.21146011 123.53302956 C28.22500678 127.51793204 28.22922857 131.50273423 28.22621536 135.48765755 C28.22676684 136.95221755 28.23076164 138.41678082 28.23841095 139.88132095 C28.24832603 141.87709901 28.24478556 143.87293054 28.24050903 145.86872864 C28.24235262 146.98686353 28.24419621 148.10499842 28.24609566 149.25701618 C28 152 28 152 26 155 C23.38623047 155.34057617 23.38623047 155.34057617 20.1171875 155.29296875 C18.95058594 155.28330078 17.78398438 155.27363281 16.58203125 155.26367188 C15.35871094 155.23853516 14.13539063 155.21339844 12.875 155.1875 C11.64394531 155.17396484 10.41289063 155.16042969 9.14453125 155.14648438 C6.09592157 155.11103543 3.048175 155.06162079 0 155 C0.33 154.01 0.66 153.02 1 152 C0.34 152 -0.32 152 -1 152 C-1 102.83 -1 53.66 -1 3 C-0.67 3 -0.34 3 0 3 C0 51.84 0 100.68 0 151 C8.58 151 17.16 151 26 151 C26 108.43 26 65.86 26 22 C25.34 21.67 24.68 21.34 24 21 C24.66 21 25.32 21 26 21 C25.87431641 19.57107422 25.87431641 19.57107422 25.74609375 18.11328125 C25.64425781 16.85902344 25.54242187 15.60476562 25.4375 14.3125 C25.33308594 13.07113281 25.22867188 11.82976562 25.12109375 10.55078125 C25 7 25 7 26 2 C17.09 2 8.18 2 -1 2 C-0.67 1.34 -0.34 0.68 0 0 Z " fill="#090D1C" transform="translate(737,55)"/>
<path d="M0 0 C1.08174162 3.36541838 0.92538169 4.29847322 0 8 C-0.33 14.93 -0.66 21.86 -1 29 C32.165 29.495 32.165 29.495 66 30 C67.24679384 32.49358767 67.1230732 34.1575359 67.12025452 36.94802856 C67.12231651 38.51718521 67.12231651 38.51718521 67.12442017 40.11804199 C67.11902725 41.84649353 67.11902725 41.84649353 67.11352539 43.60986328 C67.11367142 44.81959808 67.11381744 46.02933289 67.1139679 47.27572632 C67.11338956 50.59784021 67.10836555 53.91989237 67.10139394 57.24199533 C67.09515338 60.71201808 67.09455604 64.1820416 67.09336853 67.65206909 C67.09025729 74.22521398 67.08204669 80.79834229 67.07201904 87.37147987 C67.06085148 94.85384834 67.05534583 102.33621759 67.05032361 109.81859231 C67.03986391 125.21240449 67.02226847 140.60620011 67 156 C64.45542905 152.18314357 63.87498632 149.6378744 63.87974548 145.15950012 C63.87768349 143.66400887 63.87768349 143.66400887 63.87557983 142.13830566 C63.88097275 140.49940369 63.88097275 140.49940369 63.88647461 138.82739258 C63.88632858 137.67603317 63.88618256 136.52467377 63.8860321 135.33842468 C63.88673009 131.52377453 63.89451721 127.7091729 63.90234375 123.89453125 C63.90420833 121.25323005 63.90563205 118.6119285 63.90663147 115.97062683 C63.90974052 109.72334171 63.91794818 103.47607408 63.92798096 97.22879666 C63.9391553 90.11641019 63.94465588 83.00402288 63.94967639 75.89162982 C63.96013114 61.26107752 63.97772236 46.63053901 64 32 C63.17536758 32.00222061 62.35073517 32.00444122 61.50111389 32.00672913 C53.74601743 32.02673052 45.99093339 32.04197335 38.23581791 32.05181217 C34.248428 32.05704036 30.26105933 32.06413684 26.27368164 32.07543945 C22.42874886 32.08627061 18.58383655 32.09227732 14.73888969 32.09487724 C13.26881017 32.09673108 11.79873182 32.10035091 10.32866096 32.10573006 C8.27645533 32.11294355 6.22433533 32.11399081 4.17211914 32.11352539 C3.00185684 32.115746 1.83159454 32.11796661 0.62586975 32.12025452 C-2 32 -2 32 -3 31 C-3.12964999 28.54871059 -3.1900139 26.13966894 -3.1875 23.6875 C-3.18741943 22.96925049 -3.18733887 22.25100098 -3.18725586 21.51098633 C-3.10997052 14.18514932 -2.3253194 6.97595821 0 0 Z " fill="#1166E5" transform="translate(38,64)"/>
<path d="M0 0 C1.32 0.33 2.64 0.66 4 1 C4.061875 2.0828125 4.061875 2.0828125 4.125 3.1875 C5.67395626 8.16628799 9.75163971 10.24578233 14 12.8125 C21.53743699 15.7437255 31.63957951 14.99614015 39.10546875 12.12890625 C41.94170939 10.43885771 43.73029874 8.20371891 45.61328125 5.5234375 C47.3849456 3.57710202 48.39987002 3.31220199 51 3 C52.85792287 3.0855804 54.71333171 3.23805575 56.5625 3.4375 C62.39620061 3.99719083 68.14386893 4.10375035 74 4 C74.99 6.97 74.99 6.97 76 10 C75.34 10 74.68 10 74 10 C73.773125 11.216875 73.54625 12.43375 73.3125 13.6875 C72.19119242 18.07288785 70.49471067 20.02577815 67 23 C66.3709375 23.61746094 65.741875 24.23492187 65.09375 24.87109375 C57.29297308 32.3468383 48.84278817 37.18167636 38 38 C37.505 38.99 37.505 38.99 37 40 C34.02148438 39.95117188 34.02148438 39.95117188 31.04296875 39.90234375 C28.79694539 39.91736783 28.79694539 39.91736783 26 41 C22.375 41.125 22.375 41.125 19 41 C18.505 40.505 18.505 40.505 18 40 C15.94065741 39.60803143 13.8773063 39.2370859 11.8125 38.875 C3.77777919 37.23172205 -2.86831401 33.95602642 -10 30 C-10 29.01 -10 28.02 -10 27 C-9.21625 27.4125 -8.4325 27.825 -7.625 28.25 C9.20412995 36.54660378 27.96836832 39.08395512 46 33 C48.38289417 32.0788449 50.67541127 31.0654365 53 30 C54.32276056 29.62691369 55.65232077 29.26953585 57 29 C57 28.34 57 27.68 57 27 C57.721875 26.5875 58.44375 26.175 59.1875 25.75 C63.4512689 23.09698824 66.38495191 19.84514428 68 15 C68.66 15 69.32 15 70 15 C70.66 13.02 71.32 11.04 72 9 C69.76184871 6.76184871 65.06980688 7.23515234 62 7 C60.93007813 6.89816406 59.86015625 6.79632813 58.7578125 6.69140625 C52.47963807 6.21091461 52.47963807 6.21091461 46.7890625 8.421875 C45.05101104 10.19787518 43.53421337 12.04774484 42 14 C40.35746695 15.36295295 38.70129335 16.7111414 37 18 C37 17.34 37 16.68 37 16 C36.18273437 16.33128906 35.36546875 16.66257813 34.5234375 17.00390625 C27.29260319 19.04809998 18.46790745 18.45451586 11.32421875 16.12890625 C6.11350001 13.20483301 2.61791001 8.29531797 0 3 C0 2.01 0 1.02 0 0 Z " fill="#050917" transform="translate(414,171)"/>
<path d="M0 0 C15.18 0 30.36 0 46 0 C45.67 1.32 45.34 2.64 45 4 C24.21 4.495 24.21 4.495 3 5 C3.33 6.65 3.66 8.3 4 10 C4.09322757 12.91849807 4.13665049 15.8125711 4.12939453 18.73071289 C4.13114685 19.59974243 4.13289917 20.46877197 4.13470459 21.36413574 C4.13910064 24.23366299 4.13619119 27.10312839 4.1328125 29.97265625 C4.13348661 31.97700512 4.13445753 33.98135392 4.13571167 35.98570251 C4.13718596 40.18961362 4.13504428 44.39350348 4.13037109 48.59741211 C4.12469973 53.95786024 4.127938 59.31825801 4.13394356 64.67870426 C4.13757846 68.8216743 4.13639675 72.96463266 4.13381577 77.10760307 C4.13315324 79.08214766 4.13395109 81.05669334 4.13629532 83.03123665 C4.14558706 93.06545563 4.1310699 103.01361216 3 113 C2.34 113 1.68 113 1 113 C0.86736125 102.69629336 0.73685968 92.39256184 0.60884857 82.08879662 C0.54930077 77.30072103 0.48910447 72.51265571 0.42724609 67.72460938 C0.13606798 45.14737842 -0.05741777 22.57953706 0 0 Z M25 2 C25 2.33 25 2.66 25 3 C26.98 3 28.96 3 31 3 C31 2.67 31 2.34 31 2 C29.02 2 27.04 2 25 2 Z " fill="#02050F" transform="translate(355,84)"/>
<path d="M0 0 C1.51840202 0.00056484 3.03680459 0.00024613 4.5552063 -0.00088501 C8.65795591 -0.00145667 12.76058756 0.01026734 16.86330986 0.02426291 C21.15809398 0.03680143 25.45288107 0.03794322 29.74768066 0.04031372 C37.8718631 0.04651933 45.99599143 0.06291768 54.12015009 0.0830127 C63.37287263 0.10540034 72.62559782 0.11637233 81.87834072 0.12640357 C100.90395048 0.14728475 119.92950994 0.18244281 138.95507812 0.22705078 C138.95507812 1.21705078 138.95507812 2.20705078 138.95507812 3.22705078 C138.18000695 3.22097526 137.40493578 3.21489973 136.6063776 3.2086401 C117.72641829 3.06101357 98.84642308 2.91928761 79.96637058 2.78408718 C70.83603591 2.71856315 61.70572396 2.65105967 52.57543945 2.57885742 C44.6152804 2.51591359 36.65510369 2.45672334 28.69488376 2.40199524 C24.48203865 2.3729012 20.26922581 2.34195829 16.05642891 2.30651665 C12.08633108 2.2731762 8.11622838 2.24487773 4.14606667 2.22034454 C2.69369396 2.2104995 1.24133208 2.19885693 -0.21100998 2.18522072 C-7.5805617 2.11705348 -14.740513 2.20510589 -22.04492188 3.22705078 C-22.04492188 3.88705078 -22.04492188 4.54705078 -22.04492188 5.22705078 C-26.40692374 7.67402744 -30.07185671 8.72974427 -35.04492188 9.22705078 C-32.85395577 6.80109147 -30.84605482 5.47108589 -27.85742188 4.16455078 C-27.14199219 3.84357422 -26.4265625 3.52259766 -25.68945312 3.19189453 C-17.06677965 0.04595606 -9.11089511 -0.04757664 0 0 Z " fill="#1054C1" transform="translate(104.044921875,18.77294921875)"/>
<path d="M0 0 C3.21367698 2.96683621 6.01308082 6.10678983 8.6875 9.5625 C9.26886719 10.30628906 9.85023438 11.05007812 10.44921875 11.81640625 C12.7230372 15.01808009 14 17.02559425 14 21 C13.34 21 12.68 21 12 21 C12 20.34 12 19.68 12 19 C11.34 18.67 10.68 18.34 10 18 C9.26924352 15.6859378 8.59861742 13.35171131 8 11 C7.34 11 6.68 11 6 11 C3 7.53846154 3 7.53846154 3 5 C2.15501953 4.5978125 2.15501953 4.5978125 1.29296875 4.1875 C-1.14062476 2.92717218 -3.38399818 1.48373708 -5.6875 0 C-9.81709037 -2.51446169 -13.43293358 -3.88618361 -18.1875 -4.67578125 C-20 -5 -20 -5 -22 -6 C-24.5057144 -6.25861731 -26.98806777 -6.46536319 -29.5 -6.625 C-30.18964844 -6.6765625 -30.87929688 -6.728125 -31.58984375 -6.78125 C-35.41484142 -7.12211425 -35.41484142 -7.12211425 -39 -6 C-41.98314523 -5.72239564 -44.96621199 -5.55352551 -47.95703125 -5.37890625 C-50.99326187 -5.00083902 -53.22694035 -4.25712037 -56 -3 C-56.62261719 -2.75121094 -57.24523437 -2.50242187 -57.88671875 -2.24609375 C-68.08162071 2.33166049 -75.85346564 10.43727707 -80.11328125 20.67578125 C-82.89047896 28.30045132 -84.09593954 35.95862013 -85 44 C-85.66 43.67 -86.32 43.34 -87 43 C-88.00835517 31.90809317 -84.43672723 18.79983988 -77.63671875 9.91015625 C-76.82654297 8.96462891 -76.82654297 8.96462891 -76 8 C-75.17435547 6.97712891 -75.17435547 6.97712891 -74.33203125 5.93359375 C-55.75536654 -14.94039837 -21.94620807 -14.61092657 0 0 Z " fill="#090D1B" transform="translate(588,107)"/>
<path d="M0 0 C1.1875 1.9375 1.1875 1.9375 2 4 C2.495 4.639375 2.99 5.27875 3.5 5.9375 C6.27337442 9.75088982 7.51105799 13.27271356 7 18 C5 20 5 20 3.0645752 20.23377991 C2.27562866 20.22632248 1.48668213 20.21886505 0.67382812 20.21118164 C-0.22049927 20.20780289 -1.11482666 20.20442413 -2.03625488 20.20094299 C-3.00397827 20.18748337 -3.97170166 20.17402374 -4.96875 20.16015625 C-6.45562317 20.1523539 -6.45562317 20.1523539 -7.97253418 20.14439392 C-11.14850299 20.12653542 -14.32415362 20.09535689 -17.5 20.0625 C-20.67581561 20.03491967 -23.85158633 20.01020691 -27.02746582 19.99131775 C-29.0062672 19.97902412 -30.98504369 19.96138546 -32.96374512 19.93800354 C-33.85807251 19.93147263 -34.7523999 19.92494171 -35.67382812 19.91821289 C-36.46277466 19.90995987 -37.25172119 19.90170685 -38.0645752 19.89320374 C-40.08315692 19.87605554 -40.08315692 19.87605554 -42 21 C-42.66 20.34 -43.32 19.68 -44 19 C-43.62502184 10.98123629 -40.49004228 5.16223675 -34.6875 -0.25 C-25.05151297 -8.04861662 -10.06294422 -6.22944166 0 0 Z M-36.6171875 3.578125 C-39.42125611 6.94300734 -40.02719361 8.42893409 -39.8125 12.9375 C-39.4103125 14.4534375 -39.4103125 14.4534375 -39 16 C-39.99 16 -40.98 16 -42 16 C-41.67 16.66 -41.34 17.32 -41 18 C-25.82 18 -10.64 18 5 18 C2.89268246 8.2010347 2.89268246 8.2010347 -3 1 C-12.59214161 -4.68423207 -28.45989246 -4.38213393 -36.6171875 3.578125 Z M-41 13 C-40 15 -40 15 -40 15 Z " fill="#020511" transform="translate(456,123)"/>
<path d="M0 0 C0.66 0 1.32 0 2 0 C2.29132813 0.64066406 2.58265625 1.28132812 2.8828125 1.94140625 C6.60709132 9.79986879 10.29206796 15.69262621 18 20 C18 20.66 18 21.32 18 22 C18.845625 22.268125 19.69125 22.53625 20.5625 22.8125 C24 24 24 24 27.375 25.5 C41.90460114 31.51224875 59.48759162 30.73090246 74 25 C84.00582421 19.80494191 90.19672689 12.08687354 95 2 C95.66 2 96.32 2 97 2 C95.65530011 11.00786915 90.01951772 17.61070393 83 23.0625 C78.75041622 26.18752637 75.05957594 27.60489634 70 29 C69.67 29.66 69.34 30.32 69 31 C68.34 30.67 67.68 30.34 67 30 C66.67 30.66 66.34 31.32 66 32 C62.79386758 33.28245297 59.56859666 33.02222354 56.1640625 32.96484375 C53.93936712 33.00098501 51.82614949 33.24633489 49.625 33.5625 C46 34 46 34 44 33 C41.43154781 32.96962979 38.879238 33.06688815 36.3125 33.16015625 C34 33 34 33 32 31 C30.53507894 30.42091183 29.05278749 29.88527444 27.5625 29.375 C18.39337025 25.80554139 10.8990807 19.81830216 5 12 C4.4225 11.360625 3.845 10.72125 3.25 10.0625 C1.3298924 6.89432246 0.78246513 3.61137753 0 0 Z " fill="#040714" transform="translate(505,178)"/>
<path d="M0 0 C9.66337522 1.51479936 17.99120889 7.44804208 24 15 C25.45943119 17.32689923 26.76758565 19.65942016 27.9921875 22.1171875 C28.97078412 24.16393092 28.97078412 24.16393092 31 26 C31.71234806 28.77815743 32 31.12371715 32 34 C32.66 34 33.32 34 34 34 C34.33 42.58 34.66 51.16 35 60 C31.46817642 61.17727453 28.68663738 61.11994258 24.95825195 61.11352539 C23.88957886 61.11374443 23.88957886 61.11374443 22.79931641 61.1139679 C20.445607 61.11327151 18.09197683 61.10549192 15.73828125 61.09765625 C14.10589135 61.0957911 12.47350089 61.09436765 10.84111023 61.09336853 C6.54538425 61.08955101 2.24969211 61.07972724 -2.04602051 61.06866455 C-6.42976423 61.05843399 -10.81351341 61.05386738 -15.19726562 61.04882812 C-23.7981926 61.0381043 -32.39909209 61.02103705 -41 61 C-40.40348694 64.02266703 -39.77330333 67.01725858 -39 70 C-40.32 70 -41.64 70 -43 70 C-43.36256858 68.5437328 -43.71479793 67.08488815 -44.0625 65.625 C-44.25972656 64.81289062 -44.45695312 64.00078125 -44.66015625 63.1640625 C-45 61 -45 61 -44 59 C-18.92 58.67 6.16 58.34 32 58 C33.00892646 53.96429415 32.91005408 52.85532 32 49 C31.79761719 47.79988281 31.59523438 46.59976563 31.38671875 45.36328125 C28.67029935 29.37602842 28.67029935 29.37602842 20 16 C18.50474756 14.15904853 17.01443269 12.3147622 15.53515625 10.4609375 C13.99100091 8.65531052 13.99100091 8.65531052 11 9 C11 8.01 11 7.02 11 6 C9.9275 5.71125 8.855 5.4225 7.75 5.125 C4.90599636 4.27179891 2.56491017 3.4363497 0 2 C0 1.34 0 0.68 0 0 Z " fill="#040816" transform="translate(456,100)"/>
<path d="M0 0 C49.83 0 99.66 0 151 0 C151 16.17 151 32.34 151 49 C150.67 49 150.34 49 150 49 C150 47.35 150 45.7 150 44 C149.34 44 148.68 44 148 44 C147.67 30.14 147.34 16.28 147 2 C98.49 1.67 49.98 1.34 0 1 C0 0.67 0 0.34 0 0 Z " fill="#1376FE" transform="translate(93,21)"/>
<path d="M0 0 C0.33 0 0.66 0 1 0 C1 48.84 1 97.68 1 148 C9.58 148 18.16 148 27 148 C26.95875 145.73125 26.9175 143.4625 26.875 141.125 C26.8046875 137.2578125 26.8046875 137.2578125 27 134 C27.99 133.01 27.99 133.01 29 132 C29.05392397 134.77109307 29.09363455 137.54113818 29.125 140.3125 C29.14175781 141.09818359 29.15851562 141.88386719 29.17578125 142.69335938 C29.18222656 143.45068359 29.18867187 144.20800781 29.1953125 144.98828125 C29.20578613 145.68477783 29.21625977 146.38127441 29.22705078 147.09887695 C29 149 29 149 27 152 C24.38623047 152.34057617 24.38623047 152.34057617 21.1171875 152.29296875 C19.95058594 152.28330078 18.78398438 152.27363281 17.58203125 152.26367188 C16.35871094 152.23853516 15.13539063 152.21339844 13.875 152.1875 C12.64394531 152.17396484 11.41289063 152.16042969 10.14453125 152.14648438 C7.09592157 152.11103543 4.048175 152.06162079 1 152 C1.33 151.01 1.66 150.02 2 149 C1.34 149 0.68 149 0 149 C0 99.83 0 50.66 0 0 Z " fill="#010514" transform="translate(736,58)"/>
<path d="M0 0 C-3.05902224 2.80410372 -5.86775258 3.45166926 -9.8515625 4.34765625 C-16.024855 6.22209234 -21.28094212 10.74133801 -26 15 C-26.33 15.66 -26.66 16.32 -27 17 C-27.66 17 -28.32 17 -29 17 C-29.268125 17.886875 -29.53625 18.77375 -29.8125 19.6875 C-31 23 -31 23 -32.44140625 25.3125 C-36.47170888 32.26199425 -38.64705961 40.97060603 -39 49 C-39.0515625 49.95132813 -39.103125 50.90265625 -39.15625 51.8828125 C-39.5048353 63.93805401 -36.97365783 75.04280458 -32 86 C-32.99 86 -33.98 86 -35 86 C-35.80324487 84.35978625 -36.59190592 82.71242943 -37.375 81.0625 C-37.81585938 80.14597656 -38.25671875 79.22945313 -38.7109375 78.28515625 C-44.606241 63.26106459 -45.04321586 44.9069051 -38.90234375 29.96240234 C-36.24659115 24.18671528 -32.82746702 19.05653147 -29 14 C-28.45730469 13.28199219 -27.91460937 12.56398438 -27.35546875 11.82421875 C-21.49715313 5.13535712 -8.85943248 -2.15499709 0 0 Z " fill="#080B19" transform="translate(425,100)"/>
<path d="M0 0 C0.66257812 0.35320312 1.32515625 0.70640625 2.0078125 1.0703125 C2.72066406 1.37066406 3.43351563 1.67101562 4.16796875 1.98046875 C6.0078125 3.0703125 6.0078125 3.0703125 7.5703125 6.6328125 C8.44672036 8.57966667 8.44672036 8.57966667 10.0078125 10.0703125 C13.6787912 10.99469787 17.23334405 11.11586643 21.0078125 11.0703125 C21.3378125 10.0803125 21.6678125 9.0903125 22.0078125 8.0703125 C22.0078125 8.7303125 22.0078125 9.3903125 22.0078125 10.0703125 C27.9478125 9.5753125 27.9478125 9.5753125 34.0078125 9.0703125 C34.3378125 8.0803125 34.6678125 7.0903125 35.0078125 6.0703125 C37.0078125 9.0703125 37.0078125 9.0703125 37.0078125 11.0703125 C27.75171178 13.16039976 18.43322178 14.10518345 9.0078125 15.0703125 C5.0078125 8.3203125 5.0078125 8.3203125 5.0078125 6.0703125 C3.68522778 5.38256845 2.34794747 4.72319877 1.0078125 4.0703125 C0.0178125 3.5340625 -0.9721875 2.9978125 -1.9921875 2.4453125 C-8.00074867 -0.09278661 -15.73633679 -0.06066964 -21.8671875 2.1328125 C-25.68547397 4.50015011 -28.61276598 7.23534741 -30.9921875 11.0703125 C-30.9921875 12.0603125 -30.9921875 13.0503125 -30.9921875 14.0703125 C-31.6521875 14.0703125 -32.3121875 14.0703125 -32.9921875 14.0703125 C-33.6521875 18.6903125 -34.3121875 23.3103125 -34.9921875 28.0703125 C-35.3221875 28.0703125 -35.6521875 28.0703125 -35.9921875 28.0703125 C-35.9921875 26.4203125 -35.9921875 24.7703125 -35.9921875 23.0703125 C-36.6521875 22.7403125 -37.3121875 22.4103125 -37.9921875 22.0703125 C-35.50426185 12.53326417 -32.11617771 5.9051275 -23.9921875 0.0703125 C-15.83789733 -4.54532344 -8.20429305 -4.08700945 0 0 Z " fill="#060A19" transform="translate(566.9921875,121.9296875)"/>
<path d="M0 0 C13.04213431 0.50429586 25.94173162 1.68814967 36.06640625 10.875 C38.00948153 13.01042011 39.54593232 15.10768246 41.0625 17.5625 C41.54847656 18.32691406 42.03445313 19.09132813 42.53515625 19.87890625 C46.38553758 28.0827854 47.43931874 36.16301348 47.29296875 45.13671875 C47.28872391 46.14217239 47.28447906 47.14762604 47.28010559 48.18354797 C47.26349646 51.35182046 47.22587897 54.51942425 47.1875 57.6875 C47.17243016 59.85350635 47.15874581 62.01952281 47.14648438 64.18554688 C47.1136516 69.45725412 47.06363395 74.72857927 47 80 C46.67 80 46.34 80 46 80 C46 65.81 46 51.62 46 37 C45.34 37 44.68 37 44 37 C43.81824219 36.21496094 43.63648438 35.42992187 43.44921875 34.62109375 C40.35878352 21.38271721 40.35878352 21.38271721 32 11 C27.7758599 8.71695285 23.4484248 6.80181004 19 5 C18.67 5.66 18.34 6.32 18 7 C17.01 7 16.02 7 15 7 C15 6.34 15 5.68 15 5 C14.01 5.33 13.02 5.66 12 6 C11.01 5.34 10.02 4.68 9 4 C5.80193335 3.5396236 5.80193335 3.5396236 2.3125 3.375 C0.54326172 3.26285156 0.54326172 3.26285156 -1.26171875 3.1484375 C-2.16535156 3.09945312 -3.06898438 3.05046875 -4 3 C-2.68 2.67 -1.36 2.34 0 2 C0 1.34 0 0.68 0 0 Z " fill="#0A0E1C" transform="translate(671,96)"/>
<path d="M0 0 C3.35244803 3.83136918 4.97619052 8.34630452 6.875 13 C7.22796143 13.85070068 7.58092285 14.70140137 7.94458008 15.57788086 C9.46082504 19.23580881 10.95946998 22.90079381 12.45703125 26.56640625 C16.0546813 37.68082527 16.0546813 37.68082527 23 46 C22.79479736 46.5554248 22.58959473 47.11084961 22.37817383 47.68310547 C21.87871643 50.74304779 22.67431972 52.25981576 23.94921875 55.0703125 C24.38556641 56.05 24.82191406 57.0296875 25.27148438 58.0390625 C25.73876953 59.05742187 26.20605469 60.07578125 26.6875 61.125 C32.32305393 73.64484931 32.32305393 73.64484931 34.39453125 78.5546875 C34.89690308 79.73393799 34.89690308 79.73393799 35.40942383 80.93701172 C36 83 36 83 35 86 C32.53686904 83.53686904 31.74439251 81.28737609 30.42578125 78.05859375 C29.9268335 76.84397461 29.42788574 75.62935547 28.91381836 74.37792969 C28.38001967 73.06446365 27.84624744 71.75098686 27.3125 70.4375 C26.7629644 69.09646926 26.21291353 67.75564955 25.66235352 66.41503906 C23.4432437 61.00656839 21.24011477 55.59162345 19.0390625 50.17578125 C18.50568816 48.86699185 17.9718638 47.55838573 17.4375 46.25 C17.18097656 45.62061523 16.92445313 44.99123047 16.66015625 44.34277344 C14.93157543 40.14449321 13.1179878 35.98851023 11.2734375 31.83984375 C10.54169312 30.19290527 10.54169312 30.19290527 9.79516602 28.51269531 C8.83756616 26.36507304 7.87486889 24.2197131 6.90600586 22.07714844 C3.82272758 15.17407108 1.26038591 8.21415113 -1 1 C-0.67 0.67 -0.34 0.34 0 0 Z " fill="#070B18" transform="translate(775,104)"/>
<path d="M0 0 C0.66 0 1.32 0 2 0 C2.13276898 7.79964388 2.26327229 15.59932244 2.39115143 23.39904785 C2.45064431 27.02370006 2.51081876 30.64833785 2.57275391 34.27294922 C2.81328937 48.37929384 3.044293 62.48498082 3.0625 76.59375 C3.06479614 77.54846191 3.06709229 78.50317383 3.06945801 79.48681641 C3.06203318 86.03373586 2.79882328 92.49529619 2 99 C1.34 99 0.68 99 0 99 C0 66.33 0 33.66 0 0 Z " fill="#121622" transform="translate(356,98)"/>
<path d="M0 0 C1.11503906 -0.01224609 2.23007812 -0.02449219 3.37890625 -0.03710938 C4.44753906 -0.03904297 5.51617188 -0.04097656 6.6171875 -0.04296875 C8.09227783 -0.04913208 8.09227783 -0.04913208 9.59716797 -0.05541992 C12.125 0.1875 12.125 0.1875 15.125 2.1875 C6.545 2.1875 -2.035 2.1875 -10.875 2.1875 C-11.205 3.5075 -11.535 4.8275 -11.875 6.1875 C-12.64987878 8.63199168 -13.43990467 11.067303 -14.25 13.5 C-14.56324219 14.4580957 -14.56324219 14.4580957 -14.8828125 15.43554688 C-15.95647348 18.66634989 -17.11179709 21.81353771 -18.4765625 24.93359375 C-19.97831226 28.21143174 -19.97831226 28.21143174 -20.875 31.9375 C-21.81887582 35.00509642 -22.38975362 36.26708234 -24.875 38.1875 C-26.21369515 34.17141455 -25.06367789 32.66420591 -23.4375 28.8125 C-21.67296947 24.62955297 -20.80535059 21.69149518 -20.875 17.1875 C-20.215 16.1975 -19.555 15.2075 -18.875 14.1875 C-17.83150104 11.98978602 -16.81311069 9.78006963 -15.8125 7.5625 C-11.80399953 -1.31696558 -9.41501422 0.00540472 0 0 Z " fill="#070916" transform="translate(868.875,97.8125)"/>
<path d="M0 0 C-14.97692239 12.01013346 -35.53604668 13.7099695 -54 12 C-59.62475661 10.80349286 -64.09742814 9.32380184 -68 5 C-66.35 5 -64.7 5 -63 5 C-63 5.66 -63 6.32 -63 7 C-52.11312462 11.0653522 -40.39245482 10.48329561 -29 9 C-28.67 8.67 -28.34 8.34 -28 8 C-26.15108054 7.76636119 -24.29511969 7.58696365 -22.4375 7.4375 C-21.42558594 7.35371094 -20.41367188 7.26992187 -19.37109375 7.18359375 C-18.58863281 7.12300781 -17.80617187 7.06242188 -17 7 C-17 6.34 -17 5.68 -17 5 C-15.02 4.67 -13.04 4.34 -11 4 C-11 3.34 -11 2.68 -11 2 C-7.52892065 -1.7487657 -4.73514583 -1.00166546 0 0 Z " fill="#25BED4" transform="translate(186,231)"/>
<path d="M0 0 C0 16.17 0 32.34 0 49 C-0.33 49 -0.66 49 -1 49 C-1 47.35 -1 45.7 -1 44 C-1.66 44 -2.32 44 -3 44 C-3 29.81 -3 15.62 -3 1 C-1 0 -1 0 0 0 Z " fill="#1069E4" transform="translate(244,21)"/>
<path d="M0 0 C1.47729492 1.05688477 1.47729492 1.05688477 3 3 C3.37231445 6.17944336 3.37231445 6.17944336 3.36328125 10.08984375 C3.36377975 10.78960831 3.36427826 11.48937286 3.36479187 12.21034241 C3.36245104 13.69567696 3.35272182 15.18101546 3.33618164 16.66625977 C3.31290844 18.8983275 3.3155803 21.1291725 3.32226562 23.36132812 C3.30434338 31.75842612 2.73770999 39.74911027 1 48 C-1.61138967 45.38861033 -1.23781227 43.56245302 -1.25224304 40.00679016 C-1.24505753 39.18599472 -1.23787201 38.36519928 -1.23046875 37.51953125 C-1.23001053 36.67331711 -1.22955231 35.82710297 -1.2290802 34.95524597 C-1.22605514 33.16049808 -1.21816129 31.36575287 -1.20581055 29.57104492 C-1.18768843 26.84088691 -1.1853 24.11107094 -1.18554688 21.38085938 C-1.18062617 19.63541377 -1.17479546 17.88997044 -1.16796875 16.14453125 C-1.16685593 15.33385696 -1.1657431 14.52318268 -1.16459656 13.6879425 C-1.12616966 9.02706647 -0.76866094 4.59854762 0 0 Z " fill="#090E1C" transform="translate(643,143)"/>
<path d="M0 0 C0.33 0 0.66 0 1 0 C1.00423194 0.57260905 1.00846388 1.14521811 1.01282406 1.73517895 C1.11616682 15.67346481 1.22487097 29.61170001 1.33933926 43.5498991 C1.39459735 50.29032877 1.44806704 57.03076374 1.49731445 63.77124023 C1.54483453 70.27460831 1.59735449 76.77792482 1.65294075 83.28122902 C1.67334091 85.76394149 1.69205784 88.24666838 1.70907402 90.72940636 C1.73316965 94.20336496 1.76321744 97.67722442 1.79467773 101.15112305 C1.8004332 102.18042938 1.80618866 103.20973572 1.81211853 104.27023315 C1.82190735 105.21949173 1.83169617 106.16875031 1.84178162 107.14677429 C1.84823417 107.96809184 1.85468672 108.78940939 1.8613348 109.63561535 C2.00973469 112.16598644 2.49655005 114.51855443 3 117 C3.03824623 119.33301986 3.04574284 121.66711508 3 124 C0.45542905 120.18314357 -0.12501368 117.6378744 -0.12025452 113.15950012 C-0.12162918 112.16250595 -0.12300385 111.16551178 -0.12442017 110.13830566 C-0.12082489 109.04570435 -0.11722961 107.95310303 -0.11352539 106.82739258 C-0.11367142 105.67603317 -0.11381744 104.52467377 -0.1139679 103.33842468 C-0.11326991 99.52377453 -0.10548279 95.7091729 -0.09765625 91.89453125 C-0.09579167 89.25323005 -0.09436795 86.6119285 -0.09336853 83.97062683 C-0.09025948 77.72334171 -0.08205182 71.47607408 -0.07201904 65.22879666 C-0.0608447 58.11641019 -0.05534412 51.00402288 -0.05032361 43.89162982 C-0.03986886 29.26107752 -0.02227764 14.63053901 0 0 Z " fill="#2964CE" transform="translate(102,96)"/>
<path d="M0 0 C9.9 0 19.8 0 30 0 C32.475 5.94 32.475 5.94 35 12 C35.99 13.32 36.98 14.64 38 16 C39.53846154 20.61538462 39.53846154 20.61538462 40 23 C39.67 23.66 39.34 24.32 39 25 C39.66 25.33 40.32 25.66 41 26 C41.59765625 27.890625 41.59765625 27.890625 42.0625 30.25 C42.30806641 31.46236328 42.30806641 31.46236328 42.55859375 32.69921875 C42.70425781 33.45847656 42.84992187 34.21773437 43 35 C43.20625 36.010625 43.4125 37.02125 43.625 38.0625 C43.74875 38.701875 43.8725 39.34125 44 40 C43.34 40 42.68 40 42 40 C41.6596875 39.08863281 41.319375 38.17726562 40.96875 37.23828125 C40.47925799 35.92965334 39.98966579 34.6210629 39.5 33.3125 C39.23880371 32.61366699 38.97760742 31.91483398 38.70849609 31.19482422 C37.09920468 26.8993331 35.46974273 22.61228095 33.8203125 18.33203125 C33.45615234 17.38481201 33.09199219 16.43759277 32.71679688 15.46166992 C31.99428719 13.58446956 31.26906625 11.70831028 30.54101562 9.83325195 C30.21037109 8.97304443 29.87972656 8.11283691 29.5390625 7.2265625 C29.24209473 6.45908691 28.94512695 5.69161133 28.63916016 4.90087891 C28 3 28 3 28 1 C18.76 1 9.52 1 0 1 C0 0.67 0 0.34 0 0 Z " fill="#020513" transform="translate(774,99)"/>
<path d="M0 0 C0.66 0 1.32 0 2 0 C1.32270016 4.26537634 -0.10053291 7.95412201 -1.75 11.9375 C-3.8870979 17.17540845 -5.95201803 22.4294214 -7.875 27.75 C-8.28492188 28.87921875 -8.69484375 30.0084375 -9.1171875 31.171875 C-10.14898734 33.98350193 -10.14898734 33.98350193 -10 37 C-10.66 37 -11.32 37 -12 37 C-12.17015625 37.61746094 -12.3403125 38.23492187 -12.515625 38.87109375 C-14.22185424 44.8338204 -16.33581117 50.40114631 -19 56 C-19.66 55.34 -20.32 54.68 -21 54 C-20.51080078 52.7315625 -20.51080078 52.7315625 -20.01171875 51.4375 C-19.57472656 50.303125 -19.13773438 49.16875 -18.6875 48 C-18.25824219 46.88625 -17.82898438 45.7725 -17.38671875 44.625 C-16.206166 41.53893534 -15.04410272 38.44657356 -13.88598633 35.35205078 C-11.94717266 30.20503208 -9.97148875 25.0720685 -8 19.9375 C-7.56171875 18.79216797 -7.1234375 17.64683594 -6.671875 16.46679688 C-4.54590129 10.93094063 -2.39395714 5.42577786 0 0 Z " fill="#020514" transform="translate(875,126)"/>
<path d="M0 0 C7.49289965 -0.1265644 14.98552473 -0.21425223 22.47924805 -0.2746582 C25.02948304 -0.29983408 27.57964566 -0.33397705 30.12963867 -0.37719727 C33.79103424 -0.43771032 37.45147768 -0.46617964 41.11328125 -0.48828125 C42.2571077 -0.51408768 43.40093414 -0.5398941 44.579422 -0.56648254 C45.64029526 -0.5668602 46.70116852 -0.56723785 47.79418945 -0.56762695 C48.72906693 -0.57873001 49.6639444 -0.58983307 50.62715149 -0.60127258 C53 0 53 0 54.79826355 2.32356262 C59.77163577 13.39996735 54.96075456 30.18973365 50.8671875 40.98828125 C50.58101562 41.65214844 50.29484375 42.31601563 50 43 C49.67 43 49.34 43 49 43 C48.875 39.625 48.875 39.625 49 36 C49.66 35.34 50.32 34.68 51 34 C53.44273111 27.51620755 53.18140253 20.38557193 53.1875 13.5625 C53.18830566 12.67385254 53.18911133 11.78520508 53.18994141 10.86962891 C53.15391242 5.85619302 53.15391242 5.85619302 52 1 C34.84 1 17.68 1 0 1 C0 0.67 0 0.34 0 0 Z " fill="#23C0D6" transform="translate(172,150)"/>
<path d="M0 0 C0.33 0 0.66 0 1 0 C1.18175781 0.79664063 1.36351562 1.59328125 1.55078125 2.4140625 C3.52365144 10.73046916 5.23817038 17.313916 12 23 C17.7929351 26.35990236 23.36958283 26.91322819 30 26 C32.2854546 25.09932824 34.26725302 24.08395308 36.34375 22.77734375 C38 22 38 22 41 23 C38.34811205 26.27586158 35.01350328 27.96129404 31 29 C23.71395601 29.75062266 17.55189584 29.33342069 11 26 C8.25 23.625 8.25 23.625 6 21 C5.319375 20.29875 4.63875 19.5975 3.9375 18.875 C1.08759314 14.64610595 -1.00518276 10.0173391 -2 5 C-1.1015625 2.15625 -1.1015625 2.15625 0 0 Z " fill="#070A19" transform="translate(531,158)"/>
<path d="M0 0 C0.33 0 0.66 0 1 0 C1 41.58 1 83.16 1 126 C0.67 126 0.34 126 0 126 C0 84.42 0 42.84 0 0 Z " fill="#000004" transform="translate(766,80)"/>
<path d="M0 0 C0.99 0 1.98 0 3 0 C2.36065929 3.71524714 1.32252035 7.01787124 -0.06640625 10.51953125 C-0.46923828 11.54111328 -0.87207031 12.56269531 -1.28710938 13.61523438 C-1.70798828 14.67033203 -2.12886719 15.72542969 -2.5625 16.8125 C-3.19961914 18.42415039 -3.19961914 18.42415039 -3.84960938 20.06835938 C-4.89600656 22.71374552 -5.94625244 25.35753511 -7 28 C-10.83740234 26.30322266 -10.83740234 26.30322266 -12.30078125 23.57421875 C-12.63464844 22.62160156 -12.96851563 21.66898438 -13.3125 20.6875 C-13.83263672 19.27017578 -13.83263672 19.27017578 -14.36328125 17.82421875 C-15.04413596 14.80423131 -14.83331693 12.9515548 -14 10 C-12 13 -12 13 -11.0625 15.125 C-10.08091355 17.34495729 -10.08091355 17.34495729 -7 18 C-6.34 17.67 -5.68 17.34 -5 17 C-5.33 16.01 -5.66 15.02 -6 14 C-5.34 14 -4.68 14 -4 14 C-4.33 13.01 -4.66 12.02 -5 11 C-4.34 11 -3.68 11 -3 11 C-2.87625 10.29875 -2.7525 9.5975 -2.625 8.875 C-1.96161655 5.82343613 -1.02788045 2.94659062 0 0 Z M-10 19 C-9 21 -9 21 -9 21 Z M-8 20 C-8.33 21.32 -8.66 22.64 -9 24 C-8.34 23.67 -7.68 23.34 -7 23 C-7.33 22.01 -7.66 21.02 -8 20 Z " fill="#020613" transform="translate(838,145)"/>
<path d="M0 0 C3.40591706 4.17998912 5.03043451 7.20436409 4.9375 12.6875 C4.11270109 17.84249318 1.95624995 22.71303916 -1 27 C-3.16796875 28.2890625 -3.16796875 28.2890625 -5 29 C-5 30.65 -5 32.3 -5 34 C-7.97 33.67 -10.94 33.34 -14 33 C-11.89990987 31.36659657 -9.96197006 29.98147259 -7.5625 28.8125 C-3.97436581 26.27455142 -1.80245013 22.99607028 0 19 C0 17.68 0 16.36 0 15 C0.66 15 1.32 15 2 15 C1.690625 13.989375 1.38125 12.97875 1.0625 11.9375 C0.0310421 8.3200298 -0.625045 4.74954999 -1 1 C-0.67 0.67 -0.34 0.34 0 0 Z " fill="#080C1B" transform="translate(813,195)"/>
<path d="M0 0 C0.66 0.33 1.32 0.66 2 1 C1.69106068 2.6256807 1.3777305 4.25052748 1.0625 5.875 C0.88847656 6.77992188 0.71445312 7.68484375 0.53515625 8.6171875 C0 11 0 11 -1 13 C-1.67863055 14.9959722 -2.34641919 16.99568551 -3 19 C-3.66 19 -4.32 19 -5 19 C-7.12430474 25.62447716 -7.12430474 25.62447716 -8.4375 32.4375 C-9 35 -9 35 -11.0625 36.875 C-11.701875 37.24625 -12.34125 37.6175 -13 38 C-14 35 -14 35 -13.21484375 32.86328125 C-12.58255859 31.60064453 -12.58255859 31.60064453 -11.9375 30.3125 C-9.66464933 25.5515426 -7.70164247 20.75616539 -5.875 15.8125 C-5.63386475 15.15999268 -5.39272949 14.50748535 -5.14428711 13.83520508 C-4.67160067 12.55150692 -4.19998479 11.26741401 -3.72949219 9.98291016 C-2.50298674 6.64901551 -1.25014571 3.3250917 0 0 Z " fill="#020513" transform="translate(850,190)"/>
<path d="M0 0 C0.99 0.33 1.98 0.66 3 1 C3 3.31 3 5.62 3 8 C2.34 8 1.68 8 1 8 C1 8.66 1 9.32 1 10 C-1 12 -1 12 -3.61376953 12.22705078 C-4.69255371 12.21657715 -5.77133789 12.20610352 -6.8828125 12.1953125 C-8.04941406 12.18886719 -9.21601563 12.18242187 -10.41796875 12.17578125 C-11.64128906 12.15902344 -12.86460937 12.14226562 -14.125 12.125 C-15.35605469 12.11597656 -16.58710938 12.10695312 -17.85546875 12.09765625 C-20.90383815 12.07402548 -23.95182382 12.04108054 -27 12 C-27.33 11.01 -27.66 10.02 -28 9 C-19.09 8.67 -10.18 8.34 -1 8 C-0.67 5.36 -0.34 2.72 0 0 Z " fill="#060A0F" transform="translate(356,198)"/>
<path d="M0 0 C1.31478333 0.00424484 1.31478333 0.00424484 2.65612793 0.00857544 C5.42714699 0.01967758 8.19783035 0.04476296 10.96875 0.0703125 C12.8593703 0.08035521 14.74999571 0.08947879 16.640625 0.09765625 C21.25012729 0.11958415 25.85938194 0.15404405 30.46875 0.1953125 C30.46875 0.5253125 30.46875 0.8553125 30.46875 1.1953125 C29.36474854 1.22036865 28.26074707 1.2454248 27.12329102 1.27124023 C22.99135549 1.36606613 18.85955898 1.46609707 14.7277832 1.56762695 C12.94624098 1.61069366 11.16466493 1.65238596 9.38305664 1.69262695 C6.80865323 1.75102143 4.23441568 1.8145088 1.66015625 1.87890625 C0.48302818 1.90397499 0.48302818 1.90397499 -0.71788025 1.92955017 C-6.03851008 2.06916326 -11.24761381 2.54894691 -16.53125 3.1953125 C-16.53125 3.8553125 -16.53125 4.5153125 -16.53125 5.1953125 C-20.89325187 7.64228916 -24.55818484 8.69800598 -29.53125 9.1953125 C-27.3402839 6.76935319 -25.33238294 5.43934761 -22.34375 4.1328125 C-21.62832031 3.81183594 -20.91289063 3.49085937 -20.17578125 3.16015625 C-13.31344946 0.65646947 -7.24180915 -0.08966966 0 0 Z " fill="#235CB3" transform="translate(98.53125,18.8046875)"/>
<path d="M0 0 C0.66 0.33 1.32 0.66 2 1 C0.62100451 3.75799098 -1.37672362 4.43852596 -4 6 C-4.495 6.495 -4.99 6.99 -5.5 7.5 C-7 9 -7 9 -9.3359375 10.25 C-12.45713907 12.30029077 -14.02022757 14.42950846 -16.125 17.5 C-20.25233346 23.47419473 -20.25233346 23.47419473 -23 26 C-23.33 25.34 -23.66 24.68 -24 24 C-10.54175873 4.52850199 -10.54175873 4.52850199 0 0 Z " fill="#2064D0" transform="translate(67,28)"/>
<path d="M0 0 C8.10036134 0.54576903 16.01348818 1.54147036 24 3 C23.67 5.31 23.34 7.62 23 10 C22.34 9.67 21.68 9.34 21 9 C21.33 7.68 21.66 6.36 22 5 C20.88625 5.020625 19.7725 5.04125 18.625 5.0625 C15 5 15 5 13 4 C12.67 4.66 12.34 5.32 12 6 C11.34 5.01 10.68 4.02 10 3 C7.56306689 2.63583953 7.56306689 2.63583953 4.875 2.8125 C3.50988281 2.85310547 3.50988281 2.85310547 2.1171875 2.89453125 C1.41851563 2.92933594 0.71984375 2.96414062 0 3 C0 2.01 0 1.02 0 0 Z " fill="#0A0F1D" transform="translate(580,170)"/>
<path d="M0 0 C0.33 0 0.66 0 1 0 C1.33 5.61 1.66 11.22 2 17 C6.89098109 17.24957916 6.89098109 17.24957916 11.78295898 17.47802734 C13.52765111 17.58045182 15.26528048 17.78742165 17 18 C17.33 18.66 17.66 19.32 18 20 C15.22813012 20.10787818 12.46044463 20.18723327 9.6875 20.25 C8.90181641 20.28351563 8.11613281 20.31703125 7.30664062 20.3515625 C1.57586309 20.44910765 1.57586309 20.44910765 -1.05859375 18.39453125 C-2.31750815 15.19239629 -2.10711618 12.84951216 -1.75 9.4375 C-1.64171875 8.30183594 -1.5334375 7.16617188 -1.421875 5.99609375 C-1 3 -1 3 0 0 Z " fill="#0A0F1D" transform="translate(792,231)"/>
<path d="M0 0 C4.47919218 0.51190768 6.67182903 2.00911015 10 5 C11.68250163 7.12483673 13.23390234 9.20419116 14.75 11.4375 C15.14832031 11.99759766 15.54664063 12.55769531 15.95703125 13.13476562 C18.19325966 16.38298214 19.55867853 19.06488358 20 23 C19.34 23 18.68 23 18 23 C18 22.34 18 21.68 18 21 C17.34 20.67 16.68 20.34 16 20 C15.26924352 17.6859378 14.59861742 15.35171131 14 13 C13.34 13 12.68 13 12 13 C9 9.53846154 9 9.53846154 9 7 C8.443125 6.773125 7.88625 6.54625 7.3125 6.3125 C4.36753316 4.64103234 2.31843456 2.44723648 0 0 Z " fill="#060918" transform="translate(582,105)"/>
<path d="M0 0 C1.4606285 2.64738916 2 3.89448334 2 7 C1.34 7 0.68 7 0 7 C-0.19335938 7.85464844 -0.38671875 8.70929688 -0.5859375 9.58984375 C-0.84632813 10.69457031 -1.10671875 11.79929687 -1.375 12.9375 C-1.63023437 14.03964844 -1.88546875 15.14179687 -2.1484375 16.27734375 C-2.42945313 17.17582031 -2.71046875 18.07429688 -3 19 C-3.66 19.33 -4.32 19.66 -5 20 C-5.72693904 21.97888961 -6.39816251 23.97954558 -7 26 C-7.66 25.67 -8.32 25.34 -9 25 C-6.68860831 16.38296958 -3.39204534 8.23311977 0 0 Z " fill="#010411" transform="translate(885,100)"/>
<path d="M0 0 C17.49 0 34.98 0 53 0 C53.66 1.32 54.32 2.64 55 4 C54.01 3.67 53.02 3.34 52 3 C52 2.34 52 1.68 52 1 C34.84 1 17.68 1 0 1 C0 0.67 0 0.34 0 0 Z " fill="#33B5CA" transform="translate(172,150)"/>
<path d="M0 0 C0.66 0 1.32 0 2 0 C0.59062755 3.8184968 -1.1654142 7.16871554 -3.3125 10.625 C-3.88613281 11.56601563 -4.45976563 12.50703125 -5.05078125 13.4765625 C-7.15550534 16.20131553 -8.91306824 17.51570853 -12 19 C-14.8125 19.1875 -14.8125 19.1875 -17 19 C-12.44303797 15.20253165 -12.44303797 15.20253165 -9.8125 14 C-7.44827535 12.6956002 -7.16361366 11.42031641 -6 9 C-5.02563191 7.40076541 -4.02454893 5.81755987 -3 4.25 C-2.484375 3.45078125 -1.96875 2.6515625 -1.4375 1.828125 C-0.963125 1.22484375 -0.48875 0.6215625 0 0 Z " fill="#020514" transform="translate(835,228)"/>
<path d="M0 0 C1.11246094 0.31710938 2.22492188 0.63421875 3.37109375 0.9609375 C11.13593369 2.68645749 19.1451407 2.47226887 27.0625 2.625 C28.7077014 2.66324919 30.35288426 2.70230477 31.99804688 2.7421875 C35.99854457 2.83743071 39.99913565 2.92173259 44 3 C44 3.33 44 3.66 44 4 C42.79875488 3.99476318 41.59750977 3.98952637 40.35986328 3.98413086 C35.91325624 3.96606347 31.46665247 3.9545616 27.02001953 3.94506836 C25.09358169 3.94003213 23.16714769 3.93320288 21.24072266 3.92456055 C18.47557632 3.91246392 15.71048042 3.90676467 12.9453125 3.90234375 C12.0806839 3.89718246 11.2160553 3.89202118 10.32522583 3.88670349 C6.02748998 3.75616111 6.02748998 3.75616111 2 5 C1.34 4.34 0.68 3.68 0 3 C0 2.01 0 1.02 0 0 Z " fill="#030A20" transform="translate(412,139)"/>
<path d="M0 0 C0.66 0 1.32 0 2 0 C1.7079185 6.71787454 -0.94206572 11.68518343 -5 17 C-7.2492375 19.0153168 -9.39469902 20.43681941 -12 22 C-12.66 21.67 -13.32 21.34 -14 21 C-12.8803014 19.99406757 -11.7540588 18.9954151 -10.625 18 C-9.99851563 17.443125 -9.37203125 16.88625 -8.7265625 16.3125 C-7 15 -7 15 -5 15 C-4.67 13.35 -4.34 11.7 -4 10 C-3.34 10 -2.68 10 -2 10 C-1.34 6.7 -0.68 3.4 0 0 Z " fill="#1760CE" transform="translate(241,71)"/>
<path d="M0 0 C3.47357712 4.26302647 5.31267022 7.63113158 4.75 13.1875 C4 17 4 17 2 19 C2 18.01 2 17.02 2 16 C1.34 15.67 0.68 15.34 0 15 C0.66 15 1.32 15 2 15 C1.690625 13.989375 1.38125 12.97875 1.0625 11.9375 C0.0310421 8.3200298 -0.625045 4.74954999 -1 1 C-0.67 0.67 -0.34 0.34 0 0 Z " fill="#020410" transform="translate(813,195)"/>
<path d="M0 0 C1.65 0 3.3 0 5 0 C5 0.66 5 1.32 5 2 C15.0864118 5.67830155 25.39619894 5.69881466 36 6 C36 6.33 36 6.66 36 7 C8.35296939 7.95120126 8.35296939 7.95120126 1.23046875 1.36328125 C0.82441406 0.91339844 0.41835937 0.46351563 0 0 Z " fill="#3DBDCF" transform="translate(118,236)"/>
<path d="M0 0 C1.98 0.66 3.96 1.32 6 2 C1.90328622 6.49316995 -2.71434062 9.97813973 -8 13 C-8.66 13 -9.32 13 -10 13 C-10 12.34 -10 11.68 -10 11 C-9.34 11 -8.68 11 -8 11 C-7.67 10.01 -7.34 9.02 -7 8 C-6.195625 7.731875 -5.39125 7.46375 -4.5625 7.1875 C-1.66973024 6.19646841 -1.66973024 6.19646841 -0.6875 2.875 C-0.460625 1.92625 -0.23375 0.9775 0 0 Z " fill="#25B2C5" transform="translate(196,218)"/>
<path d="M0 0 C0.33 0 0.66 0 1 0 C1 15.18 1 30.36 1 46 C0.67 46 0.34 46 0 46 C0 30.82 0 15.64 0 0 Z " fill="#000102" transform="translate(612,151)"/>
<path d="M0 0 C2.8301913 3.38263104 4.5032781 7.09118459 6.1875 11.125 C6.46013672 11.75792969 6.73277344 12.39085938 7.01367188 13.04296875 C9 17.7324953 9 17.7324953 9 20 C6 19 6 19 4.68359375 16.48828125 C4.27238281 15.44027344 3.86117187 14.39226562 3.4375 13.3125 C3.02371094 12.27738281 2.60992188 11.24226563 2.18359375 10.17578125 C1.05115167 7.13724854 0.00313962 4.08338308 -1 1 C-0.67 0.67 -0.34 0.34 0 0 Z " fill="#040714" transform="translate(775,104)"/>
<path d="M0 0 C1.51400391 0.01740234 1.51400391 0.01740234 3.05859375 0.03515625 C4.07050781 0.04417969 5.08242188 0.05320313 6.125 0.0625 C7.29869141 0.07990234 7.29869141 0.07990234 8.49609375 0.09765625 C7.50609375 0.42765625 6.51609375 0.75765625 5.49609375 1.09765625 C5.49609375 1.75765625 5.49609375 2.41765625 5.49609375 3.09765625 C4.83609375 3.09765625 4.17609375 3.09765625 3.49609375 3.09765625 C3.16609375 3.75765625 2.83609375 4.41765625 2.49609375 5.09765625 C1.83609375 4.76765625 1.17609375 4.43765625 0.49609375 4.09765625 C-0.16390625 5.41765625 -0.82390625 6.73765625 -1.50390625 8.09765625 C-1.83390625 8.09765625 -2.16390625 8.09765625 -2.50390625 8.09765625 C-2.88453846 5.77157055 -3.2166057 3.43710361 -3.50390625 1.09765625 C-2.50390625 0.09765625 -2.50390625 0.09765625 0 0 Z " fill="#111624" transform="translate(793.50390625,225.90234375)"/>
<path d="M0 0 C-3.08809695 1.76462683 -4.23312136 2 -8 2 C-8 2.66 -8 3.32 -8 4 C-12.36200187 6.44697666 -16.02693484 7.50269348 -21 8 C-18.75178853 5.48602552 -16.65302641 4.19876679 -13.5625 2.875 C-12.80066406 2.54242187 -12.03882812 2.20984375 -11.25390625 1.8671875 C-7.37411914 0.37444445 -4.16123044 -0.11558973 0 0 Z " fill="#2166D7" transform="translate(90,20)"/>
<path d="M0 0 C0.33 0 0.66 0 1 0 C1 6.93 1 13.86 1 21 C-1.31134598 16.37730805 -2.51193778 11.98630369 -1.625 6.8125 C-1.41875 6.214375 -1.2125 5.61625 -1 5 C-0.65939189 3.33480481 -0.32441604 1.66842534 0 0 Z " fill="#090C15" transform="translate(327,114)"/>
<path d="M0 0 C1 3 1 3 1 6 C1.061875 7.175625 1.12375 8.35125 1.1875 9.5625 C1.125625 10.696875 1.06375 11.83125 1 13 C0.01 13.66 -0.98 14.32 -2 15 C-3.56438569 11.9494479 -4.29359551 9.93072804 -3.2421875 6.59765625 C-2.22899805 4.3551775 -1.16534995 2.16697305 0 0 Z " fill="#166BE6" transform="translate(42,54)"/>
<path d="M0 0 C-4.38423952 3.44475962 -7.30835767 5.31620235 -13 5 C-12.34 4.67 -11.68 4.34 -11 4 C-11 3.34 -11 2.68 -11 2 C-7.52892065 -1.7487657 -4.73514583 -1.00166546 0 0 Z " fill="#15BDD8" transform="translate(186,231)"/>
<path d="M0 0 C4.70940171 1.48717949 4.70940171 1.48717949 6.0625 3.875 C6.371875 4.57625 6.68125 5.2775 7 6 C7.70125 6.70125 8.4025 7.4025 9.125 8.125 C11 10 11 10 11 12 C7.612801 10.5611898 5.6405896 8.77880501 3.25 6 C2.63640625 5.29875 2.0228125 4.5975 1.390625 3.875 C0 2 0 2 0 0 Z " fill="#030916" transform="translate(392,187)"/>
<path d="M0 0 C0.33 0 0.66 0 1 0 C0.5547115 5.27315333 -0.08373163 10.01770224 -2 15 C-2.99 15 -3.98 15 -5 15 C-1.92482916 4.44191344 -1.92482916 4.44191344 0 0 Z " fill="#080C1B" transform="translate(848,120)"/>
<path d="M0 0 C0.66 0 1.32 0 2 0 C2.83739781 2.1234016 3.66980283 4.2487728 4.5 6.375 C4.9640625 7.55835937 5.428125 8.74171875 5.90625 9.9609375 C7 13 7 13 7 15 C6.01 15 5.02 15 4 15 C1.94637945 9.91059256 0.56820748 5.45479185 0 0 Z " fill="#080C19" transform="translate(803,100)"/>
<path d="M0 0 C0.97812873 3.05628064 1.00835683 4.85277447 0.00390625 7.890625 C-0.33930664 8.95410156 -0.33930664 8.95410156 -0.68945312 10.0390625 C-0.93630859 10.76867187 -1.18316406 11.49828125 -1.4375 12.25 C-1.68048828 12.99507812 -1.92347656 13.74015625 -2.17382812 14.5078125 C-2.77332981 16.34158235 -3.38544487 18.17122004 -4 20 C-4.33 20 -4.66 20 -5 20 C-5.125 16.625 -5.125 16.625 -5 13 C-4.34 12.34 -3.68 11.68 -3 11 C-2.39286197 9.14516546 -1.85868948 7.26578615 -1.375 5.375 C-1.11460937 4.37210938 -0.85421875 3.36921875 -0.5859375 2.3359375 C-0.39257812 1.56507813 -0.19921875 0.79421875 0 0 Z " fill="#29B2C5" transform="translate(226,173)"/>
<path d="M0 0 C2.46301423 2.46301423 2.76766521 4.27360036 3.625 7.625 C3.88539063 8.62789062 4.14578125 9.63078125 4.4140625 10.6640625 C4.60742188 11.43492187 4.80078125 12.20578125 5 13 C4.01 13 3.02 13 2 13 C1.47212358 11.02270019 0.95287097 9.04309608 0.4375 7.0625 C0.00244141 5.40927734 0.00244141 5.40927734 -0.44140625 3.72265625 C-0.62574219 2.82417969 -0.81007813 1.92570313 -1 1 C-0.67 0.67 -0.34 0.34 0 0 Z " fill="#060A1A" transform="translate(819,142)"/>
<path d="M0 0 C0.99 0.33 1.98 0.66 3 1 C3 1.66 3 2.32 3 3 C3.66 3.33 4.32 3.66 5 4 C2.03 6.475 2.03 6.475 -1 9 C-1.625 6.1875 -1.625 6.1875 -2 3 C-1.34 2.01 -0.68 1.02 0 0 Z " fill="#12BDD5" transform="translate(203,211)"/>
<path d="M0 0 C1.32 0.33 2.64 0.66 4 1 C4.0825 1.721875 4.165 2.44375 4.25 3.1875 C5.14750201 6.55313254 6.7114278 8.41612816 9 11 C8.01 11.33 7.02 11.66 6 12 C4.99157547 10.56839732 3.99352109 9.12948547 3 7.6875 C2.1646875 6.48673828 2.1646875 6.48673828 1.3125 5.26171875 C0 3 0 3 0 0 Z " fill="#030716" transform="translate(414,171)"/>
<path d="M0 0 C2.31 0.33 4.62 0.66 7 1 C4 3 4 3 2 3 C2.2784375 4.1446875 2.2784375 4.1446875 2.5625 5.3125 C3 8 3 8 2 11 C1.34 11 0.68 11 0 11 C0 7.37 0 3.74 0 0 Z " fill="#0B1022" transform="translate(356,86)"/>
<path d="M0 0 C-1.49827011 3.81377846 -3.76487393 5.57365545 -7 8 C-7.66 8.66 -8.32 9.32 -9 10 C-9.33 9.01 -9.66 8.02 -10 7 C-8.71372289 5.82739389 -7.42080217 4.6620717 -6.125 3.5 C-5.04605469 2.52546875 -5.04605469 2.52546875 -3.9453125 1.53125 C-2 0 -2 0 0 0 Z " fill="#040817" transform="translate(654,102)"/>
<path d="M0 0 C-1.07107117 0.86949317 -2.15745944 1.72014205 -3.25 2.5625 C-3.85328125 3.03816406 -4.4565625 3.51382813 -5.078125 4.00390625 C-7 5 -7 5 -9.234375 4.65234375 C-9.81703125 4.43707031 -10.3996875 4.22179687 -11 4 C-10.67 3.34 -10.34 2.68 -10 2 C-9.34 2.33 -8.68 2.66 -8 3 C-8 2.34 -8 1.68 -8 1 C-2.25 -1.125 -2.25 -1.125 0 0 Z " fill="#007AE6" transform="translate(116,216)"/>
<path d="M0 0 C1.65 0 3.3 0 5 0 C5 0.33 5 0.66 5 1 C7.31 1.33 9.62 1.66 12 2 C12 2.33 12 2.66 12 3 C6.72 3 1.44 3 -4 3 C-2.68 2.67 -1.36 2.34 0 2 C0 1.34 0 0.68 0 0 Z " fill="#020817" transform="translate(671,96)"/>
<path d="M0 0 C0.66 0.33 1.32 0.66 2 1 C0.62100451 3.75799098 -1.37672362 4.43852596 -4 6 C-5.75149165 7.58245275 -5.75149165 7.58245275 -7 9 C-7.66 8.67 -8.32 8.34 -9 8 C-6.37347975 4.40069448 -4.06036357 1.92333011 0 0 Z " fill="#1565D9" transform="translate(67,28)"/>
<path d="M0 0 C1.98 0.66 3.96 1.32 6 2 C4.1875 4 4.1875 4 2 6 C1.01 6 0.02 6 -1 6 C-1.042721 4.33388095 -1.04063832 2.66617115 -1 1 C-0.67 0.67 -0.34 0.34 0 0 Z " fill="#13BCD2" transform="translate(196,218)"/>
<path d="M0 0 C0.66 0.33 1.32 0.66 2 1 C-0.64 4.63 -3.28 8.26 -6 12 C-6.33 11.01 -6.66 10.02 -7 9 C-5.25 6.5625 -5.25 6.5625 -3 4 C-1.99426222 2.67098936 -0.99204592 1.33926199 0 0 Z " fill="#007BE3" transform="translate(159,172)"/>
<path d="M0 0 C-3.53411321 2.12046792 -6.94393835 2.53199289 -11 3 C-11.33 2.34 -11.66 1.68 -12 1 C-3.96428571 -1.27678571 -3.96428571 -1.27678571 0 0 Z " fill="#070C1E" transform="translate(666,100)"/>
<path d="M0 0 C0.66 0 1.32 0 2 0 C1.5020163 3.73487777 1.12508244 5.81237635 -1 9 C-1.66 9 -2.32 9 -3 9 C-2.30058404 5.85262818 -1.23921302 2.97411124 0 0 Z " fill="#060A19" transform="translate(576,170)"/>
<path d="M0 0 C0.66 0 1.32 0 2 0 C2 0.99 2 1.98 2 3 C2.99 3.33 3.98 3.66 5 4 C0.25 5.125 0.25 5.125 -2 4 C-1.34 2.68 -0.68 1.36 0 0 Z " fill="#0CC8EB" transform="translate(110,219)"/>
<path d="M0 0 C0.66 0.33 1.32 0.66 2 1 C1.34 3.31 0.68 5.62 0 8 C-0.99 7.67 -1.98 7.34 -3 7 C-2.01 4.69 -1.02 2.38 0 0 Z " fill="#060918" transform="translate(842,136)"/>
<path d="M0 0 C5.61 0 11.22 0 17 0 C17 0.33 17 0.66 17 1 C11.39 1 5.78 1 0 1 C0 0.67 0 0.34 0 0 Z " fill="#000011" transform="translate(793,252)"/>
<path d="M0 0 C0.66 0 1.32 0 2 0 C1.25 5.75 1.25 5.75 -1 8 C-2.2077558 4.37673261 -1.54311128 3.35853631 0 0 Z " fill="#020616" transform="translate(853,182)"/>
<path d="M0 0 C0.33 0 0.66 0 1 0 C1 5.28 1 10.56 1 16 C0.67 16 0.34 16 0 16 C0 10.72 0 5.44 0 0 Z " fill="#000004" transform="translate(612,127)"/>
<path d="M0 0 C3.96 0 7.92 0 12 0 C12 0.33 12 0.66 12 1 C8.04 1 4.08 1 0 1 C0 0.67 0 0.34 0 0 Z " fill="#000000" transform="translate(291,87)"/>
<path d="M0 0 C0.33 0 0.66 0 1 0 C1 2.97 1 5.94 1 9 C0.67 9 0.34 9 0 9 C0 6.03 0 3.06 0 0 Z " fill="#000000" transform="translate(612,198)"/>
<path d="M0 0 C0.33 0 0.66 0 1 0 C1 2.97 1 5.94 1 9 C0.67 9 0.34 9 0 9 C0 6.03 0 3.06 0 0 Z " fill="#000000" transform="translate(492,150)"/>
<path d="M0 0 C0.33 0 0.66 0 1 0 C1 2.31 1 4.62 1 7 C0.67 7 0.34 7 0 7 C0 4.69 0 2.38 0 0 Z " fill="#000000" transform="translate(788,227)"/>
<path d="M0 0 C0.33 0 0.66 0 1 0 C1 2.31 1 4.62 1 7 C0.67 7 0.34 7 0 7 C0 4.69 0 2.38 0 0 Z " fill="#000000" transform="translate(645,88)"/>
<path d="M0 0 C0.33 0 0.66 0 1 0 C1 2.31 1 4.62 1 7 C0.67 7 0.34 7 0 7 C0 4.69 0 2.38 0 0 Z " fill="#070710" transform="translate(766,56)"/>
<path d="M0 0 C0.33 0 0.66 0 1 0 C1 1.98 1 3.96 1 6 C0.67 6 0.34 6 0 6 C0 4.02 0 2.04 0 0 Z " fill="#000000" transform="translate(612,116)"/>
<path d="M0 0 C1.65 0 3.3 0 5 0 C5 0.33 5 0.66 5 1 C3.35 1 1.7 1 0 1 C0 0.67 0 0.34 0 0 Z " fill="#0F0F0F" transform="translate(791,224)"/>
<path d="M0 0 C0.33 0 0.66 0 1 0 C1 1.65 1 3.3 1 5 C0.67 5 0.34 5 0 5 C0 3.35 0 1.7 0 0 Z " fill="#0C0C2A" transform="translate(612,56)"/>
<path d="M0 0 C4 1 4 1 4 1 Z " fill="#000000" transform="translate(797,224)"/>
<path d="M0 0 C1 4 1 4 1 4 Z " fill="#000000" transform="translate(498,154)"/>
<path d="M0 0 C1 4 1 4 1 4 Z " fill="#000000" transform="translate(533,144)"/>
<path d="M0 0 C0.66 0.66 1.32 1.32 2 2 C1.01 2.495 1.01 2.495 0 3 C0 2.01 0 1.02 0 0 Z " fill="#000000" transform="translate(645,104)"/>
<path d="M0 0 C1 4 1 4 1 4 Z " fill="#000000" transform="translate(645,97)"/>
<path d="M0 0 C4 1 4 1 4 1 Z " fill="#000010" transform="translate(286,87)"/>
<path d="M0 0 C0.66 0.66 1.32 1.32 2 2 C1.34 2 0.68 2 0 2 C0 1.34 0 0.68 0 0 Z " fill="#00000C" transform="translate(418,174)"/>
<path d="M0 0 C3 1 3 1 3 1 Z " fill="#000000" transform="translate(480,174)"/>
<path d="" fill="#000000" transform="translate(0,0)"/>
<path d="" fill="#000000" transform="translate(0,0)"/>
<path d="" fill="#000000" transform="translate(0,0)"/>
<path d="" fill="#000000" transform="translate(0,0)"/>
<path d="" fill="#000000" transform="translate(0,0)"/>
<path d="" fill="#000000" transform="translate(0,0)"/>
<path d="M0 0 C3 1 3 1 3 1 Z " fill="#000000" transform="translate(304,87)"/>
<path d="" fill="#000000" transform="translate(0,0)"/>
<path d="" fill="#000000" transform="translate(0,0)"/>
<path d="" fill="#000000" transform="translate(0,0)"/>
<path d="M0 0 C2 1 2 1 2 1 Z " fill="#000000" transform="translate(818,249)"/>
<path d="M0 0 C2 1 2 1 2 1 Z " fill="#000000" transform="translate(820,248)"/>
<path d="M0 0 C2 1 2 1 2 1 Z " fill="#000000" transform="translate(835,233)"/>
<path d="" fill="#000000" transform="translate(0,0)"/>
<path d="" fill="#000000" transform="translate(0,0)"/>
<path d="" fill="#000000" transform="translate(0,0)"/>
<path d="" fill="#000000" transform="translate(0,0)"/>
<path d="M0 0 C2 1 2 1 2 1 Z " fill="#000000" transform="translate(474,200)"/>
<path d="" fill="#000000" transform="translate(0,0)"/>
<path d="" fill="#000000" transform="translate(0,0)"/>
<path d="" fill="#000000" transform="translate(0,0)"/>
<path d="M0 0 C2 1 2 1 2 1 Z " fill="#000000" transform="translate(472,173)"/>
<path d="M0 0 C2 1 2 1 2 1 Z " fill="#000000" transform="translate(601,171)"/>
<path d="" fill="#000000" transform="translate(0,0)"/>
<path d="M0 0 C2 1 2 1 2 1 Z " fill="#000000" transform="translate(417,162)"/>
<path d="" fill="#000000" transform="translate(0,0)"/>
<path d="" fill="#000000" transform="translate(0,0)"/>
<path d="" fill="#000015" transform="translate(0,0)"/>
<path d="" fill="#000000" transform="translate(0,0)"/>
<path d="" fill="#000000" transform="translate(0,0)"/>
<path d="M0 0 C2 1 2 1 2 1 Z " fill="#000000" transform="translate(418,138)"/>
<path d="" fill="#000000" transform="translate(0,0)"/>
<path d="" fill="#000000" transform="translate(0,0)"/>
<path d="" fill="#000000" transform="translate(0,0)"/>
<path d="M0 0 C2 1 2 1 2 1 Z " fill="#000000" transform="translate(653,125)"/>
<path d="" fill="#000000" transform="translate(0,0)"/>
<path d="M0 0 C2 1 2 1 2 1 Z " fill="#000019" transform="translate(543,125)"/>
<path d="" fill="#000000" transform="translate(0,0)"/>
<path d="" fill="#000000" transform="translate(0,0)"/>
<path d="" fill="#000000" transform="translate(0,0)"/>
<path d="M0 0 C2 1 2 1 2 1 Z " fill="#000000" transform="translate(407,103)"/>
<path d="" fill="#000000" transform="translate(0,0)"/>
<path d="" fill="#000000" transform="translate(0,0)"/>
<path d="" fill="#000000" transform="translate(0,0)"/>
<path d="M0 0 C2 1 2 1 2 1 Z " fill="#000000" transform="translate(315,87)"/>
<path d="" fill="#000000" transform="translate(0,0)"/>
<path d="" fill="#000000" transform="translate(0,0)"/>
<path d="" fill="#000000" transform="translate(0,0)"/>
<path d="" fill="#000000" transform="translate(0,0)"/>
<path d="" fill="#000000" transform="translate(0,0)"/>
<path d="" fill="#000000" transform="translate(0,0)"/>
<path d="" fill="#000000" transform="translate(0,0)"/>
<path d="" fill="#000000" transform="translate(0,0)"/>
<path d="" fill="#000000" transform="translate(0,0)"/>
<path d="" fill="#000000" transform="translate(0,0)"/>
<path d="" fill="#000000" transform="translate(0,0)"/>
<path d="" fill="#000000" transform="translate(0,0)"/>
<path d="" fill="#000000" transform="translate(0,0)"/>
<path d="" fill="#000000" transform="translate(0,0)"/>
<path d="" fill="#000000" transform="translate(0,0)"/>
<path d="" fill="#000000" transform="translate(0,0)"/>
<path d="" fill="#000000" transform="translate(0,0)"/>
<path d="" fill="#000000" transform="translate(0,0)"/>
<path d="" fill="#000000" transform="translate(0,0)"/>
<path d="" fill="#000000" transform="translate(0,0)"/>
<path d="" fill="#000000" transform="translate(0,0)"/>
<path d="" fill="#000000" transform="translate(0,0)"/>
<path d="" fill="#000000" transform="translate(0,0)"/>
<path d="" fill="#000000" transform="translate(0,0)"/>
<path d="" fill="#000000" transform="translate(0,0)"/>
<path d="" fill="#000000" transform="translate(0,0)"/>
<path d="" fill="#000000" transform="translate(0,0)"/>
<path d="" fill="#000000" transform="translate(0,0)"/>
<path d="" fill="#000000" transform="translate(0,0)"/>
<path d="" fill="#000000" transform="translate(0,0)"/>
<path d="" fill="#000000" transform="translate(0,0)"/>
<path d="" fill="#000000" transform="translate(0,0)"/>
<path d="" fill="#000000" transform="translate(0,0)"/>
<path d="" fill="#000000" transform="translate(0,0)"/>
<path d="" fill="#000000" transform="translate(0,0)"/>
<path d="" fill="#000000" transform="translate(0,0)"/>
<path d="" fill="#000000" transform="translate(0,0)"/>
<path d="" fill="#000000" transform="translate(0,0)"/>
<path d="" fill="#000000" transform="translate(0,0)"/>
<path d="" fill="#000000" transform="translate(0,0)"/>
<path d="" fill="#000000" transform="translate(0,0)"/>
<path d="" fill="#000000" transform="translate(0,0)"/>
<path d="" fill="#000000" transform="translate(0,0)"/>
<path d="" fill="#000000" transform="translate(0,0)"/>
<path d="" fill="#000000" transform="translate(0,0)"/>
<path d="" fill="#000000" transform="translate(0,0)"/>
<path d="" fill="#000000" transform="translate(0,0)"/>
<path d="" fill="#000000" transform="translate(0,0)"/>
<path d="" fill="#000000" transform="translate(0,0)"/>
<path d="" fill="#000000" transform="translate(0,0)"/>
<path d="" fill="#000000" transform="translate(0,0)"/>
<path d="" fill="#000000" transform="translate(0,0)"/>
<path d="" fill="#000000" transform="translate(0,0)"/>
<path d="" fill="#000000" transform="translate(0,0)"/>
<path d="" fill="#000000" transform="translate(0,0)"/>
<path d="" fill="#000000" transform="translate(0,0)"/>
<path d="" fill="#000000" transform="translate(0,0)"/>
<path d="" fill="#000000" transform="translate(0,0)"/>
<path d="" fill="#000000" transform="translate(0,0)"/>
<path d="" fill="#000000" transform="translate(0,0)"/>
<path d="" fill="#000000" transform="translate(0,0)"/>
<path d="" fill="#000000" transform="translate(0,0)"/>
<path d="" fill="#000000" transform="translate(0,0)"/>
<path d="" fill="#000000" transform="translate(0,0)"/>
<path d="" fill="#000000" transform="translate(0,0)"/>
<path d="" fill="#000000" transform="translate(0,0)"/>
<path d="" fill="#000000" transform="translate(0,0)"/>
<path d="" fill="#000000" transform="translate(0,0)"/>
<path d="" fill="#000000" transform="translate(0,0)"/>
<path d="" fill="#000000" transform="translate(0,0)"/>
<path d="" fill="#000000" transform="translate(0,0)"/>
<path d="" fill="#000000" transform="translate(0,0)"/>
<path d="" fill="#000000" transform="translate(0,0)"/>
<path d="" fill="#000000" transform="translate(0,0)"/>
<path d="" fill="#000000" transform="translate(0,0)"/>
<path d="" fill="#000000" transform="translate(0,0)"/>
<path d="" fill="#000000" transform="translate(0,0)"/>
<path d="" fill="#000000" transform="translate(0,0)"/>
<path d="" fill="#000000" transform="translate(0,0)"/>
<path d="" fill="#000000" transform="translate(0,0)"/>
<path d="" fill="#000000" transform="translate(0,0)"/>
<path d="" fill="#000000" transform="translate(0,0)"/>
<path d="" fill="#000000" transform="translate(0,0)"/>
<path d="" fill="#000000" transform="translate(0,0)"/>
<path d="" fill="#000000" transform="translate(0,0)"/>
<path d="" fill="#000000" transform="translate(0,0)"/>
<path d="" fill="#000000" transform="translate(0,0)"/>
<path d="" fill="#000000" transform="translate(0,0)"/>
<path d="" fill="#000000" transform="translate(0,0)"/>
<path d="" fill="#000000" transform="translate(0,0)"/>
<path d="" fill="#000000" transform="translate(0,0)"/>
<path d="" fill="#000000" transform="translate(0,0)"/>
<path d="" fill="#000000" transform="translate(0,0)"/>
<path d="" fill="#000000" transform="translate(0,0)"/>
<path d="" fill="#000000" transform="translate(0,0)"/>
<path d="" fill="#000000" transform="translate(0,0)"/>
<path d="" fill="#000000" transform="translate(0,0)"/>
<path d="" fill="#000000" transform="translate(0,0)"/>
<path d="" fill="#000000" transform="translate(0,0)"/>
<path d="" fill="#000000" transform="translate(0,0)"/>
<path d="" fill="#000000" transform="translate(0,0)"/>
<path d="" fill="#000000" transform="translate(0,0)"/>
<path d="" fill="#000000" transform="translate(0,0)"/>
<path d="" fill="#000000" transform="translate(0,0)"/>
<path d="" fill="#000000" transform="translate(0,0)"/>
<path d="" fill="#000000" transform="translate(0,0)"/>
<path d="" fill="#000000" transform="translate(0,0)"/>
<path d="" fill="#000000" transform="translate(0,0)"/>
<path d="" fill="#000000" transform="translate(0,0)"/>
<path d="" fill="#000000" transform="translate(0,0)"/>
<path d="" fill="#000000" transform="translate(0,0)"/>
<path d="" fill="#000000" transform="translate(0,0)"/>
<path d="" fill="#000000" transform="translate(0,0)"/>
<path d="" fill="#000000" transform="translate(0,0)"/>
<path d="" fill="#000000" transform="translate(0,0)"/>
<path d="" fill="#000000" transform="translate(0,0)"/>
<path d="" fill="#000000" transform="translate(0,0)"/>
<path d="" fill="#000000" transform="translate(0,0)"/>
<path d="" fill="#000000" transform="translate(0,0)"/>
<path d="" fill="#000000" transform="translate(0,0)"/>
<path d="" fill="#000000" transform="translate(0,0)"/>
<path d="" fill="#000000" transform="translate(0,0)"/>
<path d="" fill="#000000" transform="translate(0,0)"/>
<path d="" fill="#000000" transform="translate(0,0)"/>
</svg>
