<?xml version="1.0" encoding="UTF-8"?>
<svg version="1.1" xmlns="http://www.w3.org/2000/svg" width="512" height="512">
<path d="M0 0 C1.85472887 -0.00599835 3.70945526 -0.01280685 5.56417847 -0.02035522 C10.56481498 -0.0378954 15.56538288 -0.04270567 20.56604719 -0.0439868 C23.7037739 -0.04541646 26.84148363 -0.04970148 29.97920609 -0.05498123 C40.96466411 -0.07344609 51.95007385 -0.08165682 62.93554688 -0.08007812 C73.11126939 -0.07887962 83.28677883 -0.09993407 93.46244752 -0.13156545 C102.24945407 -0.1578885 111.03639175 -0.16843867 119.82343733 -0.16716731 C125.04879434 -0.1666621 130.27396195 -0.17209618 135.49927902 -0.19352341 C177.96485298 -0.35559815 177.96485298 -0.35559815 197.16650391 4.29052734 C197.95447735 4.48019199 198.74245079 4.66985664 199.55430222 4.86526871 C227.18318689 11.67564442 253.18759355 25.87011175 273.97119141 45.24755859 C276.00809393 47.14311023 278.10020944 48.93733552 280.22900391 50.72802734 C310.54401798 77.41973296 329.80004119 120.37013358 333.16650391 160.29052734 C333.95606294 173.78730395 333.71606442 187.35543208 333.67087436 200.86866784 C333.65682687 206.126085 333.66350559 211.38348566 333.66700745 216.64091492 C333.66969305 225.45687435 333.65637317 234.27269634 333.63305664 243.08862305 C333.60641605 253.23055113 333.60471924 263.37225033 333.616445 273.51420146 C333.62728022 283.34397659 333.62099353 293.17367025 333.60688972 303.00343895 C333.60118367 307.15484773 333.60116951 311.30619583 333.60595512 315.45760536 C333.61078133 320.35564955 333.60039372 325.25344784 333.57900047 330.15144539 C333.57350987 331.93180258 333.57289453 333.71218379 333.57795334 335.49254227 C333.61596662 350.80845821 332.02330119 365.90963652 327.97900391 380.72802734 C327.77178711 381.49550293 327.56457031 382.26297852 327.35107422 383.05371094 C321.36255346 404.27988101 311.53139493 423.80497661 298.16650391 441.29052734 C297.18230469 442.59376953 297.18230469 442.59376953 296.17822266 443.92333984 C288.51808563 453.78794695 279.98709863 463.52882602 270.16650391 471.29052734 C269.64169434 471.71124512 269.11688477 472.13196289 268.57617188 472.56542969 C239.6281348 495.61796153 202.63691572 512.47679687 165.04325867 512.43096924 C164.26578697 512.43394036 163.48831526 512.43691148 162.68728381 512.43997264 C160.10311618 512.4485878 157.51899526 512.45016178 154.93481445 512.45166016 C153.07285973 512.45629363 151.21090595 512.461319 149.34895325 512.46670532 C144.30285797 512.4797852 139.25677598 512.48626631 134.21066642 512.49071598 C131.04990002 512.49365543 127.88913717 512.49776198 124.72837257 512.50222015 C114.81583953 512.51588698 104.90331471 512.52555614 94.9907729 512.52942204 C83.5925987 512.53389301 72.194545 512.5513996 60.7964074 512.58042264 C51.95865251 512.60213549 43.12093126 512.61213151 34.28315002 512.61346316 C29.01820945 512.61450486 23.75338228 512.62027528 18.48847008 512.63828278 C13.52501391 512.65492908 8.56175432 512.65683987 3.59827995 512.64814377 C1.79212156 512.64738201 -0.01404813 512.65159997 -1.82017899 512.66160202 C-49.45779059 512.90960376 -93.7629885 493.51005234 -127.74365234 460.38427734 C-131.31701994 456.82894099 -134.72317963 453.26331147 -137.83349609 449.29052734 C-138.46819824 448.49171143 -138.46819824 448.49171143 -139.11572266 447.67675781 C-162.11307427 418.57632269 -178.9904954 381.91148832 -178.98066711 344.20092773 C-178.9843438 343.42698386 -178.98802049 342.65303999 -178.99180859 341.85564327 C-179.00274985 339.28314976 -179.00667301 336.71069678 -179.01049805 334.13818359 C-179.0167704 332.28434118 -179.02341788 330.4305 -179.03041077 328.57666016 C-179.05137863 322.50212466 -179.06181297 316.42758915 -179.07177734 310.35302734 C-179.07582896 308.25104764 -179.079946 306.14906807 -179.08412743 304.04708862 C-179.10317072 294.15857467 -179.11739816 284.27006809 -179.1257394 274.38153934 C-179.13547976 263.02582943 -179.16171886 251.67031611 -179.20224029 240.31467533 C-179.23258893 231.50232068 -179.24722626 222.69002174 -179.25052041 213.87761593 C-179.25285145 208.63203623 -179.26155305 203.38666668 -179.28698158 198.1411438 C-179.48318431 155.45781017 -179.48318431 155.45781017 -174.83349609 136.29052734 C-174.64378046 135.5028598 -174.45406483 134.71519226 -174.25860023 133.90365601 C-167.44861471 106.27429495 -153.25418435 80.26973014 -133.87646484 59.48583984 C-131.9809132 57.44893732 -130.18668791 55.35682181 -128.39599609 53.22802734 C-96.68656296 17.21414627 -46.87429795 -0.0305772 0 0 Z M-44.83349609 95.29052734 C-51.96953412 104.28193526 -53.84205598 111.8261378 -52.83349609 123.29052734 C-50.81963039 131.41834462 -45.26227268 137.63147611 -38.77099609 142.66552734 C-31.02325141 146.95151376 -22.56521781 147.74109987 -13.97802734 145.56787109 C-4.48746589 142.0214737 0.72055384 136.23748568 5.16650391 127.29052734 C8.10419664 120.28835563 7.64569134 112.78115467 5.29541016 105.64599609 C1.48464923 97.06189449 -4.67562915 91.24964655 -13.39599609 87.79052734 C-24.78015023 84.23297918 -36.29099448 86.80302037 -44.83349609 95.29052734 Z M91.16650391 189.29052734 C91.16650391 184.34052734 91.16650391 179.39052734 91.16650391 174.29052734 C71.36650391 174.29052734 51.56650391 174.29052734 31.16650391 174.29052734 C31.16650391 235.01052734 31.16650391 295.73052734 31.16650391 358.29052734 C50.96650391 358.29052734 70.76650391 358.29052734 91.16650391 358.29052734 C91.15296875 344.69542969 91.15296875 344.69542969 91.13916016 330.82568359 C91.14899963 325.0788949 91.1606053 319.33219938 91.18017578 313.58544922 C91.21090152 304.46676333 91.23448006 295.34846564 91.21118164 286.22973633 C91.19424464 279.58778441 91.2019668 272.94638809 91.23885149 266.3045091 C91.25751942 262.7900182 91.26414299 259.27646609 91.24119759 255.76198006 C91.2159962 251.83098111 91.24586931 247.90141123 91.2800293 243.97045898 C91.2642131 242.81527267 91.24839691 241.66008636 91.23210144 240.46989441 C91.36603107 232.44331459 93.4284965 227.91275889 99.16650391 222.29052734 C107.21164107 215.23255228 113.72066208 212.68001738 124.46337891 212.94287109 C135.96494353 214.02265933 145.0057611 218.12991019 152.47900391 226.91552734 C158.16233802 235.21897053 158.61244891 245.44780807 158.59887695 255.20947266 C158.61416443 256.89459206 158.61416443 256.89459206 158.62976074 258.61375427 C158.65966173 262.28210587 158.66912165 265.95019538 158.67822266 269.61865234 C158.69508629 272.17983858 158.71323878 274.74101663 158.73262024 277.30218506 C158.77512111 283.32603457 158.80474157 289.34981083 158.82794362 295.37375426 C158.85512111 302.23976062 158.89902404 309.1056295 158.94423234 315.97153711 C159.03674501 330.07780803 159.10637045 344.18408314 159.16650391 358.29052734 C175.00650391 358.29052734 190.84650391 358.29052734 207.16650391 358.29052734 C207.25696673 339.46173493 207.3305802 320.6331198 207.37375259 301.80416489 C207.3943354 293.06060733 207.4223736 284.31719487 207.46826172 275.57373047 C207.50826117 267.94861951 207.53396781 260.3236137 207.54285789 252.69840074 C207.54805057 248.66476558 207.56016469 244.63143109 207.58942413 240.59789276 C207.6168011 236.79262788 207.62490456 232.98778429 207.61893463 229.18243027 C207.62002501 227.79419786 207.6278455 226.40594971 207.64332581 225.01780319 C207.80542842 209.71674572 204.00351645 199.71531582 193.66650391 188.60302734 C192.84150391 187.83990234 192.01650391 187.07677734 191.16650391 186.29052734 C190.69083984 185.82130859 190.21517578 185.35208984 189.72509766 184.86865234 C176.86141852 172.84188728 159.78175986 170.51814585 142.87353516 171.00927734 C123.62978268 171.95202088 107.49228192 179.63665072 91.16650391 189.29052734 Z M-52.83349609 174.29052734 C-52.83349609 235.01052734 -52.83349609 295.73052734 -52.83349609 358.29052734 C-33.03349609 358.29052734 -13.23349609 358.29052734 7.16650391 358.29052734 C7.16650391 297.57052734 7.16650391 236.85052734 7.16650391 174.29052734 C-12.63349609 174.29052734 -32.43349609 174.29052734 -52.83349609 174.29052734 Z " fill="#000000" transform="translate(178.83349609375,-0.29052734375)"/>
</svg>
