<?xml version="1.0" encoding="UTF-8"?>
<svg version="1.1" xmlns="http://www.w3.org/2000/svg" width="512" height="512">
<path d="M0 0 C2.59715889 2.30679806 5.13363003 4.66681488 7.65917969 7.05224609 C9.91604359 9.17754394 12.21814497 11.20042995 14.58496094 13.20068359 C18.5536926 16.65600644 21.90315533 20.48106377 25.27246094 24.51318359 C26.43261719 25.85896484 26.43261719 25.85896484 27.61621094 27.23193359 C68.5039562 75.18669656 84.90852571 136.37095902 79.97509766 198.63085938 C75.37446328 245.53503889 54.05580615 291.67890048 21.73339844 325.89990234 C19.60810059 328.15676624 17.58521458 330.45886763 15.58496094 332.82568359 C12.12963809 336.79441526 8.30458076 340.14387798 4.27246094 343.51318359 C3.37527344 344.28662109 2.47808594 345.06005859 1.55371094 345.85693359 C-46.40105203 386.74467886 -107.58531449 403.14924837 -169.84521484 398.21582031 C-216.74939436 393.61518594 -262.89325595 372.29652881 -297.11425781 339.97412109 C-299.37112171 337.84882325 -301.6732231 335.82593724 -304.04003906 333.82568359 C-308.00877073 330.37036075 -311.35823345 326.54530342 -314.72753906 322.51318359 C-315.50097656 321.61599609 -316.27441406 320.71880859 -317.07128906 319.79443359 C-357.95903433 271.83967063 -374.36360384 210.65540817 -369.43017578 148.39550781 C-364.82954141 101.4913283 -343.51088428 55.34746671 -311.18847656 21.12646484 C-309.06317872 18.86960094 -307.04029271 16.56749956 -305.04003906 14.20068359 C-301.58471622 10.23195193 -297.75965889 6.8824892 -293.72753906 3.51318359 C-292.38175781 2.35302734 -292.38175781 2.35302734 -291.00878906 1.16943359 C-221.28774593 -58.2769295 -118.41561899 -69.15209027 0 0 Z M-158.72753906 66.51318359 C-167.38186765 76.60990028 -170.38077054 87.49863996 -170.11816406 100.62255859 C-170.10967438 102.26179291 -170.10967438 102.26179291 -170.10101318 103.93414307 C-170.07886799 107.37762852 -170.0287134 110.82001999 -169.97753906 114.26318359 C-169.95744581 116.61733509 -169.93920004 118.97150312 -169.92285156 121.32568359 C-169.88250006 127.05559668 -169.80416608 132.78318571 -169.72753906 138.51318359 C-182.59753906 138.51318359 -195.46753906 138.51318359 -208.72753906 138.51318359 C-208.72753906 153.36318359 -208.72753906 168.21318359 -208.72753906 183.51318359 C-196.18753906 183.51318359 -183.64753906 183.51318359 -170.72753906 183.51318359 C-170.72753906 221.46318359 -170.72753906 259.41318359 -170.72753906 298.51318359 C-155.87753906 298.51318359 -141.02753906 298.51318359 -125.72753906 298.51318359 C-125.72753906 260.23318359 -125.72753906 221.95318359 -125.72753906 182.51318359 C-112.52753906 182.51318359 -99.32753906 182.51318359 -85.72753906 182.51318359 C-84.36599719 173.66316143 -83.11478246 164.8961359 -82.10253906 156.01318359 C-81.96847656 154.87365234 -81.83441406 153.73412109 -81.69628906 152.56005859 C-81.50679687 150.91263672 -81.50679687 150.91263672 -81.31347656 149.23193359 C-81.20052246 148.25160156 -81.08756836 147.27126953 -80.97119141 146.26123047 C-80.74298297 143.68736858 -80.72753906 141.09714259 -80.72753906 138.51318359 C-95.57753906 138.51318359 -110.42753906 138.51318359 -125.72753906 138.51318359 C-125.62441406 132.71755859 -125.52128906 126.92193359 -125.41503906 120.95068359 C-125.39014404 119.1349585 -125.36524902 117.3192334 -125.33959961 115.44848633 C-125.30727732 113.98955798 -125.27389907 112.53065248 -125.23925781 111.07177734 C-125.22989197 109.95953796 -125.22989197 109.95953796 -125.22033691 108.8248291 C-125.05465442 102.75884148 -123.73661539 98.07648787 -119.91503906 93.20068359 C-115.16276471 89.53464338 -110.19751161 89.2696301 -104.36035156 89.31787109 C-103.11656738 89.32286621 -101.8727832 89.32786133 -100.59130859 89.33300781 C-99.02751465 89.35121582 -97.4637207 89.36942383 -95.85253906 89.38818359 C-90.86128906 89.42943359 -85.87003906 89.47068359 -80.72753906 89.51318359 C-80.72753906 76.31318359 -80.72753906 63.11318359 -80.72753906 49.51318359 C-90.39410641 49.15516258 -100.05934114 48.81627023 -109.72753906 48.51318359 C-111.08903076 48.46581055 -111.08903076 48.46581055 -112.47802734 48.41748047 C-131.22965918 47.8007285 -145.63663149 52.72975361 -158.72753906 66.51318359 Z " fill="#000000" transform="translate(400.7275390625,82.48681640625)"/>
</svg>
