<?xml version="1.0" encoding="UTF-8"?>
<!DOCTYPE svg PUBLIC "-//W3C//DTD SVG 1.1//EN" "http://www.w3.org/Graphics/SVG/1.1/DTD/svg11.dtd">
<svg xmlns="http://www.w3.org/2000/svg" version="1.1" width="500px" height="500px" style="shape-rendering:geometricPrecision; text-rendering:geometricPrecision; image-rendering:optimizeQuality; fill-rule:evenodd; clip-rule:evenodd" xmlns:xlink="http://www.w3.org/1999/xlink">
<g><path style="opacity:0.941" fill="#888584" d="M 308.5,113.5 C 316.372,111.23 323.372,112.897 329.5,118.5C 328.167,118.167 326.833,117.833 325.5,117.5C 323.778,116.179 322.111,115.179 320.5,114.5C 319.914,114.709 319.414,115.043 319,115.5C 315.851,113.638 312.351,112.971 308.5,113.5 Z"/></g>
<g><path style="opacity:0.918" fill="#777574" d="M 308.5,113.5 C 308.013,114.473 307.513,115.473 307,116.5C 306.014,115.829 304.847,115.829 303.5,116.5C 304.659,114.75 306.326,113.75 308.5,113.5 Z"/></g>
<g><path style="opacity:0.2" fill="#d3d1d1" d="M 303.5,116.5 C 302.486,117.674 301.153,118.34 299.5,118.5C 300.287,116.896 301.62,116.229 303.5,116.5 Z"/></g>
<g><path style="opacity:0.392" fill="#bab7b6" d="M 299.5,118.5 C 299.027,119.906 298.027,120.573 296.5,120.5C 296.973,119.094 297.973,118.427 299.5,118.5 Z"/></g>
<g><path style="opacity:1" fill="#3c3c3f" d="M 325.5,117.5 C 326.833,117.833 328.167,118.167 329.5,118.5C 330.492,118.328 331.158,118.662 331.5,119.5C 332.436,120.974 333.77,121.974 335.5,122.5C 335.833,122.5 336.167,122.5 336.5,122.5C 336.973,123.906 337.973,124.573 339.5,124.5C 340.532,129.81 343.532,131.81 348.5,130.5C 349.391,131.11 350.391,131.443 351.5,131.5C 353.153,131.66 354.486,132.326 355.5,133.5C 355.973,134.906 356.973,135.573 358.5,135.5C 362.836,137.332 366.836,139.665 370.5,142.5C 370.389,143.117 370.056,143.617 369.5,144C 372.616,145.449 375.116,147.616 377,150.5C 377.617,149.551 377.451,148.718 376.5,148C 378.714,147.54 379.381,148.207 378.5,150C 380.396,151.065 380.563,151.898 379,152.5C 372.663,148.632 366.163,145.132 359.5,142C 356.574,141.782 353.74,141.282 351,140.5C 350.586,140.957 350.086,141.291 349.5,141.5C 348.756,140.009 348.09,138.509 347.5,137C 345.782,136.654 344.115,136.154 342.5,135.5C 341.851,139.611 340.517,143.444 338.5,147C 336.892,147.658 335.725,147.158 335,145.5C 333.229,146.304 331.729,147.471 330.5,149C 328.527,149.495 326.527,149.662 324.5,149.5C 321.66,153.642 319.327,158.142 317.5,163C 315.299,163.825 313.466,163.325 312,161.5C 311.505,163.473 311.338,165.473 311.5,167.5C 300.833,167.833 300.833,168.167 311.5,168.5C 311.5,170.167 311.5,171.833 311.5,173.5C 303.749,172.248 300.083,175.582 300.5,183.5C 299.064,185.822 297.23,186.489 295,185.5C 294.25,186.126 293.416,186.626 292.5,187C 291.457,190.056 289.791,192.556 287.5,194.5C 284.34,192.581 281.006,191.248 277.5,190.5C 273.611,185.719 268.611,182.719 262.5,181.5C 261.699,179.958 261.366,178.292 261.5,176.5C 257.881,176.956 255.548,175.456 254.5,172C 249.287,172.476 245.12,170.642 242,166.5C 241.316,165.216 241.483,164.049 242.5,163C 238.83,163.159 235.163,163.659 231.5,164.5C 255.872,149.468 280.539,134.634 305.5,120C 309.387,116.97 313.72,115.97 318.5,117C 321.095,119.213 323.928,121.047 327,122.5C 327.5,122.167 328,121.833 328.5,121.5C 327.167,120.5 325.833,119.5 324.5,118.5C 324.624,117.893 324.957,117.56 325.5,117.5 Z"/></g>
<g><path style="opacity:0.098" fill="#d5d5d3" d="M 331.5,119.5 C 333.632,119.554 334.965,120.554 335.5,122.5C 333.77,121.974 332.436,120.974 331.5,119.5 Z"/></g>
<g><path style="opacity:0.212" fill="#c8c6c4" d="M 292.5,122.5 C 292.027,123.906 291.027,124.573 289.5,124.5C 289.973,123.094 290.973,122.427 292.5,122.5 Z"/></g>
<g><path style="opacity:0.027" fill="#cccaca" d="M 336.5,122.5 C 338.027,122.427 339.027,123.094 339.5,124.5C 337.973,124.573 336.973,123.906 336.5,122.5 Z"/></g>
<g><path style="opacity:0.271" fill="#a19c9c" d="M 289.5,124.5 C 289.027,125.906 288.027,126.573 286.5,126.5C 286.973,125.094 287.973,124.427 289.5,124.5 Z"/></g>
<g><path style="opacity:0.982" fill="#595856" d="M 339.5,124.5 C 342.76,125.774 345.76,127.44 348.5,129.5C 348.5,129.833 348.5,130.167 348.5,130.5C 343.532,131.81 340.532,129.81 339.5,124.5 Z"/></g>
<g><path style="opacity:0.748" fill="#545351" d="M 286.5,126.5 C 285.952,127.688 285.619,128.855 285.5,130C 282.986,131.252 280.32,131.752 277.5,131.5C 280.24,129.44 283.24,127.774 286.5,126.5 Z"/></g>
<g><path style="opacity:0.02" fill="#e1c9c9" d="M 348.5,130.5 C 348.5,130.167 348.5,129.833 348.5,129.5C 350.027,129.427 351.027,130.094 351.5,131.5C 350.391,131.443 349.391,131.11 348.5,130.5 Z"/></g>
<g><path style="opacity:0.322" fill="#c0bdbb" d="M 275.5,132.5 C 275.167,133.167 274.833,133.833 274.5,134.5C 273.833,134.5 273.167,134.5 272.5,134.5C 272.973,133.094 273.973,132.427 275.5,132.5 Z"/></g>
<g><path style="opacity:0.024" fill="#e3d0ce" d="M 355.5,133.5 C 357.027,133.427 358.027,134.094 358.5,135.5C 356.973,135.573 355.973,134.906 355.5,133.5 Z"/></g>
<g><path style="opacity:0.992" fill="#3f3e3b" d="M 272.5,134.5 C 273.167,134.5 273.833,134.5 274.5,134.5C 273.969,136.544 272.802,138.211 271,139.5C 270.667,139.167 270.333,138.833 270,138.5C 268.089,141.528 265.589,142.194 262.5,140.5C 265.494,138 268.827,136 272.5,134.5 Z"/></g>
<g><path style="opacity:0.153" fill="#c6c6c6" d="M 251.5,146.5 C 251.027,147.906 250.027,148.573 248.5,148.5C 248.973,147.094 249.973,146.427 251.5,146.5 Z"/></g>
<g><path style="opacity:0.992" fill="#333430" d="M 262.5,140.5 C 261.402,141.397 261.402,142.23 262.5,143C 257.591,147.567 251.924,150.9 245.5,153C 243.488,156.28 240.821,157.78 237.5,157.5C 237.557,156.391 237.89,155.391 238.5,154.5C 240.027,154.573 241.027,153.906 241.5,152.5C 243.027,152.573 244.027,151.906 244.5,150.5C 245.605,149.4 246.938,148.733 248.5,148.5C 250.027,148.573 251.027,147.906 251.5,146.5C 255.034,144.234 258.7,142.234 262.5,140.5 Z"/></g>
<g><path style="opacity:1" fill="#404144" d="M 370.5,142.5 C 381.472,148.32 392.139,154.653 402.5,161.5C 401.503,161.47 400.836,161.97 400.5,163C 401.658,164.261 401.658,165.427 400.5,166.5C 399.292,167.234 397.959,167.567 396.5,167.5C 398.69,166.626 399.69,164.959 399.5,162.5C 397.131,162.149 394.797,161.982 392.5,162C 364.167,179.167 335.834,196.333 307.5,213.5C 307.469,207.469 304.469,204.469 298.5,204.5C 297.355,201.881 295.521,199.881 293,198.5C 292.316,197.216 292.483,196.049 293.5,195C 291.321,195.284 289.321,195.117 287.5,194.5C 289.791,192.556 291.457,190.056 292.5,187C 293.416,186.626 294.25,186.126 295,185.5C 297.23,186.489 299.064,185.822 300.5,183.5C 300.083,175.582 303.749,172.248 311.5,173.5C 311.5,171.833 311.5,170.167 311.5,168.5C 300.833,168.167 300.833,167.833 311.5,167.5C 311.338,165.473 311.505,163.473 312,161.5C 313.466,163.325 315.299,163.825 317.5,163C 319.327,158.142 321.66,153.642 324.5,149.5C 326.527,149.662 328.527,149.495 330.5,149C 331.729,147.471 333.229,146.304 335,145.5C 335.725,147.158 336.892,147.658 338.5,147C 340.517,143.444 341.851,139.611 342.5,135.5C 344.115,136.154 345.782,136.654 347.5,137C 348.09,138.509 348.756,140.009 349.5,141.5C 350.086,141.291 350.586,140.957 351,140.5C 353.74,141.282 356.574,141.782 359.5,142C 366.163,145.132 372.663,148.632 379,152.5C 380.563,151.898 380.396,151.065 378.5,150C 379.381,148.207 378.714,147.54 376.5,148C 377.451,148.718 377.617,149.551 377,150.5C 375.116,147.616 372.616,145.449 369.5,144C 370.056,143.617 370.389,143.117 370.5,142.5 Z"/></g>
<g><path style="opacity:1" fill="#222120" d="M 308.5,113.5 C 312.351,112.971 315.851,113.638 319,115.5C 319.414,115.043 319.914,114.709 320.5,114.5C 322.111,115.179 323.778,116.179 325.5,117.5C 324.957,117.56 324.624,117.893 324.5,118.5C 325.833,119.5 327.167,120.5 328.5,121.5C 328,121.833 327.5,122.167 327,122.5C 323.928,121.047 321.095,119.213 318.5,117C 313.72,115.97 309.387,116.97 305.5,120C 280.539,134.634 255.872,149.468 231.5,164.5C 228.43,164.632 225.43,164.299 222.5,163.5C 223.514,162.326 224.847,161.66 226.5,161.5C 228.027,161.573 229.027,160.906 229.5,159.5C 231.027,159.573 232.027,158.906 232.5,157.5C 234.167,157.5 235.833,157.5 237.5,157.5C 240.821,157.78 243.488,156.28 245.5,153C 251.924,150.9 257.591,147.567 262.5,143C 261.402,142.23 261.402,141.397 262.5,140.5C 265.589,142.194 268.089,141.528 270,138.5C 270.333,138.833 270.667,139.167 271,139.5C 272.802,138.211 273.969,136.544 274.5,134.5C 274.833,133.833 275.167,133.167 275.5,132.5C 275.842,131.662 276.508,131.328 277.5,131.5C 280.32,131.752 282.986,131.252 285.5,130C 285.619,128.855 285.952,127.688 286.5,126.5C 288.027,126.573 289.027,125.906 289.5,124.5C 291.027,124.573 292.027,123.906 292.5,122.5C 293.514,121.326 294.847,120.66 296.5,120.5C 298.027,120.573 299.027,119.906 299.5,118.5C 301.153,118.34 302.486,117.674 303.5,116.5C 304.847,115.829 306.014,115.829 307,116.5C 307.513,115.473 308.013,114.473 308.5,113.5 Z"/></g>
<g><path style="opacity:0.157" fill="#c9c9c9" d="M 244.5,150.5 C 244.027,151.906 243.027,152.573 241.5,152.5C 241.973,151.094 242.973,150.427 244.5,150.5 Z"/></g>
<g><path style="opacity:0.302" fill="#9d9d9b" d="M 241.5,152.5 C 241.027,153.906 240.027,154.573 238.5,154.5C 238.973,153.094 239.973,152.427 241.5,152.5 Z"/></g>
<g><path style="opacity:0.851" fill="#7d7d7d" d="M 238.5,154.5 C 237.89,155.391 237.557,156.391 237.5,157.5C 235.833,157.5 234.167,157.5 232.5,157.5C 234.181,155.992 236.181,154.992 238.5,154.5 Z"/></g>
<g><path style="opacity:0.2" fill="#c4c4c4" d="M 232.5,157.5 C 232.027,158.906 231.027,159.573 229.5,159.5C 229.973,158.094 230.973,157.427 232.5,157.5 Z"/></g>
<g><path style="opacity:0.341" fill="#a4a59e" d="M 229.5,159.5 C 229.027,160.906 228.027,161.573 226.5,161.5C 226.973,160.094 227.973,159.427 229.5,159.5 Z"/></g>
<g><path style="opacity:0.004" fill="#cbc9c4" d="M 402.5,161.5 C 403.833,161.5 404.5,162.167 404.5,163.5C 403.5,163.167 402.833,162.5 402.5,161.5 Z"/></g>
<g><path style="opacity:1" fill="#483123" d="M 262.5,181.5 C 257.198,178.849 251.864,176.182 246.5,173.5C 242.923,170.685 238.923,168.518 234.5,167C 229.833,166.333 225.167,166.333 220.5,167C 219.058,167.377 218.058,168.21 217.5,169.5C 217.167,169.5 216.833,169.5 216.5,169.5C 215.833,169.5 215.167,169.5 214.5,169.5C 214.833,168.833 215.167,168.167 215.5,167.5C 217.153,167.34 218.486,166.674 219.5,165.5C 221.027,165.573 222.027,164.906 222.5,163.5C 225.43,164.299 228.43,164.632 231.5,164.5C 235.163,163.659 238.83,163.159 242.5,163C 241.483,164.049 241.316,165.216 242,166.5C 245.12,170.642 249.287,172.476 254.5,172C 255.548,175.456 257.881,176.956 261.5,176.5C 261.366,178.292 261.699,179.958 262.5,181.5 Z"/></g>
<g><path style="opacity:0.039" fill="#d0d0ce" d="M 404.5,163.5 C 406.833,163.833 408.167,165.167 408.5,167.5C 406.833,166.5 405.5,165.167 404.5,163.5 Z"/></g>
<g><path style="opacity:0.404" fill="#b4b0a7" d="M 222.5,163.5 C 222.027,164.906 221.027,165.573 219.5,165.5C 219.973,164.094 220.973,163.427 222.5,163.5 Z"/></g>
<g><path style="opacity:0.204" fill="#dcd2cc" d="M 219.5,165.5 C 218.486,166.674 217.153,167.34 215.5,167.5C 216.287,165.896 217.62,165.229 219.5,165.5 Z"/></g>
<g><path style="opacity:0.11" fill="#ebcebb" d="M 215.5,167.5 C 215.167,168.167 214.833,168.833 214.5,169.5C 213.508,169.328 212.842,169.662 212.5,170.5C 211.833,170.5 211.167,170.5 210.5,170.5C 211.659,168.75 213.326,167.75 215.5,167.5 Z"/></g>
<g><path style="opacity:1" fill="#d17536" d="M 246.5,173.5 C 242.485,172.105 238.485,170.605 234.5,169C 228.782,168.26 223.115,168.427 217.5,169.5C 218.058,168.21 219.058,167.377 220.5,167C 225.167,166.333 229.833,166.333 234.5,167C 238.923,168.518 242.923,170.685 246.5,173.5 Z"/></g>
<g><path style="opacity:1" fill="#d47335" d="M 214.5,169.5 C 215.167,169.5 215.833,169.5 216.5,169.5C 215.34,170.265 214.34,171.265 213.5,172.5C 220.337,173.543 227.004,175.209 233.5,177.5C 235.318,178.774 236.985,180.274 238.5,182C 242.688,184.329 247.021,186.495 251.5,188.5C 252.767,190.317 254.1,191.984 255.5,193.5C 249.768,189.967 243.768,186.967 237.5,184.5C 229.475,176.676 219.809,173.676 208.5,175.5C 207.957,175.44 207.624,175.107 207.5,174.5C 209.419,173.388 211.086,172.054 212.5,170.5C 212.842,169.662 213.508,169.328 214.5,169.5 Z"/></g>
<g><path style="opacity:1" fill="#200802" d="M 208.5,175.5 C 219.809,173.676 229.475,176.676 237.5,184.5C 233.099,183.715 229.265,181.715 226,178.5C 220.201,176.956 214.535,177.289 209,179.5C 208.127,179.265 207.293,178.931 206.5,178.5C 204.289,180.682 201.622,181.682 198.5,181.5C 201.534,178.984 204.868,176.984 208.5,175.5 Z"/></g>
<g><path style="opacity:1" fill="#040101" d="M 237.5,184.5 C 243.768,186.967 249.768,189.967 255.5,193.5C 257.336,195.588 259.669,196.921 262.5,197.5C 271.485,204.303 280.651,210.97 290,217.5C 290.817,220.964 290.483,224.298 289,227.5C 267.027,241.233 244.86,254.566 222.5,267.5C 221.127,267.343 219.793,267.51 218.5,268C 214.675,270.325 210.842,272.492 207,274.5C 205.601,273.773 204.101,273.273 202.5,273C 203.793,272.51 205.127,272.343 206.5,272.5C 206.215,270.712 206.548,269.045 207.5,267.5C 210.23,265.763 212.896,264.763 215.5,264.5C 216.765,262.853 216.765,261.186 215.5,259.5C 216.086,259.709 216.586,260.043 217,260.5C 217.5,259.333 218.333,258.5 219.5,258C 221.577,257.808 223.577,257.308 225.5,256.5C 224.572,255.232 224.405,253.899 225,252.5C 229.748,248.475 233.915,243.975 237.5,239C 238.766,238.691 239.933,238.191 241,237.5C 242.641,234.319 244.641,231.319 247,228.5C 247.333,228.833 247.667,229.167 248,229.5C 249.743,227.679 251.243,225.679 252.5,223.5C 256.572,221.595 260.238,219.095 263.5,216C 259.446,216.009 255.446,216.676 251.5,218C 245.898,219.553 240.564,221.386 235.5,223.5C 230.233,224.642 225.233,226.309 220.5,228.5C 212.89,230.231 205.557,232.564 198.5,235.5C 192.348,236.869 186.348,238.536 180.5,240.5C 178.689,239.178 176.689,238.678 174.5,239C 171.213,240.467 168.546,242.634 166.5,245.5C 158.336,247.869 150.336,250.536 142.5,253.5C 133.496,249.573 125.33,244.24 118,237.5C 116.862,231.125 119.362,226.791 125.5,224.5C 131.459,221.193 137.125,217.527 142.5,213.5C 161.167,202.833 179.833,192.167 198.5,181.5C 201.622,181.682 204.289,180.682 206.5,178.5C 207.293,178.931 208.127,179.265 209,179.5C 214.535,177.289 220.201,176.956 226,178.5C 229.265,181.715 233.099,183.715 237.5,184.5 Z"/></g>
<g><path style="opacity:1" fill="#59351c" d="M 262.5,181.5 C 268.611,182.719 273.611,185.719 277.5,190.5C 272.833,188.167 268.167,185.833 263.5,183.5C 263.167,182.833 262.833,182.167 262.5,181.5 Z"/></g>
<g><path style="opacity:1" fill="#ad7b60" d="M 210.5,170.5 C 211.167,170.5 211.833,170.5 212.5,170.5C 211.086,172.054 209.419,173.388 207.5,174.5C 207.624,175.107 207.957,175.44 208.5,175.5C 204.868,176.984 201.534,178.984 198.5,181.5C 179.833,192.167 161.167,202.833 142.5,213.5C 141.262,213.19 141.262,212.69 142.5,212C 147.903,209.308 152.903,206.142 157.5,202.5C 158.694,201.728 159.694,200.728 160.5,199.5C 162.336,197.412 164.669,196.079 167.5,195.5C 169.027,195.573 170.027,194.906 170.5,193.5C 183.534,185.316 196.868,177.649 210.5,170.5 Z"/></g>
<g><path style="opacity:1" fill="#d67c3c" d="M 263.5,183.5 C 268.167,185.833 272.833,188.167 277.5,190.5C 282.322,194.411 287.322,198.078 292.5,201.5C 284.346,196.588 276.012,191.921 267.5,187.5C 265.921,186.333 264.588,185 263.5,183.5 Z"/></g>
<g><path style="opacity:1" fill="#2d241d" d="M 404.5,250.5 C 394.07,238.91 381.07,235.077 365.5,239C 362.688,240.549 359.688,241.382 356.5,241.5C 354.421,238.393 354.755,235.227 357.5,232C 356.58,227.82 355.58,223.653 354.5,219.5C 351.545,218.841 348.545,218.508 345.5,218.5C 346.694,217.728 347.694,216.728 348.5,215.5C 366.359,202.32 385.026,190.32 404.5,179.5C 403.972,180.721 403.305,181.887 402.5,183C 406.04,182.819 408.54,180.986 410,177.5C 409.274,186.275 408.774,195.109 408.5,204C 408.621,209.681 408.954,215.348 409.5,221C 407.953,230.882 406.287,240.716 404.5,250.5 Z"/></g>
<g><path style="opacity:0.333" fill="#d9cac0" d="M 170.5,193.5 C 170.027,194.906 169.027,195.573 167.5,195.5C 167.973,194.094 168.973,193.427 170.5,193.5 Z"/></g>
<g><path style="opacity:1" fill="#543c2c" d="M 277.5,190.5 C 281.006,191.248 284.34,192.581 287.5,194.5C 289.321,195.117 291.321,195.284 293.5,195C 292.483,196.049 292.316,197.216 293,198.5C 295.521,199.881 297.355,201.881 298.5,204.5C 297.391,204.443 296.391,204.11 295.5,203.5C 295.027,202.094 294.027,201.427 292.5,201.5C 287.322,198.078 282.322,194.411 277.5,190.5 Z"/></g>
<g><path style="opacity:0.996" fill="#413830" d="M 408.5,169.5 C 409.232,170.808 410.066,172.142 411,173.5C 411.167,177 411.333,180.5 411.5,184C 410.663,201.824 410.33,219.657 410.5,237.5C 411.613,243.659 409.613,248.325 404.5,251.5C 404.5,251.167 404.5,250.833 404.5,250.5C 406.287,240.716 407.953,230.882 409.5,221C 408.954,215.348 408.621,209.681 408.5,204C 408.774,195.109 409.274,186.275 410,177.5C 408.54,180.986 406.04,182.819 402.5,183C 403.305,181.887 403.972,180.721 404.5,179.5C 407.481,176.865 408.814,173.532 408.5,169.5 Z"/></g>
<g><path style="opacity:0.015" fill="#e5e2de" d="M 408.5,167.5 C 409.931,168.903 411.098,170.569 412,172.5C 412.908,194.358 412.408,216.024 410.5,237.5C 410.33,219.657 410.663,201.824 411.5,184C 411.333,180.5 411.167,177 411,173.5C 410.066,172.142 409.232,170.808 408.5,169.5C 408.5,168.833 408.5,168.167 408.5,167.5 Z"/></g>
<g><path style="opacity:0.063" fill="#e6d8d2" d="M 160.5,199.5 C 159.694,200.728 158.694,201.728 157.5,202.5C 156.833,202.5 156.167,202.5 155.5,202.5C 156.659,200.75 158.326,199.75 160.5,199.5 Z"/></g>
<g><path style="opacity:1" fill="#fa7417" d="M 246.5,173.5 C 251.864,176.182 257.198,178.849 262.5,181.5C 262.833,182.167 263.167,182.833 263.5,183.5C 264.588,185 265.921,186.333 267.5,187.5C 276.012,191.921 284.346,196.588 292.5,201.5C 294.027,201.427 295.027,202.094 295.5,203.5C 299.095,206.081 301.928,209.415 304,213.5C 304.056,217.055 303.222,220.389 301.5,223.5C 299.456,224.031 297.789,225.198 296.5,227C 295.207,227.49 293.873,227.657 292.5,227.5C 293.007,222.879 292.174,218.546 290,214.5C 281.498,207.67 272.332,202.004 262.5,197.5C 259.669,196.921 257.336,195.588 255.5,193.5C 254.1,191.984 252.767,190.317 251.5,188.5C 247.021,186.495 242.688,184.329 238.5,182C 236.985,180.274 235.318,178.774 233.5,177.5C 227.004,175.209 220.337,173.543 213.5,172.5C 214.34,171.265 215.34,170.265 216.5,169.5C 216.833,169.5 217.167,169.5 217.5,169.5C 223.115,168.427 228.782,168.26 234.5,169C 238.485,170.605 242.485,172.105 246.5,173.5 Z"/></g>
<g><path style="opacity:1" fill="#767678" d="M 396.5,167.5 C 365.627,186.683 334.627,205.683 303.5,224.5C 302.833,224.833 302.167,225.167 301.5,225.5C 301.5,224.833 301.5,224.167 301.5,223.5C 305.012,220.85 306.345,217.184 305.5,212.5C 306.222,212.918 306.722,213.584 307,214.5C 307.399,214.272 307.565,213.938 307.5,213.5C 335.834,196.333 364.167,179.167 392.5,162C 394.797,161.982 397.131,162.149 399.5,162.5C 399.69,164.959 398.69,166.626 396.5,167.5 Z"/></g>
<g><path style="opacity:1" fill="#393a3d" d="M 400.5,166.5 C 401.404,167.209 401.737,168.209 401.5,169.5C 405.225,169.78 406.392,171.78 405,175.5C 397.108,179.564 389.608,184.23 382.5,189.5C 382.047,190.458 381.381,191.292 380.5,192C 371.704,196.817 363.037,201.817 354.5,207C 351.774,207.182 349.107,207.682 346.5,208.5C 336.646,214.706 326.313,219.872 315.5,224C 314.269,225.405 312.936,226.571 311.5,227.5C 310.127,227.343 308.793,227.51 307.5,228C 301.383,231.28 295.383,234.78 289.5,238.5C 290.485,234.67 292.819,231.837 296.5,230C 298.5,229.333 300.5,228.667 302.5,228C 303.337,226.989 303.67,225.822 303.5,224.5C 334.627,205.683 365.627,186.683 396.5,167.5C 397.959,167.567 399.292,167.234 400.5,166.5 Z"/></g>
<g><path style="opacity:1" fill="#505155" d="M 382.5,189.5 C 372.397,194.386 362.397,199.552 352.5,205C 350.187,205.662 347.854,206.162 345.5,206.5C 345.5,205.5 345.5,204.5 345.5,203.5C 346.873,203.657 348.207,203.49 349.5,203C 355.265,198.218 361.265,193.885 367.5,190C 369.392,189.027 371.392,188.36 373.5,188C 382.167,182.333 390.833,176.667 399.5,171C 402.738,170.184 404.238,171.35 404,174.5C 395.876,178.149 388.71,183.149 382.5,189.5 Z"/></g>
<g><path style="opacity:0.945" fill="#936955" d="M 155.5,202.5 C 156.167,202.5 156.833,202.5 157.5,202.5C 152.903,206.142 147.903,209.308 142.5,212C 141.262,212.69 141.262,213.19 142.5,213.5C 137.125,217.527 131.459,221.193 125.5,224.5C 125.631,223.624 125.298,222.957 124.5,222.5C 121.634,224.432 118.634,226.099 115.5,227.5C 114.167,227.833 112.833,228.167 111.5,228.5C 118.496,223.666 125.829,219.333 133.5,215.5C 135.027,215.573 136.027,214.906 136.5,213.5C 138.674,213.25 140.341,212.25 141.5,210.5C 145.833,207.331 150.5,204.664 155.5,202.5 Z"/></g>
<g><path style="opacity:1" fill="#543e2e" d="M 298.5,204.5 C 304.469,204.469 307.469,207.469 307.5,213.5C 307.565,213.938 307.399,214.272 307,214.5C 306.722,213.584 306.222,212.918 305.5,212.5C 303.876,209.21 301.543,206.543 298.5,204.5 Z"/></g>
<g><path style="opacity:1" fill="#151413" d="M 402.5,161.5 C 402.833,162.5 403.5,163.167 404.5,163.5C 405.5,165.167 406.833,166.5 408.5,167.5C 408.5,168.167 408.5,168.833 408.5,169.5C 408.814,173.532 407.481,176.865 404.5,179.5C 385.026,190.32 366.359,202.32 348.5,215.5C 350.18,213.133 352.18,210.966 354.5,209C 354.167,208.833 353.833,208.667 353.5,208.5C 349.443,210.265 345.443,212.098 341.5,214C 339.667,215.167 338.167,216.667 337,218.5C 334.853,217.524 332.686,217.691 330.5,219C 324.217,222.142 317.884,224.975 311.5,227.5C 312.936,226.571 314.269,225.405 315.5,224C 326.313,219.872 336.646,214.706 346.5,208.5C 349.107,207.682 351.774,207.182 354.5,207C 363.037,201.817 371.704,196.817 380.5,192C 381.381,191.292 382.047,190.458 382.5,189.5C 389.608,184.23 397.108,179.564 405,175.5C 406.392,171.78 405.225,169.78 401.5,169.5C 401.737,168.209 401.404,167.209 400.5,166.5C 401.658,165.427 401.658,164.261 400.5,163C 400.836,161.97 401.503,161.47 402.5,161.5 Z"/></g>
<g><path style="opacity:0.025" fill="#efeae9" d="M 141.5,210.5 C 140.341,212.25 138.674,213.25 136.5,213.5C 137.659,211.75 139.326,210.75 141.5,210.5 Z"/></g>
<g><path style="opacity:1" fill="#060304" d="M 348.5,215.5 C 347.694,216.728 346.694,217.728 345.5,218.5C 344.29,218.932 343.29,219.599 342.5,220.5C 338.034,222.566 333.701,224.9 329.5,227.5C 326.851,229.14 324.184,230.807 321.5,232.5C 315.846,236.321 309.846,239.487 303.5,242C 298.48,246.172 293.147,249.839 287.5,253C 282.746,255.125 278.246,257.625 274,260.5C 273.586,260.043 273.086,259.709 272.5,259.5C 267.056,263.917 261.056,267.583 254.5,270.5C 254.508,268.525 255.508,266.691 257.5,265C 264.656,261.925 271.323,258.092 277.5,253.5C 274.614,253.29 271.614,253.123 268.5,253C 269.056,252.617 269.389,252.117 269.5,251.5C 275.811,247.534 282.144,243.534 288.5,239.5C 289.167,239.5 289.5,239.167 289.5,238.5C 295.383,234.78 301.383,231.28 307.5,228C 308.793,227.51 310.127,227.343 311.5,227.5C 317.884,224.975 324.217,222.142 330.5,219C 332.686,217.691 334.853,217.524 337,218.5C 338.167,216.667 339.667,215.167 341.5,214C 345.443,212.098 349.443,210.265 353.5,208.5C 353.833,208.667 354.167,208.833 354.5,209C 352.18,210.966 350.18,213.133 348.5,215.5 Z"/></g>
<g><path style="opacity:0.38" fill="#c8b7b6" d="M 136.5,213.5 C 136.027,214.906 135.027,215.573 133.5,215.5C 133.973,214.094 134.973,213.427 136.5,213.5 Z"/></g>
<g><path style="opacity:1" fill="#0d0b0a" d="M 222.5,267.5 C 216.006,272.584 209.006,276.917 201.5,280.5C 194.617,280.934 187.95,280.267 181.5,278.5C 180.508,278.672 179.842,278.338 179.5,277.5C 179.229,275.57 178.229,274.236 176.5,273.5C 177.552,273.351 178.552,273.517 179.5,274C 182.168,278.681 184.668,278.515 187,273.5C 187.667,274.167 188.333,274.833 189,275.5C 190.066,273.901 191.566,272.901 193.5,272.5C 202.724,262.446 212.058,252.612 221.5,243C 226.226,238.4 231.226,234.067 236.5,230C 236.167,229.667 235.833,229.333 235.5,229C 237.044,228.71 238.377,228.044 239.5,227C 238.264,225.612 236.931,224.446 235.5,223.5C 240.564,221.386 245.898,219.553 251.5,218C 255.446,216.676 259.446,216.009 263.5,216C 260.238,219.095 256.572,221.595 252.5,223.5C 251.243,225.679 249.743,227.679 248,229.5C 247.667,229.167 247.333,228.833 247,228.5C 244.641,231.319 242.641,234.319 241,237.5C 239.933,238.191 238.766,238.691 237.5,239C 233.915,243.975 229.748,248.475 225,252.5C 224.405,253.899 224.572,255.232 225.5,256.5C 223.577,257.308 221.577,257.808 219.5,258C 218.333,258.5 217.5,259.333 217,260.5C 216.586,260.043 216.086,259.709 215.5,259.5C 216.765,261.186 216.765,262.853 215.5,264.5C 212.896,264.763 210.23,265.763 207.5,267.5C 206.548,269.045 206.215,270.712 206.5,272.5C 205.127,272.343 203.793,272.51 202.5,273C 204.101,273.273 205.601,273.773 207,274.5C 210.842,272.492 214.675,270.325 218.5,268C 219.793,267.51 221.127,267.343 222.5,267.5 Z"/></g>
<g><path style="opacity:1" fill="#de8244" d="M 295.5,203.5 C 296.391,204.11 297.391,204.443 298.5,204.5C 301.543,206.543 303.876,209.21 305.5,212.5C 306.345,217.184 305.012,220.85 301.5,223.5C 303.222,220.389 304.056,217.055 304,213.5C 301.928,209.415 299.095,206.081 295.5,203.5 Z"/></g>
<g><path style="opacity:0.208" fill="#bebcbe" d="M 111.5,228.5 C 109.664,230.588 107.331,231.921 104.5,232.5C 106.34,230.331 108.674,228.998 111.5,228.5 Z"/></g>
<g><path style="opacity:0.341" fill="#8a8d92" d="M 104.5,232.5 C 104.027,233.906 103.027,234.573 101.5,234.5C 101.973,233.094 102.973,232.427 104.5,232.5 Z"/></g>
<g><path style="opacity:1" fill="#572a0b" d="M 112.5,230.5 C 112.401,233.237 112.735,235.904 113.5,238.5C 112.5,238.167 111.833,237.5 111.5,236.5C 111.205,234.265 111.539,232.265 112.5,230.5 Z"/></g>
<g><path style="opacity:1" fill="#452f22" d="M 303.5,224.5 C 303.67,225.822 303.337,226.989 302.5,228C 300.5,228.667 298.5,229.333 296.5,230C 292.819,231.837 290.485,234.67 289.5,238.5C 289.5,239.167 289.167,239.5 288.5,239.5C 287.749,238.427 286.749,238.26 285.5,239C 280.516,243.176 274.849,245.676 268.5,246.5C 279.294,239.264 290.294,232.264 301.5,225.5C 302.167,225.167 302.833,224.833 303.5,224.5 Z"/></g>
<g><path style="opacity:1" fill="#421d0b" d="M 404.5,250.5 C 404.5,250.833 404.5,251.167 404.5,251.5C 402.589,250.925 400.922,249.925 399.5,248.5C 390.123,241.325 379.456,238.825 367.5,241C 362.679,242.201 358.012,243.701 353.5,245.5C 354.122,243.878 355.122,242.545 356.5,241.5C 359.688,241.382 362.688,240.549 365.5,239C 381.07,235.077 394.07,238.91 404.5,250.5 Z"/></g>
<g><path style="opacity:1" fill="#28140e" d="M 345.5,218.5 C 348.545,218.508 351.545,218.841 354.5,219.5C 355.58,223.653 356.58,227.82 357.5,232C 354.755,235.227 354.421,238.393 356.5,241.5C 355.122,242.545 354.122,243.878 353.5,245.5C 352.833,245.5 352.167,245.5 351.5,245.5C 352.247,242.247 352.247,238.914 351.5,235.5C 347.745,237.904 343.745,239.904 339.5,241.5C 339.978,244.278 338.978,246.278 336.5,247.5C 336.931,244.952 336.931,242.285 336.5,239.5C 333.554,238.694 330.888,237.361 328.5,235.5C 326.877,236.491 325.877,235.824 325.5,233.5C 326.083,231.473 327.416,229.473 329.5,227.5C 333.701,224.9 338.034,222.566 342.5,220.5C 343.29,219.599 344.29,218.932 345.5,218.5 Z"/></g>
<g><path style="opacity:1" fill="#3d1406" d="M 342.5,220.5 C 345.5,220.5 348.5,220.5 351.5,220.5C 353.365,234.695 348.032,238.862 335.5,233C 334.203,230.455 334.369,227.955 336,225.5C 338.901,224.763 341.068,223.097 342.5,220.5 Z"/></g>
<g><path style="opacity:0.396" fill="#a2a4aa" d="M 98.5,237.5 C 96.1667,240.5 93.5,243.167 90.5,245.5C 92.1667,241.833 94.8333,239.167 98.5,237.5 Z"/></g>
<g><path style="opacity:1" fill="#191f2c" d="M 115.5,227.5 C 114.833,228.833 113.833,229.833 112.5,230.5C 111.539,232.265 111.205,234.265 111.5,236.5C 105.794,237.203 101.794,240.203 99.5,245.5C 98.6236,245.369 97.9569,245.702 97.5,246.5C 96.9851,248.225 96.3184,249.892 95.5,251.5C 93.2984,250.22 91.1317,250.22 89,251.5C 88.5172,250.552 88.3505,249.552 88.5,248.5C 89.9063,248.027 90.573,247.027 90.5,245.5C 93.5,243.167 96.1667,240.5 98.5,237.5C 99.1667,236.167 100.167,235.167 101.5,234.5C 103.027,234.573 104.027,233.906 104.5,232.5C 107.331,231.921 109.664,230.588 111.5,228.5C 112.833,228.167 114.167,227.833 115.5,227.5 Z"/></g>
<g><path style="opacity:0.18" fill="#c0c0c5" d="M 90.5,245.5 C 90.573,247.027 89.9063,248.027 88.5,248.5C 88.427,246.973 89.0937,245.973 90.5,245.5 Z"/></g>
<g><path style="opacity:1" fill="#f7821a" d="M 398.5,249.5 C 395.027,249.576 391.694,250.242 388.5,251.5C 388.703,253.638 389.703,255.305 391.5,256.5C 389.833,257.667 388.167,258.833 386.5,260C 388.063,260.759 389.063,261.926 389.5,263.5C 388.167,263.5 386.833,263.5 385.5,263.5C 385.5,263.167 385.5,262.833 385.5,262.5C 379.021,261.509 372.354,261.176 365.5,261.5C 366.29,260.206 367.29,259.039 368.5,258C 367.235,256.663 366.735,255.163 367,253.5C 369.205,250.96 371.705,248.793 374.5,247C 369.628,245.612 364.628,245.112 359.5,245.5C 361.877,244.113 364.543,243.279 367.5,243C 373.833,242.333 380.167,242.333 386.5,243C 391.082,244.451 395.082,246.618 398.5,249.5 Z"/></g>
<g><path style="opacity:1" fill="#543d2b" d="M 113.5,238.5 C 120.872,244.178 128.205,249.845 135.5,255.5C 132.484,254.657 129.817,253.157 127.5,251C 123.816,251.239 121.149,249.739 119.5,246.5C 115.091,245.694 113.091,243.028 113.5,238.5 Z"/></g>
<g><path style="opacity:1" fill="#2e2e2e" d="M 288.5,239.5 C 282.144,243.534 275.811,247.534 269.5,251.5C 262.606,255.048 255.939,259.048 249.5,263.5C 246.833,265.5 246.833,267.5 249.5,269.5C 243.555,272.76 237.555,275.927 231.5,279C 231.406,280.422 231.072,281.922 230.5,283.5C 221.827,287.682 213.827,292.848 206.5,299C 203.898,300.14 201.231,300.973 198.5,301.5C 202.806,297.384 207.806,294.218 213.5,292C 215.229,290.211 215.896,288.044 215.5,285.5C 219.537,283.966 222.87,281.466 225.5,278C 223.575,278.135 221.575,278.302 219.5,278.5C 219.5,279.5 219.5,280.5 219.5,281.5C 218.167,281.5 216.833,281.5 215.5,281.5C 216.29,280.206 217.29,279.039 218.5,278C 223.81,276.849 228.476,274.516 232.5,271C 234.74,270.023 237.073,269.523 239.5,269.5C 239.238,268.022 239.571,266.689 240.5,265.5C 242.929,263.388 245.262,261.388 247.5,259.5C 252.277,258.24 256.944,256.574 261.5,254.5C 264.193,252.026 266.526,249.359 268.5,246.5C 274.849,245.676 280.516,243.176 285.5,239C 286.749,238.26 287.749,238.427 288.5,239.5 Z"/></g>
<g><path style="opacity:1" fill="#c6804e" d="M 399.5,248.5 C 400.922,249.925 402.589,250.925 404.5,251.5C 404.5,252.833 404.5,254.167 404.5,255.5C 404.5,259.5 404.5,263.5 404.5,267.5C 404.167,267.5 403.833,267.5 403.5,267.5C 403.666,263.154 403.499,258.821 403,254.5C 401.579,252.595 400.412,250.595 399.5,248.5 Z"/></g>
<g><path style="opacity:1" fill="#422f24" d="M 268.5,246.5 C 266.526,249.359 264.193,252.026 261.5,254.5C 256.944,256.574 252.277,258.24 247.5,259.5C 253.989,254.418 260.989,250.085 268.5,246.5 Z"/></g>
<g><path style="opacity:1" fill="#190b06" d="M 329.5,227.5 C 327.416,229.473 326.083,231.473 325.5,233.5C 325.877,235.824 326.877,236.491 328.5,235.5C 330.888,237.361 333.554,238.694 336.5,239.5C 336.931,242.285 336.931,244.952 336.5,247.5C 338.978,246.278 339.978,244.278 339.5,241.5C 343.745,239.904 347.745,237.904 351.5,235.5C 352.247,238.914 352.247,242.247 351.5,245.5C 349.322,246.657 347.322,247.99 345.5,249.5C 344.127,249.343 342.793,249.51 341.5,250C 339.604,252.068 337.604,253.901 335.5,255.5C 331.227,258.434 327.227,261.767 323.5,265.5C 323.5,265.833 323.5,266.167 323.5,266.5C 321.937,267.945 320.604,269.611 319.5,271.5C 316.833,274.5 314.167,277.5 311.5,280.5C 310.167,280.5 308.833,280.5 307.5,280.5C 286.406,287.386 266.073,295.886 246.5,306C 244.097,309.067 241.097,311.4 237.5,313C 235.536,314.451 234.203,316.284 233.5,318.5C 231.167,318.5 228.833,318.5 226.5,318.5C 225.531,317.691 224.698,316.691 224,315.5C 223.762,311.778 223.262,308.111 222.5,304.5C 224.277,303.099 225.944,301.599 227.5,300C 226.099,299.59 224.766,299.09 223.5,298.5C 223.953,297.542 224.619,296.708 225.5,296C 221.29,298.105 216.957,300.272 212.5,302.5C 214.802,299.588 217.636,297.255 221,295.5C 221.528,294.184 221.028,293.517 219.5,293.5C 221.811,291.932 224.478,291.098 227.5,291C 227.167,290.667 226.833,290.333 226.5,290C 244.055,281.964 261.055,272.797 277.5,262.5C 277.833,262.667 278.167,262.833 278.5,263C 275.833,265 273.167,267 270.5,269C 272.503,268.581 274.503,267.747 276.5,266.5C 277.167,266.833 277.833,267.167 278.5,267.5C 281.308,266.03 284.308,265.197 287.5,265C 294.731,260.7 302.398,257.366 310.5,255C 315.654,250.533 321.654,247.867 328.5,247C 330.837,244.407 331.004,241.574 329,238.5C 328.667,238.833 328.333,239.167 328,239.5C 327.097,238.299 325.931,237.465 324.5,237C 324.833,236.667 325.167,236.333 325.5,236C 322.5,237 319.5,238 316.5,239C 318.833,237.333 321.167,235.667 323.5,234C 322.584,233.722 321.918,233.222 321.5,232.5C 324.184,230.807 326.851,229.14 329.5,227.5 Z"/></g>
<g><path style="opacity:1" fill="#0a0101" d="M 323.5,265.5 C 321.914,264.587 320.414,264.587 319,265.5C 316.21,268.605 313.877,271.938 312,275.5C 311.517,276.448 311.351,277.448 311.5,278.5C 306.431,278.85 301.431,279.683 296.5,281C 285.296,284.884 274.296,288.884 263.5,293C 254.132,298.666 244.799,304.333 235.5,310C 234.024,312.643 232.024,314.81 229.5,316.5C 227.709,316.038 226.709,314.871 226.5,313C 226.961,309.446 228.294,306.28 230.5,303.5C 254.98,282.639 282.647,268.139 313.5,260C 317.711,256.029 322.711,254.696 328.5,256C 328.957,256.414 329.291,256.914 329.5,257.5C 328.482,258.852 327.149,259.852 325.5,260.5C 324.05,261.85 323.383,263.516 323.5,265.5 Z"/></g>
<g><path style="opacity:1" fill="#f87315" d="M 398.5,249.5 C 399.412,251.595 400.579,253.595 402,255.5C 402.499,260.155 402.666,264.821 402.5,269.5C 402.5,270.167 402.5,270.833 402.5,271.5C 402.167,271.5 401.833,271.5 401.5,271.5C 400.363,270.211 399.03,269.211 397.5,268.5C 395.342,266.007 392.676,264.34 389.5,263.5C 389.063,261.926 388.063,260.759 386.5,260C 388.167,258.833 389.833,257.667 391.5,256.5C 389.703,255.305 388.703,253.638 388.5,251.5C 391.694,250.242 395.027,249.576 398.5,249.5 Z"/></g>
<g><path style="opacity:1" fill="#f47014" d="M 359.5,245.5 C 364.628,245.112 369.628,245.612 374.5,247C 371.705,248.793 369.205,250.96 367,253.5C 366.735,255.163 367.235,256.663 368.5,258C 367.29,259.039 366.29,260.206 365.5,261.5C 362.088,262.075 359.088,263.408 356.5,265.5C 355.833,265.5 355.167,265.5 354.5,265.5C 354.063,263.926 353.063,262.759 351.5,262C 354.238,259.619 356.571,256.953 358.5,254C 357.328,253.581 356.328,252.915 355.5,252C 359.676,250.604 360.009,249.104 356.5,247.5C 354.199,248.325 351.865,248.992 349.5,249.5C 352.335,247.215 355.668,245.882 359.5,245.5 Z"/></g>
<g><path style="opacity:1" fill="#cf7132" d="M 399.5,248.5 C 400.412,250.595 401.579,252.595 403,254.5C 403.499,258.821 403.666,263.154 403.5,267.5C 403.672,268.492 403.338,269.158 402.5,269.5C 402.666,264.821 402.499,260.155 402,255.5C 400.579,253.595 399.412,251.595 398.5,249.5C 395.082,246.618 391.082,244.451 386.5,243C 380.167,242.333 373.833,242.333 367.5,243C 364.543,243.279 361.877,244.113 359.5,245.5C 355.668,245.882 352.335,247.215 349.5,249.5C 348.167,249.5 346.833,249.5 345.5,249.5C 347.322,247.99 349.322,246.657 351.5,245.5C 352.167,245.5 352.833,245.5 353.5,245.5C 358.012,243.701 362.679,242.201 367.5,241C 379.456,238.825 390.123,241.325 399.5,248.5 Z"/></g>
<g><path style="opacity:1" fill="#5b3c25" d="M 135.5,255.5 C 142.516,259.338 149.183,263.672 155.5,268.5C 152.873,267.895 150.207,267.395 147.5,267C 147.5,266 147.5,265 147.5,264C 144.186,262.49 140.853,260.823 137.5,259C 136.695,257.887 136.028,256.721 135.5,255.5 Z"/></g>
<g><path style="opacity:1" fill="#0f0b09" d="M 321.5,232.5 C 321.918,233.222 322.584,233.722 323.5,234C 321.167,235.667 318.833,237.333 316.5,239C 319.5,238 322.5,237 325.5,236C 325.167,236.333 324.833,236.667 324.5,237C 325.931,237.465 327.097,238.299 328,239.5C 328.333,239.167 328.667,238.833 329,238.5C 331.004,241.574 330.837,244.407 328.5,247C 321.654,247.867 315.654,250.533 310.5,255C 302.398,257.366 294.731,260.7 287.5,265C 284.308,265.197 281.308,266.03 278.5,267.5C 277.833,267.167 277.167,266.833 276.5,266.5C 274.503,267.747 272.503,268.581 270.5,269C 273.167,267 275.833,265 278.5,263C 278.167,262.833 277.833,262.667 277.5,262.5C 261.055,272.797 244.055,281.964 226.5,290C 226.833,290.333 227.167,290.667 227.5,291C 224.478,291.098 221.811,291.932 219.5,293.5C 211.735,298.083 204.068,302.916 196.5,308C 192.097,310.371 187.43,311.871 182.5,312.5C 181.833,312.167 181.167,311.833 180.5,311.5C 180.5,310.833 180.833,310.5 181.5,310.5C 182.873,310.657 184.207,310.49 185.5,310C 189.221,307.473 193.221,305.473 197.5,304C 198.252,303.329 198.586,302.496 198.5,301.5C 201.231,300.973 203.898,300.14 206.5,299C 213.827,292.848 221.827,287.682 230.5,283.5C 231.072,281.922 231.406,280.422 231.5,279C 237.555,275.927 243.555,272.76 249.5,269.5C 246.833,267.5 246.833,265.5 249.5,263.5C 255.939,259.048 262.606,255.048 269.5,251.5C 269.389,252.117 269.056,252.617 268.5,253C 271.614,253.123 274.614,253.29 277.5,253.5C 271.323,258.092 264.656,261.925 257.5,265C 255.508,266.691 254.508,268.525 254.5,270.5C 261.056,267.583 267.056,263.917 272.5,259.5C 273.086,259.709 273.586,260.043 274,260.5C 278.246,257.625 282.746,255.125 287.5,253C 293.147,249.839 298.48,246.172 303.5,242C 309.846,239.487 315.846,236.321 321.5,232.5 Z"/></g>
<g><path style="opacity:1" fill="#ec5b12" d="M 354.5,265.5 C 347.937,268.397 341.603,271.73 335.5,275.5C 333.488,274.772 331.488,273.938 329.5,273C 329.665,271.883 329.998,270.716 330.5,269.5C 329.975,268.808 329.308,268.308 328.5,268C 329.774,267.023 329.774,266.189 328.5,265.5C 333.865,259.801 339.531,254.467 345.5,249.5C 346.833,249.5 348.167,249.5 349.5,249.5C 351.865,248.992 354.199,248.325 356.5,247.5C 360.009,249.104 359.676,250.604 355.5,252C 356.328,252.915 357.328,253.581 358.5,254C 356.571,256.953 354.238,259.619 351.5,262C 353.063,262.759 354.063,263.926 354.5,265.5 Z"/></g>
<g><path style="opacity:1" fill="#ce7f46" d="M 262.5,197.5 C 272.332,202.004 281.498,207.67 290,214.5C 292.174,218.546 293.007,222.879 292.5,227.5C 293.873,227.657 295.207,227.49 296.5,227C 297.789,225.198 299.456,224.031 301.5,223.5C 301.5,224.167 301.5,224.833 301.5,225.5C 290.294,232.264 279.294,239.264 268.5,246.5C 260.989,250.085 253.989,254.418 247.5,259.5C 232.659,268.421 217.659,277.088 202.5,285.5C 198.5,285.5 194.5,285.5 190.5,285.5C 186.951,285.561 183.618,284.727 180.5,283C 172.471,277.652 164.138,272.819 155.5,268.5C 149.183,263.672 142.516,259.338 135.5,255.5C 128.205,249.845 120.872,244.178 113.5,238.5C 112.735,235.904 112.401,233.237 112.5,230.5C 113.833,229.833 114.833,228.833 115.5,227.5C 118.634,226.099 121.634,224.432 124.5,222.5C 125.298,222.957 125.631,223.624 125.5,224.5C 119.362,226.791 116.862,231.125 118,237.5C 125.33,244.24 133.496,249.573 142.5,253.5C 143.122,256.776 145.122,258.109 148.5,257.5C 153.459,262.985 159.459,266.985 166.5,269.5C 170.323,272.916 174.657,275.582 179.5,277.5C 179.842,278.338 180.508,278.672 181.5,278.5C 182.975,280.41 184.975,281.576 187.5,282C 192.444,282.873 197.11,282.373 201.5,280.5C 209.006,276.917 216.006,272.584 222.5,267.5C 244.86,254.566 267.027,241.233 289,227.5C 290.483,224.298 290.817,220.964 290,217.5C 280.651,210.97 271.485,204.303 262.5,197.5 Z"/></g>
<g><path style="opacity:1" fill="#684c34" d="M 148.5,257.5 C 150.924,259.243 153.591,260.576 156.5,261.5C 158.988,261.683 160.988,262.683 162.5,264.5C 163.87,266.172 165.203,267.839 166.5,269.5C 159.459,266.985 153.459,262.985 148.5,257.5 Z"/></g>
<g><path style="opacity:1" fill="#3a3a39" d="M 188.5,249.5 C 189.598,250.397 189.598,251.23 188.5,252C 190.929,252.451 191.096,253.285 189,254.5C 188.667,254.167 188.333,253.833 188,253.5C 184.379,257.776 180.546,261.776 176.5,265.5C 175.167,266.5 175.167,267.5 176.5,268.5C 175.007,269.141 174.007,270.141 173.5,271.5C 171.442,270.067 169.108,269.4 166.5,269.5C 165.203,267.839 163.87,266.172 162.5,264.5C 163.45,261.885 165.117,259.885 167.5,258.5C 171.991,256.92 176.325,255.253 180.5,253.5C 183.395,252.601 186.062,251.267 188.5,249.5 Z"/></g>
<g><path style="opacity:1" fill="#acacac" d="M 189.5,249.5 C 189.167,249.5 188.833,249.5 188.5,249.5C 186.062,251.267 183.395,252.601 180.5,253.5C 180.5,253.167 180.5,252.833 180.5,252.5C 183.312,250.592 186.312,248.925 189.5,247.5C 190.463,247.97 190.463,248.637 189.5,249.5 Z"/></g>
<g><path style="opacity:1" fill="#686462" d="M 166.5,245.5 C 167.624,246.809 169.124,247.475 171,247.5C 172.55,247.05 174.05,246.883 175.5,247C 174.177,247.816 173.511,248.983 173.5,250.5C 171.459,248.065 169.126,247.898 166.5,250C 163.941,254.711 160.607,258.545 156.5,261.5C 153.591,260.576 150.924,259.243 148.5,257.5C 145.122,258.109 143.122,256.776 142.5,253.5C 150.336,250.536 158.336,247.869 166.5,245.5 Z"/></g>
<g><path style="opacity:1" fill="#4f4e4e" d="M 173.5,250.5 C 175.423,252.19 177.423,252.523 179.5,251.5C 179.5,252.167 179.833,252.5 180.5,252.5C 180.5,252.833 180.5,253.167 180.5,253.5C 176.325,255.253 171.991,256.92 167.5,258.5C 165.117,259.885 163.45,261.885 162.5,264.5C 160.988,262.683 158.988,261.683 156.5,261.5C 160.607,258.545 163.941,254.711 166.5,250C 169.126,247.898 171.459,248.065 173.5,250.5 Z"/></g>
<g><path style="opacity:1" fill="#a5a5a4" d="M 180.5,240.5 C 180.5,241.5 180.5,242.5 180.5,243.5C 182.199,243.34 183.866,243.506 185.5,244C 186.022,244.561 186.355,245.228 186.5,246C 184.638,248.354 182.305,250.187 179.5,251.5C 177.423,252.523 175.423,252.19 173.5,250.5C 173.511,248.983 174.177,247.816 175.5,247C 174.05,246.883 172.55,247.05 171,247.5C 169.124,247.475 167.624,246.809 166.5,245.5C 168.546,242.634 171.213,240.467 174.5,239C 176.689,238.678 178.689,239.178 180.5,240.5 Z"/></g>
<g><path style="opacity:1" fill="#444444" d="M 181.5,244.5 C 182.922,244.709 184.255,245.209 185.5,246C 182.467,248.714 179.134,249.881 175.5,249.5C 177.519,247.81 179.519,246.144 181.5,244.5 Z"/></g>
<g><path style="opacity:1" fill="#393938" d="M 174.5,240.5 C 176.103,240.312 177.437,240.812 178.5,242C 176.067,243.632 173.567,245.132 171,246.5C 169.941,246.37 169.108,245.87 168.5,245C 170.684,243.637 172.684,242.137 174.5,240.5 Z"/></g>
<g><path style="opacity:1" fill="#3c3c3c" d="M 189.5,249.5 C 190.463,248.637 190.463,247.97 189.5,247.5C 186.312,248.925 183.312,250.592 180.5,252.5C 179.833,252.5 179.5,252.167 179.5,251.5C 182.305,250.187 184.638,248.354 186.5,246C 186.355,245.228 186.022,244.561 185.5,244C 183.866,243.506 182.199,243.34 180.5,243.5C 180.5,242.5 180.5,241.5 180.5,240.5C 186.348,238.536 192.348,236.869 198.5,235.5C 200.262,235.643 201.929,235.309 203.5,234.5C 203.833,235.167 204.167,235.833 204.5,236.5C 205.451,235.674 206.451,235.508 207.5,236C 201.345,239.387 196.345,244.054 192.5,250C 191.423,250.47 190.423,250.303 189.5,249.5 Z"/></g>
<g><path style="opacity:1" fill="#676767" d="M 169.5,236.5 C 170.5,236.5 171.5,236.5 172.5,236.5C 171.754,240.31 170.754,240.31 169.5,236.5 Z"/></g>
<g><path style="opacity:1" fill="#2a2a2a" d="M 220.5,228.5 C 221.239,228.369 221.906,228.536 222.5,229C 221.149,230.617 219.482,231.784 217.5,232.5C 211.372,238.798 205.372,245.298 199.5,252C 192.296,258.038 185.63,264.538 179.5,271.5C 178.311,272.429 176.978,272.762 175.5,272.5C 174.508,272.672 173.842,272.338 173.5,271.5C 174.007,270.141 175.007,269.141 176.5,268.5C 175.167,267.5 175.167,266.5 176.5,265.5C 180.546,261.776 184.379,257.776 188,253.5C 188.333,253.833 188.667,254.167 189,254.5C 191.096,253.285 190.929,252.451 188.5,252C 189.598,251.23 189.598,250.397 188.5,249.5C 188.833,249.5 189.167,249.5 189.5,249.5C 190.423,250.303 191.423,250.47 192.5,250C 196.345,244.054 201.345,239.387 207.5,236C 206.451,235.508 205.451,235.674 204.5,236.5C 204.167,235.833 203.833,235.167 203.5,234.5C 201.929,235.309 200.262,235.643 198.5,235.5C 205.557,232.564 212.89,230.231 220.5,228.5 Z"/></g>
<g><path style="opacity:1" fill="#1b1b1b" d="M 235.5,223.5 C 236.931,224.446 238.264,225.612 239.5,227C 238.377,228.044 237.044,228.71 235.5,229C 235.833,229.333 236.167,229.667 236.5,230C 231.226,234.067 226.226,238.4 221.5,243C 212.058,252.612 202.724,262.446 193.5,272.5C 191.566,272.901 190.066,273.901 189,275.5C 188.333,274.833 187.667,274.167 187,273.5C 184.668,278.515 182.168,278.681 179.5,274C 178.552,273.517 177.552,273.351 176.5,273.5C 175.833,273.5 175.5,273.167 175.5,272.5C 176.978,272.762 178.311,272.429 179.5,271.5C 185.63,264.538 192.296,258.038 199.5,252C 205.372,245.298 211.372,238.798 217.5,232.5C 219.482,231.784 221.149,230.617 222.5,229C 221.906,228.536 221.239,228.369 220.5,228.5C 225.233,226.309 230.233,224.642 235.5,223.5 Z"/></g>
<g><path style="opacity:1" fill="#a95c3b" d="M 335.5,255.5 C 332.105,259.898 328.105,263.564 323.5,266.5C 323.5,266.167 323.5,265.833 323.5,265.5C 327.227,261.767 331.227,258.434 335.5,255.5 Z"/></g>
<g><path style="opacity:1" fill="#d2622f" d="M 345.5,249.5 C 339.531,254.467 333.865,259.801 328.5,265.5C 324.545,271.123 319.879,276.123 314.5,280.5C 315.398,278.095 316.898,276.095 319,274.5C 319.483,273.552 319.649,272.552 319.5,271.5C 320.604,269.611 321.937,267.945 323.5,266.5C 328.105,263.564 332.105,259.898 335.5,255.5C 337.604,253.901 339.604,252.068 341.5,250C 342.793,249.51 344.127,249.343 345.5,249.5 Z"/></g>
<g><path style="opacity:1" fill="#d47740" d="M 365.5,261.5 C 372.354,261.176 379.021,261.509 385.5,262.5C 375.656,261.98 365.989,262.98 356.5,265.5C 359.088,263.408 362.088,262.075 365.5,261.5 Z"/></g>
<g><path style="opacity:1" fill="#371209" d="M 385.5,262.5 C 385.5,262.833 385.5,263.167 385.5,263.5C 385.5,263.833 385.5,264.167 385.5,264.5C 384.833,264.5 384.167,264.5 383.5,264.5C 380.5,264.5 377.5,264.5 374.5,264.5C 366.483,265.766 358.483,267.433 350.5,269.5C 352.364,267.986 354.364,266.653 356.5,265.5C 365.989,262.98 375.656,261.98 385.5,262.5 Z"/></g>
<g><path style="opacity:0.008" fill="#dcd9d0" d="M 383.5,264.5 C 384.167,264.5 384.833,264.5 385.5,264.5C 385.027,265.906 384.027,266.573 382.5,266.5C 382.833,265.833 383.167,265.167 383.5,264.5 Z"/></g>
<g><path style="opacity:1" fill="#3f4043" d="M 179.5,324.5 C 177.766,326.09 176.6,328.09 176,330.5C 174.146,328.149 172.646,328.483 171.5,331.5C 166.032,327.595 160.365,323.928 154.5,320.5C 153.548,322.045 153.215,323.712 153.5,325.5C 150.786,327.825 147.786,327.992 144.5,326C 143.874,325.25 143.374,324.416 143,323.5C 142.692,324.308 142.192,324.975 141.5,325.5C 138.312,322.424 134.645,320.59 130.5,320C 134.676,322.588 138.676,325.421 142.5,328.5C 143.833,329.5 143.833,330.5 142.5,331.5C 138.435,327.473 133.768,324.473 128.5,322.5C 128.5,321.167 128.5,319.833 128.5,318.5C 131.999,318.741 132.332,317.908 129.5,316C 133.513,317.776 137.513,319.943 141.5,322.5C 141.833,322.333 142.167,322.167 142.5,322C 141.619,321.292 140.953,320.458 140.5,319.5C 142.646,319.304 142.812,318.304 141,316.5C 137.82,312.945 133.986,310.778 129.5,310C 130.305,311.113 130.972,312.279 131.5,313.5C 128.738,311.989 125.738,310.656 122.5,309.5C 121.885,307.884 120.885,306.551 119.5,305.5C 119.977,304.522 120.643,303.689 121.5,303C 119.901,301.214 119.067,299.047 119,296.5C 118.808,298.577 118.308,300.577 117.5,302.5C 116.893,302.376 116.56,302.043 116.5,301.5C 117.811,299.44 117.811,297.274 116.5,295C 111,291.5 105.5,288 100,284.5C 99.5065,286.134 99.3398,287.801 99.5,289.5C 98.8423,288.602 98.1757,287.602 97.5,286.5C 97.1667,286.667 96.8333,286.833 96.5,287C 96.8333,288.667 97.1667,290.333 97.5,292C 95.6992,292.317 95.3659,292.984 96.5,294C 96,294.5 95.5,295 95,295.5C 94.4169,293.998 93.5836,292.665 92.5,291.5C 92.3355,301.536 93.0021,311.703 94.5,322C 94.3333,323.167 94.1667,324.333 94,325.5C 93.6174,324.944 93.1174,324.611 92.5,324.5C 91.0687,323.22 90.4021,321.553 90.5,319.5C 90.5945,311.953 89.9278,304.62 88.5,297.5C 88.5,297.167 88.5,296.833 88.5,296.5C 88.5,293.5 88.5,290.5 88.5,287.5C 89.934,277.669 91.1006,267.669 92,257.5C 92.1786,260.553 92.6786,263.553 93.5,266.5C 94.1348,268.783 95.4682,270.449 97.5,271.5C 100.829,270.292 104.163,268.958 107.5,267.5C 109.596,269.068 111.262,268.734 112.5,266.5C 114.628,267.538 115.628,268.871 115.5,270.5C 116.167,269.5 116.833,268.5 117.5,267.5C 135.969,279.47 154.302,291.637 172.5,304C 174.709,305.873 176.542,308.04 178,310.5C 178.665,315.156 179.165,319.823 179.5,324.5 Z"/></g>
<g><path style="opacity:0.125" fill="#d0d1d2" d="M 87.5,250.5 C 87.6749,262.839 88.0082,275.172 88.5,287.5C 88.5,290.5 88.5,293.5 88.5,296.5C 87.0686,287.039 86.402,277.372 86.5,267.5C 86.5005,261.657 86.8339,255.99 87.5,250.5 Z"/></g>
<g><path style="opacity:0.016" fill="#e4e3e3" d="M 382.5,266.5 C 382.027,267.906 381.027,268.573 379.5,268.5C 379.973,267.094 380.973,266.427 382.5,266.5 Z"/></g>
<g><path style="opacity:0.133" fill="#d9b6a5" d="M 404.5,255.5 C 405.185,261.567 405.851,267.734 406.5,274C 406.595,277.577 405.928,281.077 404.5,284.5C 404.5,278.833 404.5,273.167 404.5,267.5C 404.5,263.5 404.5,259.5 404.5,255.5 Z"/></g>
<g><path style="opacity:1" fill="#2f2b28" d="M 374.5,264.5 C 377.5,264.5 380.5,264.5 383.5,264.5C 383.167,265.167 382.833,265.833 382.5,266.5C 380.973,266.427 379.973,267.094 379.5,268.5C 377.326,268.75 375.659,269.75 374.5,271.5C 372.973,271.427 371.973,272.094 371.5,273.5C 367.342,276.414 363.009,279.081 358.5,281.5C 358.423,280.25 357.756,279.417 356.5,279C 358.333,278.5 359.5,277.333 360,275.5C 360.333,275.833 360.667,276.167 361,276.5C 361.233,274.22 362.066,272.22 363.5,270.5C 367.264,268.361 371.264,266.861 375.5,266C 374.944,265.617 374.611,265.117 374.5,264.5 Z"/></g>
<g><path style="opacity:0.125" fill="#d6d4d5" d="M 379.5,268.5 C 378.341,270.25 376.674,271.25 374.5,271.5C 375.659,269.75 377.326,268.75 379.5,268.5 Z"/></g>
<g><path style="opacity:1" fill="#3a3a3d" d="M 111.5,236.5 C 111.833,237.5 112.5,238.167 113.5,238.5C 113.091,243.028 115.091,245.694 119.5,246.5C 121.149,249.739 123.816,251.239 127.5,251C 129.817,253.157 132.484,254.657 135.5,255.5C 136.028,256.721 136.695,257.887 137.5,259C 140.853,260.823 144.186,262.49 147.5,264C 147.5,265 147.5,266 147.5,267C 150.207,267.395 152.873,267.895 155.5,268.5C 156.315,269.837 157.482,270.837 159,271.5C 159.49,272.793 159.657,274.127 159.5,275.5C 164.936,274.387 168.936,276.22 171.5,281C 177.37,283.792 183.37,285.958 189.5,287.5C 190.834,289.159 192.501,290.492 194.5,291.5C 197.184,289.807 199.851,288.14 202.5,286.5C 207.143,285.591 211.476,283.925 215.5,281.5C 216.833,281.5 218.167,281.5 219.5,281.5C 219.5,280.5 219.5,279.5 219.5,278.5C 221.575,278.302 223.575,278.135 225.5,278C 222.87,281.466 219.537,283.966 215.5,285.5C 215.896,288.044 215.229,290.211 213.5,292C 207.806,294.218 202.806,297.384 198.5,301.5C 197.167,301.5 195.833,301.5 194.5,301.5C 195.159,298.545 195.492,295.545 195.5,292.5C 191.818,292.335 188.152,292.501 184.5,293C 181.414,296.71 177.747,299.71 173.5,302C 174.981,302.98 176.315,304.147 177.5,305.5C 179.366,305.098 181.366,305.098 183.5,305.5C 182.544,307.075 181.877,308.742 181.5,310.5C 180.833,310.5 180.5,310.833 180.5,311.5C 179.957,311.56 179.624,311.893 179.5,312.5C 182.286,335.399 183.119,358.399 182,381.5C 181.566,362.472 180.733,343.472 179.5,324.5C 179.165,319.823 178.665,315.156 178,310.5C 176.542,308.04 174.709,305.873 172.5,304C 154.302,291.637 135.969,279.47 117.5,267.5C 116.833,268.5 116.167,269.5 115.5,270.5C 115.628,268.871 114.628,267.538 112.5,266.5C 111.262,268.734 109.596,269.068 107.5,267.5C 104.163,268.958 100.829,270.292 97.5,271.5C 95.4682,270.449 94.1348,268.783 93.5,266.5C 92.6786,263.553 92.1786,260.553 92,257.5C 91.1006,267.669 89.934,277.669 88.5,287.5C 88.0082,275.172 87.6749,262.839 87.5,250.5C 87.3284,249.508 87.6618,248.842 88.5,248.5C 88.3505,249.552 88.5172,250.552 89,251.5C 91.1317,250.22 93.2984,250.22 95.5,251.5C 96.3184,249.892 96.9851,248.225 97.5,246.5C 97.9569,245.702 98.6236,245.369 99.5,245.5C 101.794,240.203 105.794,237.203 111.5,236.5 Z"/></g>
<g><path style="opacity:1" fill="#494a4e" d="M 172.5,299.5 C 173.048,298.312 173.381,297.145 173.5,296C 171.077,294.429 169.744,292.263 169.5,289.5C 166.998,287.941 163.664,286.608 159.5,285.5C 158.07,283.614 156.403,281.947 154.5,280.5C 142.206,273.477 129.873,266.311 117.5,259C 115.257,256.178 112.59,253.845 109.5,252C 109.833,251.667 110.167,251.333 110.5,251C 106.928,249.52 103.262,248.854 99.5,249C 99.8333,249.333 100.167,249.667 100.5,250C 99.5842,250.278 98.9175,250.778 98.5,251.5C 97.9033,251.265 97.5699,250.765 97.5,250C 98.4138,248.594 99.0805,247.094 99.5,245.5C 103.447,244.088 107.114,244.754 110.5,247.5C 111.429,248.689 111.762,250.022 111.5,251.5C 113.288,251.215 114.955,251.548 116.5,252.5C 120.329,255.249 124.329,257.749 128.5,260C 129.337,261.011 129.67,262.178 129.5,263.5C 133.798,263.885 137.798,265.218 141.5,267.5C 146.03,273.018 151.697,277.018 158.5,279.5C 165.515,283.238 172.182,287.238 178.5,291.5C 178.658,295.517 176.991,298.517 173.5,300.5C 172.893,300.376 172.56,300.043 172.5,299.5 Z"/></g>
<g><path style="opacity:1" fill="#5a5b5f" d="M 172.5,299.5 C 147.541,283.86 122.875,267.86 98.5,251.5C 98.9175,250.778 99.5842,250.278 100.5,250C 100.167,249.667 99.8333,249.333 99.5,249C 103.262,248.854 106.928,249.52 110.5,251C 110.167,251.333 109.833,251.667 109.5,252C 112.59,253.845 115.257,256.178 117.5,259C 129.873,266.311 142.206,273.477 154.5,280.5C 156.403,281.947 158.07,283.614 159.5,285.5C 163.664,286.608 166.998,287.941 169.5,289.5C 169.744,292.263 171.077,294.429 173.5,296C 173.381,297.145 173.048,298.312 172.5,299.5 Z"/></g>
<g><path style="opacity:1" fill="#4d270c" d="M 166.5,269.5 C 169.108,269.4 171.442,270.067 173.5,271.5C 173.842,272.338 174.508,272.672 175.5,272.5C 175.5,273.167 175.833,273.5 176.5,273.5C 178.229,274.236 179.229,275.57 179.5,277.5C 174.657,275.582 170.323,272.916 166.5,269.5 Z"/></g>
<g><path style="opacity:1" fill="#c46034" d="M 354.5,265.5 C 355.167,265.5 355.833,265.5 356.5,265.5C 354.364,266.653 352.364,267.986 350.5,269.5C 347.008,270.41 344.008,272.076 341.5,274.5C 339.517,275.471 337.517,276.471 335.5,277.5C 335.5,276.833 335.5,276.167 335.5,275.5C 341.603,271.73 347.937,268.397 354.5,265.5 Z"/></g>
<g><path style="opacity:0.004" fill="#e1e1e1" d="M 374.5,271.5 C 374.027,272.906 373.027,273.573 371.5,273.5C 371.973,272.094 372.973,271.427 374.5,271.5 Z"/></g>
<g><path style="opacity:1" fill="#462f1e" d="M 247.5,259.5 C 245.262,261.388 242.929,263.388 240.5,265.5C 239.571,266.689 239.238,268.022 239.5,269.5C 237.073,269.523 234.74,270.023 232.5,271C 228.476,274.516 223.81,276.849 218.5,278C 217.29,279.039 216.29,280.206 215.5,281.5C 211.476,283.925 207.143,285.591 202.5,286.5C 202.5,286.167 202.5,285.833 202.5,285.5C 217.659,277.088 232.659,268.421 247.5,259.5 Z"/></g>
<g><path style="opacity:0.62" fill="#e2ac87" d="M 385.5,264.5 C 385.5,264.167 385.5,263.833 385.5,263.5C 386.833,263.5 388.167,263.5 389.5,263.5C 392.676,264.34 395.342,266.007 397.5,268.5C 398.68,271.17 398.513,273.836 397,276.5C 394.656,279.011 392.156,281.344 389.5,283.5C 392.614,280.03 394.947,276.03 396.5,271.5C 394.07,267.439 390.403,265.106 385.5,264.5 Z"/></g>
<g><path style="opacity:1" fill="#862f15" d="M 403.5,267.5 C 403.833,267.5 404.167,267.5 404.5,267.5C 404.5,273.167 404.5,278.833 404.5,284.5C 403.5,283.167 402.5,283.167 401.5,284.5C 401.467,280.131 401.8,275.798 402.5,271.5C 402.5,270.833 402.5,270.167 402.5,269.5C 403.338,269.158 403.672,268.492 403.5,267.5 Z"/></g>
<g><path style="opacity:1" fill="#351203" d="M 181.5,278.5 C 187.95,280.267 194.617,280.934 201.5,280.5C 197.11,282.373 192.444,282.873 187.5,282C 184.975,281.576 182.975,280.41 181.5,278.5 Z"/></g>
<g><path style="opacity:1" fill="#ce430f" d="M 328.5,265.5 C 329.774,266.189 329.774,267.023 328.5,268C 329.308,268.308 329.975,268.808 330.5,269.5C 329.998,270.716 329.665,271.883 329.5,273C 331.488,273.938 333.488,274.772 335.5,275.5C 335.5,276.167 335.5,276.833 335.5,277.5C 333.821,277.892 332.154,278.392 330.5,279C 326.925,283.849 323.258,288.683 319.5,293.5C 318.675,294.386 317.675,294.719 316.5,294.5C 316.068,298.59 314.068,301.59 310.5,303.5C 310.238,302.022 310.571,300.689 311.5,299.5C 313.5,298.833 314.833,297.5 315.5,295.5C 313.161,294.582 311.661,292.916 311,290.5C 310.275,292.158 309.108,292.658 307.5,292C 309.968,288.227 312.301,284.394 314.5,280.5C 319.879,276.123 324.545,271.123 328.5,265.5 Z"/></g>
<g><path style="opacity:1" fill="#300c07" d="M 341.5,274.5 C 338.911,279.817 334.911,283.817 329.5,286.5C 328.416,287.665 327.583,288.998 327,290.5C 324.579,293.353 321.746,295.687 318.5,297.5C 323.416,290.246 329.083,283.579 335.5,277.5C 337.517,276.471 339.517,275.471 341.5,274.5 Z"/></g>
<g><path style="opacity:1" fill="#34302e" d="M 358.5,281.5 C 356.178,283.664 353.511,285.331 350.5,286.5C 348.973,286.427 347.973,287.094 347.5,288.5C 343.342,291.414 339.009,294.081 334.5,296.5C 335.598,295.603 335.598,294.77 334.5,294C 336.301,293.683 336.634,293.016 335.5,292C 338.729,291.644 340.229,289.81 340,286.5C 342.81,281.485 346.644,280.152 351.5,282.5C 353.615,280.385 355.949,280.051 358.5,281.5 Z"/></g>
<g><path style="opacity:1" fill="#5b4333" d="M 155.5,268.5 C 164.138,272.819 172.471,277.652 180.5,283C 183.618,284.727 186.951,285.561 190.5,285.5C 190.672,286.492 190.338,287.158 189.5,287.5C 183.37,285.958 177.37,283.792 171.5,281C 168.936,276.22 164.936,274.387 159.5,275.5C 159.657,274.127 159.49,272.793 159,271.5C 157.482,270.837 156.315,269.837 155.5,268.5 Z"/></g>
<g><path style="opacity:1" fill="#a45a41" d="M 404.5,284.5 C 403.624,288.582 401.957,292.249 399.5,295.5C 399.417,291.665 400.083,287.998 401.5,284.5C 402.5,283.167 403.5,283.167 404.5,284.5 Z"/></g>
<g><path style="opacity:0.008" fill="#e4e9e9" d="M 350.5,286.5 C 350.027,287.906 349.027,288.573 347.5,288.5C 347.973,287.094 348.973,286.427 350.5,286.5 Z"/></g>
<g><path style="opacity:1" fill="#776c6b" d="M 190.5,285.5 C 194.5,285.5 198.5,285.5 202.5,285.5C 202.5,285.833 202.5,286.167 202.5,286.5C 199.851,288.14 197.184,289.807 194.5,291.5C 192.501,290.492 190.834,289.159 189.5,287.5C 190.338,287.158 190.672,286.492 190.5,285.5 Z"/></g>
<g><path style="opacity:0.98" fill="#d67c46" d="M 397.5,268.5 C 399.03,269.211 400.363,270.211 401.5,271.5C 398.471,277.557 394.471,282.891 389.5,287.5C 386.892,289.103 384.559,291.103 382.5,293.5C 381.833,293.5 381.167,293.5 380.5,293.5C 382.833,290.833 385.167,288.167 387.5,285.5C 387.833,284.5 388.5,283.833 389.5,283.5C 392.156,281.344 394.656,279.011 397,276.5C 398.513,273.836 398.68,271.17 397.5,268.5 Z"/></g>
<g><path style="opacity:1" fill="#070709" d="M 116.5,301.5 C 110.583,297.721 104.916,293.721 99.5,289.5C 99.3398,287.801 99.5065,286.134 100,284.5C 105.5,288 111,291.5 116.5,295C 117.811,297.274 117.811,299.44 116.5,301.5 Z"/></g>
<g><path style="opacity:1" fill="#2c1f15" d="M 307.5,280.5 C 307.5,281.5 307.5,282.5 307.5,283.5C 304.5,283.167 303.167,284.5 303.5,287.5C 298.981,287.515 296.481,289.848 296,294.5C 292.291,296.38 289.457,299.046 287.5,302.5C 286.127,302.343 284.793,302.51 283.5,303C 277.016,306.665 270.683,310.498 264.5,314.5C 257.643,315.253 250.976,316.753 244.5,319C 240.779,319.678 237.112,319.511 233.5,318.5C 234.203,316.284 235.536,314.451 237.5,313C 241.097,311.4 244.097,309.067 246.5,306C 266.073,295.886 286.406,287.386 307.5,280.5 Z"/></g>
<g><path style="opacity:1" fill="#201611" d="M 374.5,264.5 C 374.611,265.117 374.944,265.617 375.5,266C 371.264,266.861 367.264,268.361 363.5,270.5C 362.066,272.22 361.233,274.22 361,276.5C 360.667,276.167 360.333,275.833 360,275.5C 359.5,277.333 358.333,278.5 356.5,279C 357.756,279.417 358.423,280.25 358.5,281.5C 355.949,280.051 353.615,280.385 351.5,282.5C 346.644,280.152 342.81,281.485 340,286.5C 340.229,289.81 338.729,291.644 335.5,292C 336.634,293.016 336.301,293.683 334.5,294C 335.598,294.77 335.598,295.603 334.5,296.5C 332.973,296.427 331.973,297.094 331.5,298.5C 329.326,298.75 327.659,299.75 326.5,301.5C 324.973,301.427 323.973,302.094 323.5,303.5C 320.434,305.89 317.1,307.89 313.5,309.5C 311.973,309.427 310.973,310.094 310.5,311.5C 309.833,311.5 309.167,311.5 308.5,311.5C 311.385,308.109 314.552,304.776 318,301.5C 318.49,300.207 318.657,298.873 318.5,297.5C 321.746,295.687 324.579,293.353 327,290.5C 327.583,288.998 328.416,287.665 329.5,286.5C 334.911,283.817 338.911,279.817 341.5,274.5C 344.008,272.076 347.008,270.41 350.5,269.5C 358.483,267.433 366.483,265.766 374.5,264.5 Z"/></g>
<g><path style="opacity:0.427" fill="#edcdb3" d="M 387.5,285.5 C 385.167,288.167 382.833,290.833 380.5,293.5C 379.508,293.328 378.842,293.662 378.5,294.5C 377.167,294.833 375.833,295.167 374.5,295.5C 378.828,292.174 383.161,288.84 387.5,285.5 Z"/></g>
<g><path style="opacity:1" fill="#c46d3b" d="M 319.5,271.5 C 319.649,272.552 319.483,273.552 319,274.5C 316.898,276.095 315.398,278.095 314.5,280.5C 307.133,288.868 299.133,296.535 290.5,303.5C 288.685,304.63 286.685,305.296 284.5,305.5C 285.694,304.728 286.694,303.728 287.5,302.5C 297.083,296.918 305.083,289.585 311.5,280.5C 314.167,277.5 316.833,274.5 319.5,271.5 Z"/></g>
<g><path style="opacity:1" fill="#b13d0e" d="M 401.5,271.5 C 401.833,271.5 402.167,271.5 402.5,271.5C 401.8,275.798 401.467,280.131 401.5,284.5C 400.083,287.998 399.417,291.665 399.5,295.5C 398.094,295.973 397.427,296.973 397.5,298.5C 396.833,298.833 396.167,299.167 395.5,299.5C 393.451,300.641 391.451,300.641 389.5,299.5C 389.062,299.565 388.728,299.399 388.5,299C 390.301,298.683 390.634,298.016 389.5,297C 390.516,296.481 391.182,295.647 391.5,294.5C 390.64,292.728 389.307,291.395 387.5,290.5C 388.193,289.482 388.859,288.482 389.5,287.5C 394.471,282.891 398.471,277.557 401.5,271.5 Z"/></g>
<g><path style="opacity:1" fill="#401908" d="M 307.5,280.5 C 308.833,280.5 310.167,280.5 311.5,280.5C 305.083,289.585 297.083,296.918 287.5,302.5C 289.457,299.046 292.291,296.38 296,294.5C 296.481,289.848 298.981,287.515 303.5,287.5C 303.167,284.5 304.5,283.167 307.5,283.5C 307.5,282.5 307.5,281.5 307.5,280.5 Z"/></g>
<g><path style="opacity:0.686" fill="#c3875b" d="M 378.5,294.5 C 374.902,297.313 371.235,300.147 367.5,303C 366.552,303.483 365.552,303.649 364.5,303.5C 366.139,302.527 367.473,301.194 368.5,299.5C 368.973,298.094 369.973,297.427 371.5,297.5C 373.027,297.573 374.027,296.906 374.5,295.5C 375.833,295.167 377.167,294.833 378.5,294.5 Z"/></g>
<g><path style="opacity:0.173" fill="#f8e3d6" d="M 374.5,295.5 C 374.027,296.906 373.027,297.573 371.5,297.5C 371.973,296.094 372.973,295.427 374.5,295.5 Z"/></g>
<g><path style="opacity:0.004" fill="#f9e5d6" d="M 399.5,295.5 C 399.573,297.027 398.906,298.027 397.5,298.5C 397.427,296.973 398.094,295.973 399.5,295.5 Z"/></g>
<g><path style="opacity:0.008" fill="#eaeaea" d="M 334.5,296.5 C 334.027,297.906 333.027,298.573 331.5,298.5C 331.973,297.094 332.973,296.427 334.5,296.5 Z"/></g>
<g><path style="opacity:1" fill="#d35015" d="M 389.5,287.5 C 388.859,288.482 388.193,289.482 387.5,290.5C 389.307,291.395 390.64,292.728 391.5,294.5C 391.182,295.647 390.516,296.481 389.5,297C 390.634,298.016 390.301,298.683 388.5,299C 388.728,299.399 389.062,299.565 389.5,299.5C 388.929,300.973 388.929,302.64 389.5,304.5C 388.448,304.351 387.448,304.517 386.5,305C 387.337,306.011 387.67,307.178 387.5,308.5C 383.092,308.938 381.425,306.938 382.5,302.5C 382.672,301.508 382.338,300.842 381.5,300.5C 379.335,300.884 377.668,300.217 376.5,298.5C 378.571,296.815 380.571,295.148 382.5,293.5C 384.559,291.103 386.892,289.103 389.5,287.5 Z"/></g>
<g><path style="opacity:0.063" fill="#d0cfcf" d="M 331.5,298.5 C 330.341,300.25 328.674,301.25 326.5,301.5C 327.659,299.75 329.326,298.75 331.5,298.5 Z"/></g>
<g><path style="opacity:0.016" fill="#f9e6df" d="M 397.5,298.5 C 396.864,300.795 395.531,302.461 393.5,303.5C 393.733,301.938 394.4,300.605 395.5,299.5C 396.167,299.167 396.833,298.833 397.5,298.5 Z"/></g>
<g><path style="opacity:0.169" fill="#efcfab" d="M 368.5,299.5 C 367.473,301.194 366.139,302.527 364.5,303.5C 363.833,303.5 363.167,303.5 362.5,303.5C 364.147,301.674 366.147,300.34 368.5,299.5 Z"/></g>
<g><path style="opacity:1" fill="#df5111" d="M 314.5,280.5 C 312.301,284.394 309.968,288.227 307.5,292C 309.108,292.658 310.275,292.158 311,290.5C 311.661,292.916 313.161,294.582 315.5,295.5C 314.833,297.5 313.5,298.833 311.5,299.5C 310.571,300.689 310.238,302.022 310.5,303.5C 308.833,304.833 307.167,306.167 305.5,307.5C 296.48,312.397 286.813,315.73 276.5,317.5C 275.957,317.44 275.624,317.107 275.5,316.5C 276.915,313.619 279.249,311.953 282.5,311.5C 285.2,308.827 287.867,306.16 290.5,303.5C 299.133,296.535 307.133,288.868 314.5,280.5 Z"/></g>
<g><path style="opacity:1" fill="#ac4827" d="M 335.5,277.5 C 329.083,283.579 323.416,290.246 318.5,297.5C 314.352,303.185 309.352,307.851 303.5,311.5C 303.733,309.938 304.4,308.605 305.5,307.5C 307.167,306.167 308.833,304.833 310.5,303.5C 314.068,301.59 316.068,298.59 316.5,294.5C 317.675,294.719 318.675,294.386 319.5,293.5C 323.258,288.683 326.925,283.849 330.5,279C 332.154,278.392 333.821,277.892 335.5,277.5 Z"/></g>
<g><path style="opacity:1" fill="#242526" d="M 198.5,301.5 C 198.586,302.496 198.252,303.329 197.5,304C 193.221,305.473 189.221,307.473 185.5,310C 184.207,310.49 182.873,310.657 181.5,310.5C 181.877,308.742 182.544,307.075 183.5,305.5C 181.366,305.098 179.366,305.098 177.5,305.5C 176.315,304.147 174.981,302.98 173.5,302C 177.747,299.71 181.414,296.71 184.5,293C 188.152,292.501 191.818,292.335 195.5,292.5C 195.492,295.545 195.159,298.545 194.5,301.5C 195.833,301.5 197.167,301.5 198.5,301.5 Z"/></g>
<g><path style="opacity:1" fill="#401918" d="M 318.5,297.5 C 318.657,298.873 318.49,300.207 318,301.5C 314.552,304.776 311.385,308.109 308.5,311.5C 308.167,312.167 307.833,312.833 307.5,313.5C 306.71,314.401 305.71,315.068 304.5,315.5C 302.973,315.427 301.973,316.094 301.5,317.5C 300.957,317.44 300.624,317.107 300.5,316.5C 301.952,315.06 302.952,313.394 303.5,311.5C 309.352,307.851 314.352,303.185 318.5,297.5 Z"/></g>
<g><path style="opacity:0.004" fill="#d9dcd4" d="M 326.5,301.5 C 326.027,302.906 325.027,303.573 323.5,303.5C 323.973,302.094 324.973,301.427 326.5,301.5 Z"/></g>
<g><path style="opacity:1" fill="#e66d21" d="M 380.5,293.5 C 381.167,293.5 381.833,293.5 382.5,293.5C 380.571,295.148 378.571,296.815 376.5,298.5C 377.668,300.217 379.335,300.884 381.5,300.5C 380.208,303.67 378.542,304.004 376.5,301.5C 375.478,301.855 374.811,302.522 374.5,303.5C 373.566,304.568 373.232,305.901 373.5,307.5C 371.219,307.077 369.552,307.744 368.5,309.5C 367.18,310.942 365.514,311.608 363.5,311.5C 360.065,312.076 356.732,313.076 353.5,314.5C 352.614,315.325 352.281,316.325 352.5,317.5C 351.5,317.5 350.5,317.5 349.5,317.5C 347.444,316.801 345.444,315.801 343.5,314.5C 346.152,313.525 348.486,312.192 350.5,310.5C 352.562,309.224 354.896,308.39 357.5,308C 359.063,306.264 360.73,304.764 362.5,303.5C 363.167,303.5 363.833,303.5 364.5,303.5C 365.552,303.649 366.552,303.483 367.5,303C 371.235,300.147 374.902,297.313 378.5,294.5C 378.842,293.662 379.508,293.328 380.5,293.5 Z"/></g>
<g><path style="opacity:0.067" fill="#cccdcc" d="M 88.5,297.5 C 89.9278,304.62 90.5945,311.953 90.5,319.5C 89.6981,318.048 89.1981,316.382 89,314.5C 88.5006,308.843 88.3339,303.176 88.5,297.5 Z"/></g>
<g><path style="opacity:0.757" fill="#f2c196" d="M 362.5,303.5 C 360.73,304.764 359.063,306.264 357.5,308C 354.896,308.39 352.562,309.224 350.5,310.5C 349.167,310.5 347.833,310.5 346.5,310.5C 351.541,307.649 356.875,305.316 362.5,303.5 Z"/></g>
<g><path style="opacity:1" fill="#5b150c" d="M 370.5,317.5 C 369.835,315.631 369.169,313.631 368.5,311.5C 368.167,311.667 367.833,311.833 367.5,312C 366.556,314.719 366.223,317.552 366.5,320.5C 365.5,320.5 364.5,320.5 363.5,320.5C 363.5,317.5 363.5,314.5 363.5,311.5C 365.514,311.608 367.18,310.942 368.5,309.5C 369.708,308.766 371.041,308.433 372.5,308.5C 373.055,312.012 372.388,315.012 370.5,317.5 Z"/></g>
<g><path style="opacity:0.008" fill="#cfccd6" d="M 313.5,309.5 C 313.027,310.906 312.027,311.573 310.5,311.5C 310.973,310.094 311.973,309.427 313.5,309.5 Z"/></g>
<g><path style="opacity:1" fill="#6d2311" d="M 381.5,300.5 C 382.338,300.842 382.672,301.508 382.5,302.5C 381.069,303.78 380.402,305.447 380.5,307.5C 379.778,307.082 379.278,306.416 379,305.5C 378,306.833 377,306.833 376,305.5C 375.333,307.5 375.333,309.5 376,311.5C 376.383,310.944 376.883,310.611 377.5,310.5C 377.372,312.09 376.705,313.423 375.5,314.5C 374.511,310.893 374.177,307.226 374.5,303.5C 374.811,302.522 375.478,301.855 376.5,301.5C 378.542,304.004 380.208,303.67 381.5,300.5 Z"/></g>
<g><path style="opacity:1" fill="#2e2118" d="M 223.5,298.5 C 221.727,299.892 219.727,301.059 217.5,302C 218.833,303 218.833,304 217.5,305C 215.649,305.837 213.816,306.671 212,307.5C 209.393,316.433 209.393,325.433 212,334.5C 213.085,335.293 214.252,335.96 215.5,336.5C 216.887,343.592 221.22,346.592 228.5,345.5C 229.347,346.966 230.68,347.8 232.5,348C 237.489,348.499 242.489,348.666 247.5,348.5C 239.046,352.953 230.379,356.953 221.5,360.5C 220.348,365.81 217.015,368.31 211.5,368C 209.167,369.667 207.167,371.667 205.5,374C 203.141,374.208 200.974,374.374 199,374.5C 198.216,371.24 198.383,368.073 199.5,365C 198.107,363.829 197.273,362.329 197,360.5C 196.197,355.343 194.864,350.343 193,345.5C 192.009,346.43 191.509,347.596 191.5,349C 192.455,352.471 192.622,355.971 192,359.5C 189.953,350.717 188.953,341.717 189,332.5C 188.586,332.957 188.086,333.291 187.5,333.5C 186.782,328.818 186.116,324.151 185.5,319.5C 187.022,317.844 186.689,316.677 184.5,316C 195.033,313.9 204.366,309.4 212.5,302.5C 216.957,300.272 221.29,298.105 225.5,296C 224.619,296.708 223.953,297.542 223.5,298.5 Z"/></g>
<g><path style="opacity:0.384" fill="#fad9b8" d="M 346.5,310.5 C 344.898,312.074 342.898,312.741 340.5,312.5C 342.102,310.926 344.102,310.259 346.5,310.5 Z"/></g>
<g><path style="opacity:0.906" fill="#be6840" d="M 389.5,299.5 C 391.451,300.641 393.451,300.641 395.5,299.5C 394.4,300.605 393.733,301.938 393.5,303.5C 391.167,306.5 388.5,309.167 385.5,311.5C 383.973,311.427 382.973,312.094 382.5,313.5C 380.596,313.738 379.262,314.738 378.5,316.5C 376.973,316.427 375.973,317.094 375.5,318.5C 373.847,318.66 372.514,319.326 371.5,320.5C 371.167,320.5 370.833,320.5 370.5,320.5C 370.5,319.5 370.5,318.5 370.5,317.5C 372.388,315.012 373.055,312.012 372.5,308.5C 371.041,308.433 369.708,308.766 368.5,309.5C 369.552,307.744 371.219,307.077 373.5,307.5C 373.232,305.901 373.566,304.568 374.5,303.5C 374.177,307.226 374.511,310.893 375.5,314.5C 376.705,313.423 377.372,312.09 377.5,310.5C 378.833,310.5 380.167,310.5 381.5,310.5C 381.737,309.209 381.404,308.209 380.5,307.5C 380.402,305.447 381.069,303.78 382.5,302.5C 381.425,306.938 383.092,308.938 387.5,308.5C 387.67,307.178 387.337,306.011 386.5,305C 387.448,304.517 388.448,304.351 389.5,304.5C 388.929,302.64 388.929,300.973 389.5,299.5 Z"/></g>
<g><path style="opacity:1" fill="#2f0b08" d="M 380.5,307.5 C 381.404,308.209 381.737,309.209 381.5,310.5C 380.167,310.5 378.833,310.5 377.5,310.5C 376.883,310.611 376.383,310.944 376,311.5C 375.333,309.5 375.333,307.5 376,305.5C 377,306.833 378,306.833 379,305.5C 379.278,306.416 379.778,307.082 380.5,307.5 Z"/></g>
<g><path style="opacity:1" fill="#3f1203" d="M 287.5,302.5 C 286.694,303.728 285.694,304.728 284.5,305.5C 278.09,309.038 271.423,312.038 264.5,314.5C 270.683,310.498 277.016,306.665 283.5,303C 284.793,302.51 286.127,302.343 287.5,302.5 Z"/></g>
<g><path style="opacity:0.004" fill="#e5d9e1" d="M 308.5,311.5 C 309.167,311.5 309.833,311.5 310.5,311.5C 310.027,312.906 309.027,313.573 307.5,313.5C 307.833,312.833 308.167,312.167 308.5,311.5 Z"/></g>
<g><path style="opacity:0.004" fill="#fdf0e9" d="M 385.5,311.5 C 385.027,312.906 384.027,313.573 382.5,313.5C 382.973,312.094 383.973,311.427 385.5,311.5 Z"/></g>
<g><path style="opacity:0.031" fill="#fcebd3" d="M 382.5,313.5 C 381.738,315.262 380.404,316.262 378.5,316.5C 379.262,314.738 380.596,313.738 382.5,313.5 Z"/></g>
<g><path style="opacity:1" fill="#0e0e10" d="M 140.5,319.5 C 137.68,317.255 134.68,315.255 131.5,313.5C 130.972,312.279 130.305,311.113 129.5,310C 133.986,310.778 137.82,312.945 141,316.5C 142.812,318.304 142.646,319.304 140.5,319.5 Z"/></g>
<g><path style="opacity:0.984" fill="#994735" d="M 303.5,311.5 C 302.952,313.394 301.952,315.06 300.5,316.5C 300.624,317.107 300.957,317.44 301.5,317.5C 299.365,319.071 297.032,320.404 294.5,321.5C 294.167,321.5 293.833,321.5 293.5,321.5C 295.786,318.537 298.119,315.537 300.5,312.5C 301.325,311.614 302.325,311.281 303.5,311.5 Z"/></g>
<g><path style="opacity:0.38" fill="#ecbf94" d="M 340.5,312.5 C 337.235,314.032 333.902,315.365 330.5,316.5C 329.167,316.5 327.833,316.5 326.5,316.5C 330.895,314.565 335.562,313.231 340.5,312.5 Z"/></g>
<g><path style="opacity:1" fill="#444448" d="M 99.5,289.5 C 104.916,293.721 110.583,297.721 116.5,301.5C 116.56,302.043 116.893,302.376 117.5,302.5C 118.308,300.577 118.808,298.577 119,296.5C 119.067,299.047 119.901,301.214 121.5,303C 120.643,303.689 119.977,304.522 119.5,305.5C 120.885,306.551 121.885,307.884 122.5,309.5C 125.738,310.656 128.738,311.989 131.5,313.5C 134.68,315.255 137.68,317.255 140.5,319.5C 140.953,320.458 141.619,321.292 142.5,322C 142.167,322.167 141.833,322.333 141.5,322.5C 137.513,319.943 133.513,317.776 129.5,316C 132.332,317.908 131.999,318.741 128.5,318.5C 128.5,319.833 128.5,321.167 128.5,322.5C 133.768,324.473 138.435,327.473 142.5,331.5C 143.833,330.5 143.833,329.5 142.5,328.5C 138.676,325.421 134.676,322.588 130.5,320C 134.645,320.59 138.312,322.424 141.5,325.5C 142.192,324.975 142.692,324.308 143,323.5C 143.374,324.416 143.874,325.25 144.5,326C 147.786,327.992 150.786,327.825 153.5,325.5C 159.55,329.947 165.717,334.28 172,338.5C 172.796,335.961 172.629,333.628 171.5,331.5C 172.646,328.483 174.146,328.149 176,330.5C 176.6,328.09 177.766,326.09 179.5,324.5C 180.733,343.472 181.566,362.472 182,381.5C 183.119,358.399 182.286,335.399 179.5,312.5C 179.624,311.893 179.957,311.56 180.5,311.5C 181.167,311.833 181.833,312.167 182.5,312.5C 184.522,336.371 184.855,360.204 183.5,384C 184.793,384.49 186.127,384.657 187.5,384.5C 182.086,387.488 177.086,386.821 172.5,382.5C 172.027,381.094 171.027,380.427 169.5,380.5C 169.027,379.094 168.027,378.427 166.5,378.5C 166.027,377.094 165.027,376.427 163.5,376.5C 142.994,363.081 122.661,349.414 102.5,335.5C 101.738,333.738 100.404,332.738 98.5,332.5C 95.5293,330.557 93.5293,327.891 92.5,324.5C 93.1174,324.611 93.6174,324.944 94,325.5C 94.1667,324.333 94.3333,323.167 94.5,322C 93.0021,311.703 92.3355,301.536 92.5,291.5C 93.5836,292.665 94.4169,293.998 95,295.5C 95.5,295 96,294.5 96.5,294C 95.3659,292.984 95.6992,292.317 97.5,292C 97.1667,290.333 96.8333,288.667 96.5,287C 96.8333,286.833 97.1667,286.667 97.5,286.5C 98.1757,287.602 98.8423,288.602 99.5,289.5 Z"/></g>
<g><path style="opacity:1" fill="#06060a" d="M 100.5,297.5 C 106.276,300.558 111.943,303.891 117.5,307.5C 118.647,309.765 118.814,312.098 118,314.5C 112.056,310.889 106.389,306.889 101,302.5C 100.506,300.866 100.34,299.199 100.5,297.5 Z"/></g>
<g><path style="opacity:0.004" fill="#f8f2f0" d="M 304.5,315.5 C 304.027,316.906 303.027,317.573 301.5,317.5C 301.973,316.094 302.973,315.427 304.5,315.5 Z"/></g>
<g><path style="opacity:1" fill="#de8135" d="M 346.5,310.5 C 347.833,310.5 349.167,310.5 350.5,310.5C 348.486,312.192 346.152,313.525 343.5,314.5C 345.444,315.801 347.444,316.801 349.5,317.5C 347.833,317.5 346.167,317.5 344.5,317.5C 343.811,316.226 342.977,316.226 342,317.5C 341.501,321.486 341.334,325.486 341.5,329.5C 339.57,325.627 338.903,321.294 339.5,316.5C 336.5,316.5 333.5,316.5 330.5,316.5C 333.902,315.365 337.235,314.032 340.5,312.5C 342.898,312.741 344.898,312.074 346.5,310.5 Z"/></g>
<g><path style="opacity:0.016" fill="#fff4ea" d="M 378.5,316.5 C 378.027,317.906 377.027,318.573 375.5,318.5C 375.973,317.094 376.973,316.427 378.5,316.5 Z"/></g>
<g><path style="opacity:1" fill="#ef681d" d="M 290.5,303.5 C 287.867,306.16 285.2,308.827 282.5,311.5C 279.249,311.953 276.915,313.619 275.5,316.5C 275.624,317.107 275.957,317.44 276.5,317.5C 268.088,321.503 259.088,323.503 249.5,323.5C 260.701,319.407 271.701,314.407 282.5,308.5C 283.425,307.643 284.092,306.643 284.5,305.5C 286.685,305.296 288.685,304.63 290.5,303.5 Z"/></g>
<g><path style="opacity:1" fill="#f17d1d" d="M 330.5,316.5 C 333.5,316.5 336.5,316.5 339.5,316.5C 338.903,321.294 339.57,325.627 341.5,329.5C 341.833,329.5 342.167,329.5 342.5,329.5C 342.918,330.222 343.584,330.722 344.5,331C 343.619,331.708 342.953,332.542 342.5,333.5C 342.167,333.5 341.833,333.5 341.5,333.5C 338.183,334.221 334.849,334.388 331.5,334C 332.482,331.262 333.148,328.428 333.5,325.5C 334.434,324.432 334.768,323.099 334.5,321.5C 330.165,322.424 325.998,323.757 322,325.5C 318.51,325.999 315.01,326.332 311.5,326.5C 310.127,326.657 308.793,326.49 307.5,326C 312.301,322.791 317.635,320.791 323.5,320C 326.069,319.102 328.402,317.935 330.5,316.5 Z"/></g>
<g><path style="opacity:0.047" fill="#fde4cb" d="M 375.5,318.5 C 374.713,320.104 373.38,320.771 371.5,320.5C 372.514,319.326 373.847,318.66 375.5,318.5 Z"/></g>
<g><path style="opacity:1" fill="#a84f26" d="M 232.5,321.5 C 231.167,321.5 229.833,321.5 228.5,321.5C 227.167,321.5 225.833,321.5 224.5,321.5C 222.541,327.75 221.874,334.416 222.5,341.5C 221.662,341.158 221.328,340.492 221.5,339.5C 221.17,333.132 221.504,326.798 222.5,320.5C 226.017,319.542 229.35,319.875 232.5,321.5 Z"/></g>
<g><path style="opacity:1" fill="#d97a3b" d="M 284.5,305.5 C 284.092,306.643 283.425,307.643 282.5,308.5C 271.701,314.407 260.701,319.407 249.5,323.5C 243.491,323.666 237.491,323.499 231.5,323C 230.263,322.768 229.263,322.268 228.5,321.5C 229.833,321.5 231.167,321.5 232.5,321.5C 243.888,321.983 254.555,319.65 264.5,314.5C 271.423,312.038 278.09,309.038 284.5,305.5 Z"/></g>
<g><path style="opacity:0.973" fill="#d5733f" d="M 363.5,311.5 C 363.5,314.5 363.5,317.5 363.5,320.5C 364.5,320.5 365.5,320.5 366.5,320.5C 366.223,317.552 366.556,314.719 367.5,312C 367.833,311.833 368.167,311.667 368.5,311.5C 369.169,313.631 369.835,315.631 370.5,317.5C 370.5,318.5 370.5,319.5 370.5,320.5C 368.001,321.301 366.001,322.634 364.5,324.5C 364.158,325.338 363.492,325.672 362.5,325.5C 358.418,326.376 354.751,328.043 351.5,330.5C 348.654,330.552 346.32,331.552 344.5,333.5C 343.833,333.5 343.167,333.5 342.5,333.5C 342.953,332.542 343.619,331.708 344.5,331C 343.584,330.722 342.918,330.222 342.5,329.5C 348.96,328.573 351.627,325.073 350.5,319C 348.559,318.257 346.726,318.424 345,319.5C 344.536,318.906 344.369,318.239 344.5,317.5C 346.167,317.5 347.833,317.5 349.5,317.5C 350.5,317.5 351.5,317.5 352.5,317.5C 352.281,316.325 352.614,315.325 353.5,314.5C 356.732,313.076 360.065,312.076 363.5,311.5 Z"/></g>
<g><path style="opacity:1" fill="#5b1b11" d="M 356.5,314.5 C 358.167,314.5 359.833,314.5 361.5,314.5C 361.5,317.167 361.5,319.833 361.5,322.5C 358.739,323.92 355.739,324.587 352.5,324.5C 352.351,323.448 352.517,322.448 353,321.5C 354.925,320.12 356.759,318.62 358.5,317C 356.953,316.667 355.62,317.167 354.5,318.5C 354.167,318.167 353.833,317.833 353.5,317.5C 354.77,316.712 355.77,315.712 356.5,314.5 Z"/></g>
<g><path style="opacity:1" fill="#b92c05" d="M 305.5,307.5 C 304.4,308.605 303.733,309.938 303.5,311.5C 302.325,311.281 301.325,311.614 300.5,312.5C 298.119,315.537 295.786,318.537 293.5,321.5C 293.5,322.167 293.167,322.5 292.5,322.5C 291.833,322.833 291.167,323.167 290.5,323.5C 280.877,324.744 271.21,325.411 261.5,325.5C 254.159,325.666 246.826,325.5 239.5,325C 243.025,324.821 246.359,324.321 249.5,323.5C 259.088,323.503 268.088,321.503 276.5,317.5C 286.813,315.73 296.48,312.397 305.5,307.5 Z"/></g>
<g><path style="opacity:1" fill="#451708" d="M 264.5,314.5 C 254.555,319.65 243.888,321.983 232.5,321.5C 229.35,319.875 226.017,319.542 222.5,320.5C 221.504,326.798 221.17,333.132 221.5,339.5C 220.5,339.5 219.5,339.5 218.5,339.5C 218.5,338.167 218.5,336.833 218.5,335.5C 217.5,335.5 216.5,335.5 215.5,335.5C 215.258,329.574 214.591,323.741 213.5,318C 215.582,315.387 217.582,315.22 219.5,317.5C 221.743,318.474 224.076,318.808 226.5,318.5C 228.833,318.5 231.167,318.5 233.5,318.5C 237.112,319.511 240.779,319.678 244.5,319C 250.976,316.753 257.643,315.253 264.5,314.5 Z"/></g>
<g><path style="opacity:0.192" fill="#fde7c6" d="M 293.5,321.5 C 293.833,321.5 294.167,321.5 294.5,321.5C 296.919,321.805 299.586,321.805 302.5,321.5C 301.5,322.167 300.5,322.833 299.5,323.5C 296.941,323.802 294.607,323.468 292.5,322.5C 293.167,322.5 293.5,322.167 293.5,321.5 Z"/></g>
<g><path style="opacity:0.98" fill="#e0a573" d="M 326.5,316.5 C 324.402,317.935 322.069,319.102 319.5,320C 312.79,321.062 306.124,322.229 299.5,323.5C 300.5,322.833 301.5,322.167 302.5,321.5C 310.314,319.472 318.314,317.805 326.5,316.5 Z"/></g>
<g><path style="opacity:0.333" fill="#eebf9b" d="M 370.5,320.5 C 370.833,320.5 371.167,320.5 371.5,320.5C 369.664,322.588 367.331,323.921 364.5,324.5C 366.001,322.634 368.001,321.301 370.5,320.5 Z"/></g>
<g><path style="opacity:1" fill="#cf5412" d="M 224.5,322.5 C 224.5,322.167 224.5,321.833 224.5,321.5C 225.833,321.5 227.167,321.5 228.5,321.5C 229.263,322.268 230.263,322.768 231.5,323C 237.491,323.499 243.491,323.666 249.5,323.5C 246.359,324.321 243.025,324.821 239.5,325C 246.826,325.5 254.159,325.666 261.5,325.5C 249.042,327.418 236.708,326.418 224.5,322.5 Z"/></g>
<g><path style="opacity:1" fill="#ec882b" d="M 326.5,316.5 C 327.833,316.5 329.167,316.5 330.5,316.5C 328.402,317.935 326.069,319.102 323.5,320C 317.635,320.791 312.301,322.791 307.5,326C 308.793,326.49 310.127,326.657 311.5,326.5C 311.5,327.167 311.5,327.833 311.5,328.5C 308.941,328.198 306.607,328.532 304.5,329.5C 300.991,329.458 297.658,330.124 294.5,331.5C 291.833,331.5 289.167,331.5 286.5,331.5C 288.395,329.902 290.562,328.568 293,327.5C 294.507,328.535 296.007,328.368 297.5,327C 294.399,327.042 292.066,325.875 290.5,323.5C 291.167,323.167 291.833,322.833 292.5,322.5C 294.607,323.468 296.941,323.802 299.5,323.5C 306.124,322.229 312.79,321.062 319.5,320C 322.069,319.102 324.402,317.935 326.5,316.5 Z"/></g>
<g><path style="opacity:1" fill="#611f09" d="M 333.5,325.5 C 332.504,325.414 331.671,325.748 331,326.5C 330.503,328.81 330.337,331.143 330.5,333.5C 329.209,333.737 328.209,333.404 327.5,332.5C 327.5,330.5 327.5,328.5 327.5,326.5C 328.574,324.784 330.241,323.784 332.5,323.5C 333.298,323.957 333.631,324.624 333.5,325.5 Z"/></g>
<g><path style="opacity:1" fill="#511108" d="M 344.5,317.5 C 344.369,318.239 344.536,318.906 345,319.5C 346.726,318.424 348.559,318.257 350.5,319C 351.627,325.073 348.96,328.573 342.5,329.5C 342.167,329.5 341.833,329.5 341.5,329.5C 341.334,325.486 341.501,321.486 342,317.5C 342.977,316.226 343.811,316.226 344.5,317.5 Z"/></g>
<g><path style="opacity:1" fill="#c0764a" d="M 345.5,320.5 C 346.5,320.5 347.5,320.5 348.5,320.5C 349.575,324.938 347.908,326.938 343.5,326.5C 343.253,324.142 343.919,322.142 345.5,320.5 Z"/></g>
<g><path style="opacity:1" fill="#07080a" d="M 171.5,331.5 C 172.629,333.628 172.796,335.961 172,338.5C 165.717,334.28 159.55,329.947 153.5,325.5C 153.215,323.712 153.548,322.045 154.5,320.5C 160.365,323.928 166.032,327.595 171.5,331.5 Z"/></g>
<g><path style="opacity:1" fill="#331910" d="M 223.5,298.5 C 224.766,299.09 226.099,299.59 227.5,300C 225.944,301.599 224.277,303.099 222.5,304.5C 223.262,308.111 223.762,311.778 224,315.5C 224.698,316.691 225.531,317.691 226.5,318.5C 224.076,318.808 221.743,318.474 219.5,317.5C 217.582,315.22 215.582,315.387 213.5,318C 214.591,323.741 215.258,329.574 215.5,335.5C 216.5,335.5 217.5,335.5 218.5,335.5C 218.5,336.833 218.5,338.167 218.5,339.5C 219.5,339.5 220.5,339.5 221.5,339.5C 221.328,340.492 221.662,341.158 222.5,341.5C 224.364,343.014 226.364,344.347 228.5,345.5C 221.22,346.592 216.887,343.592 215.5,336.5C 214.252,335.96 213.085,335.293 212,334.5C 209.393,325.433 209.393,316.433 212,307.5C 213.816,306.671 215.649,305.837 217.5,305C 218.833,304 218.833,303 217.5,302C 219.727,301.059 221.727,299.892 223.5,298.5 Z"/></g>
<g><path style="opacity:1" fill="#cb7742" d="M 304.5,329.5 C 306.607,328.532 308.941,328.198 311.5,328.5C 310.749,333.781 309.416,334.281 307.5,330C 306.552,329.517 305.552,329.351 304.5,329.5 Z"/></g>
<g><path style="opacity:1" fill="#49120b" d="M 325.5,327.5 C 325.5,328.5 325.5,329.5 325.5,330.5C 323.723,330.214 322.056,329.547 320.5,328.5C 319.833,328.833 319.167,329.167 318.5,329.5C 319.376,330.251 320.376,330.751 321.5,331C 320.376,331.249 319.376,331.749 318.5,332.5C 320.167,333.666 321.834,333.666 323.5,332.5C 324.332,333.329 323.999,334.162 322.5,335C 320.071,335.703 317.738,335.537 315.5,334.5C 315.55,327.448 318.883,325.115 325.5,327.5 Z"/></g>
<g><path style="opacity:0.078" fill="#f9d7b7" d="M 362.5,325.5 C 359.355,328.113 355.689,329.779 351.5,330.5C 354.751,328.043 358.418,326.376 362.5,325.5 Z"/></g>
<g><path style="opacity:1" fill="#f8881a" d="M 224.5,322.5 C 236.708,326.418 249.042,327.418 261.5,325.5C 271.21,325.411 280.877,324.744 290.5,323.5C 292.066,325.875 294.399,327.042 297.5,327C 296.007,328.368 294.507,328.535 293,327.5C 290.562,328.568 288.395,329.902 286.5,331.5C 280.969,330.66 275.303,330.66 269.5,331.5C 268.833,332.5 268.167,333.5 267.5,334.5C 268.417,337.758 268.751,341.091 268.5,344.5C 257.152,345.904 245.819,345.738 234.5,344C 231.494,341.841 228.161,340.341 224.5,339.5C 223.192,333.704 223.192,328.037 224.5,322.5 Z"/></g>
<g><path style="opacity:0.2" fill="#f9d7b4" d="M 351.5,330.5 C 349.574,332.293 347.241,333.293 344.5,333.5C 346.32,331.552 348.654,330.552 351.5,330.5 Z"/></g>
<g><path style="opacity:1" fill="#49120c" d="M 311.5,328.5 C 312.497,328.47 313.164,328.97 313.5,330C 312.139,331.927 311.306,334.094 311,336.5C 309.989,337.337 308.822,337.67 307.5,337.5C 306.625,330.881 305.459,330.881 304,337.5C 302.989,338.337 301.822,338.67 300.5,338.5C 300.276,336.213 299.609,334.047 298.5,332C 298.833,331.5 299.167,331 299.5,330.5C 301.989,334.692 303.655,334.359 304.5,329.5C 305.552,329.351 306.552,329.517 307.5,330C 309.416,334.281 310.749,333.781 311.5,328.5 Z"/></g>
<g><path style="opacity:1" fill="#be7459" d="M 327.5,326.5 C 327.5,328.5 327.5,330.5 327.5,332.5C 326.039,331.314 324.705,331.314 323.5,332.5C 321.834,333.666 320.167,333.666 318.5,332.5C 319.376,331.749 320.376,331.249 321.5,331C 320.376,330.751 319.376,330.251 318.5,329.5C 319.167,329.167 319.833,328.833 320.5,328.5C 322.056,329.547 323.723,330.214 325.5,330.5C 325.5,329.5 325.5,328.5 325.5,327.5C 325.842,326.662 326.508,326.328 327.5,326.5 Z"/></g>
<g><path style="opacity:0.161" fill="#acacac" d="M 98.5,332.5 C 100.404,332.738 101.738,333.738 102.5,335.5C 100.596,335.262 99.2623,334.262 98.5,332.5 Z"/></g>
<g><path style="opacity:1" fill="#3b0c04" d="M 275.5,332.5 C 277.903,332.448 280.236,332.781 282.5,333.5C 282.66,335.199 282.494,336.866 282,338.5C 279.075,340.331 276.241,341.997 273.5,343.5C 272.223,342.306 271.556,340.64 271.5,338.5C 271.833,336.833 272.167,335.167 272.5,333.5C 273.298,333.957 273.631,334.624 273.5,335.5C 273.5,336.833 273.5,338.167 273.5,339.5C 278.509,340.5 280.176,338.833 278.5,334.5C 277.5,333.833 276.5,333.167 275.5,332.5 Z"/></g>
<g><path style="opacity:1" fill="#440e05" d="M 286.5,331.5 C 289.167,331.5 291.833,331.5 294.5,331.5C 297.347,334.635 297.014,337.468 293.5,340C 287.867,341.989 284.867,340.156 284.5,334.5C 285.401,333.71 286.068,332.71 286.5,331.5 Z"/></g>
<g><path style="opacity:1" fill="#d48b4e" d="M 289.5,332.5 C 293.071,332.408 294.238,334.074 293,337.5C 291.301,338.406 289.467,338.739 287.5,338.5C 287.253,336.142 287.919,334.142 289.5,332.5 Z"/></g>
<g><path style="opacity:0.043" fill="#fff0d8" d="M 341.5,333.5 C 341.833,333.5 342.167,333.5 342.5,333.5C 343.167,333.5 343.833,333.5 344.5,333.5C 343.22,334.931 341.553,335.598 339.5,335.5C 340.167,334.833 340.833,334.167 341.5,333.5 Z"/></g>
<g><path style="opacity:1" fill="#cd894f" d="M 278.5,334.5 C 280.176,338.833 278.509,340.5 273.5,339.5C 273.5,338.167 273.5,336.833 273.5,335.5C 275.042,334.699 276.708,334.366 278.5,334.5 Z"/></g>
<g><path style="opacity:0.145" fill="#efbd99" d="M 337.5,335.5 C 334.785,337.072 331.785,338.072 328.5,338.5C 330.956,336.132 333.956,335.132 337.5,335.5 Z"/></g>
<g><path style="opacity:1" fill="#08080b" d="M 153.5,331.5 C 159.616,335.11 165.616,338.943 171.5,343C 172.769,345.139 172.769,347.305 171.5,349.5C 165.255,346.086 159.421,342.086 154,337.5C 153.505,335.527 153.338,333.527 153.5,331.5 Z"/></g>
<g><path style="opacity:1" fill="#e8832b" d="M 333.5,325.5 C 333.148,328.428 332.482,331.262 331.5,334C 334.849,334.388 338.183,334.221 341.5,333.5C 340.833,334.167 340.167,334.833 339.5,335.5C 338.833,335.5 338.167,335.5 337.5,335.5C 333.956,335.132 330.956,336.132 328.5,338.5C 325.287,338.19 322.287,338.523 319.5,339.5C 314.727,339.846 310.06,340.679 305.5,342C 301.5,342.667 297.5,342.667 293.5,342C 295.017,340.315 296.684,338.815 298.5,337.5C 302.251,339.497 306.251,339.997 310.5,339C 311.866,337.4 312.866,335.567 313.5,333.5C 314.183,333.863 314.85,334.196 315.5,334.5C 317.738,335.537 320.071,335.703 322.5,335C 323.999,334.162 324.332,333.329 323.5,332.5C 324.705,331.314 326.039,331.314 327.5,332.5C 328.209,333.404 329.209,333.737 330.5,333.5C 330.337,331.143 330.503,328.81 331,326.5C 331.671,325.748 332.504,325.414 333.5,325.5 Z"/></g>
<g><path style="opacity:0.067" fill="#f2bb8c" d="M 328.5,338.5 C 324.702,339.868 320.702,340.868 316.5,341.5C 317.5,340.833 318.5,340.167 319.5,339.5C 322.287,338.523 325.287,338.19 328.5,338.5 Z"/></g>
<g><path style="opacity:1" fill="#662006" d="M 275.5,332.5 C 276.5,333.167 277.5,333.833 278.5,334.5C 276.708,334.366 275.042,334.699 273.5,335.5C 273.631,334.624 273.298,333.957 272.5,333.5C 272.167,335.167 271.833,336.833 271.5,338.5C 271.556,340.64 272.223,342.306 273.5,343.5C 273.5,344.167 273.5,344.833 273.5,345.5C 272.5,345.5 271.5,345.5 270.5,345.5C 270.5,341.167 270.5,336.833 270.5,332.5C 272.167,332.5 273.833,332.5 275.5,332.5 Z"/></g>
<g><path style="opacity:0.992" fill="#da8742" d="M 333.5,325.5 C 333.631,324.624 333.298,323.957 332.5,323.5C 330.241,323.784 328.574,324.784 327.5,326.5C 326.508,326.328 325.842,326.662 325.5,327.5C 318.883,325.115 315.55,327.448 315.5,334.5C 314.85,334.196 314.183,333.863 313.5,333.5C 312.866,335.567 311.866,337.4 310.5,339C 306.251,339.997 302.251,339.497 298.5,337.5C 296.684,338.815 295.017,340.315 293.5,342C 297.5,342.667 301.5,342.667 305.5,342C 310.06,340.679 314.727,339.846 319.5,339.5C 318.5,340.167 317.5,340.833 316.5,341.5C 312.674,343 308.674,343.666 304.5,343.5C 294.198,344.608 283.864,345.274 273.5,345.5C 273.5,344.833 273.5,344.167 273.5,343.5C 276.241,341.997 279.075,340.331 282,338.5C 282.494,336.866 282.66,335.199 282.5,333.5C 283.492,333.328 284.158,333.662 284.5,334.5C 284.867,340.156 287.867,341.989 293.5,340C 297.014,337.468 297.347,334.635 294.5,331.5C 297.658,330.124 300.991,329.458 304.5,329.5C 303.655,334.359 301.989,334.692 299.5,330.5C 299.167,331 298.833,331.5 298.5,332C 299.609,334.047 300.276,336.213 300.5,338.5C 301.822,338.67 302.989,338.337 304,337.5C 305.459,330.881 306.625,330.881 307.5,337.5C 308.822,337.67 309.989,337.337 311,336.5C 311.306,334.094 312.139,331.927 313.5,330C 313.164,328.97 312.497,328.47 311.5,328.5C 311.5,327.833 311.5,327.167 311.5,326.5C 315.01,326.332 318.51,325.999 322,325.5C 325.998,323.757 330.165,322.424 334.5,321.5C 334.768,323.099 334.434,324.432 333.5,325.5 Z"/></g>
<g><path style="opacity:1" fill="#28201a" d="M 219.5,293.5 C 221.028,293.517 221.528,294.184 221,295.5C 217.636,297.255 214.802,299.588 212.5,302.5C 204.366,309.4 195.033,313.9 184.5,316C 186.689,316.677 187.022,317.844 185.5,319.5C 186.116,324.151 186.782,328.818 187.5,333.5C 188.086,333.291 188.586,332.957 189,332.5C 188.953,341.717 189.953,350.717 192,359.5C 192.622,355.971 192.455,352.471 191.5,349C 191.509,347.596 192.009,346.43 193,345.5C 194.864,350.343 196.197,355.343 197,360.5C 197.273,362.329 198.107,363.829 199.5,365C 198.383,368.073 198.216,371.24 199,374.5C 200.974,374.374 203.141,374.208 205.5,374C 207.167,371.667 209.167,369.667 211.5,368C 217.015,368.31 220.348,365.81 221.5,360.5C 230.379,356.953 239.046,352.953 247.5,348.5C 247.833,348.5 248.167,348.5 248.5,348.5C 250.698,348.409 251.031,349.075 249.5,350.5C 247.973,350.427 246.973,351.094 246.5,352.5C 245.292,351.766 243.959,351.433 242.5,351.5C 242.5,352.833 242.5,354.167 242.5,355.5C 241.395,356.6 240.062,357.267 238.5,357.5C 236.973,357.427 235.973,358.094 235.5,359.5C 233.473,359.338 231.473,359.505 229.5,360C 230.684,361.145 230.684,362.312 229.5,363.5C 229.158,364.338 228.492,364.672 227.5,364.5C 225.566,365.11 223.899,366.11 222.5,367.5C 222.027,368.906 221.027,369.573 219.5,369.5C 217.973,369.427 216.973,370.094 216.5,371.5C 212.275,370.731 209.609,372.398 208.5,376.5C 206.973,376.427 205.973,377.094 205.5,378.5C 200.08,382.027 194.08,384.027 187.5,384.5C 186.127,384.657 184.793,384.49 183.5,384C 184.855,360.204 184.522,336.371 182.5,312.5C 187.43,311.871 192.097,310.371 196.5,308C 204.068,302.916 211.735,298.083 219.5,293.5 Z"/></g>
<g><path style="opacity:1" fill="#e78937" d="M 224.5,321.5 C 224.5,321.833 224.5,322.167 224.5,322.5C 223.192,328.037 223.192,333.704 224.5,339.5C 228.161,340.341 231.494,341.841 234.5,344C 245.819,345.738 257.152,345.904 268.5,344.5C 268.751,341.091 268.417,337.758 267.5,334.5C 268.167,333.5 268.833,332.5 269.5,331.5C 275.303,330.66 280.969,330.66 286.5,331.5C 286.068,332.71 285.401,333.71 284.5,334.5C 284.158,333.662 283.492,333.328 282.5,333.5C 280.236,332.781 277.903,332.448 275.5,332.5C 273.833,332.5 272.167,332.5 270.5,332.5C 270.5,336.833 270.5,341.167 270.5,345.5C 264.867,346.213 259.2,346.88 253.5,347.5C 251.833,347.5 250.167,347.5 248.5,347.5C 241.742,347.613 235.075,346.946 228.5,345.5C 226.364,344.347 224.364,343.014 222.5,341.5C 221.874,334.416 222.541,327.75 224.5,321.5 Z"/></g>
<g><path style="opacity:0.206" fill="#f1cea5" d="M 304.5,343.5 C 300.056,344.813 295.389,345.646 290.5,346C 278.155,346.788 265.822,347.621 253.5,348.5C 253.5,348.167 253.5,347.833 253.5,347.5C 259.2,346.88 264.867,346.213 270.5,345.5C 271.5,345.5 272.5,345.5 273.5,345.5C 283.864,345.274 294.198,344.608 304.5,343.5 Z"/></g>
<g><path style="opacity:1" fill="#461b07" d="M 228.5,345.5 C 235.075,346.946 241.742,347.613 248.5,347.5C 248.5,347.833 248.5,348.167 248.5,348.5C 248.167,348.5 247.833,348.5 247.5,348.5C 242.489,348.666 237.489,348.499 232.5,348C 230.68,347.8 229.347,346.966 228.5,345.5 Z"/></g>
<g><path style="opacity:0.996" fill="#9d7d5c" d="M 248.5,348.5 C 248.5,348.167 248.5,347.833 248.5,347.5C 250.167,347.5 251.833,347.5 253.5,347.5C 253.5,347.833 253.5,348.167 253.5,348.5C 252.713,350.104 251.38,350.771 249.5,350.5C 251.031,349.075 250.698,348.409 248.5,348.5 Z"/></g>
<g><path style="opacity:0.929" fill="#5f5d5b" d="M 246.5,352.5 C 245.564,353.974 244.23,354.974 242.5,355.5C 242.5,354.167 242.5,352.833 242.5,351.5C 243.959,351.433 245.292,351.766 246.5,352.5 Z"/></g>
<g><path style="opacity:0.004" fill="#c7c0bf" d="M 249.5,350.5 C 249.027,351.906 248.027,352.573 246.5,352.5C 246.973,351.094 247.973,350.427 249.5,350.5 Z"/></g>
<g><path style="opacity:0.012" fill="#cacac8" d="M 238.5,357.5 C 238.027,358.906 237.027,359.573 235.5,359.5C 235.973,358.094 236.973,357.427 238.5,357.5 Z"/></g>
<g><path style="opacity:0.875" fill="#767372" d="M 235.5,359.5 C 233.853,361.326 231.853,362.66 229.5,363.5C 230.684,362.312 230.684,361.145 229.5,360C 231.473,359.505 233.473,359.338 235.5,359.5 Z"/></g>
<g><path style="opacity:0.012" fill="#d8d7d4" d="M 227.5,364.5 C 226.599,366.727 224.933,367.727 222.5,367.5C 223.899,366.11 225.566,365.11 227.5,364.5 Z"/></g>
<g><path style="opacity:0.004" fill="#d5d5d4" d="M 219.5,369.5 C 219.027,370.906 218.027,371.573 216.5,371.5C 216.973,370.094 217.973,369.427 219.5,369.5 Z"/></g>
<g><path style="opacity:0.782" fill="#736e6c" d="M 216.5,371.5 C 214.178,373.664 211.511,375.331 208.5,376.5C 209.609,372.398 212.275,370.731 216.5,371.5 Z"/></g>
<g><path style="opacity:0.114" fill="#bababa" d="M 163.5,376.5 C 165.027,376.427 166.027,377.094 166.5,378.5C 164.973,378.573 163.973,377.906 163.5,376.5 Z"/></g>
<g><path style="opacity:0.004" fill="#d5d5d5" d="M 208.5,376.5 C 208.027,377.906 207.027,378.573 205.5,378.5C 205.973,377.094 206.973,376.427 208.5,376.5 Z"/></g>
<g><path style="opacity:0.149" fill="#b2b2b2" d="M 166.5,378.5 C 168.027,378.427 169.027,379.094 169.5,380.5C 167.973,380.573 166.973,379.906 166.5,378.5 Z"/></g>
<g><path style="opacity:0.094" fill="#b4b4b4" d="M 169.5,380.5 C 171.027,380.427 172.027,381.094 172.5,382.5C 170.973,382.573 169.973,381.906 169.5,380.5 Z"/></g>
</svg>
