<?xml version="1.0" standalone="no"?>
<!DOCTYPE svg PUBLIC "-//W3C//DTD SVG 20010904//EN"
 "http://www.w3.org/TR/2001/REC-SVG-20010904/DTD/svg10.dtd">
<svg version="1.0" xmlns="http://www.w3.org/2000/svg"
 width="800.000000pt" height="800.000000pt" viewBox="0 0 800.000000 800.000000"
 preserveAspectRatio="xMidYMid meet">

<g transform="translate(0.000000,800.000000) scale(0.100000,-0.100000)"
fill="#000000" stroke="none">
<path d="M4170 7633 c-542 -37 -929 -126 -1272 -292 -305 -148 -389 -213 -823
-641 -192 -190 -372 -362 -400 -381 -27 -20 -72 -44 -100 -54 -151 -54 -291
-152 -390 -272 -88 -107 -176 -296 -189 -409 -5 -46 -5 -46 10 14 22 90 27 71
9 -34 -30 -172 -37 -524 -32 -1747 4 -1054 6 -1205 21 -1302 10 -60 21 -137
25 -170 18 -132 106 -290 226 -411 65 -64 101 -90 181 -131 54 -28 124 -59
154 -68 51 -17 78 -41 361 -320 441 -435 532 -512 774 -661 276 -169 572 -272
970 -338 397 -66 954 -80 1277 -31 100 15 295 62 378 92 76 27 340 159 425
212 112 69 202 143 333 274 134 131 193 203 292 351 305 456 517 1134 594
1906 62 610 38 1561 -50 2039 l-15 84 40 136 c81 279 96 399 67 554 -47 247
-136 390 -420 672 -368 365 -710 605 -1081 756 -206 83 -462 147 -679 168 -97
10 -566 13 -686 4z m26 -814 c158 -83 270 -164 394 -289 64 -63 133 -135 153
-160 37 -44 37 -46 31 -108 -3 -34 -19 -115 -36 -180 -36 -140 -49 -358 -28
-465 15 -79 67 -201 170 -399 138 -267 199 -435 257 -710 25 -122 26 -129 33
-738 8 -664 7 -662 65 -817 21 -57 26 -81 20 -110 -5 -21 -9 -42 -10 -48 0 -5
-4 -21 -8 -35 -3 -14 -21 -92 -38 -175 -92 -436 -287 -890 -506 -1181 -107
-143 -171 -213 -299 -325 -54 -47 -143 -109 -157 -109 -19 0 -164 153 -221
233 -127 178 -182 347 -157 483 15 81 58 165 131 259 64 82 145 231 173 320
42 129 47 203 57 790 5 314 10 776 11 1027 l1 457 25 16 c71 47 125 124 148
210 20 77 20 243 0 320 -19 74 -75 157 -136 203 l-46 34 -7 96 c-8 109 -29
232 -52 311 -26 91 -97 232 -148 294 -71 87 -125 175 -141 231 -33 109 -9 261
62 401 45 90 132 215 148 215 7 0 57 -23 111 -51z m-974 -572 c4 -6 29 -10 57
-10 28 0 51 -3 51 -8 0 -5 -5 -9 -12 -9 -6 0 -3 -7 8 -16 19 -15 19 -16 -1 -8
-128 46 -141 47 -430 48 -383 1 -1077 -23 -1249 -44 -122 -15 -112 -4 14 16
182 28 1547 55 1562 31z m-66 -32 c84 -14 172 -41 162 -50 -2 -3 -19 0 -38 5
-21 6 -38 6 -45 0 -7 -6 -111 -8 -261 -6 -137 2 -343 0 -459 -5 -377 -14 -739
-30 -775 -35 -19 -2 -107 -6 -195 -8 l-160 -4 43 20 c98 44 272 60 852 78 195
6 360 13 365 15 32 11 430 3 511 -10z m3568 -172 c26 -39 51 -123 44 -144 -4
-11 -67 111 -83 160 -11 34 12 24 39 -16z m-798 -25 c44 -30 94 -88 94 -109 0
-32 -105 34 -144 89 -14 21 -26 41 -26 45 0 15 30 5 76 -25z m-2271 -269 c42
-133 55 -241 66 -544 14 -383 6 -2517 -10 -2665 -16 -140 -45 -268 -77 -341
-31 -68 -42 -73 -19 -8 24 66 43 164 50 259 4 47 9 96 12 110 3 14 8 552 10
1195 6 1526 -6 1887 -68 2049 -23 61 -23 68 -3 41 8 -11 25 -54 39 -96z m1474
-58 c41 -102 48 -131 34 -131 -26 0 -80 122 -83 186 -4 78 -3 77 49 -55z
m-2165 68 c15 -12 26 -30 26 -45 0 -31 -14 -31 -28 1 -14 30 -33 32 -57 5 -18
-19 -17 -20 3 -20 48 0 70 -71 36 -118 -33 -48 -94 -11 -94 58 0 61 45 138 81
140 4 0 18 -9 33 -21z m-1429 -29 c0 -8 -6 -14 -14 -12 -22 4 -41 -18 -41 -49
0 -33 15 -39 23 -8 4 16 12 20 33 17 75 -8 64 -138 -11 -138 -30 0 -66 56 -72
113 -4 33 0 48 17 70 24 30 65 34 65 7z m866 -30 c5 0 9 -4 9 -10 0 -5 -10 -9
-21 -7 -12 1 -24 -4 -26 -10 -3 -8 4 -13 16 -13 14 0 23 -8 27 -25 7 -27 -9
-55 -31 -55 -17 0 -40 29 -30 38 4 4 10 1 12 -5 6 -17 30 -16 36 1 7 18 -11
36 -29 29 -9 -3 -14 2 -14 15 0 33 12 54 27 48 8 -3 19 -6 24 -6z m88 -28 c6
-11 6 -24 1 -32 -5 -8 -7 -24 -4 -36 10 -39 -45 -56 -60 -18 -6 16 10 19 19 4
10 -17 25 -11 25 10 0 11 -4 20 -10 20 -5 0 -10 5 -10 10 0 6 7 10 15 10 8 0
15 7 15 16 0 11 -6 15 -20 11 -20 -5 -26 3 -13 16 12 13 32 7 42 -11z m-469
-21 c21 -40 -3 -66 -81 -92 -114 -37 -309 -156 -373 -228 -25 -27 -36 -27 -36
3 0 13 -7 29 -15 36 -14 12 -13 16 7 37 70 75 260 194 383 240 75 27 101 28
115 4z m1066 5 c6 -16 -72 -176 -86 -176 -23 0 -19 26 14 86 20 35 36 66 36
68 0 2 -9 6 -21 9 -12 3 -18 10 -14 16 9 16 65 13 71 -3z m-386 -77 c81 -44
170 -106 170 -119 0 -4 -7 -13 -15 -20 -8 -7 -15 -23 -15 -35 0 -22 -4 -21
-67 22 -38 25 -110 66 -160 90 -101 48 -122 75 -88 113 16 17 20 17 58 4 23
-8 75 -33 117 -55z m1027 29 c-3 -7 -5 -2 -5 12 0 14 2 19 5 13 2 -7 2 -19 0
-25z m-573 -21 c13 -20 -2 -50 -27 -55 -22 -4 -34 43 -17 63 15 18 29 15 44
-8z m-1789 -21 c9 -13 13 -31 9 -41 -5 -12 -4 -16 3 -12 18 11 43 -22 43 -57
0 -23 -9 -42 -26 -60 -31 -30 -37 -31 -54 -11 -14 17 -5 36 14 29 13 -5 46 20
46 34 0 4 -5 14 -10 22 -8 13 -13 13 -31 2 -28 -18 -34 -9 -19 28 10 24 10 34
1 43 -10 9 -16 8 -27 -7 -8 -11 -14 -28 -14 -38 0 -10 -4 -18 -10 -18 -20 0
-10 61 15 85 30 31 40 31 60 1z m2378 11 c3 -8 1 -20 -4 -28 -6 -10 -9 -7 -9
14 0 29 5 35 13 14z m8 -69 c2 -49 9 -114 14 -125 2 -7 12 -10 21 -6 12 4 15
3 10 -5 -4 -7 -13 -12 -21 -12 -10 0 -13 -17 -12 -75 0 -41 -2 -78 -6 -81 -4
-4 -7 33 -8 82 0 49 -4 124 -7 167 -4 42 -4 77 0 77 5 0 8 -10 9 -22z m-2268
-2 c7 -19 -18 -42 -28 -26 -8 13 1 40 14 40 5 0 11 -6 14 -14z m787 -81 c6 -8
9 -22 6 -33 -9 -28 -64 -112 -74 -112 -11 0 -72 102 -72 121 0 27 23 39 76 39
33 0 56 -5 64 -15z m650 -6 c15 -26 9 -59 -12 -72 -37 -24 -66 44 -32 77 21
21 31 20 44 -5z m187 -203 c41 -55 82 -114 91 -132 14 -30 14 -35 -1 -58 -11
-16 -23 -23 -32 -20 -9 4 -42 45 -75 93 -32 47 -86 116 -119 152 -58 64 -59
66 -40 82 10 9 19 27 19 39 0 20 4 18 41 -17 22 -22 75 -85 116 -139z m-1609
132 c31 -31 0 -105 -33 -78 -25 21 -14 90 15 90 3 0 11 -5 18 -12z m-43 -104
c16 -7 -100 -164 -121 -164 -15 0 -34 31 -34 54 0 8 28 52 62 97 l62 82 8 -32
c5 -17 15 -34 23 -37z m2585 36 c0 -5 -7 -7 -15 -4 -8 4 -15 8 -15 10 0 2 7 4
15 4 8 0 15 -4 15 -10z m116 -11 c-21 -10 -44 -23 -51 -29 -9 -7 -16 -6 -24 4
-10 12 -9 13 8 9 12 -3 21 -1 21 6 0 6 7 11 15 11 8 0 15 3 15 8 0 4 12 8 27
9 26 1 25 0 -11 -18z m-140 -17 c-5 -8 -76 -4 -76 4 0 2 18 4 41 4 22 0 38 -4
35 -8z m-1276 -14 c0 -20 -43 -118 -51 -118 -19 0 -17 22 7 74 24 52 44 72 44
44z m-1021 -64 c17 -40 20 -59 13 -66 -8 -8 -14 -5 -21 13 -5 13 -16 40 -25
60 -14 34 -13 49 4 49 3 0 17 -25 29 -56z m2261 46 c11 -7 1 -10 -35 -9 -37 0
-45 3 -30 9 27 12 47 12 65 0z m100 -4 c0 -3 -4 -8 -10 -11 -5 -3 -10 -1 -10
4 0 6 5 11 10 11 6 0 10 -2 10 -4z m-137 -43 c-13 -2 -35 -2 -50 0 -16 2 -5 4
22 4 28 0 40 -2 28 -4z m-1736 -75 c-2 -13 -4 -3 -4 22 0 25 2 35 4 23 2 -13
2 -33 0 -45z m-90 20 c-3 -7 -5 -2 -5 12 0 14 2 19 5 13 2 -7 2 -19 0 -25z
m179 -5 c-11 -11 -17 4 -9 23 7 18 8 18 11 1 2 -10 1 -21 -2 -24z m-256 -9 c0
-8 -4 -14 -10 -14 -5 0 -10 9 -10 21 0 11 5 17 10 14 6 -3 10 -13 10 -21z
m343 6 c-3 -11 -7 -20 -9 -20 -2 0 -4 9 -4 20 0 11 4 20 9 20 5 0 7 -9 4 -20z
m-1089 -36 c16 -19 26 -38 22 -41 -6 -7 -65 55 -66 70 0 15 16 4 44 -29z
m1176 16 c0 -11 -4 -20 -9 -20 -5 0 -7 9 -4 20 3 11 7 20 9 20 2 0 4 -9 4 -20z
m-523 -22 c-3 -7 -5 -2 -5 12 0 14 2 19 5 13 2 -7 2 -19 0 -25z m-687 -48 c13
-27 20 -53 17 -57 -8 -8 -87 27 -87 39 0 11 7 10 40 -7 35 -18 36 -16 10 35
-11 22 -17 40 -12 40 5 0 19 -22 32 -50z m1293 20 c-3 -11 -7 -20 -9 -20 -2 0
-4 9 -4 20 0 11 4 20 9 20 5 0 7 -9 4 -20z m-683 -10 c0 -11 -2 -20 -4 -20 -2
0 -6 9 -9 20 -3 11 -1 20 4 20 5 0 9 -9 9 -20z m1395 -40 c8 -16 15 -31 15
-33 0 -4 -81 -27 -94 -27 -3 0 -6 4 -6 9 0 5 18 12 41 16 29 5 39 11 35 21 -3
8 -9 21 -12 29 -11 27 5 16 21 -15z m-625 15 c0 -11 -32 -67 -36 -63 -6 7 19
68 28 68 4 0 8 -2 8 -5z m-834 -73 c-6 -6 -26 43 -25 61 0 7 7 -3 15 -22 8
-18 13 -36 10 -39z m452 46 c51 -56 52 -144 2 -198 -94 -101 -204 82 -114 190
32 38 80 41 112 8z m-1028 -89 c0 -43 -24 -55 -60 -29 -16 12 -30 29 -30 38 0
12 7 9 29 -12 16 -16 34 -25 40 -22 19 12 12 44 -14 64 -14 11 -25 26 -25 33
0 7 14 0 30 -16 19 -18 30 -39 30 -56z m1476 35 c-4 -9 -9 -15 -11 -12 -3 3
-3 13 1 22 4 9 9 15 11 12 3 -3 3 -13 -1 -22z m-982 -9 c3 -8 1 -15 -3 -15 -5
0 -11 7 -15 15 -3 8 -1 15 3 15 5 0 11 -7 15 -15z m1586 -14 c12 -24 -2 -61
-31 -80 -44 -27 -68 40 -29 79 25 25 46 25 60 1z m-721 -46 c26 -30 31 -44 31
-86 0 -83 -35 -129 -98 -129 -86 0 -118 159 -45 226 38 35 75 31 112 -11z
m-668 15 c65 -35 65 -195 0 -230 -35 -18 -68 -11 -95 20 -79 94 -3 262 95 210z
m850 -27 c-8 -15 -10 -15 -11 -2 0 17 10 32 18 25 2 -3 -1 -13 -7 -23z m-1116
-4 c11 -17 -1 -21 -15 -4 -8 9 -8 15 -2 15 6 0 14 -5 17 -11z m1383 -2 c13
-15 16 -237 3 -237 -6 0 -11 30 -13 68 l-3 67 -98 -95 -98 -95 15 -30 c31 -60
13 -160 -33 -185 -32 -16 -73 -12 -98 12 -13 12 -23 27 -23 34 0 6 30 41 67
77 37 36 66 68 63 70 -3 3 -108 -96 -235 -219 -176 -172 -235 -223 -250 -219
-25 6 -85 -50 -85 -80 0 -24 -26 -65 -42 -65 -21 0 -48 33 -48 60 0 36 -57 91
-87 84 -17 -5 -51 24 -179 149 l-159 156 -14 -29 c-14 -29 -48 -50 -80 -50
-11 0 -33 16 -50 35 -27 31 -31 43 -31 91 0 50 3 59 34 90 43 43 69 43 110 2
19 -19 41 -31 51 -30 26 6 355 -326 355 -358 0 -29 57 -91 76 -83 16 6 19 -13
4 -22 -13 -8 -13 -41 1 -66 10 -20 11 -20 24 -2 17 21 19 59 5 68 -16 10 -12
25 7 25 26 0 73 51 73 79 0 20 72 98 343 368 340 341 367 364 395 330z m-198
-72 c-7 -9 -15 -13 -17 -11 -7 7 7 26 19 26 6 0 6 -6 -2 -15z m-1242 -13 c6
-18 -15 -14 -22 4 -4 10 -1 14 6 12 6 -2 14 -10 16 -16z m1542 -7 c15 -19 16
-94 1 -123 -13 -24 -40 -29 -59 -10 -16 16 -16 120 0 136 16 16 43 15 58 -3z
m-1800 -20 c0 -9 -9 -15 -25 -15 -16 0 -25 -6 -25 -15 0 -9 7 -15 17 -13 21 4
44 -40 37 -70 -7 -26 -40 -38 -59 -22 -17 14 -20 40 -5 40 6 0 10 -4 10 -10 0
-14 28 -12 33 3 8 23 -4 37 -29 31 -22 -6 -24 -3 -24 34 0 37 3 41 28 45 15 2
30 5 35 6 4 0 7 -6 7 -14z m84 -1 c22 -21 21 -102 -1 -126 -34 -38 -63 -10
-63 62 0 71 29 100 64 64z m122 -71 c-7 -7 -26 7 -26 19 0 6 6 6 15 -2 9 -7
13 -15 11 -17z m1390 -89 c-30 -21 -45 -16 -16 6 14 10 27 16 30 13 3 -2 -4
-11 -14 -19z m-1434 -1 c27 -24 22 -36 -7 -17 -14 9 -25 20 -25 25 0 14 11 11
32 -8z m2265 -5 c-3 -8 -6 -5 -6 6 -1 11 2 17 5 13 3 -3 4 -12 1 -19z m14
-118 c5 0 9 -5 9 -11 0 -5 -4 -8 -9 -5 -5 3 -7 -35 -6 -87 4 -115 2 -107 20
-107 9 0 12 -6 9 -15 -5 -12 -10 -13 -20 -4 -9 8 -14 8 -14 1 0 -6 5 -14 11
-17 6 -4 8 -13 5 -21 -3 -8 -1 -14 4 -14 6 0 10 -5 10 -11 0 -5 -4 -7 -10 -4
-10 6 -14 -16 -11 -65 1 -25 0 -90 -3 -187 -1 -29 4 -60 11 -69 9 -13 9 -21
-2 -38 -15 -22 -15 -62 -1 -85 5 -7 5 -16 0 -20 -12 -9 -11 -234 1 -243 6 -5
6 -8 -1 -8 -7 0 -11 -26 -12 -70 0 -53 3 -74 16 -87 16 -16 16 -16 0 -10 -14
5 -17 -1 -16 -34 0 -22 5 -39 12 -39 6 0 4 -5 -4 -10 -13 -8 -12 -10 3 -10 9
0 17 -6 17 -13 0 -7 -9 -13 -20 -13 -20 0 -20 6 -18 701 1 385 3 676 5 648 2
-29 8 -53 14 -53z m-791 30 c0 -5 -7 -10 -16 -10 -8 0 -12 5 -9 10 3 6 10 10
16 10 5 0 9 -4 9 -10z m-1535 -11 c11 -17 -1 -21 -15 -4 -8 9 -8 15 -2 15 6 0
14 -5 17 -11z m1570 -99 c-3 -5 -11 -10 -16 -10 -6 0 -7 5 -4 10 3 6 11 10 16
10 6 0 7 -4 4 -10z m-1600 -10 c3 -5 -1 -10 -9 -10 -9 0 -16 5 -16 10 0 6 4
10 9 10 6 0 13 -4 16 -10z m-15 -122 c0 -13 -23 -5 -28 10 -2 7 2 10 12 6 9
-3 16 -11 16 -16z m1635 12 c-3 -5 -10 -10 -16 -10 -5 0 -9 5 -9 10 0 6 7 10
16 10 8 0 12 -4 9 -10z m-1650 -120 c3 -5 -1 -10 -9 -10 -9 0 -16 5 -16 10 0
6 4 10 9 10 6 0 13 -4 16 -10z m200 -2 c37 -17 55 -57 55 -122 0 -70 -33 -116
-85 -116 -25 0 -40 8 -59 31 -48 56 -34 173 23 204 32 18 34 18 66 3z m1303
-4 c49 -34 66 -112 38 -179 -26 -62 -93 -75 -140 -26 -86 90 4 274 102 205z
m162 6 c0 -5 -7 -10 -15 -10 -8 0 -15 5 -15 10 0 6 7 10 15 10 8 0 15 -4 15
-10z m-1795 -120 c0 -11 -11 -15 -41 -14 -46 1 -67 10 -58 25 10 17 99 6 99
-11z m2010 9 c10 -15 5 -17 -50 -20 -41 -3 -50 0 -53 14 -3 14 5 17 47 17 27
0 53 -5 56 -11z m-1860 -9 c-3 -5 -17 -10 -31 -10 -13 0 -24 5 -24 10 0 6 14
10 31 10 17 0 28 -4 24 -10z m1655 0 c0 -5 -11 -10 -24 -10 -14 0 -28 5 -31
10 -4 6 7 10 24 10 17 0 31 -4 31 -10z m735 -70 c3 -5 1 -10 -4 -10 -6 0 -11
5 -11 10 0 6 2 10 4 10 3 0 8 -4 11 -10z m2236 -11 c70 -17 151 -93 197 -184
53 -105 70 -265 42 -385 -44 -189 -192 -357 -332 -376 l-43 -6 0 203 c0 112
-2 220 -5 239 l-6 35 -8 -40 c-7 -36 -25 -120 -58 -270 -6 -27 -14 -54 -18
-60 -18 -23 -15 -74 5 -90 19 -15 18 -16 -15 -9 -116 22 -224 145 -265 299
-19 76 -19 214 0 290 41 154 155 301 269 344 31 11 67 21 79 20 17 -1 14 -3
-10 -10 -22 -7 -31 -14 -27 -24 4 -8 9 -15 13 -15 18 0 42 -196 41 -325 -1
-109 6 -109 13 0 3 44 17 127 32 185 15 58 28 115 29 127 1 12 8 29 15 37 12
14 10 16 -7 16 -12 0 -24 5 -27 10 -7 11 5 9 86 -11z m-4652 -40 c-16 -10 -23
-4 -14 10 3 6 11 8 17 5 6 -4 5 -9 -3 -15z m1671 1 c0 -5 -4 -10 -9 -10 -6 0
-13 5 -16 10 -3 6 1 10 9 10 9 0 16 -4 16 -10z m1085 -50 c3 -5 -1 -10 -9 -10
-8 0 -18 5 -21 10 -3 6 1 10 9 10 8 0 18 -4 21 -10z m-2735 -60 c0 -5 -7 -10
-15 -10 -8 0 -15 5 -15 10 0 6 7 10 15 10 8 0 15 -4 15 -10z m1640 -12 c0 -13
-23 -5 -28 10 -2 7 2 10 12 6 9 -3 16 -11 16 -16z m-1353 -83 c45 -32 55 -135
18 -191 -52 -80 -155 -25 -155 84 0 98 71 153 137 107z m1125 -14 c27 -24 32
-36 36 -87 3 -50 0 -64 -20 -93 -59 -87 -164 -34 -163 83 1 56 19 91 57 113
35 19 55 16 90 -16z m-1392 0 c0 -12 -20 -25 -27 -18 -7 7 6 27 18 27 5 0 9
-4 9 -9z m1595 -11 c3 -5 -1 -10 -9 -10 -9 0 -16 5 -16 10 0 6 4 10 9 10 6 0
13 -4 16 -10z m-1565 -99 c0 -12 -20 -25 -27 -18 -7 7 6 27 18 27 5 0 9 -4 9
-9z m1525 -12 c11 -17 -1 -21 -15 -4 -8 9 -8 15 -2 15 6 0 14 -5 17 -11z
m-1465 -75 c0 -9 -32 -33 -44 -34 -5 0 -1 9 9 20 18 20 35 26 35 14z m1412
-21 c10 -9 18 -20 18 -25 0 -11 -49 24 -50 35 0 12 12 8 32 -10z m-1591 -94
c3 -30 3 -62 1 -71 -5 -22 -22 -24 -22 -3 0 9 -9 15 -24 15 -14 0 -27 4 -31
10 -9 14 44 112 58 107 7 -2 15 -28 18 -58z m89 42 c5 -11 10 -36 10 -56 0
-45 -15 -75 -38 -75 -30 0 -42 22 -42 75 0 28 5 56 12 63 18 18 46 14 58 -7z
m1630 -40 c0 -16 -9 -40 -20 -54 -26 -33 -25 -37 5 -37 14 0 25 -4 25 -10 0
-11 -73 -14 -83 -4 -4 4 7 25 23 47 17 23 30 47 30 53 0 22 -21 27 -34 8 -9
-11 -15 -13 -20 -6 -4 6 3 21 14 32 27 27 60 12 60 -29z m103 0 c19 -77 -21
-144 -64 -105 -13 12 -19 30 -19 61 0 60 15 85 48 81 20 -2 28 -11 35 -37z
m-1216 -20 c61 -90 -3 -236 -87 -201 -50 21 -77 86 -65 154 17 88 106 116 152
47z m621 23 c74 -52 66 -204 -13 -234 -101 -38 -164 146 -78 226 30 28 59 30
91 8z m-1018 -3 c0 -12 -20 -25 -27 -18 -7 7 6 27 18 27 5 0 9 -4 9 -9z m1345
-22 c11 -17 -1 -21 -15 -4 -8 9 -8 15 -2 15 6 0 14 -5 17 -11z m910 1 c3 -5 1
-10 -4 -10 -6 0 -11 5 -11 10 0 6 2 10 4 10 3 0 8 -4 11 -10z m-2210 -79 c-3
-6 -11 -11 -17 -11 -6 0 -6 6 2 15 14 17 26 13 15 -4z m605 -126 c0 -83 -4
-125 -11 -125 -6 0 -23 13 -39 28 -50 50 -52 145 -5 196 13 14 31 26 40 26 13
0 15 -19 15 -125z m64 95 c35 -42 42 -91 21 -145 -15 -40 -46 -75 -67 -75 -5
0 -8 56 -8 125 0 139 7 151 54 95z m582 3 c-7 -7 -26 7 -26 19 0 6 6 6 15 -2
9 -7 13 -15 11 -17z m-1620 -68 c10 -16 13 -31 8 -42 -6 -15 -8 -14 -12 7 -6
38 -19 46 -42 25 -24 -22 -25 -38 -5 -55 8 -7 15 -17 15 -23 0 -5 -9 -2 -20 8
-26 24 -25 59 2 85 28 26 34 25 54 -5z m432 13 c-2 -6 -10 -14 -16 -16 -7 -2
-10 2 -6 12 7 18 28 22 22 4z m1122 -24 c0 -8 -4 -12 -10 -9 -5 3 -10 13 -10
21 0 8 5 12 10 9 6 -3 10 -13 10 -21z m987 -46 c-3 -7 -5 -2 -5 12 0 14 2 19
5 13 2 -7 2 -19 0 -25z m-2037 5 c0 -14 -19 -38 -25 -32 -8 8 5 39 16 39 5 0
9 -3 9 -7z m980 -34 c0 -6 -4 -7 -10 -4 -5 3 -10 11 -10 16 0 6 5 7 10 4 6 -3
10 -11 10 -16z m-1438 -6 c24 -21 23 -44 -3 -77 -24 -30 -32 -32 -53 -10 -22
21 -20 46 5 78 24 31 27 31 51 9z m528 -23 c-7 -17 -15 -28 -18 -26 -2 3 1 19
8 36 7 17 15 28 18 26 2 -3 -1 -19 -8 -36z m1990 20 c0 -5 -4 -10 -9 -10 -5 0
-12 -12 -14 -27 -3 -23 -4 -21 -6 10 -1 27 3 37 14 37 8 0 15 -4 15 -10z
m-1162 -32 c15 -42 8 -48 -12 -9 -18 34 -19 41 -8 41 4 0 13 -14 20 -32z m554
-28 c7 -11 18 -20 24 -20 7 0 14 -9 17 -20 3 -13 0 -20 -8 -20 -8 0 -18 -8
-24 -17 -15 -27 -32 -4 -38 51 -6 50 7 61 29 26z m-1309 -30 c-3 -11 -9 -20
-14 -20 -11 0 -11 3 -3 24 9 23 23 20 17 -4z m-534 -22 c13 -23 13 -29 -3 -52
-23 -36 -46 -44 -62 -21 -19 26 -17 48 7 79 24 31 38 30 58 -6z m1221 0 c0 -5
-4 -8 -10 -8 -5 0 -10 10 -10 23 0 18 2 19 10 7 5 -8 10 -18 10 -22z m-610
-18 c0 -11 -4 -20 -9 -20 -5 0 -7 9 -4 20 3 11 7 20 9 20 2 0 4 -9 4 -20z
m520 -12 c0 -19 -2 -20 -10 -8 -13 19 -13 30 0 30 6 0 10 -10 10 -22z m669
-14 c24 -31 27 -66 7 -83 -11 -9 -19 -7 -39 11 -34 31 -42 62 -22 82 22 22 30
20 54 -10z m-1108 -27 c-8 -8 -11 -5 -11 9 0 27 14 41 18 19 2 -9 -1 -22 -7
-28z m176 -9 c-2 -13 -4 -5 -4 17 -1 22 1 32 4 23 2 -10 2 -28 0 -40z m183 10
c0 -5 -4 -8 -10 -8 -5 0 -10 10 -10 23 0 18 2 19 10 7 5 -8 10 -18 10 -22z
m-650 13 c0 -8 -40 -112 -47 -120 -2 -3 -8 0 -13 5 -12 12 33 124 50 124 5 0
10 -4 10 -9z m377 -28 c-3 -10 -5 -4 -5 12 0 17 2 24 5 18 2 -7 2 -21 0 -30z
m-752 -9 c-23 -30 -26 -40 -17 -55 14 -22 15 -29 4 -29 -5 0 -14 11 -22 24
-11 22 -9 28 15 60 15 20 32 36 37 36 6 0 -2 -16 -17 -36z m935 14 c0 -19 -2
-20 -10 -8 -13 19 -13 30 0 30 6 0 10 -10 10 -22z m419 -37 c22 -53 27 -81 12
-81 -10 0 -60 112 -54 123 10 16 22 4 42 -42z m338 -75 c-4 -9 -11 -16 -17
-16 -15 0 -24 26 -16 47 6 15 8 15 23 1 9 -9 13 -24 10 -32z m-1607 -25 c-1
-13 -3 -13 -15 3 -19 26 -19 42 0 26 8 -7 15 -20 15 -29z m734 -23 c8 -13 8
-23 -1 -38 -8 -12 -9 -21 -3 -25 6 -3 10 -17 10 -30 0 -42 -60 -56 -74 -18 -8
21 1 30 16 15 18 -18 38 -14 38 7 0 11 -9 21 -22 25 l-23 6 25 20 c21 16 23
21 12 32 -11 11 -16 10 -27 -5 -9 -12 -15 -14 -20 -7 -10 16 15 41 38 38 11
-2 25 -11 31 -20z m92 5 c19 -26 18 -102 -3 -125 -36 -40 -63 -10 -63 69 0 68
35 97 66 56z m699 -13 c8 -16 15 -38 15 -48 0 -22 -27 -49 -38 -38 -4 4 1 12
11 17 22 13 21 28 -3 59 -14 18 -22 22 -30 14 -14 -14 -1 -47 16 -40 8 3 14 1
14 -4 0 -6 -9 -10 -20 -10 -24 0 -38 44 -20 65 19 23 38 18 55 -15z m-1433 3
c21 -19 23 -42 6 -78 -13 -29 -38 -32 -62 -7 -15 18 -15 21 6 60 13 23 25 42
27 42 3 0 13 -7 23 -17z m2575 -29 c-3 -3 -12 -4 -19 -1 -8 3 -5 6 6 6 11 1
17 -2 13 -5z m-1212 -54 c14 -27 22 -50 17 -50 -5 0 -16 16 -25 36 -10 19 -22
32 -27 29 -11 -7 -14 18 -3 28 10 11 11 10 38 -43z m-1319 -14 c-29 -69 5 -89
37 -22 26 54 33 37 8 -18 -21 -50 -31 -55 -55 -30 -21 20 -20 45 1 89 22 46
29 29 9 -19z m119 -100 c-4 -31 -11 -53 -16 -51 -4 3 -6 12 -3 20 3 7 -3 18
-14 24 -15 8 -22 8 -25 -2 -2 -6 -8 -9 -12 -5 -4 4 7 26 25 48 41 52 54 42 45
-34z m1118 52 c6 -19 -3 -38 -18 -38 -7 0 -15 6 -18 13 -6 18 3 37 18 37 7 0
15 -6 18 -12z m-1396 -73 c2 -38 0 -90 -5 -115 -6 -39 -11 -45 -32 -45 -37 0
-41 41 -6 55 23 8 26 15 26 60 0 55 -5 58 -59 39 l-31 -11 0 -83 c0 -86 -12
-114 -45 -101 -25 9 -19 55 10 66 24 9 25 13 25 98 l0 89 43 10 c68 17 69 16
74 -62z m1713 53 c79 -54 103 -178 53 -270 -61 -111 -180 -103 -234 17 -20 44
-25 100 -9 110 6 3 10 -2 10 -12 0 -75 63 -163 118 -163 63 0 112 67 112 152
0 73 -25 117 -83 147 -46 23 -54 41 -18 41 10 0 33 -10 51 -22z m-443 -12
c-26 -19 -21 -35 11 -33 25 2 27 -1 27 -33 0 -26 -5 -36 -19 -38 -10 -2 -23 2
-30 8 -8 9 -6 11 12 5 16 -4 24 -2 28 10 10 24 -11 41 -30 25 -13 -10 -17 -8
-26 16 -10 24 -8 30 12 45 12 10 25 15 28 12 3 -2 -3 -10 -13 -17z m-917 -57
c-10 -36 -9 -44 4 -51 26 -15 18 -29 -9 -16 -29 13 -29 13 -14 59 6 19 13 40
15 48 3 8 7 11 10 8 3 -3 0 -24 -6 -48z m1358 7 c36 -41 46 -81 37 -138 -9
-53 -52 -98 -93 -98 -33 0 -82 34 -82 56 0 19 6 18 40 -7 35 -27 72 -20 97 18
33 51 15 145 -31 159 -29 9 -47 25 -40 35 11 19 43 8 72 -25z m-498 -28 c0
-29 -5 -60 -11 -68 -8 -11 -9 1 -5 44 l6 58 -27 -6 c-27 -6 -27 -6 -9 9 36 27
46 19 46 -37z m-784 16 c-4 -15 -10 -39 -13 -55 -3 -16 -10 -29 -15 -29 -5 0
-7 8 -4 18 3 9 8 34 12 55 3 20 11 37 16 37 6 0 7 -11 4 -26z m68 -7 c28 -20
18 -61 -16 -65 -16 -2 -28 -9 -28 -18 0 -8 -4 -14 -8 -14 -4 0 -3 25 2 55 11
57 19 64 50 42z m636 -2 c6 -8 9 -19 6 -24 -4 -6 -1 -19 6 -31 10 -15 10 -25
2 -38 -13 -20 -45 -23 -52 -4 -2 7 4 11 19 10 28 -4 38 22 11 29 -18 4 -19 8
-9 24 14 23 3 36 -18 19 -18 -15 -20 1 -3 18 16 16 23 15 38 -3z m560 -22 c24
-31 25 -103 1 -111 -10 -3 -11 3 -6 27 8 36 -15 81 -40 81 -16 0 -20 12 -8 23
13 14 32 6 53 -20z m-1116 -15 c12 -58 14 -98 5 -98 -5 0 -9 6 -9 14 0 21 -28
27 -39 8 -20 -36 -20 -3 0 46 23 56 36 65 43 30z m4054 -252 c-25 -81 -158
-189 -158 -127 0 54 60 140 119 170 44 23 55 11 39 -43z m-4481 -322 c-3 -3
-12 -4 -19 -1 -8 3 -5 6 6 6 11 1 17 -2 13 -5z m86 -11 c-13 -2 -33 -2 -45 0
-13 2 -3 4 22 4 25 0 35 -2 23 -4z m145 -10 c-21 -2 -57 -2 -80 0 -24 2 -7 4
37 4 44 0 63 -2 43 -4z m752 -22 c329 -12 457 -19 355 -20 -143 -1 -965 25
-1040 33 -81 8 222 3 685 -13z m647 3 c-3 -3 -12 -4 -19 -1 -8 3 -5 6 6 6 11
1 17 -2 13 -5z m-59 -11 c-10 -2 -28 -2 -40 0 -13 2 -5 4 17 4 22 1 32 -1 23
-4z"/>
<path d="M2880 5650 c-9 -18 -8 -25 6 -41 22 -24 46 -7 42 30 -4 33 -33 39
-48 11z"/>
<path d="M1512 5633 c-12 -22 3 -66 20 -61 22 8 34 37 22 55 -15 24 -31 27
-42 6z"/>
<path d="M3120 5565 c0 -8 5 -15 10 -15 6 0 10 7 10 15 0 8 -4 15 -10 15 -5 0
-10 -7 -10 -15z"/>
<path d="M2150 5400 c0 -10 49 -90 55 -90 4 0 55 91 55 96 0 2 -25 4 -55 4
-31 0 -55 -4 -55 -10z"/>
<path d="M3257 4882 c-20 -21 -22 -38 -6 -47 14 -9 49 24 49 47 0 23 -22 23
-43 0z"/>
<path d="M2660 4494 c-258 -256 -340 -343 -338 -358 2 -12 10 -21 20 -21 9 0
168 148 353 329 286 280 336 333 333 354 -2 14 -8 27 -15 29 -6 2 -165 -148
-353 -333z"/>
<path d="M1740 4465 c-6 -8 -9 -23 -5 -34 8 -25 313 -321 331 -321 7 0 16 10
19 21 6 18 -17 46 -136 166 -172 173 -192 189 -209 168z"/>
<path d="M3101 4726 c-17 -21 -10 -91 9 -91 18 0 26 65 12 90 -7 14 -10 15
-21 1z"/>
<path d="M1387 4704 c-11 -12 -8 -82 4 -90 17 -10 30 17 27 55 -3 33 -17 49
-31 35z"/>
<path d="M1301 3349 c-14 -40 -14 -39 4 -39 10 0 15 11 15 35 0 43 -5 44 -19
4z"/>
<path d="M1386 3374 c-9 -24 -7 -67 4 -84 9 -13 11 -13 20 0 17 26 10 100 -10
100 -4 0 -11 -7 -14 -16z"/>
<path d="M3105 3350 c-10 -30 3 -92 18 -87 16 5 16 99 0 104 -6 2 -14 -6 -18
-17z"/>
<path d="M1226 3038 c-11 -15 -12 -26 -5 -40 13 -25 25 -23 45 7 13 20 14 28
4 40 -17 20 -26 19 -44 -7z"/>
<path d="M3161 2985 c0 -11 4 -28 8 -38 6 -16 9 -17 18 -5 9 10 7 19 -7 38
-18 23 -20 23 -19 5z"/>
<path d="M1291 2941 c-15 -28 -14 -61 3 -61 20 0 38 26 34 51 -4 30 -24 35
-37 10z"/>
<path d="M3094 2895 c-7 -17 21 -65 37 -65 18 0 21 30 5 55 -19 28 -34 32 -42
10z"/>
<path d="M2237 2704 c-11 -12 -8 -92 4 -100 26 -16 40 58 16 90 -7 9 -16 14
-20 10z"/>
<path d="M1506 2671 c-14 -25 -15 -36 -5 -47 24 -30 58 30 34 62 -11 16 -14
15 -29 -15z"/>
<path d="M1677 2543 c-10 -9 -8 -33 2 -33 5 0 11 9 14 20 5 20 -3 26 -16 13z"/>
<path d="M1893 2434 c-9 -23 11 -38 26 -20 13 16 7 36 -10 36 -5 0 -12 -7 -16
-16z"/>
<path d="M1976 2394 c-9 -22 -8 -24 9 -24 8 0 15 9 15 20 0 24 -15 27 -24 4z"/>
<path d="M982 5500 c0 -19 2 -27 5 -17 2 9 2 25 0 35 -3 9 -5 1 -5 -18z"/>
<path d="M973 5405 c0 -22 2 -30 4 -17 2 12 2 30 0 40 -3 9 -5 -1 -4 -23z"/>
<path d="M964 5155 c0 -88 2 -123 3 -77 2 46 2 118 0 160 -1 42 -3 5 -3 -83z"/>
<path d="M953 4725 c0 -27 2 -38 4 -22 2 15 2 37 0 50 -2 12 -4 0 -4 -28z"/>
<path d="M954 4430 c0 -135 2 -190 3 -122 2 67 2 177 0 245 -1 67 -3 12 -3
-123z"/>
<path d="M961 2934 c0 -11 3 -14 6 -6 3 7 2 16 -1 19 -3 4 -6 -2 -5 -13z"/>
<path d="M975 2565 c3 -44 12 -105 20 -135 10 -40 13 -44 8 -15 -3 22 -12 83
-19 135 l-13 95 4 -80z"/>
</g>
</svg>
