<?xml version="1.0" encoding="UTF-8"?>
<!DOCTYPE svg PUBLIC "-//W3C//DTD SVG 1.1//EN" "http://www.w3.org/Graphics/SVG/1.1/DTD/svg11.dtd">
<svg xmlns="http://www.w3.org/2000/svg" version="1.1" width="516px" height="484px" style="shape-rendering:geometricPrecision; text-rendering:geometricPrecision; image-rendering:optimizeQuality; fill-rule:evenodd; clip-rule:evenodd" xmlns:xlink="http://www.w3.org/1999/xlink">
<g><path style="opacity:0.032" fill="#f9f9f9" d="M 337.5,30.5 C 339.134,29.8389 340.967,29.5056 343,29.5C 346.451,29.4205 349.618,30.0872 352.5,31.5C 347.527,30.8363 342.527,30.5029 337.5,30.5 Z"/></g>
<g><path style="opacity:0.471" fill="#c1c1c1" d="M 162.5,31.5 C 160.491,33.0652 158.157,34.0652 155.5,34.5C 157.32,32.5516 159.654,31.5516 162.5,31.5 Z"/></g>
<g><path style="opacity:0.2" fill="#c3c3c3" d="M 352.5,31.5 C 355.649,31.4152 358.316,32.4152 360.5,34.5C 357.557,34.0198 354.89,33.0198 352.5,31.5 Z"/></g>
<g><path style="opacity:0.243" fill="#bfbfbf" d="M 155.5,34.5 C 154.486,35.6737 153.153,36.3404 151.5,36.5C 152.287,34.8958 153.62,34.2291 155.5,34.5 Z"/></g>
<g><path style="opacity:1" fill="#4c4c4d" d="M 337.5,30.5 C 342.527,30.5029 347.527,30.8363 352.5,31.5C 354.89,33.0198 357.557,34.0198 360.5,34.5C 363.849,35.1695 366.516,36.8361 368.5,39.5C 368.833,40.5 369.5,41.1667 370.5,41.5C 371.492,41.3284 372.158,41.6618 372.5,42.5C 373.259,44.4358 374.259,46.2691 375.5,48C 375.164,49.0299 374.497,49.5299 373.5,49.5C 367.937,45.1276 361.937,41.2942 355.5,38C 349.575,36.1796 343.575,34.6796 337.5,33.5C 336.438,32.5754 336.438,31.5754 337.5,30.5 Z"/></g>
<g><path style="opacity:0.486" fill="#aeaeae" d="M 151.5,36.5 C 151.027,37.9063 150.027,38.573 148.5,38.5C 148.973,37.0937 149.973,36.427 151.5,36.5 Z"/></g>
<g><path style="opacity:0.18" fill="#cdcdcd" d="M 148.5,38.5 C 148.167,39.5 147.5,40.1667 146.5,40.5C 146.5,39.1667 147.167,38.5 148.5,38.5 Z"/></g>
<g><path style="opacity:1" fill="#474747" d="M 141.5,44.5 C 142.873,42.7935 144.539,41.4602 146.5,40.5C 147.5,40.1667 148.167,39.5 148.5,38.5C 150.027,38.573 151.027,37.9063 151.5,36.5C 153.153,36.3404 154.486,35.6737 155.5,34.5C 158.157,34.0652 160.491,33.0652 162.5,31.5C 162.833,31.5 163.167,31.5 163.5,31.5C 167.819,30.7512 172.152,30.5845 176.5,31C 177.624,31.2492 178.624,31.7492 179.5,32.5C 179.167,32.8333 178.833,33.1667 178.5,33.5C 165.033,34.1486 153.7,39.3153 144.5,49C 143.207,49.49 141.873,49.6567 140.5,49.5C 140.629,47.7839 140.962,46.1172 141.5,44.5 Z"/></g>
<g><path style="opacity:0.004" fill="#dedede" d="M 368.5,39.5 C 369.833,39.5 370.5,40.1667 370.5,41.5C 369.5,41.1667 368.833,40.5 368.5,39.5 Z"/></g>
<g><path style="opacity:1" fill="#f6f7fa" d="M 201.5,38.5 C 199.323,38.4139 197.323,37.7472 195.5,36.5C 195.167,36.8333 194.833,37.1667 194.5,37.5C 198.12,39.7466 201.787,41.9133 205.5,44C 206.59,46.6517 208.59,48.1517 211.5,48.5C 213.607,50.7267 215.94,52.7267 218.5,54.5C 220.979,57.137 222.812,60.137 224,63.5C 227.207,64.2546 228.707,66.2546 228.5,69.5C 223.707,69.5441 221.04,71.8774 220.5,76.5C 217.956,77.4679 215.789,79.1345 214,81.5C 213.333,80.8333 212.667,80.1667 212,79.5C 211.46,81.1346 211.96,82.4679 213.5,83.5C 212.472,85.3615 210.972,86.6948 209,87.5C 204.812,80.9801 199.312,75.8135 192.5,72C 190.888,71.2797 189.388,71.4464 188,72.5C 186.199,69.8366 183.699,68.0033 180.5,67C 179.366,65.984 179.699,65.3173 181.5,65C 170.806,64.4479 160.139,65.4479 149.5,68C 147.413,68.7922 145.579,69.9588 144,71.5C 143.692,70.6919 143.192,70.0253 142.5,69.5C 139.911,72.1046 137.411,72.1046 135,69.5C 133.544,65.1708 133.377,60.8375 134.5,56.5C 134.03,55.537 133.363,55.537 132.5,56.5C 134.353,51.6462 137.353,47.6462 141.5,44.5C 140.962,46.1172 140.629,47.7839 140.5,49.5C 141.873,49.6567 143.207,49.49 144.5,49C 153.7,39.3153 165.033,34.1486 178.5,33.5C 178.833,33.1667 179.167,32.8333 179.5,32.5C 178.624,31.7492 177.624,31.2492 176.5,31C 172.152,30.5845 167.819,30.7512 163.5,31.5C 174.722,28.6922 185.722,29.8589 196.5,35C 198.584,35.6972 200.251,36.8639 201.5,38.5 Z"/></g>
<g><path style="opacity:1" fill="#f6f7fa" d="M 337.5,30.5 C 336.438,31.5754 336.438,32.5754 337.5,33.5C 343.575,34.6796 349.575,36.1796 355.5,38C 361.937,41.2942 367.937,45.1276 373.5,49.5C 375.151,50.547 376.817,51.7137 378.5,53C 378.167,53.3333 377.833,53.6667 377.5,54C 378.448,54.4828 379.448,54.6495 380.5,54.5C 381.368,58.8076 381.534,63.141 381,67.5C 379.333,68.1667 377.667,68.8333 376,69.5C 373.596,67.0452 370.762,65.2118 367.5,64C 358.989,59.8933 349.989,58.5599 340.5,60C 338.919,60.7065 337.419,61.5399 336,62.5C 335.692,61.6919 335.192,61.0253 334.5,60.5C 331.833,62.1667 329.167,63.8333 326.5,65.5C 324.477,63.8267 322.144,63.1601 319.5,63.5C 319.785,65.288 319.452,66.9547 318.5,68.5C 314.804,71.2068 311.137,73.8735 307.5,76.5C 306.784,78.482 305.617,80.1487 304,81.5C 301.213,79.4735 299.547,77.1402 299,74.5C 298.667,75.1667 298.333,75.8333 298,76.5C 296.5,74.3333 294.667,72.5 292.5,71C 289.972,72.4415 287.305,72.9415 284.5,72.5C 284.446,71.3131 284.113,69.9798 283.5,68.5C 282.817,68.8627 282.15,69.1961 281.5,69.5C 291.651,52.524 305.984,40.3573 324.5,33C 328.688,31.3693 333.021,30.5359 337.5,30.5 Z"/></g>
<g><path style="opacity:1" fill="#eff0f4" d="M 372.5,42.5 C 377.647,46.9795 381.647,52.3128 384.5,58.5C 382.991,57.1405 382.324,57.6405 382.5,60C 383.536,65.1386 383.703,70.3053 383,75.5C 381.391,78.7596 379.058,80.4262 376,80.5C 375.5,81 375,81.5 374.5,82C 371.355,82.1112 368.355,82.2779 365.5,82.5C 362.167,81.5 358.833,80.5 355.5,79.5C 350.639,81.5769 349.306,80.0769 351.5,75C 350.095,73.7308 348.429,73.2308 346.5,73.5C 340.458,70.3968 335.124,71.3968 330.5,76.5C 329.434,75.3079 328.601,75.6412 328,77.5C 327.192,80.9483 326.859,84.2816 327,87.5C 324.592,89.9561 321.759,91.7894 318.5,93C 316.197,96.6406 313.031,99.1406 309,100.5C 308.508,99.451 308.674,98.451 309.5,97.5C 307.667,95.8507 306,94.1841 304.5,92.5C 302.298,87.7676 299.798,83.101 297,78.5C 295.385,77.6138 293.885,76.6138 292.5,75.5C 288.623,73.6903 285.457,74.6903 283,78.5C 282.301,91.7354 285.301,104.069 292,115.5C 294.436,119.45 297.936,121.45 302.5,121.5C 305.097,121.721 305.097,122.221 302.5,123C 299.428,123.456 296.428,123.456 293.5,123C 295.763,124.617 297.763,126.45 299.5,128.5C 295.328,126.842 291.828,124.175 289,120.5C 280.475,107.4 276.808,93.0668 278,77.5C 278.875,74.5989 280.042,71.9323 281.5,69.5C 282.15,69.1961 282.817,68.8627 283.5,68.5C 284.113,69.9798 284.446,71.3131 284.5,72.5C 287.305,72.9415 289.972,72.4415 292.5,71C 294.667,72.5 296.5,74.3333 298,76.5C 298.333,75.8333 298.667,75.1667 299,74.5C 299.547,77.1402 301.213,79.4735 304,81.5C 305.617,80.1487 306.784,78.482 307.5,76.5C 311.137,73.8735 314.804,71.2068 318.5,68.5C 319.452,66.9547 319.785,65.288 319.5,63.5C 322.144,63.1601 324.477,63.8267 326.5,65.5C 329.167,63.8333 331.833,62.1667 334.5,60.5C 335.192,61.0253 335.692,61.6919 336,62.5C 337.419,61.5399 338.919,60.7065 340.5,60C 349.989,58.5599 358.989,59.8933 367.5,64C 370.762,65.2118 373.596,67.0452 376,69.5C 377.667,68.8333 379.333,68.1667 381,67.5C 381.534,63.141 381.368,58.8076 380.5,54.5C 379.448,54.6495 378.448,54.4828 377.5,54C 377.833,53.6667 378.167,53.3333 378.5,53C 376.817,51.7137 375.151,50.547 373.5,49.5C 374.497,49.5299 375.164,49.0299 375.5,48C 374.259,46.2691 373.259,44.4358 372.5,42.5 Z"/></g>
<g><path style="opacity:1" fill="#323233" d="M 346.5,73.5 C 347.623,75.9787 347.623,78.312 346.5,80.5C 346.631,79.7611 346.464,79.0944 346,78.5C 344.467,78.9437 342.967,79.277 341.5,79.5C 340.5,78.8333 339.5,78.1667 338.5,77.5C 335.329,78.1697 331.996,79.1697 328.5,80.5C 328.733,78.9382 329.4,77.6049 330.5,76.5C 335.124,71.3968 340.458,70.3968 346.5,73.5 Z"/></g>
<g><path style="opacity:0.854" fill="#ebebee" d="M 201.5,38.5 C 217.15,46.6508 228.984,58.6508 237,74.5C 239.74,93.4374 234.907,110.104 222.5,124.5C 222.719,123.325 222.386,122.325 221.5,121.5C 219.133,123.395 216.466,123.895 213.5,123C 212.262,122.31 212.262,121.81 213.5,121.5C 217.033,121.324 220.033,119.991 222.5,117.5C 229.815,105.874 233.315,93.2077 233,79.5C 231.605,77.8603 230.105,76.3603 228.5,75C 226.613,74.2204 224.946,74.3871 223.5,75.5C 222.391,75.5569 221.391,75.8902 220.5,76.5C 221.04,71.8774 223.707,69.5441 228.5,69.5C 228.707,66.2546 227.207,64.2546 224,63.5C 222.812,60.137 220.979,57.137 218.5,54.5C 215.94,52.7267 213.607,50.7267 211.5,48.5C 208.59,48.1517 206.59,46.6517 205.5,44C 201.787,41.9133 198.12,39.7466 194.5,37.5C 194.833,37.1667 195.167,36.8333 195.5,36.5C 197.323,37.7472 199.323,38.4139 201.5,38.5 Z"/></g>
<g><path style="opacity:1" fill="#e1e2e6" d="M 213.5,87.5 C 211.23,92.978 209.563,98.6446 208.5,104.5C 207.607,109.679 206.774,115.012 206,120.5C 196.028,123.938 185.861,124.438 175.5,122C 160.467,116.244 147.634,107.41 137,95.5C 136.5,96 136,96.5 135.5,97C 136.273,99.5972 137.273,102.097 138.5,104.5C 132.795,98.7525 129.462,91.7525 128.5,83.5C 128.177,79.774 128.511,76.1073 129.5,72.5C 130.9,76.5332 132.4,80.5332 134,84.5C 134.667,80.5 135.333,80.5 136,84.5C 138.111,87.0531 140.444,89.3865 143,91.5C 143.333,91.1667 143.667,90.8333 144,90.5C 147.863,94.1465 152.53,96.1465 158,96.5C 159.144,96.0889 160.311,95.7556 161.5,95.5C 165.929,97.7758 170.596,99.4425 175.5,100.5C 175.5,101.5 175.5,102.5 175.5,103.5C 178.278,103.022 180.278,104.022 181.5,106.5C 184.284,107.392 186.95,108.558 189.5,110C 189.93,110.92 190.264,111.753 190.5,112.5C 191.386,111.675 191.719,110.675 191.5,109.5C 194.167,109.167 196.833,108.833 199.5,108.5C 199.596,112.311 200.262,112.311 201.5,108.5C 202.333,109.5 203.167,110.5 204,111.5C 205.273,105.273 206.773,99.4396 208.5,94C 209.598,91.2585 211.265,89.0919 213.5,87.5 Z"/></g>
<g><path style="opacity:1" fill="#e7e7eb" d="M 384.5,58.5 C 387.38,64.0305 388.713,70.0305 388.5,76.5C 388.333,79.1667 388.167,81.8333 388,84.5C 387.422,87.5722 386.255,90.2388 384.5,92.5C 384.815,90.7741 384.981,89.1075 385,87.5C 380.264,89.2373 377.264,92.5706 376,97.5C 365.33,108.252 352.83,116.085 338.5,121C 330.826,122.891 323.16,122.891 315.5,121C 311.763,119.621 309.096,117.788 307.5,115.5C 307.972,107.619 306.972,99.9519 304.5,92.5C 306,94.1841 307.667,95.8507 309.5,97.5C 308.674,98.451 308.508,99.451 309,100.5C 313.031,99.1406 316.197,96.6406 318.5,93C 321.759,91.7894 324.592,89.9561 327,87.5C 326.859,84.2816 327.192,80.9483 328,77.5C 328.601,75.6412 329.434,75.3079 330.5,76.5C 329.4,77.6049 328.733,78.9382 328.5,80.5C 328.751,88.2335 332.417,90.4001 339.5,87C 342.331,85.3343 344.664,83.1676 346.5,80.5C 347.623,78.312 347.623,75.9787 346.5,73.5C 348.429,73.2308 350.095,73.7308 351.5,75C 349.306,80.0769 350.639,81.5769 355.5,79.5C 358.833,80.5 362.167,81.5 365.5,82.5C 368.355,82.2779 371.355,82.1112 374.5,82C 375,81.5 375.5,81 376,80.5C 379.058,80.4262 381.391,78.7596 383,75.5C 383.703,70.3053 383.536,65.1386 382.5,60C 382.324,57.6405 382.991,57.1405 384.5,58.5 Z"/></g>
<g><path style="opacity:1" fill="#1a1a1a" d="M 346.5,80.5 C 344.664,83.1676 342.331,85.3343 339.5,87C 332.417,90.4001 328.751,88.2335 328.5,80.5C 331.996,79.1697 335.329,78.1697 338.5,77.5C 339.5,78.1667 340.5,78.8333 341.5,79.5C 342.967,79.277 344.467,78.9437 346,78.5C 346.464,79.0944 346.631,79.7611 346.5,80.5 Z"/></g>
<g><path style="opacity:1" fill="#b0b1b5" d="M 292.5,75.5 C 290.089,75.1367 288.589,76.1367 288,78.5C 287.161,93.327 291.327,106.494 300.5,118C 301.745,118.791 303.078,119.291 304.5,119.5C 303.833,120.167 303.167,120.833 302.5,121.5C 297.936,121.45 294.436,119.45 292,115.5C 285.301,104.069 282.301,91.7354 283,78.5C 285.457,74.6903 288.623,73.6903 292.5,75.5 Z"/></g>
<g><path style="opacity:1" fill="#eaebef" d="M 220.5,76.5 C 217.891,80.0668 215.557,83.7335 213.5,87.5C 211.265,89.0919 209.598,91.2585 208.5,94C 206.773,99.4396 205.273,105.273 204,111.5C 203.167,110.5 202.333,109.5 201.5,108.5C 200.262,112.311 199.596,112.311 199.5,108.5C 196.833,108.833 194.167,109.167 191.5,109.5C 191.719,110.675 191.386,111.675 190.5,112.5C 190.264,111.753 189.93,110.92 189.5,110C 186.95,108.558 184.284,107.392 181.5,106.5C 180.278,104.022 178.278,103.022 175.5,103.5C 175.5,102.5 175.5,101.5 175.5,100.5C 170.596,99.4425 165.929,97.7758 161.5,95.5C 160.311,95.7556 159.144,96.0889 158,96.5C 152.53,96.1465 147.863,94.1465 144,90.5C 143.667,90.8333 143.333,91.1667 143,91.5C 140.444,89.3865 138.111,87.0531 136,84.5C 135.333,80.5 134.667,80.5 134,84.5C 132.4,80.5332 130.9,76.5332 129.5,72.5C 128.511,76.1073 128.177,79.774 128.5,83.5C 127.534,81.2082 126.867,78.7082 126.5,76C 127.462,71.5237 128.295,67.0237 129,62.5C 129.716,60.1209 130.883,58.1209 132.5,56.5C 133.363,55.537 134.03,55.537 134.5,56.5C 133.377,60.8375 133.544,65.1708 135,69.5C 137.411,72.1046 139.911,72.1046 142.5,69.5C 143.192,70.0253 143.692,70.6919 144,71.5C 145.579,69.9588 147.413,68.7922 149.5,68C 160.139,65.4479 170.806,64.4479 181.5,65C 179.699,65.3173 179.366,65.984 180.5,67C 183.699,68.0033 186.199,69.8366 188,72.5C 189.388,71.4464 190.888,71.2797 192.5,72C 199.312,75.8135 204.812,80.9801 209,87.5C 210.972,86.6948 212.472,85.3615 213.5,83.5C 211.96,82.4679 211.46,81.1346 212,79.5C 212.667,80.1667 213.333,80.8333 214,81.5C 215.789,79.1345 217.956,77.4679 220.5,76.5 Z"/></g>
<g><path style="opacity:1" fill="#1c1d1d" d="M 186.5,78.5 C 188.599,84.3036 186.599,87.6369 180.5,88.5C 177.274,87.5536 174.274,86.0536 171.5,84C 170.177,83.1841 169.511,82.0174 169.5,80.5C 169.414,79.5041 169.748,78.6708 170.5,78C 171.766,77.6905 172.933,77.1905 174,76.5C 174.333,77.1667 174.667,77.8333 175,78.5C 179.153,78.1717 182.987,78.1717 186.5,78.5 Z"/></g>
<g><path style="opacity:1" fill="#323433" d="M 186.5,78.5 C 182.987,78.1717 179.153,78.1717 175,78.5C 174.667,77.8333 174.333,77.1667 174,76.5C 172.933,77.1905 171.766,77.6905 170.5,78C 169.748,78.6708 169.414,79.5041 169.5,80.5C 167.857,73.3131 170.857,70.4798 178.5,72C 181.42,73.9461 184.087,76.1128 186.5,78.5 Z"/></g>
<g><path style="opacity:1" fill="#212122" d="M 223.5,75.5 C 225.017,75.5106 226.184,76.1772 227,77.5C 228.442,90.3992 225.776,102.399 219,113.5C 216.934,116.107 214.434,118.107 211.5,119.5C 210.034,118.653 209.2,117.32 209,115.5C 208.501,111.848 208.335,108.182 208.5,104.5C 209.563,98.6446 211.23,92.978 213.5,87.5C 215.557,83.7335 217.891,80.0668 220.5,76.5C 221.391,75.8902 222.391,75.5569 223.5,75.5 Z"/></g>
<g><path style="opacity:1" fill="#b3b4b8" d="M 223.5,75.5 C 224.946,74.3871 226.613,74.2204 228.5,75C 230.105,76.3603 231.605,77.8603 233,79.5C 233.315,93.2077 229.815,105.874 222.5,117.5C 220.033,119.991 217.033,121.324 213.5,121.5C 212.833,120.833 212.167,120.167 211.5,119.5C 214.434,118.107 216.934,116.107 219,113.5C 225.776,102.399 228.442,90.3992 227,77.5C 226.184,76.1772 225.017,75.5106 223.5,75.5 Z"/></g>
<g><path style="opacity:1" fill="#232323" d="M 292.5,75.5 C 293.885,76.6138 295.385,77.6138 297,78.5C 299.798,83.101 302.298,87.7676 304.5,92.5C 306.972,99.9519 307.972,107.619 307.5,115.5C 306.5,116.833 305.5,118.167 304.5,119.5C 303.078,119.291 301.745,118.791 300.5,118C 291.327,106.494 287.161,93.327 288,78.5C 288.589,76.1367 290.089,75.1367 292.5,75.5 Z"/></g>
<g><path style="opacity:1" fill="#cccdd1" d="M 208.5,104.5 C 208.335,108.182 208.501,111.848 209,115.5C 209.2,117.32 210.034,118.653 211.5,119.5C 212.167,120.167 212.833,120.833 213.5,121.5C 212.262,121.81 212.262,122.31 213.5,123C 216.466,123.895 219.133,123.395 221.5,121.5C 222.386,122.325 222.719,123.325 222.5,124.5C 216.833,129.666 210.166,132.666 202.5,133.5C 205.039,132.093 204.706,130.927 201.5,130C 195.757,129.593 190.09,130.093 184.5,131.5C 171.515,128.348 160.015,122.348 150,113.5C 149.601,113.728 149.435,114.062 149.5,114.5C 149.167,114.5 148.833,114.5 148.5,114.5C 144.167,112.167 140.833,108.833 138.5,104.5C 137.273,102.097 136.273,99.5972 135.5,97C 136,96.5 136.5,96 137,95.5C 147.634,107.41 160.467,116.244 175.5,122C 185.861,124.438 196.028,123.938 206,120.5C 206.774,115.012 207.607,109.679 208.5,104.5 Z"/></g>
<g><path style="opacity:1" fill="#d0d1d5" d="M 384.5,92.5 C 380.759,101.91 374.759,109.577 366.5,115.5C 365.833,115.833 365.167,116.167 364.5,116.5C 364.44,115.957 364.107,115.624 363.5,115.5C 359.48,117.626 355.48,120.46 351.5,124C 347.173,125.654 342.84,127.321 338.5,129C 333.548,129.388 328.715,130.221 324,131.5C 323.311,130.643 322.478,129.977 321.5,129.5C 316.772,130.187 311.939,130.187 307,129.5C 305.97,129.836 305.47,130.503 305.5,131.5C 303.181,131.008 301.181,130.008 299.5,128.5C 297.763,126.45 295.763,124.617 293.5,123C 296.428,123.456 299.428,123.456 302.5,123C 305.097,122.221 305.097,121.721 302.5,121.5C 303.167,120.833 303.833,120.167 304.5,119.5C 305.5,118.167 306.5,116.833 307.5,115.5C 309.096,117.788 311.763,119.621 315.5,121C 323.16,122.891 330.826,122.891 338.5,121C 352.83,116.085 365.33,108.252 376,97.5C 377.264,92.5706 380.264,89.2373 385,87.5C 384.981,89.1075 384.815,90.7741 384.5,92.5 Z"/></g>
<g><path style="opacity:1" fill="#bfc0c4" d="M 202.5,133.5 C 195.833,133.5 189.167,133.5 182.5,133.5C 181.448,133.351 180.448,133.517 179.5,134C 179.833,134.333 180.167,134.667 180.5,135C 178.257,148.737 176.59,162.571 175.5,176.5C 175.977,177.478 176.643,178.311 177.5,179C 175.19,179.497 172.857,179.663 170.5,179.5C 168.774,165.187 165.941,150.854 162,136.5C 161.24,132.775 161.407,129.108 162.5,125.5C 160.351,123.591 158.018,121.924 155.5,120.5C 154.564,119.026 153.23,118.026 151.5,117.5C 151.167,116.5 150.5,115.833 149.5,115.5C 149.5,115.167 149.5,114.833 149.5,114.5C 149.435,114.062 149.601,113.728 150,113.5C 160.015,122.348 171.515,128.348 184.5,131.5C 190.09,130.093 195.757,129.593 201.5,130C 204.706,130.927 205.039,132.093 202.5,133.5 Z"/></g>
<g><path style="opacity:1" fill="#eff0f4" d="M 321.5,159.5 C 316.781,159.629 312.448,160.962 308.5,163.5C 301.312,167.02 294.645,171.353 288.5,176.5C 280.876,183.289 273.376,190.289 266,197.5C 265.209,198.745 264.709,200.078 264.5,201.5C 262.747,204.146 261.747,207.146 261.5,210.5C 260.675,214.647 260.175,218.981 260,223.5C 258.538,225.988 257.538,228.655 257,231.5C 256.001,224.715 255.168,218.048 254.5,211.5C 254.768,209.901 254.434,208.568 253.5,207.5C 253.405,205.214 252.738,203.214 251.5,201.5C 250.588,199.405 249.421,197.405 248,195.5C 237.485,185.987 226.652,176.821 215.5,168C 211.14,165.82 206.807,163.653 202.5,161.5C 198.298,160.033 193.965,159.033 189.5,158.5C 211.99,157.167 234.823,156.5 258,156.5C 280.833,156.833 303.667,157.167 326.5,157.5C 324.709,158.17 323.042,158.837 321.5,159.5 Z"/></g>
<g><path style="opacity:1" fill="#bcbdc1" d="M 189.5,158.5 C 193.965,159.033 198.298,160.033 202.5,161.5C 201.294,162.88 201.627,164.047 203.5,165C 201.385,165.424 200.552,166.591 201,168.5C 206.03,172.177 210.863,176.177 215.5,180.5C 220.564,189.233 225.897,197.733 231.5,206C 229.646,207.29 229.313,208.79 230.5,210.5C 228.569,212.804 226.236,214.638 223.5,216C 219.779,216.62 216.112,217.453 212.5,218.5C 212.167,219.167 211.833,219.833 211.5,220.5C 204.985,221.115 198.652,222.448 192.5,224.5C 190.398,224.521 188.232,224.187 186,223.5C 185.333,224.167 184.667,224.833 184,225.5C 181.931,224.736 179.764,224.236 177.5,224C 172.603,221.442 168.603,217.775 165.5,213C 170.351,212.826 175.018,212.326 179.5,211.5C 180.5,211.5 181.5,211.5 182.5,211.5C 182.517,209.435 182.85,207.435 183.5,205.5C 184.575,206.562 185.575,206.562 186.5,205.5C 187.154,203.885 187.654,202.218 188,200.5C 188.169,186.327 188.669,172.327 189.5,158.5 Z"/></g>
<g><path style="opacity:1" fill="#bcbdc1" d="M 321.5,159.5 C 323.167,159.5 324.833,159.5 326.5,159.5C 326.333,173.171 326.5,186.837 327,200.5C 327.374,202.491 328.207,204.158 329.5,205.5C 332.096,206.095 333.763,207.762 334.5,210.5C 335.736,211.246 337.07,211.579 338.5,211.5C 343.017,212.166 347.683,212.833 352.5,213.5C 351.418,213.749 350.085,213.915 348.5,214C 348.018,217.01 346.018,219.177 342.5,220.5C 341.833,220.167 341.167,219.833 340.5,219.5C 340.213,222.671 338.546,224.671 335.5,225.5C 334.167,224.167 332.833,224.167 331.5,225.5C 330.184,222.972 329.017,222.972 328,225.5C 322.489,223.626 316.822,221.959 311,220.5C 309.274,221.576 307.441,221.743 305.5,221C 302.622,216.417 298.622,215.084 293.5,217C 290.308,216.154 287.474,214.654 285,212.5C 288.089,197.84 295.256,185.34 306.5,175C 309.044,172.95 311.711,171.117 314.5,169.5C 312.897,167.183 310.897,166.35 308.5,167C 309.171,166.014 309.171,164.847 308.5,163.5C 312.448,160.962 316.781,159.629 321.5,159.5 Z"/></g>
<g><path style="opacity:1" fill="#c2c3c7" d="M 364.5,116.5 C 363.205,117.488 361.872,118.488 360.5,119.5C 358.491,121.169 356.491,122.836 354.5,124.5C 354.833,125.167 355.167,125.833 355.5,126.5C 353.049,140.03 350.049,153.364 346.5,166.5C 346.745,170.922 346.745,175.255 346.5,179.5C 345.5,177.833 344.167,176.5 342.5,175.5C 341.833,176.833 341.167,178.167 340.5,179.5C 339.983,163.852 338.983,148.186 337.5,132.5C 335.585,132.216 333.919,132.549 332.5,133.5C 323.399,133.881 314.399,133.214 305.5,131.5C 305.47,130.503 305.97,129.836 307,129.5C 311.939,130.187 316.772,130.187 321.5,129.5C 322.478,129.977 323.311,130.643 324,131.5C 328.715,130.221 333.548,129.388 338.5,129C 342.84,127.321 347.173,125.654 351.5,124C 355.48,120.46 359.48,117.626 363.5,115.5C 364.107,115.624 364.44,115.957 364.5,116.5 Z"/></g>
<g><path style="opacity:1" fill="#f1f2f5" d="M 148.5,114.5 C 148.833,114.5 149.167,114.5 149.5,114.5C 149.5,114.833 149.5,115.167 149.5,115.5C 149.812,137.879 149.479,160.212 148.5,182.5C 145.903,186.034 143.57,189.7 141.5,193.5C 137.696,198.553 135.029,204.22 133.5,210.5C 130.497,218.463 131.33,226.13 136,233.5C 139.318,235.819 142.318,238.485 145,241.5C 149.167,242.667 153.333,243.833 157.5,245C 156.747,246.487 155.914,246.654 155,245.5C 153.312,246.325 153.145,247.325 154.5,248.5C 153.667,248.833 152.833,249.167 152,249.5C 148.879,248.171 145.713,247.338 142.5,247C 145.554,249.194 148.888,250.861 152.5,252C 150.432,252.687 148.432,252.52 146.5,251.5C 142.611,253.727 138.945,253.227 135.5,250C 131.667,246.5 127.833,243 124,239.5C 124.864,242.561 126.03,245.561 127.5,248.5C 112.014,229.842 107.847,208.842 115,185.5C 121.87,170.461 133.037,160.128 148.5,154.5C 148.5,141.167 148.5,127.833 148.5,114.5 Z"/></g>
<g><path style="opacity:1" fill="#f3f4f8" d="M 151.5,117.5 C 153.23,118.026 154.564,119.026 155.5,120.5C 157.085,138.846 158.918,157.179 161,175.5C 161.807,182.988 163.307,190.321 165.5,197.5C 165.292,199.85 164.125,201.516 162,202.5C 161.586,202.043 161.086,201.709 160.5,201.5C 159.571,202.689 159.238,204.022 159.5,205.5C 158.127,205.657 156.793,205.49 155.5,205C 154.624,203.414 153.624,201.914 152.5,200.5C 151.914,200.709 151.414,201.043 151,201.5C 150.191,173.054 150.358,145.054 151.5,117.5 Z"/></g>
<g><path style="opacity:1" fill="#dcdde1" d="M 149.5,115.5 C 150.5,115.833 151.167,116.5 151.5,117.5C 150.358,145.054 150.191,173.054 151,201.5C 151.414,201.043 151.914,200.709 152.5,200.5C 153.624,201.914 154.624,203.414 155.5,205C 156.793,205.49 158.127,205.657 159.5,205.5C 159.238,204.022 159.571,202.689 160.5,201.5C 161.086,201.709 161.586,202.043 162,202.5C 164.125,201.516 165.292,199.85 165.5,197.5C 163.307,190.321 161.807,182.988 161,175.5C 158.918,157.179 157.085,138.846 155.5,120.5C 158.018,121.924 160.351,123.591 162.5,125.5C 161.407,129.108 161.24,132.775 162,136.5C 165.941,150.854 168.774,165.187 170.5,179.5C 172.857,179.663 175.19,179.497 177.5,179C 176.643,178.311 175.977,177.478 175.5,176.5C 176.59,162.571 178.257,148.737 180.5,135C 180.167,134.667 179.833,134.333 179.5,134C 180.448,133.517 181.448,133.351 182.5,133.5C 182.823,157.212 182.49,180.878 181.5,204.5C 181.957,205.298 182.624,205.631 183.5,205.5C 182.85,207.435 182.517,209.435 182.5,211.5C 181.5,211.5 180.5,211.5 179.5,211.5C 173.158,211.666 166.825,211.5 160.5,211C 161.056,210.617 161.389,210.117 161.5,209.5C 162.598,208.399 162.765,207.066 162,205.5C 159.879,207.457 157.379,207.957 154.5,207C 153.601,205.348 152.601,203.848 151.5,202.5C 149.85,196.062 148.85,189.395 148.5,182.5C 149.479,160.212 149.812,137.879 149.5,115.5 Z"/></g>
<g><path style="opacity:1" fill="#f1f2f6" d="M 366.5,115.5 C 367.33,127.803 367.33,140.137 366.5,152.5C 400.482,169.149 411.316,195.482 399,231.5C 396.76,237.209 393.593,242.209 389.5,246.5C 389.66,244.801 389.494,243.134 389,241.5C 386.718,244.568 383.884,247.068 380.5,249C 378.433,249.536 376.599,249.036 375,247.5C 374.035,249.26 372.868,249.594 371.5,248.5C 375.344,246.078 379.01,243.411 382.5,240.5C 382.167,240.167 381.833,239.833 381.5,239.5C 380.084,241.139 378.417,241.973 376.5,242C 377.167,241.333 377.833,240.667 378.5,240C 377.262,240.077 376.262,239.911 375.5,239.5C 378.966,234.865 381.8,229.865 384,224.5C 384.871,218.468 384.038,212.802 381.5,207.5C 380.341,203.849 378.674,200.515 376.5,197.5C 373.911,191.985 370.578,186.985 366.5,182.5C 365.833,189.321 365.167,195.988 364.5,202.5C 364.44,201.957 364.107,201.624 363.5,201.5C 362.19,204.561 359.857,205.894 356.5,205.5C 356.891,202.162 355.724,201.162 353,202.5C 352.922,201.102 351.756,200.102 349.5,199.5C 350.615,198.402 350.615,197.235 349.5,196C 351.049,193.362 352.215,190.529 353,187.5C 355.435,164.81 357.935,142.143 360.5,119.5C 361.872,118.488 363.205,117.488 364.5,116.5C 365.167,116.167 365.833,115.833 366.5,115.5 Z"/></g>
<g><path style="opacity:1" fill="#c7c8cc" d="M 202.5,161.5 C 206.807,163.653 211.14,165.82 215.5,168C 226.652,176.821 237.485,185.987 248,195.5C 249.421,197.405 250.588,199.405 251.5,201.5C 250.7,210.464 246.367,216.964 238.5,221C 230.966,221.687 223.632,223.021 216.5,225C 215.874,225.75 215.374,226.584 215,227.5C 212.148,226.135 209.482,226.469 207,228.5C 205.238,228.056 205.405,227.556 207.5,227C 204.833,226.833 202.167,226.667 199.5,226.5C 188.568,229.55 177.902,229.05 167.5,225C 162.268,222.689 160.101,218.855 161,213.5C 160.667,213.833 160.333,214.167 160,214.5C 158.902,213.033 157.402,212.199 155.5,212C 154.177,211.184 153.511,210.017 153.5,208.5C 155.976,210.552 158.642,210.885 161.5,209.5C 161.389,210.117 161.056,210.617 160.5,211C 166.825,211.5 173.158,211.666 179.5,211.5C 175.018,212.326 170.351,212.826 165.5,213C 168.603,217.775 172.603,221.442 177.5,224C 179.764,224.236 181.931,224.736 184,225.5C 184.667,224.833 185.333,224.167 186,223.5C 188.232,224.187 190.398,224.521 192.5,224.5C 198.652,222.448 204.985,221.115 211.5,220.5C 211.833,219.833 212.167,219.167 212.5,218.5C 216.112,217.453 219.779,216.62 223.5,216C 226.236,214.638 228.569,212.804 230.5,210.5C 229.313,208.79 229.646,207.29 231.5,206C 225.897,197.733 220.564,189.233 215.5,180.5C 210.863,176.177 206.03,172.177 201,168.5C 200.552,166.591 201.385,165.424 203.5,165C 201.627,164.047 201.294,162.88 202.5,161.5 Z"/></g>
<g><path style="opacity:1" fill="#dadbdf" d="M 360.5,119.5 C 357.935,142.143 355.435,164.81 353,187.5C 352.215,190.529 351.049,193.362 349.5,196C 350.615,197.235 350.615,198.402 349.5,199.5C 351.756,200.102 352.922,201.102 353,202.5C 355.724,201.162 356.891,202.162 356.5,205.5C 359.857,205.894 362.19,204.561 363.5,201.5C 364.107,201.624 364.44,201.957 364.5,202.5C 362.522,207.401 359.022,208.734 354,206.5C 353.517,207.448 353.351,208.448 353.5,209.5C 353.5,210.167 353.5,210.833 353.5,211.5C 348.5,211.5 343.5,211.5 338.5,211.5C 337.07,211.579 335.736,211.246 334.5,210.5C 333.763,207.762 332.096,206.095 329.5,205.5C 331.901,205.332 333.901,203.832 335.5,201C 335.167,200.667 334.833,200.333 334.5,200C 336.711,198.418 338.045,196.251 338.5,193.5C 337.969,190.265 337.302,187.098 336.5,184C 336.833,183.667 337.167,183.333 337.5,183C 336.74,181.559 336.074,180.059 335.5,178.5C 335.646,176.194 335.979,173.861 336.5,171.5C 334.981,169.444 334.147,167.11 334,164.5C 333.83,153.992 333.33,143.659 332.5,133.5C 333.919,132.549 335.585,132.216 337.5,132.5C 338.983,148.186 339.983,163.852 340.5,179.5C 341.167,178.167 341.833,176.833 342.5,175.5C 344.167,176.5 345.5,177.833 346.5,179.5C 346.745,175.255 346.745,170.922 346.5,166.5C 350.049,153.364 353.049,140.03 355.5,126.5C 355.167,125.833 354.833,125.167 354.5,124.5C 356.491,122.836 358.491,121.169 360.5,119.5 Z"/></g>
<g><path style="opacity:1" fill="#eaebee" d="M 305.5,131.5 C 314.399,133.214 323.399,133.881 332.5,133.5C 333.33,143.659 333.83,153.992 334,164.5C 334.147,167.11 334.981,169.444 336.5,171.5C 335.979,173.861 335.646,176.194 335.5,178.5C 336.074,180.059 336.74,181.559 337.5,183C 337.167,183.333 336.833,183.667 336.5,184C 337.302,187.098 337.969,190.265 338.5,193.5C 338.045,196.251 336.711,198.418 334.5,200C 334.833,200.333 335.167,200.667 335.5,201C 333.901,203.832 331.901,205.332 329.5,205.5C 328.207,204.158 327.374,202.491 327,200.5C 326.5,186.837 326.333,173.171 326.5,159.5C 324.833,159.5 323.167,159.5 321.5,159.5C 323.042,158.837 324.709,158.17 326.5,157.5C 303.667,157.167 280.833,156.833 258,156.5C 234.823,156.5 211.99,157.167 189.5,158.5C 188.669,172.327 188.169,186.327 188,200.5C 187.654,202.218 187.154,203.885 186.5,205.5C 185.575,206.562 184.575,206.562 183.5,205.5C 182.624,205.631 181.957,205.298 181.5,204.5C 182.49,180.878 182.823,157.212 182.5,133.5C 189.167,133.5 195.833,133.5 202.5,133.5C 198.79,135.136 194.79,135.802 190.5,135.5C 190.174,139.884 190.508,144.217 191.5,148.5C 193.115,149.154 194.782,149.654 196.5,150C 236.833,150.667 277.167,150.667 317.5,150C 320.168,149.433 322.834,148.933 325.5,148.5C 325.5,144.167 325.5,139.833 325.5,135.5C 318.438,135.554 311.771,134.221 305.5,131.5 Z"/></g>
<g><path style="opacity:1" fill="#c7c8cc" d="M 308.5,163.5 C 309.171,164.847 309.171,166.014 308.5,167C 310.897,166.35 312.897,167.183 314.5,169.5C 311.711,171.117 309.044,172.95 306.5,175C 295.256,185.34 288.089,197.84 285,212.5C 287.474,214.654 290.308,216.154 293.5,217C 298.622,215.084 302.622,216.417 305.5,221C 307.441,221.743 309.274,221.576 311,220.5C 316.822,221.959 322.489,223.626 328,225.5C 329.017,222.972 330.184,222.972 331.5,225.5C 332.833,224.167 334.167,224.167 335.5,225.5C 338.546,224.671 340.213,222.671 340.5,219.5C 341.167,219.833 341.833,220.167 342.5,220.5C 346.018,219.177 348.018,217.01 348.5,214C 350.085,213.915 351.418,213.749 352.5,213.5C 347.683,212.833 343.017,212.166 338.5,211.5C 343.5,211.5 348.5,211.5 353.5,211.5C 354.707,212.189 356.041,212.355 357.5,212C 355.272,216.06 353.272,220.227 351.5,224.5C 337.535,228.01 323.202,229.51 308.5,229C 306.577,229.808 304.577,230.308 302.5,230.5C 293.412,228.019 284.079,226.519 274.5,226C 271.908,223.543 269.408,223.376 267,225.5C 265.639,222.367 264.806,219.033 264.5,215.5C 265.83,210.82 265.83,206.153 264.5,201.5C 264.709,200.078 265.209,198.745 266,197.5C 273.376,190.289 280.876,183.289 288.5,176.5C 294.645,171.353 301.312,167.02 308.5,163.5 Z"/></g>
<g><path style="opacity:1" fill="#cecfd3" d="M 148.5,182.5 C 148.85,189.395 149.85,196.062 151.5,202.5C 151.253,204.858 151.919,206.858 153.5,208.5C 153.511,210.017 154.177,211.184 155.5,212C 157.402,212.199 158.902,213.033 160,214.5C 160.333,214.167 160.667,213.833 161,213.5C 160.101,218.855 162.268,222.689 167.5,225C 177.902,229.05 188.568,229.55 199.5,226.5C 202.167,226.667 204.833,226.833 207.5,227C 205.405,227.556 205.238,228.056 207,228.5C 209.482,226.469 212.148,226.135 215,227.5C 215.374,226.584 215.874,225.75 216.5,225C 223.632,223.021 230.966,221.687 238.5,221C 246.367,216.964 250.7,210.464 251.5,201.5C 252.738,203.214 253.405,205.214 253.5,207.5C 253.831,214.863 253.497,222.197 252.5,229.5C 250.768,231.283 249.268,233.283 248,235.5C 237.991,232.616 227.824,232.283 217.5,234.5C 215.865,233.954 214.199,233.62 212.5,233.5C 211.251,231.864 209.584,230.697 207.5,230C 199.147,229.168 190.813,229.335 182.5,230.5C 186.361,234.236 191.027,236.236 196.5,236.5C 197.263,237.268 198.263,237.768 199.5,238C 195.305,238.068 191.139,237.568 187,236.5C 185.699,236.96 184.366,237.294 183,237.5C 175.5,236.816 168.333,234.983 161.5,232C 155.01,224.02 149.01,215.686 143.5,207C 144.097,205.111 144.431,203.278 144.5,201.5C 143.1,198.965 142.1,196.298 141.5,193.5C 143.57,189.7 145.903,186.034 148.5,182.5 Z"/></g>
<g><path style="opacity:1" fill="#85868a" d="M 151.5,202.5 C 152.601,203.848 153.601,205.348 154.5,207C 157.379,207.957 159.879,207.457 162,205.5C 162.765,207.066 162.598,208.399 161.5,209.5C 158.642,210.885 155.976,210.552 153.5,208.5C 151.919,206.858 151.253,204.858 151.5,202.5 Z"/></g>
<g><path style="opacity:1" fill="#d0d1d5" d="M 376.5,197.5 C 376.607,199.379 376.107,199.712 375,198.5C 373.458,203.884 371.791,209.217 370,214.5C 367.561,217.059 364.895,219.392 362,221.5C 361.51,222.793 361.343,224.127 361.5,225.5C 358.459,225.406 356.793,226.906 356.5,230C 354.099,232.062 351.433,233.729 348.5,235C 340.828,237.372 333.161,238.372 325.5,238C 330.721,237.458 330.721,236.624 325.5,235.5C 328.047,234.066 330.381,232.4 332.5,230.5C 323.776,229.09 315.109,229.257 306.5,231C 305.335,232.084 304.002,232.917 302.5,233.5C 301.614,234.325 301.281,235.325 301.5,236.5C 299.876,236.64 298.71,235.973 298,234.5C 290.501,234.832 283.167,234.832 276,234.5C 273.696,234.318 273.196,234.984 274.5,236.5C 272.865,237.681 271.198,237.681 269.5,236.5C 268.378,237.63 267.044,238.297 265.5,238.5C 263.684,236.589 262.517,234.256 262,231.5C 261.5,224.508 261.334,217.508 261.5,210.5C 261.747,207.146 262.747,204.146 264.5,201.5C 265.83,206.153 265.83,210.82 264.5,215.5C 264.806,219.033 265.639,222.367 267,225.5C 269.408,223.376 271.908,223.543 274.5,226C 284.079,226.519 293.412,228.019 302.5,230.5C 304.577,230.308 306.577,229.808 308.5,229C 323.202,229.51 337.535,228.01 351.5,224.5C 353.272,220.227 355.272,216.06 357.5,212C 356.041,212.355 354.707,212.189 353.5,211.5C 353.5,210.833 353.5,210.167 353.5,209.5C 359.863,211.482 363.53,209.149 364.5,202.5C 365.167,195.988 365.833,189.321 366.5,182.5C 370.578,186.985 373.911,191.985 376.5,197.5 Z"/></g>
<g><path style="opacity:1" fill="#87888c" d="M 364.5,202.5 C 363.53,209.149 359.863,211.482 353.5,209.5C 353.351,208.448 353.517,207.448 354,206.5C 359.022,208.734 362.522,207.401 364.5,202.5 Z"/></g>
<g><path style="opacity:1" fill="#e3e4e8" d="M 381.5,207.5 C 384.038,212.802 384.871,218.468 384,224.5C 381.8,229.865 378.966,234.865 375.5,239.5C 376.262,239.911 377.262,240.077 378.5,240C 377.833,240.667 377.167,241.333 376.5,242C 378.417,241.973 380.084,241.139 381.5,239.5C 381.833,239.833 382.167,240.167 382.5,240.5C 379.01,243.411 375.344,246.078 371.5,248.5C 372.868,249.594 374.035,249.26 375,247.5C 376.599,249.036 378.433,249.536 380.5,249C 383.884,247.068 386.718,244.568 389,241.5C 389.494,243.134 389.66,244.801 389.5,246.5C 386.812,251.188 383.145,254.855 378.5,257.5C 380.111,255.167 379.611,253.5 377,252.5C 361.546,259.023 345.379,262.023 328.5,261.5C 328.167,261.5 327.833,261.5 327.5,261.5C 327.5,259.167 327.5,256.833 327.5,254.5C 327.525,250.86 325.858,248.527 322.5,247.5C 321.737,246.732 320.737,246.232 319.5,246C 277.125,245.178 234.792,245.344 192.5,246.5C 192.062,246.565 191.728,246.399 191.5,246C 192.833,245.333 194.167,244.667 195.5,244C 211.5,243.667 227.5,243.333 243.5,243C 247.884,241.321 251.217,238.488 253.5,234.5C 254.497,226.862 254.831,219.196 254.5,211.5C 255.168,218.048 256.001,224.715 257,231.5C 257.538,228.655 258.538,225.988 260,223.5C 260.175,218.981 260.675,214.647 261.5,210.5C 261.334,217.508 261.5,224.508 262,231.5C 262.517,234.256 263.684,236.589 265.5,238.5C 266.771,240.934 268.771,242.434 271.5,243C 288.365,243.188 305.198,243.688 322,244.5C 333.514,243.916 345.014,243.083 356.5,242C 358.001,240.748 359.668,239.748 361.5,239C 359.956,238.71 358.623,238.044 357.5,237C 362.033,233.295 366.366,229.462 370.5,225.5C 371.244,224.009 371.91,222.509 372.5,221C 374.351,220.163 376.184,219.329 378,218.5C 378.667,216.5 379.333,214.5 380,212.5C 380.419,213.672 381.085,214.672 382,215.5C 381.917,212.881 381.75,210.214 381.5,207.5 Z"/></g>
<g><path style="opacity:1" fill="#dbdce0" d="M 376.5,197.5 C 378.674,200.515 380.341,203.849 381.5,207.5C 381.75,210.214 381.917,212.881 382,215.5C 381.085,214.672 380.419,213.672 380,212.5C 379.333,214.5 378.667,216.5 378,218.5C 376.184,219.329 374.351,220.163 372.5,221C 371.91,222.509 371.244,224.009 370.5,225.5C 366.366,229.462 362.033,233.295 357.5,237C 358.623,238.044 359.956,238.71 361.5,239C 359.668,239.748 358.001,240.748 356.5,242C 345.014,243.083 333.514,243.916 322,244.5C 305.198,243.688 288.365,243.188 271.5,243C 268.771,242.434 266.771,240.934 265.5,238.5C 267.044,238.297 268.378,237.63 269.5,236.5C 271.198,237.681 272.865,237.681 274.5,236.5C 273.196,234.984 273.696,234.318 276,234.5C 283.167,234.832 290.501,234.832 298,234.5C 298.71,235.973 299.876,236.64 301.5,236.5C 301.281,235.325 301.614,234.325 302.5,233.5C 304.002,232.917 305.335,232.084 306.5,231C 315.109,229.257 323.776,229.09 332.5,230.5C 330.381,232.4 328.047,234.066 325.5,235.5C 330.721,236.624 330.721,237.458 325.5,238C 333.161,238.372 340.828,237.372 348.5,235C 351.433,233.729 354.099,232.062 356.5,230C 356.793,226.906 358.459,225.406 361.5,225.5C 361.343,224.127 361.51,222.793 362,221.5C 364.895,219.392 367.561,217.059 370,214.5C 371.791,209.217 373.458,203.884 375,198.5C 376.107,199.712 376.607,199.379 376.5,197.5 Z"/></g>
<g><path style="opacity:1" fill="#e3e4e8" d="M 133.5,210.5 C 134.828,211.994 135.995,214.328 137,217.5C 141.816,220.251 145.65,224.084 148.5,229C 149.448,229.483 150.448,229.649 151.5,229.5C 151.351,230.552 151.517,231.552 152,232.5C 154.445,233.977 156.612,235.81 158.5,238C 155.955,237.199 153.288,236.866 150.5,237C 162.931,243.701 176.265,246.367 190.5,245C 188.167,245.333 185.833,245.667 183.5,246C 185.878,246.974 185.544,247.641 182.5,248C 183.833,248.333 185.167,248.667 186.5,249C 181.167,249.333 175.833,249.667 170.5,250C 174.833,250.333 179.167,250.667 183.5,251C 175.5,251.667 175.5,252.333 183.5,253C 173.743,253.643 164.077,253.31 154.5,252C 165.261,255.057 176.261,256.223 187.5,255.5C 187.5,257.5 187.5,259.5 187.5,261.5C 173.161,262.646 159.328,260.646 146,255.5C 144.351,256.786 143.185,258.453 142.5,260.5C 144.772,261.134 146.439,262.468 147.5,264.5C 139.408,261.088 132.742,255.755 127.5,248.5C 126.03,245.561 124.864,242.561 124,239.5C 127.833,243 131.667,246.5 135.5,250C 138.945,253.227 142.611,253.727 146.5,251.5C 148.432,252.52 150.432,252.687 152.5,252C 148.888,250.861 145.554,249.194 142.5,247C 145.713,247.338 148.879,248.171 152,249.5C 152.833,249.167 153.667,248.833 154.5,248.5C 153.145,247.325 153.312,246.325 155,245.5C 155.914,246.654 156.747,246.487 157.5,245C 153.333,243.833 149.167,242.667 145,241.5C 142.318,238.485 139.318,235.819 136,233.5C 131.33,226.13 130.497,218.463 133.5,210.5 Z"/></g>
<g><path style="opacity:1" fill="#dadbdf" d="M 141.5,193.5 C 142.1,196.298 143.1,198.965 144.5,201.5C 144.431,203.278 144.097,205.111 143.5,207C 149.01,215.686 155.01,224.02 161.5,232C 168.333,234.983 175.5,236.816 183,237.5C 184.366,237.294 185.699,236.96 187,236.5C 191.139,237.568 195.305,238.068 199.5,238C 198.263,237.768 197.263,237.268 196.5,236.5C 200.182,236.665 203.848,236.499 207.5,236C 209.744,235.95 211.411,235.117 212.5,233.5C 214.199,233.62 215.865,233.954 217.5,234.5C 227.824,232.283 237.991,232.616 248,235.5C 249.268,233.283 250.768,231.283 252.5,229.5C 253.497,222.197 253.831,214.863 253.5,207.5C 254.434,208.568 254.768,209.901 254.5,211.5C 254.831,219.196 254.497,226.862 253.5,234.5C 251.217,238.488 247.884,241.321 243.5,243C 227.5,243.333 211.5,243.667 195.5,244C 194.167,244.667 192.833,245.333 191.5,246C 191.728,246.399 192.062,246.565 192.5,246.5C 192.167,247.167 191.833,247.833 191.5,248.5C 189.738,249.262 188.738,250.596 188.5,252.5C 188.5,255.5 188.5,258.5 188.5,261.5C 188.167,261.5 187.833,261.5 187.5,261.5C 187.5,259.5 187.5,257.5 187.5,255.5C 176.261,256.223 165.261,255.057 154.5,252C 164.077,253.31 173.743,253.643 183.5,253C 175.5,252.333 175.5,251.667 183.5,251C 179.167,250.667 174.833,250.333 170.5,250C 175.833,249.667 181.167,249.333 186.5,249C 185.167,248.667 183.833,248.333 182.5,248C 185.544,247.641 185.878,246.974 183.5,246C 185.833,245.667 188.167,245.333 190.5,245C 176.265,246.367 162.931,243.701 150.5,237C 153.288,236.866 155.955,237.199 158.5,238C 156.612,235.81 154.445,233.977 152,232.5C 151.517,231.552 151.351,230.552 151.5,229.5C 150.448,229.649 149.448,229.483 148.5,229C 145.65,224.084 141.816,220.251 137,217.5C 135.995,214.328 134.828,211.994 133.5,210.5C 135.029,204.22 137.696,198.553 141.5,193.5 Z"/></g>
<g><path style="opacity:1" fill="#eaebef" d="M 212.5,233.5 C 211.411,235.117 209.744,235.95 207.5,236C 203.848,236.499 200.182,236.665 196.5,236.5C 191.027,236.236 186.361,234.236 182.5,230.5C 190.813,229.335 199.147,229.168 207.5,230C 209.584,230.697 211.251,231.864 212.5,233.5 Z"/></g>
<g><path style="opacity:1" fill="#c0c1c5" d="M 322.5,247.5 C 278.791,247.177 235.124,247.511 191.5,248.5C 191.833,247.833 192.167,247.167 192.5,246.5C 234.792,245.344 277.125,245.178 319.5,246C 320.737,246.232 321.737,246.732 322.5,247.5 Z"/></g>
<g><path style="opacity:1" fill="#cfd0d4" d="M 322.5,247.5 C 325.858,248.527 327.525,250.86 327.5,254.5C 326.532,256.607 326.198,258.941 326.5,261.5C 314.833,261.5 303.167,261.5 291.5,261.5C 291.5,259.5 291.5,257.5 291.5,255.5C 269.167,255.5 246.833,255.5 224.5,255.5C 224.5,257.5 224.5,259.5 224.5,261.5C 212.833,261.5 201.167,261.5 189.5,261.5C 189.81,258.287 189.477,255.287 188.5,252.5C 188.738,250.596 189.738,249.262 191.5,248.5C 235.124,247.511 278.791,247.177 322.5,247.5 Z"/></g>
<g><path style="opacity:1" fill="#7c7c7e" d="M 188.5,252.5 C 189.477,255.287 189.81,258.287 189.5,261.5C 201.322,262.495 213.322,262.828 225.5,262.5C 225.5,260.833 225.5,259.167 225.5,257.5C 226.167,257.5 226.5,257.833 226.5,258.5C 226.5,260.833 226.5,263.167 226.5,265.5C 226.167,266.167 225.833,266.833 225.5,267.5C 220.208,268.829 214.542,269.496 208.5,269.5C 202.833,269.333 197.167,269.167 191.5,269C 190.584,268.626 189.75,268.126 189,267.5C 188.505,265.527 188.338,263.527 188.5,261.5C 188.5,258.5 188.5,255.5 188.5,252.5 Z"/></g>
<g><path style="opacity:1" fill="#7b7b7e" d="M 327.5,254.5 C 327.5,256.833 327.5,259.167 327.5,261.5C 328.275,265.182 326.941,267.682 323.5,269C 318,269.167 312.5,269.333 307,269.5C 301.124,269.495 295.624,268.829 290.5,267.5C 289.218,264.064 289.218,260.731 290.5,257.5C 290.5,259.167 290.5,260.833 290.5,262.5C 302.678,262.828 314.678,262.495 326.5,261.5C 326.198,258.941 326.532,256.607 327.5,254.5 Z"/></g>
<g><path style="opacity:1" fill="#c5c6c9" d="M 378.5,257.5 C 373.97,262.013 368.637,265.346 362.5,267.5C 357.057,268.86 351.724,270.527 346.5,272.5C 287.488,273.83 228.488,273.83 169.5,272.5C 166.994,271.25 164.327,270.584 161.5,270.5C 156.142,269.834 151.475,267.834 147.5,264.5C 146.439,262.468 144.772,261.134 142.5,260.5C 143.185,258.453 144.351,256.786 146,255.5C 159.328,260.646 173.161,262.646 187.5,261.5C 187.5,263.167 187.5,264.833 187.5,266.5C 185.146,266.838 182.813,267.338 180.5,268C 183.244,268.803 185.911,269.803 188.5,271C 188.167,271.333 187.833,271.667 187.5,272C 238.5,272.667 289.5,272.667 340.5,272C 344.232,268.744 348.566,266.411 353.5,265C 348.5,264.667 343.5,264.333 338.5,264C 338.833,263.667 339.167,263.333 339.5,263C 335.644,262.823 331.977,262.323 328.5,261.5C 345.379,262.023 361.546,259.023 377,252.5C 379.611,253.5 380.111,255.167 378.5,257.5 Z"/></g>
<g><path style="opacity:1" fill="#b8b9bd" d="M 226.5,258.5 C 247.167,258.5 267.833,258.5 288.5,258.5C 288.5,260.833 288.5,263.167 288.5,265.5C 267.833,265.5 247.167,265.5 226.5,265.5C 226.5,263.167 226.5,260.833 226.5,258.5 Z"/></g>
<g><path style="opacity:1" fill="#8a8b8f" d="M 225.5,257.5 C 247.167,256.167 268.833,256.167 290.5,257.5C 289.218,260.731 289.218,264.064 290.5,267.5C 268.833,267.5 247.167,267.5 225.5,267.5C 225.833,266.833 226.167,266.167 226.5,265.5C 247.167,265.5 267.833,265.5 288.5,265.5C 288.5,263.167 288.5,260.833 288.5,258.5C 267.833,258.5 247.167,258.5 226.5,258.5C 226.5,257.833 226.167,257.5 225.5,257.5 Z"/></g>
<g><path style="opacity:1" fill="#a6a6aa" d="M 326.5,261.5 C 314.678,262.495 302.678,262.828 290.5,262.5C 290.5,260.833 290.5,259.167 290.5,257.5C 268.833,256.167 247.167,256.167 225.5,257.5C 225.5,259.167 225.5,260.833 225.5,262.5C 213.322,262.828 201.322,262.495 189.5,261.5C 201.167,261.5 212.833,261.5 224.5,261.5C 224.5,259.5 224.5,257.5 224.5,255.5C 246.833,255.5 269.167,255.5 291.5,255.5C 291.5,257.5 291.5,259.5 291.5,261.5C 303.167,261.5 314.833,261.5 326.5,261.5 Z"/></g>
<g><path style="opacity:1" fill="#afb0b3" d="M 187.5,261.5 C 187.833,261.5 188.167,261.5 188.5,261.5C 188.338,263.527 188.505,265.527 189,267.5C 189.75,268.126 190.584,268.626 191.5,269C 197.167,269.167 202.833,269.333 208.5,269.5C 214.542,269.496 220.208,268.829 225.5,267.5C 247.167,267.5 268.833,267.5 290.5,267.5C 295.624,268.829 301.124,269.495 307,269.5C 312.5,269.333 318,269.167 323.5,269C 326.941,267.682 328.275,265.182 327.5,261.5C 327.833,261.5 328.167,261.5 328.5,261.5C 331.977,262.323 335.644,262.823 339.5,263C 339.167,263.333 338.833,263.667 338.5,264C 343.5,264.333 348.5,264.667 353.5,265C 348.566,266.411 344.232,268.744 340.5,272C 289.5,272.667 238.5,272.667 187.5,272C 187.833,271.667 188.167,271.333 188.5,271C 185.911,269.803 183.244,268.803 180.5,268C 182.813,267.338 185.146,266.838 187.5,266.5C 187.5,264.833 187.5,263.167 187.5,261.5 Z"/></g>
<g><path style="opacity:0.966" fill="#fafafd" d="M 161.5,270.5 C 164.327,270.584 166.994,271.25 169.5,272.5C 164.025,273.489 158.358,273.822 152.5,273.5C 150.856,273.286 149.356,273.62 148,274.5C 146.403,306.142 146.07,337.808 147,369.5C 146.91,383.629 149.243,397.296 154,410.5C 154.814,412.282 155.981,413.782 157.5,415C 156.5,415.333 155.5,415.667 154.5,416C 155.337,417.011 155.67,418.178 155.5,419.5C 154.167,419.5 152.833,419.5 151.5,419.5C 151.657,418.127 151.49,416.793 151,415.5C 150.163,417.007 148.996,417.507 147.5,417C 143.297,413.101 139.797,408.601 137,403.5C 136.063,395.673 134.397,388.006 132,380.5C 131.171,345.262 131.338,310.095 132.5,275C 127.691,273.558 122.691,273.058 117.5,273.5C 115.5,273.5 113.5,273.5 111.5,273.5C 112.952,272.698 114.618,272.198 116.5,272C 132.199,271.414 147.866,271.414 163.5,272C 162.584,271.722 161.918,271.222 161.5,270.5 Z"/></g>
<g><path style="opacity:0.969" fill="#fafbfd" d="M 362.5,267.5 C 359.527,269.592 356.193,271.092 352.5,272C 368.88,271.516 385.214,271.35 401.5,271.5C 402.739,271.942 403.739,272.609 404.5,273.5C 402.833,273.5 401.167,273.5 399.5,273.5C 393.833,273.5 388.167,273.5 382.5,273.5C 382.579,274.93 382.246,276.264 381.5,277.5C 382.025,278.192 382.692,278.692 383.5,279C 382.941,279.725 382.608,280.558 382.5,281.5C 383.485,284.772 384.151,288.105 384.5,291.5C 383.697,322.154 383.197,352.821 383,383.5C 381.399,391.683 379.232,399.683 376.5,407.5C 375.325,407.281 374.325,407.614 373.5,408.5C 371.73,413.962 370.063,414.295 368.5,409.5C 367.719,410.729 367.219,412.062 367,413.5C 365.603,412.123 364.103,411.29 362.5,411C 365.238,400.309 367.072,389.476 368,378.5C 368.813,343.471 368.647,308.471 367.5,273.5C 362.167,273.5 356.833,273.5 351.5,273.5C 349.585,273.784 347.919,273.451 346.5,272.5C 351.724,270.527 357.057,268.86 362.5,267.5 Z"/></g>
<g><path style="opacity:1" fill="#eaebef" d="M 169.5,272.5 C 228.488,273.83 287.488,273.83 346.5,272.5C 347.919,273.451 349.585,273.784 351.5,273.5C 352.952,274.302 354.618,274.802 356.5,275C 355.833,275.333 355.167,275.667 354.5,276C 356.335,279.959 359.335,283.459 363.5,286.5C 363.069,287.293 362.735,288.127 362.5,289C 363.742,290.651 364.576,292.485 365,294.5C 365.333,301.833 365.667,309.167 366,316.5C 366.374,317.416 366.874,318.25 367.5,319C 366.737,328.437 366.07,337.937 365.5,347.5C 365.63,349.375 365.963,351.208 366.5,353C 363.879,363.138 362.546,373.305 362.5,383.5C 361.5,383.5 360.5,383.5 359.5,383.5C 359.511,385.547 359.844,387.547 360.5,389.5C 359.657,394.396 358.657,399.23 357.5,404C 357.375,406.609 358.042,408.942 359.5,411C 356.996,413.642 355.329,416.809 354.5,420.5C 351.23,422.438 348.897,425.104 347.5,428.5C 347.667,429.167 347.833,429.833 348,430.5C 351.723,430.572 355.557,430.239 359.5,429.5C 359.5,428.5 359.5,427.5 359.5,426.5C 362.272,426.78 364.772,426.113 367,424.5C 367.483,425.448 367.649,426.448 367.5,427.5C 369.655,427.628 371.655,427.128 373.5,426C 376.514,423.271 379.681,420.771 383,418.5C 384.421,415.991 386.088,413.657 388,411.5C 388.492,410.451 388.326,409.451 387.5,408.5C 391.346,403.464 394.346,397.964 396.5,392C 397.361,362.414 397.361,332.414 396.5,302C 397.186,295.174 397.853,288.341 398.5,281.5C 396.917,278.525 397.25,275.858 399.5,273.5C 401.167,273.5 402.833,273.5 404.5,273.5C 405.659,306.762 405.826,340.095 405,373.5C 404.547,390.312 400.381,405.978 392.5,420.5C 392.815,418.774 392.981,417.107 393,415.5C 390.56,416.274 389.227,417.94 389,420.5C 384.607,424.31 380.44,428.31 376.5,432.5C 369.727,433.356 363.393,435.522 357.5,439C 344.08,441.357 330.58,441.524 317,439.5C 315.175,439.943 313.342,440.277 311.5,440.5C 311.5,439.5 311.5,438.5 311.5,437.5C 306.167,438.167 300.833,438.833 295.5,439.5C 295.5,438.167 295.5,436.833 295.5,435.5C 267.44,434.902 239.44,435.568 211.5,437.5C 208.201,434.442 205.535,434.942 203.5,439C 183.12,443.658 163.453,441.824 144.5,433.5C 140.022,430.19 135.689,426.69 131.5,423C 124.552,413.383 119.385,402.883 116,391.5C 115.009,392.43 114.509,393.596 114.5,395C 115.077,397.137 115.41,399.304 115.5,401.5C 112.188,391.92 110.688,381.92 111,371.5C 110.188,338.804 110.355,306.137 111.5,273.5C 113.5,273.5 115.5,273.5 117.5,273.5C 117.36,275.124 118.027,276.29 119.5,277C 118.167,277.667 117.167,278.667 116.5,280C 117.403,309.773 117.403,339.607 116.5,369.5C 116.887,371.274 117.553,372.941 118.5,374.5C 117.367,379.831 117.533,385.164 119,390.5C 120.825,394.234 121.825,398.234 122,402.5C 122.667,401.167 123.333,401.167 124,402.5C 124.538,405.345 125.538,408.012 127,410.5C 127.718,409.549 128.551,409.383 129.5,410C 131.158,412.675 132.991,415.175 135,417.5C 135.333,416.5 135.667,415.5 136,414.5C 136.983,416.448 138.15,418.282 139.5,420C 142.236,420.422 144.902,420.422 147.5,420C 148.337,421.011 148.67,422.178 148.5,423.5C 153.716,425.373 158.716,426.706 163.5,427.5C 163.477,425.073 162.977,422.74 162,420.5C 158.642,416.167 156.809,411.501 156.5,406.5C 157.407,403.943 158.407,401.443 159.5,399C 157.667,398.5 156.5,397.333 156,395.5C 154.66,386.118 152.993,376.785 151,367.5C 149.015,342.833 149.015,318.166 151,293.5C 151.346,291.782 151.846,290.115 152.5,288.5C 146.005,286.613 146.338,285.613 153.5,285.5C 153.674,283.139 154.007,280.806 154.5,278.5C 153.5,278.5 152.5,278.5 151.5,278.5C 151.67,277.178 151.337,276.011 150.5,275C 151.416,274.722 152.082,274.222 152.5,273.5C 158.358,273.822 164.025,273.489 169.5,272.5 Z"/></g>
<g><path style="opacity:1" fill="#f0f1f5" d="M 117.5,273.5 C 122.691,273.058 127.691,273.558 132.5,275C 131.338,310.095 131.171,345.262 132,380.5C 134.397,388.006 136.063,395.673 137,403.5C 139.797,408.601 143.297,413.101 147.5,417C 148.996,417.507 150.163,417.007 151,415.5C 151.49,416.793 151.657,418.127 151.5,419.5C 152.833,419.5 154.167,419.5 155.5,419.5C 155.67,418.178 155.337,417.011 154.5,416C 155.5,415.667 156.5,415.333 157.5,415C 155.981,413.782 154.814,412.282 154,410.5C 149.243,397.296 146.91,383.629 147,369.5C 146.07,337.808 146.403,306.142 148,274.5C 149.356,273.62 150.856,273.286 152.5,273.5C 152.082,274.222 151.416,274.722 150.5,275C 151.337,276.011 151.67,277.178 151.5,278.5C 152.5,278.5 153.5,278.5 154.5,278.5C 154.007,280.806 153.674,283.139 153.5,285.5C 146.338,285.613 146.005,286.613 152.5,288.5C 151.846,290.115 151.346,291.782 151,293.5C 149.015,318.166 149.015,342.833 151,367.5C 152.993,376.785 154.66,386.118 156,395.5C 156.5,397.333 157.667,398.5 159.5,399C 158.407,401.443 157.407,403.943 156.5,406.5C 156.809,411.501 158.642,416.167 162,420.5C 162.977,422.74 163.477,425.073 163.5,427.5C 158.716,426.706 153.716,425.373 148.5,423.5C 148.67,422.178 148.337,421.011 147.5,420C 144.902,420.422 142.236,420.422 139.5,420C 138.15,418.282 136.983,416.448 136,414.5C 135.667,415.5 135.333,416.5 135,417.5C 132.991,415.175 131.158,412.675 129.5,410C 128.551,409.383 127.718,409.549 127,410.5C 125.538,408.012 124.538,405.345 124,402.5C 123.333,401.167 122.667,401.167 122,402.5C 121.825,398.234 120.825,394.234 119,390.5C 117.533,385.164 117.367,379.831 118.5,374.5C 117.553,372.941 116.887,371.274 116.5,369.5C 117.403,339.607 117.403,309.773 116.5,280C 117.167,278.667 118.167,277.667 119.5,277C 118.027,276.29 117.36,275.124 117.5,273.5 Z"/></g>
<g><path style="opacity:1" fill="#f0f1f5" d="M 351.5,273.5 C 356.833,273.5 362.167,273.5 367.5,273.5C 368.647,308.471 368.813,343.471 368,378.5C 367.072,389.476 365.238,400.309 362.5,411C 364.103,411.29 365.603,412.123 367,413.5C 367.219,412.062 367.719,410.729 368.5,409.5C 370.063,414.295 371.73,413.962 373.5,408.5C 374.325,407.614 375.325,407.281 376.5,407.5C 379.232,399.683 381.399,391.683 383,383.5C 383.197,352.821 383.697,322.154 384.5,291.5C 384.151,288.105 383.485,284.772 382.5,281.5C 382.608,280.558 382.941,279.725 383.5,279C 382.692,278.692 382.025,278.192 381.5,277.5C 382.246,276.264 382.579,274.93 382.5,273.5C 388.167,273.5 393.833,273.5 399.5,273.5C 397.25,275.858 396.917,278.525 398.5,281.5C 397.853,288.341 397.186,295.174 396.5,302C 397.361,332.414 397.361,362.414 396.5,392C 394.346,397.964 391.346,403.464 387.5,408.5C 388.326,409.451 388.492,410.451 388,411.5C 386.088,413.657 384.421,415.991 383,418.5C 379.681,420.771 376.514,423.271 373.5,426C 371.655,427.128 369.655,427.628 367.5,427.5C 367.649,426.448 367.483,425.448 367,424.5C 364.772,426.113 362.272,426.78 359.5,426.5C 359.5,427.5 359.5,428.5 359.5,429.5C 355.557,430.239 351.723,430.572 348,430.5C 347.833,429.833 347.667,429.167 347.5,428.5C 348.897,425.104 351.23,422.438 354.5,420.5C 355.329,416.809 356.996,413.642 359.5,411C 358.042,408.942 357.375,406.609 357.5,404C 358.657,399.23 359.657,394.396 360.5,389.5C 359.844,387.547 359.511,385.547 359.5,383.5C 360.5,383.5 361.5,383.5 362.5,383.5C 362.546,373.305 363.879,363.138 366.5,353C 365.963,351.208 365.63,349.375 365.5,347.5C 366.07,337.937 366.737,328.437 367.5,319C 366.874,318.25 366.374,317.416 366,316.5C 365.667,309.167 365.333,301.833 365,294.5C 364.576,292.485 363.742,290.651 362.5,289C 362.735,288.127 363.069,287.293 363.5,286.5C 359.335,283.459 356.335,279.959 354.5,276C 355.167,275.667 355.833,275.333 356.5,275C 354.618,274.802 352.952,274.302 351.5,273.5 Z"/></g>
<g><path style="opacity:1" fill="#e5e6ea" d="M 173.5,275.5 C 179.645,274.51 185.978,274.177 192.5,274.5C 192.733,277.909 194.4,280.409 197.5,282C 237.167,282.667 276.833,282.667 316.5,282C 320.648,280.801 323.648,278.301 325.5,274.5C 326.192,275.025 326.692,275.692 327,276.5C 329.554,275.229 332.387,274.562 335.5,274.5C 338.167,274.667 340.833,274.833 343.5,275C 337.825,275.464 337.492,276.131 342.5,277C 338.833,277.333 335.167,277.667 331.5,278C 335.486,278.499 339.486,278.666 343.5,278.5C 343.343,279.873 343.51,281.207 344,282.5C 347.327,286.332 350.493,290.332 353.5,294.5C 352.585,295.328 351.919,296.328 351.5,297.5C 355.232,312.524 356.398,327.857 355,343.5C 354.522,348.403 353.356,353.07 351.5,357.5C 351.919,358.672 352.585,359.672 353.5,360.5C 350.219,367.401 346.719,374.068 343,380.5C 338.764,385.059 333.598,387.393 327.5,387.5C 327.5,388.833 327.5,390.167 327.5,391.5C 318.111,392.43 309.111,394.764 300.5,398.5C 292.167,399.167 283.833,399.833 275.5,400.5C 274.68,402.111 273.346,402.778 271.5,402.5C 271.5,401.5 271.5,400.5 271.5,399.5C 252.768,399.058 234.101,399.725 215.5,401.5C 215.5,399.5 215.5,397.5 215.5,395.5C 210.167,395.167 204.833,394.833 199.5,394.5C 199.5,393.5 199.5,392.5 199.5,391.5C 195.774,391.823 192.107,391.489 188.5,390.5C 186.841,386.834 184.175,385.667 180.5,387C 179.663,385.989 179.33,384.822 179.5,383.5C 177.801,383.66 176.134,383.494 174.5,383C 172.935,377.971 170.101,373.804 166,370.5C 165.405,369.101 165.572,367.768 166.5,366.5C 164.533,363.988 164.2,361.321 165.5,358.5C 164.817,355.539 163.984,355.205 163,357.5C 162.219,356.271 161.719,354.938 161.5,353.5C 162.327,350.217 162.66,346.884 162.5,343.5C 161.5,343.5 160.5,343.5 159.5,343.5C 159.5,332.833 159.5,322.167 159.5,311.5C 160.5,311.5 161.5,311.5 162.5,311.5C 162.095,303.124 163.595,295.124 167,287.5C 167.333,288.5 167.667,289.5 168,290.5C 169.226,287.048 170.726,283.715 172.5,280.5C 172.291,279.914 171.957,279.414 171.5,279C 174.833,278.667 178.167,278.333 181.5,278C 177.833,277.667 174.167,277.333 170.5,277C 173.833,276.667 177.167,276.333 180.5,276C 178.19,275.503 175.857,275.337 173.5,275.5 Z"/></g>
<g><path style="opacity:1" fill="#bfebd4" d="M 255.5,294.5 C 259.24,293.68 261.573,295.013 262.5,298.5C 262.61,300.374 261.944,301.874 260.5,303C 251.982,304.267 250.315,301.434 255.5,294.5 Z"/></g>
<g><path style="opacity:1" fill="#87f3b4" d="M 255.5,296.5 C 260.159,296.015 261.492,297.848 259.5,302C 258.207,302.49 256.873,302.657 255.5,302.5C 255.5,300.5 255.5,298.5 255.5,296.5 Z"/></g>
<g><path style="opacity:1" fill="#e3e4e8" d="M 376.5,432.5 C 372.863,435.325 369.197,438.158 365.5,441C 354.06,444.138 342.393,446.472 330.5,448C 309.456,448.975 288.456,448.475 267.5,446.5C 240.981,447.692 214.481,448.359 188,448.5C 186.342,448.325 185.009,447.658 184,446.5C 182.6,447.116 181.1,447.449 179.5,447.5C 174.837,446.668 170.17,445.834 165.5,445C 158.993,442.41 152.327,440.41 145.5,439C 139.229,433.908 133.396,429.075 128,424.5C 127.536,425.094 127.369,425.761 127.5,426.5C 121.222,419.372 117.222,411.039 115.5,401.5C 115.41,399.304 115.077,397.137 114.5,395C 114.509,393.596 115.009,392.43 116,391.5C 119.385,402.883 124.552,413.383 131.5,423C 135.689,426.69 140.022,430.19 144.5,433.5C 163.453,441.824 183.12,443.658 203.5,439C 205.535,434.942 208.201,434.442 211.5,437.5C 239.44,435.568 267.44,434.902 295.5,435.5C 295.5,436.833 295.5,438.167 295.5,439.5C 300.833,438.833 306.167,438.167 311.5,437.5C 311.5,438.5 311.5,439.5 311.5,440.5C 313.342,440.277 315.175,439.943 317,439.5C 330.58,441.524 344.08,441.357 357.5,439C 363.393,435.522 369.727,433.356 376.5,432.5 Z"/></g>
<g><path style="opacity:1" fill="#dadbdf" d="M 392.5,420.5 C 387.603,429.064 381.27,436.397 373.5,442.5C 373.539,441.244 373.039,440.244 372,439.5C 365.746,442.866 359.079,446.199 352,449.5C 342.417,450.641 332.584,451.807 322.5,453C 277.833,453.667 233.167,453.667 188.5,453C 183.215,451.974 177.882,451.307 172.5,451C 164.107,448.497 155.774,445.997 147.5,443.5C 147.167,443.667 146.833,443.833 146.5,444C 147.381,444.708 148.047,445.542 148.5,446.5C 139.901,441.569 132.901,434.903 127.5,426.5C 127.369,425.761 127.536,425.094 128,424.5C 133.396,429.075 139.229,433.908 145.5,439C 152.327,440.41 158.993,442.41 165.5,445C 170.17,445.834 174.837,446.668 179.5,447.5C 181.1,447.449 182.6,447.116 184,446.5C 185.009,447.658 186.342,448.325 188,448.5C 214.481,448.359 240.981,447.692 267.5,446.5C 288.456,448.475 309.456,448.975 330.5,448C 342.393,446.472 354.06,444.138 365.5,441C 369.197,438.158 372.863,435.325 376.5,432.5C 380.44,428.31 384.607,424.31 389,420.5C 389.227,417.94 390.56,416.274 393,415.5C 392.981,417.107 392.815,418.774 392.5,420.5 Z"/></g>
<g><path style="opacity:1" fill="#cfcfd3" d="M 373.5,442.5 C 356.054,455.146 336.387,461.312 314.5,461C 276.167,461.667 237.833,461.667 199.5,461C 185.69,460.546 172.357,457.879 159.5,453C 155.44,451.311 151.773,449.144 148.5,446.5C 148.047,445.542 147.381,444.708 146.5,444C 146.833,443.833 147.167,443.667 147.5,443.5C 155.774,445.997 164.107,448.497 172.5,451C 177.882,451.307 183.215,451.974 188.5,453C 233.167,453.667 277.833,453.667 322.5,453C 332.584,451.807 342.417,450.641 352,449.5C 359.079,446.199 365.746,442.866 372,439.5C 373.039,440.244 373.539,441.244 373.5,442.5 Z"/></g>
</svg>
